<?xml version="1.0" standalone="no"?>
<!DOCTYPE svg PUBLIC "-//W3C//DTD SVG 20010904//EN"
 "http://www.w3.org/TR/2001/REC-SVG-20010904/DTD/svg10.dtd">
<svg version="1.0" xmlns="http://www.w3.org/2000/svg"
 width="1280.000000pt" height="960.000000pt" viewBox="0 0 1280.000000 960.000000"
 preserveAspectRatio="xMidYMid meet">

<g transform="translate(0.000000,960.000000) scale(0.100000,-0.100000)"
fill="#000000" stroke="none">
<path d="M0 6071 l0 -3529 107 23 c60 13 120 28 135 34 25 9 29 8 42 -17 8
-15 23 -36 35 -46 11 -10 32 -38 46 -61 l24 -43 53 13 c29 7 168 43 308 80
398 105 1174 305 1185 305 16 0 1 -16 -16 -17 -21 -2 -41 -24 -66 -72 -16 -29
-16 -29 5 -33 27 -6 -367 -126 -573 -175 -33 -8 -89 -23 -125 -33 -36 -11 -92
-26 -125 -34 -33 -8 -85 -22 -115 -30 -30 -9 -122 -34 -204 -55 -137 -36 -151
-38 -165 -23 -15 14 -14 15 2 9 12 -5 17 -1 17 11 0 12 -13 23 -36 31 -27 10
-33 16 -23 22 18 11 10 11 -51 -2 -47 -10 -51 -13 -45 -33 4 -11 15 -50 25
-86 10 -36 25 -82 34 -103 9 -21 21 -61 26 -90 6 -29 19 -75 31 -104 l21 -52
31 14 c18 7 100 34 182 60 83 26 164 53 180 60 17 7 53 21 80 32 39 15 51 25
53 44 7 63 10 66 79 88 36 12 74 21 83 21 9 0 20 3 24 7 3 4 13 8 20 9 8 1 38
8 68 14 29 7 71 14 93 15 22 2 41 8 43 14 5 15 32 1 33 -18 0 -13 2 -14 7 -1
3 9 10 -2 17 -30 11 -46 13 -47 95 -64 24 -5 26 -10 28 -66 2 -50 -1 -62 -15
-67 -10 -3 -25 -12 -33 -19 -8 -7 -18 -13 -22 -13 -5 -1 -14 -1 -20 -2 -7 0
-4 -4 7 -8 20 -8 20 -8 -1 -15 -14 -4 -21 -15 -21 -31 0 -14 4 -25 10 -25 5 0
7 -13 4 -29 -5 -23 -2 -31 11 -34 9 -2 4 -3 -11 -1 -18 2 -26 0 -21 -7 3 -6
-1 -10 -12 -9 -35 4 -44 0 -55 -24 -8 -16 -22 -26 -46 -29 -57 -10 -88 -47
-38 -47 14 0 25 -4 25 -9 0 -4 -14 -7 -31 -5 l-30 4 7 -130 c4 -71 7 -141 8
-156 1 -30 -27 -51 -106 -77 -23 -9 -90 -36 -148 -60 -58 -25 -131 -55 -163
-67 -31 -12 -57 -25 -57 -30 0 -5 -6 -7 -14 -4 -8 3 -16 1 -20 -4 -3 -5 0 -9
7 -9 7 0 23 -3 37 -6 14 -4 19 -4 13 -1 -10 4 -10 9 1 20 19 18 26 18 26 -2 0
-8 5 -12 10 -9 8 5 7 11 -1 21 -7 9 -8 14 -1 14 6 0 14 -5 17 -10 3 -6 12 -10
18 -10 7 0 3 7 -7 15 -20 15 -20 15 0 15 11 0 25 -5 32 -12 9 -9 16 -8 30 5
10 9 26 17 35 17 10 0 34 9 54 20 21 11 43 20 49 20 7 0 51 16 98 36 79 33
115 39 90 15 -5 -5 -94 -44 -199 -86 -104 -42 -244 -100 -310 -127 -121 -51
-400 -165 -705 -287 l-165 -66 -3 -418 -2 -417 247 1 c140 1 237 4 223 9 l-25
8 25 0 c14 1 48 -3 75 -7 33 -6 57 -5 70 2 17 9 9 13 -50 22 l-70 11 34 18
c28 15 47 17 110 11 l76 -7 85 48 c47 26 110 60 140 77 30 16 68 38 83 49 15
11 35 17 43 14 8 -3 12 -1 9 4 -3 5 7 15 22 22 15 7 39 19 53 28 14 9 34 20
45 23 20 7 20 7 1 -8 -11 -8 -15 -15 -9 -15 13 0 45 35 38 42 -3 3 1 8 10 12
11 4 14 2 10 -7 -4 -6 -1 -5 7 3 21 25 87 60 93 49 4 -5 1 -9 -4 -9 -19 0 -12
-20 7 -20 13 -1 11 -4 -8 -16 -14 -8 -17 -13 -8 -10 19 6 35 -10 16 -16 -16
-6 -19 -38 -3 -38 7 0 25 -16 41 -35 15 -19 34 -35 41 -35 7 0 13 -8 13 -19 0
-38 26 -45 159 -45 71 1 106 -2 81 -5 -45 -6 -45 -6 25 -14 181 -18 272 -9
500 51 130 35 295 36 425 3 47 -11 98 -21 113 -21 16 0 26 -3 24 -7 -3 -5 34
-9 81 -11 47 -2 92 -8 99 -14 9 -7 13 -7 13 1 0 6 5 11 10 11 7 0 7 -6 0 -20
-10 -19 -8 -20 39 -20 41 0 49 -3 44 -15 -4 -13 2 -16 35 -14 31 2 39 6 31 15
-7 9 7 13 55 19 36 3 69 4 73 2 4 -3 52 -8 106 -12 54 -4 112 -11 129 -16 17
-4 34 -6 39 -4 4 3 10 1 14 -5 4 -6 11 -8 16 -4 5 3 15 1 22 -4 14 -11 176
-29 337 -37 127 -7 182 -14 176 -24 -6 -10 79 -12 693 -17 503 -4 578 -3 606
10 34 17 50 40 38 58 -3 7 -1 8 5 4 7 -4 12 -15 12 -24 0 -12 5 -9 18 11 10
15 22 24 27 20 4 -5 5 -2 1 5 -10 17 21 41 52 42 12 0 22 6 22 13 0 17 33 44
49 39 7 -2 23 6 37 19 13 12 27 19 30 16 4 -4 12 0 18 8 9 13 15 13 38 3 16
-7 28 -18 28 -24 0 -22 72 3 96 33 13 15 23 32 24 37 0 4 9 6 20 3 16 -4 20 0
20 19 0 15 6 24 15 24 10 0 15 10 15 27 0 30 68 100 107 109 15 4 23 14 23 29
0 26 28 54 56 56 46 5 95 -2 89 -11 -3 -5 0 -10 8 -10 8 0 23 -8 35 -18 l21
-18 -21 -13 c-15 -9 -23 -10 -28 -2 -7 12 -30 -29 -30 -54 0 -8 -5 -15 -11
-15 -14 0 -39 -25 -39 -39 0 -6 -9 -11 -20 -11 -11 0 -29 -5 -39 -12 -14 -9
-31 -9 -65 -1 -37 8 -46 8 -46 -3 0 -8 11 -14 28 -15 23 0 22 -2 -13 -13 -22
-6 -40 -14 -40 -17 0 -16 57 -70 69 -66 8 3 20 -1 26 -9 8 -8 30 -14 56 -14
31 0 44 -4 44 -14 0 -8 -6 -17 -12 -19 -7 -3 -1 -6 15 -6 15 -1 27 -5 27 -10
0 -11 39 -26 46 -18 3 2 -2 12 -11 21 -14 14 -4 15 119 12 132 -4 135 -3 138
18 l3 21 20 -22 c11 -13 25 -23 31 -23 7 0 14 -5 16 -11 2 -6 23 -11 46 -12
23 -1 42 -6 42 -11 0 -5 23 -6 50 -4 28 3 53 2 55 -2 2 -4 39 -7 82 -6 59 1
89 7 125 25 35 17 67 23 132 25 47 1 86 0 86 -4 0 -25 220 -28 378 -4 23 3 42
2 42 -3 0 -16 65 -33 114 -29 31 2 49 -1 52 -9 6 -15 49 -8 65 11 6 8 20 14
30 14 11 0 19 5 19 10 0 6 11 10 25 10 15 0 25 6 25 15 0 8 16 19 37 24 47 14
56 14 48 1 -8 -12 39 -32 59 -24 8 3 17 1 21 -5 8 -14 55 -14 55 -1 0 6 5 10
10 10 23 0 7 -20 -22 -29 l-33 -9 30 0 c46 1 89 12 87 23 -1 6 10 13 25 16 16
4 40 10 56 13 19 5 27 13 27 27 0 20 4 21 41 15 32 -5 46 -3 61 11 15 14 23
15 38 5 14 -8 20 -8 22 0 3 7 26 11 63 10 42 -1 64 3 77 15 13 11 18 12 18 3
0 -10 3 -10 15 0 8 7 12 17 9 22 -3 5 2 18 12 29 13 14 25 18 45 14 15 -4 38
-1 51 6 13 7 35 12 50 11 15 -1 29 2 33 8 3 5 16 10 28 10 20 0 138 75 145 92
2 4 12 8 23 8 10 0 26 11 35 25 10 15 25 24 42 25 60 1 98 5 109 13 7 4 39 9
71 10 44 1 67 -4 95 -21 30 -17 37 -19 37 -6 0 8 4 12 10 9 5 -3 15 5 22 19
12 28 24 33 31 14 4 -10 8 -9 16 2 9 13 12 12 25 -5 12 -17 17 -18 40 -7 37
17 51 16 36 -3 -11 -13 -8 -15 14 -15 20 0 26 4 24 18 -2 10 3 17 12 17 8 0
20 4 27 8 6 4 14 1 16 -5 3 -7 6 -3 6 10 1 14 10 26 26 32 18 7 25 17 25 35 0
14 -4 25 -10 25 -5 0 -10 5 -10 11 0 5 5 7 10 4 12 -7 13 30 4 127 -6 58 -10
67 -31 77 -22 10 -24 16 -18 49 3 20 7 60 8 87 l2 50 45 0 45 0 5 -105 c4 -90
8 -110 28 -134 12 -16 22 -42 22 -57 0 -16 5 -29 10 -29 6 0 10 -5 10 -11 0
-5 -4 -7 -10 -4 -6 4 -11 -13 -12 -42 -1 -54 -1 -57 6 -133 3 -30 3 -49 0 -42
-6 13 -50 17 -58 4 -10 -17 7 -52 25 -52 11 0 19 -7 19 -15 0 -8 -7 -15 -16
-15 -14 0 -15 -9 -10 -67 16 -162 45 -290 69 -294 25 -5 33 -4 40 6 5 5 5 -14
2 -42 l-7 -53 32 0 31 0 -7 73 c-3 39 -9 74 -11 77 -3 3 -11 -4 -19 -14 -12
-17 -14 -17 -19 -3 -4 8 -2 35 3 59 6 24 10 34 11 22 1 -11 8 -29 17 -40 15
-18 15 -18 10 6 -20 80 -20 81 3 87 18 5 21 11 16 42 l-5 36 20 -45 c41 -91
39 -88 39 -45 1 50 13 36 34 -40 26 -95 28 -114 17 -134 -5 -11 -7 -33 -4 -50
l6 -31 99 0 99 0 1 43 c1 23 5 53 9 67 6 18 8 7 9 -42 l1 -68 141 0 140 0 -5
318 c-3 174 -8 487 -11 694 -4 298 -8 385 -20 419 -12 34 -13 47 -3 70 9 21
16 25 25 17 16 -13 17 -15 -6 64 -11 37 -23 97 -26 134 -7 63 -7 67 11 60 11
-5 48 -19 84 -32 92 -35 130 -53 131 -64 1 -6 2 -16 3 -22 0 -7 10 -14 21 -16
11 -2 24 -8 29 -12 5 -5 19 -4 31 2 35 16 116 -32 145 -85 13 -23 75 -118 139
-212 64 -93 130 -197 147 -230 17 -33 46 -89 66 -125 19 -36 78 -148 131 -250
52 -102 127 -246 166 -320 40 -74 103 -197 141 -272 l70 -138 460 0 460 0 0
4800 0 4800 -1035 0 -1034 0 4 -167 c2 -93 7 -343 10 -558 3 -214 8 -493 10
-620 3 -126 7 -369 9 -540 3 -170 7 -449 11 -620 3 -170 8 -449 10 -620 2
-170 7 -356 10 -412 3 -56 7 -243 10 -415 2 -172 6 -401 9 -508 3 -107 8 -411
11 -675 4 -264 8 -559 11 -655 8 -352 14 -609 19 -760 2 -85 7 -252 10 -370 2
-118 7 -278 10 -355 3 -77 6 -196 7 -265 0 -88 5 -131 14 -145 18 -25 18 -35
0 -35 -31 0 -32 6 -39 280 -3 96 -7 254 -10 350 -6 207 -17 653 -22 900 -2 96
-6 279 -9 405 -3 127 -8 352 -10 500 -5 293 -5 282 -5 323 1 70 -8 567 -10
567 -3 0 -7 150 -15 580 -3 176 -8 379 -10 450 -2 72 -6 312 -9 535 -3 223 -8
549 -11 725 -14 841 -16 981 -18 1272 -2 171 -6 315 -10 318 -4 4 -3 16 3 27
5 10 7 23 3 29 -4 6 -7 112 -7 235 l-1 224 -32 0 c-29 0 -33 -3 -37 -32 l-3
-33 -8 33 -9 32 -194 0 -195 0 6 -362 c4 -200 11 -741 17 -1203 5 -462 11
-887 14 -945 2 -58 7 -316 10 -575 6 -574 16 -956 24 -951 3 2 7 -330 8 -737
0 -408 4 -807 8 -886 5 -117 4 -142 -7 -139 -10 4 -14 39 -16 146 -1 78 -6
142 -10 142 -4 0 -6 -56 -4 -125 2 -69 0 -125 -5 -125 -4 0 -16 12 -26 25 -16
22 -18 91 -32 872 -7 466 -19 1285 -25 1818 -6 534 -13 1026 -15 1095 -7 233
-24 1073 -31 1513 l-6 437 -195 0 -195 0 7 -367 c3 -203 10 -566 16 -807 8
-370 8 -442 -4 -453 -18 -18 -173 -46 -213 -38 -21 4 -35 1 -44 -10 -7 -8 -18
-15 -24 -15 -6 0 -4 5 4 10 19 12 5 13 -115 0 -132 -13 -393 -38 -525 -50 -63
-6 -151 -15 -195 -20 -44 -6 -260 -28 -480 -50 -439 -43 -580 -58 -640 -65
-22 -2 -64 -7 -94 -10 -29 -3 -58 -8 -63 -11 -5 -3 -43 -8 -86 -10 -42 -2 -88
-7 -102 -11 -14 -3 -54 -8 -90 -10 -36 -2 -94 -7 -130 -12 -36 -5 -110 -12
-165 -16 -143 -9 -135 -20 -142 205 -19 673 -21 705 -20 246 2 -310 -1 -440
-9 -443 -13 -4 -18 182 -36 1215 l-12 722 -169 0 -170 0 7 -377 c4 -208 9
-625 12 -926 l4 -549 42 -84 c34 -70 41 -96 44 -156 4 -81 -6 -67 -26 34 -23
117 -117 226 -250 287 l-45 21 0 87 c0 49 -6 442 -14 875 l-15 788 -3008 0
-3008 0 0 -3529z m3475 3509 c3 -5 1 -10 -4 -10 -6 0 -11 5 -11 10 0 6 2 10 4
10 3 0 8 -4 11 -10z m6319 -430 c12 -811 15 -1198 6 -995 -9 239 -24 1422 -18
1415 3 -3 8 -192 12 -420z m-6009 354 c16 -7 45 -54 45 -74 0 -21 -20 1 -21
23 l0 22 -9 -22 c-5 -13 -16 -23 -25 -23 -18 0 -19 12 -3 28 9 9 9 15 0 24
-22 22 -16 33 13 22z m348 -22 c34 -30 47 -73 47 -156 1 -51 6 -90 15 -106 8
-14 14 -47 15 -73 0 -39 -3 -48 -16 -45 -8 2 -14 7 -14 12 1 5 -2 12 -7 15 -4
3 -21 21 -38 40 -25 28 -26 32 -8 22 39 -20 38 -12 -5 30 -23 22 -40 45 -36
51 4 5 1 14 -6 18 -8 5 -13 40 -14 109 -1 56 1 104 3 107 7 7 44 -7 64 -24z
m6517 14 c0 -8 -4 -18 -10 -21 -5 -3 -10 3 -10 14 0 12 5 21 10 21 6 0 10 -6
10 -14z m2 -260 c1 -102 -2 -189 -5 -193 -9 -8 -9 -12 -9 202 0 201 0 190 7
183 3 -3 6 -89 7 -192z m-7119 137 c-7 -2 -19 -2 -25 0 -7 3 -2 5 12 5 14 0
19 -2 13 -5z m564 -249 c-3 -3 -12 -4 -19 -1 -8 3 -5 6 6 6 11 1 17 -2 13 -5z
m312 -50 c36 -18 51 -41 51 -78 0 -17 6 -26 16 -26 8 0 12 -4 9 -10 -10 -16
-42 -12 -49 6 -3 9 -6 28 -6 44 0 30 -31 72 -38 51 -6 -19 -22 -12 -22 9 0 24
-1 24 39 4z m6246 -105 c-6 -19 -9 -20 -16 -6 -11 20 0 52 13 39 6 -6 7 -20 3
-33z m-6195 -78 c0 -34 -25 -66 -58 -76 -20 -6 -23 -4 -20 12 2 10 9 17 15 16
7 -2 20 15 29 37 21 47 34 51 34 11z m220 -72 c22 -31 53 -86 69 -122 l29 -65
88 18 88 18 31 -25 c16 -14 82 -74 145 -133 215 -201 424 -381 437 -376 7 3
13 -1 13 -8 0 -17 151 -149 272 -238 l51 -36 -49 -7 c-137 -19 -207 -34 -223
-49 -10 -9 -32 -16 -49 -16 -20 0 -37 -8 -48 -22 -11 -16 -15 -17 -11 -5 4 11
1 17 -8 17 -8 0 -15 -4 -15 -10 0 -5 -9 -10 -19 -10 -30 0 -132 -104 -145
-147 -6 -17 -3 -23 8 -23 9 0 16 -4 16 -9 0 -11 -18 -17 -85 -26 -69 -9 -74
-15 -61 -70 10 -45 11 -45 53 -45 23 0 45 -5 49 -11 3 -6 17 -8 30 -5 13 4 32
2 41 -3 29 -15 103 -32 113 -26 5 3 11 1 14 -4 3 -4 37 -6 76 -3 53 3 75 1 94
-11 21 -14 36 -15 98 -7 40 5 84 10 97 10 l24 0 -7 -176 c-5 -135 -10 -181
-22 -200 -9 -13 -21 -24 -27 -24 -6 0 -19 -7 -29 -17 -16 -14 -18 -33 -18
-138 0 -117 1 -123 28 -158 15 -19 37 -40 50 -46 19 -9 22 -18 22 -74 0 -60 2
-65 28 -77 15 -7 47 -14 72 -16 25 -1 74 -5 110 -9 48 -4 85 0 140 14 55 14
77 16 82 7 4 -6 8 -123 8 -260 l0 -249 153 7 c83 4 155 11 160 15 4 4 2 281
-4 615 -8 423 -9 610 -1 618 7 7 12 -9 16 -53 6 -69 16 -696 16 -996 0 -162 2
-183 16 -183 13 0 15 7 11 33 -3 17 -9 291 -13 608 -6 558 -6 577 12 587 15 9
15 12 4 13 -8 0 -2 5 14 9 24 8 142 19 346 35 25 2 128 11 230 19 102 8 199
15 215 14 37 -1 87 6 101 15 6 3 53 8 105 11 97 5 225 22 242 33 6 3 7 1 3 -6
-6 -9 4 -10 36 -6 65 8 569 54 778 70 102 8 331 29 510 46 179 17 361 33 406
36 95 6 94 7 104 -102 l7 -70 3 80 c2 74 3 76 10 35 4 -25 11 -261 14 -525 4
-264 9 -529 11 -589 3 -65 1 -106 -4 -100 -5 5 -11 18 -14 29 -3 11 -5 -24 -6
-77 -1 -60 3 -98 9 -98 6 0 11 21 12 48 l2 47 3 -47 c4 -44 6 -48 36 -52 72
-12 143 -26 166 -32 l24 -7 -7 314 c-3 173 -9 538 -12 812 -6 444 -5 497 9
492 8 -4 14 -17 13 -30 0 -13 -5 -21 -10 -18 -4 3 -5 -5 0 -18 4 -13 8 -34 9
-46 0 -23 15 -34 15 -12 0 8 5 8 15 -1 8 -7 14 -24 13 -39 -5 -78 17 -117 25
-43 2 20 2 -19 1 -87 -1 -69 2 -132 6 -140 5 -9 14 -338 20 -731 6 -393 13
-826 16 -962 l6 -247 -41 -7 c-60 -10 -61 -24 -2 -24 39 0 51 -4 55 -17 7 -25
12 -1290 5 -1297 -3 -3 -27 17 -55 45 l-49 50 -7 342 c-6 291 -27 1530 -28
1593 0 13 -10 25 -25 32 -32 15 -58 16 -50 2 4 -6 -11 -10 -38 -10 -25 0 -59
-3 -76 -6 l-31 -6 -2 -77 -2 -76 -3 78 c-2 42 -8 77 -13 77 -6 0 -8 -79 -5
-202 2 -112 7 -389 11 -617 l7 -414 -29 8 c-16 4 -37 9 -47 10 -10 1 -22 6
-25 12 -4 6 -20 13 -37 15 -34 4 -28 -48 -40 406 -5 199 -3 267 6 278 20 24 2
224 -20 224 -3 0 -5 -60 -5 -132 1 -73 3 -332 5 -575 l3 -443 35 0 c20 0 43 8
55 19 12 11 39 21 61 23 l40 3 6 -55 c3 -30 5 -111 5 -180 -1 -109 -3 -125
-18 -128 -14 -3 -17 6 -20 45 l-3 48 -67 -2 c-38 -1 -68 3 -68 8 0 9 22 12 98
11 36 -1 43 2 40 16 -3 14 -17 18 -71 20 -37 2 -67 7 -67 13 0 6 -5 7 -10 4
-6 -4 -8 -10 -5 -15 3 -5 1 -11 -5 -15 -5 -3 -9 -16 -8 -28 1 -26 -12 -150
-17 -155 -1 -2 -27 -6 -56 -9 l-54 -5 -12 38 c-7 23 -8 41 -2 44 5 4 -7 14
-26 23 -43 21 -45 21 -45 2 0 -8 -8 -15 -17 -16 -16 0 -15 -2 2 -9 14 -6 6 -7
-22 -3 -35 5 -43 3 -43 -11 0 -9 7 -16 15 -16 9 0 15 -9 15 -25 0 -16 -6 -25
-15 -25 -8 0 -15 7 -15 15 0 8 -13 21 -30 30 -41 21 -39 45 3 46 l32 1 -35 7
c-20 4 -41 11 -48 15 -17 11 -15 46 4 46 8 0 12 5 8 11 -4 6 -20 8 -40 4 -31
-5 -34 -4 -34 18 0 12 -5 28 -11 34 -13 13 -23 173 -11 173 11 0 6 82 -7 123
-7 19 -12 57 -12 84 3 243 -13 809 -23 815 -6 4 -24 5 -41 3 -16 -3 -163 -8
-325 -11 -162 -4 -359 -9 -438 -11 -79 -3 -151 -2 -160 2 -16 6 -16 7 0 19 10
7 15 16 11 19 -3 4 -1 7 6 7 7 0 37 25 67 55 l53 56 218 9 c459 20 647 31 658
40 6 5 10 28 10 52 -1 24 -3 82 -3 130 l-2 88 -52 -5 c-29 -2 -141 -9 -248
-15 -107 -6 -219 -12 -248 -14 l-52 -3 20 22 c11 12 20 26 20 31 0 13 -214
-11 -293 -33 -31 -9 -60 -13 -64 -10 -3 4 4 7 17 7 13 0 21 3 18 6 -4 3 -62
-2 -130 -11 -232 -30 -263 -33 -288 -30 -14 2 -45 6 -70 9 l-45 6 55 -20 c42
-16 70 -20 120 -16 45 4 56 2 35 -3 -42 -12 -110 -13 -137 -2 -52 21 -210 53
-260 53 -107 -1 -188 -21 -188 -48 0 -17 -28 -22 -165 -29 -66 -3 -167 -8
-225 -12 -58 -3 -184 -7 -280 -8 -180 -2 -384 -13 -410 -22 -11 -3 -9 -8 10
-18 28 -16 54 -19 46 -6 -3 4 7 6 22 3 23 -5 24 -6 7 -11 -27 -8 -34 -61 -8
-62 10 0 13 -3 6 -6 -7 -2 -23 3 -35 11 -12 9 -18 16 -12 16 6 0 11 7 11 15 0
8 -7 15 -14 15 -8 0 -11 -5 -7 -12 5 -8 2 -9 -9 -5 -9 3 -19 2 -23 -4 -9 -16
17 -40 37 -34 11 4 19 2 19 -4 0 -6 -4 -11 -10 -11 -23 0 -65 -60 -42 -60 4 0
17 -3 30 -6 17 -5 22 -2 22 12 0 15 -2 16 -9 5 -7 -10 -9 -7 -8 12 2 26 11 35
20 20 2 -5 2 -2 1 5 -4 14 22 17 31 2 3 -5 2 -21 -1 -37 -7 -25 -8 -25 -15 -8
-7 18 -8 18 -8 2 -1 -10 9 -22 22 -27 24 -9 24 -10 -10 -16 -79 -14 -113 -25
-113 -34 0 -13 260 -11 525 4 138 8 333 18 435 21 102 3 196 8 210 11 20 4 29
-1 41 -23 29 -49 32 -93 9 -113 -21 -18 -41 -21 -302 -36 l-107 -6 5 -609 c5
-433 3 -609 -5 -609 -6 0 -8 -7 -4 -17 4 -10 2 -14 -4 -10 -6 4 -10 -5 -10
-21 0 -39 -55 -245 -70 -260 -7 -7 -13 -19 -13 -25 0 -7 4 -6 10 3 14 22 13
-6 -1 -33 -11 -19 -13 -31 -18 -77 -1 -11 -3 -12 -9 -3 -11 17 -47 -90 -38
-112 4 -12 2 -16 -7 -12 -28 11 -72 -62 -68 -114 3 -44 -7 -48 -96 -41 -57 4
-62 6 -67 31 -7 34 -10 92 -5 111 2 8 -3 15 -11 15 -8 0 -16 -10 -18 -23 -4
-23 -16 -29 -27 -12 -6 9 -55 15 -55 6 0 -2 -3 -11 -6 -20 -4 -11 -1 -16 10
-16 9 0 16 -7 16 -15 0 -8 -7 -15 -16 -15 -19 0 -44 24 -44 43 0 24 -101 39
-115 17 -3 -5 -1 -10 6 -10 7 0 5 -8 -7 -21 -19 -21 -19 -21 6 -19 14 1 44 2
68 1 38 -1 42 -3 42 -26 0 -14 -4 -25 -9 -25 -5 0 -23 -3 -40 -6 -26 -5 -31
-3 -31 12 -1 18 -1 18 -15 0 -9 -12 -15 -15 -15 -7 0 14 -43 11 -82 -4 -14 -6
-18 -2 -18 16 0 18 3 20 12 11 17 -17 38 -15 38 4 0 8 -4 12 -10 9 -10 -6 -14
7 -10 34 1 8 -4 17 -11 22 -8 5 -14 42 -16 111 -7 222 -8 338 0 338 4 0 7 8 7
18 0 14 -2 15 -10 2 -6 -10 -10 111 -10 350 0 584 -11 1025 -27 1080 -8 29
-36 -176 -48 -345 -7 -107 -17 -130 -52 -123 -10 2 -23 14 -30 28 -7 14 -18
25 -25 25 -7 0 -21 16 -30 35 -10 19 -18 29 -18 23 0 -8 -9 -11 -22 -9 -24 4
-25 6 -13 44 6 19 3 23 -12 21 -10 -2 -30 8 -44 21 -24 23 -26 30 -20 76 4 28
4 63 0 77 -4 15 -10 88 -14 164 -3 76 -9 152 -13 168 -11 48 -17 -108 -20
-535 -2 -211 -4 -386 -6 -387 -2 -2 -27 -6 -57 -8 -30 -3 -64 -8 -76 -10 -25
-6 -25 -6 -27 70 -1 22 -3 61 -4 88 -1 26 -7 47 -13 47 -7 0 -9 -12 -5 -36 4
-19 3 -41 -3 -47 -5 -7 -6 -29 -2 -54 9 -46 7 -52 -29 -76 -30 -21 -40 -21
-40 -3 0 8 -11 24 -24 37 -26 25 -26 42 -1 32 17 -6 20 8 4 24 -8 8 -8 13 0
17 6 4 11 0 11 -8 0 -9 9 -16 20 -16 26 0 25 12 -1 28 -15 9 -25 10 -32 3 -5
-5 -23 -7 -38 -4 -21 4 -29 1 -30 -8 -1 -20 -7 -48 -13 -64 -7 -18 -59 -28
-106 -20 -30 5 -40 11 -40 26 0 14 -7 19 -25 19 -14 0 -25 5 -25 10 0 6 5 10
10 10 6 0 10 9 10 20 0 11 -4 20 -10 20 -5 0 -10 -7 -10 -15 0 -8 -4 -15 -9
-15 -15 0 -23 18 -11 25 5 3 10 20 10 37 0 16 9 43 21 60 12 16 18 32 15 35
-3 3 -1 12 4 18 6 7 17 34 25 61 12 42 12 46 0 30 -8 -10 -16 -23 -17 -28 -4
-12 -58 8 -58 22 0 6 -10 5 -26 -2 -18 -8 -28 -9 -32 -1 -12 18 -53 8 -72 -17
-18 -24 -32 -29 -82 -32 -35 -1 -35 -7 0 -46 28 -32 52 -42 52 -22 0 22 16 8
18 -16 2 -23 0 -25 -13 -14 -19 15 -30 6 -39 -32 -6 -25 -3 -28 26 -36 25 -6
34 -14 36 -34 2 -15 11 -28 21 -31 21 -5 23 -28 4 -45 -8 -8 -13 -9 -13 -2 0
5 -8 10 -17 10 -15 0 -16 -2 -3 -10 8 -5 11 -10 5 -11 -5 0 1 -5 15 -9 22 -7
21 -8 -12 -9 -24 -1 -38 4 -39 12 0 9 -2 9 -6 0 -2 -7 -19 -13 -36 -13 -21 0
-28 -3 -19 -9 9 -5 -4 -11 -38 -15 -42 -6 -52 -11 -60 -31 -5 -14 -15 -25 -22
-25 -8 0 -6 -5 4 -11 14 -8 15 -14 6 -34 -6 -14 -16 -25 -23 -25 -19 0 -13
-29 7 -36 10 -3 18 -10 18 -16 0 -6 -6 -6 -15 2 -9 7 -18 10 -21 8 -3 -3 -6
-69 -8 -147 -3 -147 -16 -210 -16 -80 0 41 -3 139 -7 219 -5 115 -10 150 -24
170 -15 22 -18 63 -24 360 -3 184 -10 430 -15 545 -5 116 -12 338 -15 495 -3
157 -7 321 -10 365 -2 44 -7 251 -10 460 -3 209 -8 414 -10 455 -3 41 -7 192
-10 335 -5 250 -14 483 -19 518 -1 9 -5 20 -9 23 -4 4 -7 12 -7 18 0 6 5 4 10
-4 8 -12 10 -11 10 7 0 28 -17 38 -38 22 -11 -9 -9 -4 4 11 12 14 24 33 28 44
6 18 2 18 -66 11 -40 -3 -75 -8 -77 -11 -4 -4 -1 -284 4 -459 3 -94 5 -667 3
-710 -1 -11 2 -45 5 -75 4 -30 9 -215 12 -410 6 -370 22 -903 29 -955 3 -16 8
-264 11 -551 l7 -521 -23 -6 c-40 -11 -211 -8 -204 3 4 6 -30 10 -94 10 -56 0
-103 4 -106 10 -3 6 -25 11 -48 11 l-42 2 40 7 40 7 -40 2 c-22 2 -34 5 -27 8
20 8 14 20 -15 28 -27 6 -27 7 -9 21 19 13 18 14 -15 16 l-34 1 32 4 c24 3 30
8 26 20 -5 12 -3 14 6 8 10 -5 11 -2 7 13 -7 19 -4 21 28 17 25 -3 36 -1 36 8
0 8 3 8 9 -2 6 -9 19 -12 39 -8 16 3 34 1 41 -6 8 -8 11 -8 11 1 0 8 21 12 68
11 37 0 82 3 100 6 28 6 32 11 32 40 0 18 6 36 13 38 8 4 9 6 0 6 -6 1 -19 -6
-28 -15 -9 -9 -18 -14 -21 -11 -10 10 16 47 34 49 9 0 28 3 42 4 14 2 33 4 43
5 20 3 23 32 4 48 -10 7 -17 7 -24 0 -7 -7 -29 -9 -60 -4 -26 3 -69 6 -95 6
-27 0 -48 5 -48 10 0 5 -4 9 -10 9 -5 0 -9 -6 -7 -12 1 -7 -4 -12 -10 -11 -7
2 -13 0 -13 -5 0 -4 -16 -7 -35 -8 -25 0 -35 4 -35 15 0 11 -3 10 -15 -5 -13
-16 -14 -16 -9 -1 3 9 2 17 -4 17 -5 0 -12 7 -16 15 -6 16 14 16 26 0 4 -6 8
-2 8 8 0 20 30 23 49 5 11 -10 13 -10 7 0 -5 9 3 12 30 12 21 0 34 3 31 7 -4
3 -2 12 4 19 13 16 4 48 -10 39 -5 -3 -12 -1 -15 4 -3 5 3 11 14 14 11 3 20
13 20 22 0 9 4 14 8 11 16 -10 29 10 35 51 3 24 1 46 -4 49 -5 3 -9 -4 -9 -15
0 -23 -15 -28 -26 -9 -4 6 -3 8 4 4 7 -4 12 6 14 26 2 23 8 32 18 30 8 -2 2 8
-14 23 l-29 25 24 0 c17 0 20 3 10 9 -10 6 -11 13 -2 29 14 26 14 32 1 32 -5
0 -10 -9 -10 -20 0 -11 -4 -20 -8 -20 -10 0 -9 46 1 56 11 11 8 44 -4 44 -6 0
-8 7 -5 16 3 8 1 24 -4 35 -9 15 -7 19 6 19 12 0 14 4 7 13 -6 6 -13 23 -16
37 -5 21 -12 25 -44 25 -24 0 -47 7 -62 20 -19 15 -23 16 -19 4 5 -13 1 -15
-19 -11 -21 4 -23 6 -9 14 9 5 16 14 16 21 0 9 -2 9 -8 0 -4 -6 -21 -15 -37
-19 -30 -7 -30 -7 -12 13 16 18 16 21 2 26 -19 8 -4 47 26 65 25 16 24 8 -2
-17 -12 -11 -18 -25 -14 -31 6 -9 9 -9 15 0 4 7 45 16 91 21 46 5 92 11 103
13 15 4 17 0 13 -20 -2 -13 0 -24 4 -24 5 0 9 9 9 20 0 17 7 20 43 20 23 0 58
3 78 6 33 6 37 9 34 33 -2 14 -6 139 -10 278 -3 138 -8 262 -11 275 -2 12 -5
52 -5 86 l0 64 -18 -34 c-31 -57 -56 -98 -61 -98 -8 0 -6 78 3 86 4 4 7 2 7
-5 0 -7 5 -9 11 -5 6 3 8 17 5 30 -4 13 -4 35 0 49 6 23 7 24 19 8 12 -16 13
-15 19 3 3 10 6 53 5 94 0 41 1 89 2 105 1 17 1 69 1 117 -2 78 -4 87 -19 82
-16 -5 -16 -4 0 6 17 11 18 24 11 183 -6 149 -9 203 -13 252 -1 7 -28 8 -83 3
-513 -50 -701 -64 -582 -42 22 3 46 12 54 18 8 7 42 13 74 14 32 2 66 7 75 12
12 8 9 9 -11 4 -26 -6 -167 12 -177 22 -3 3 1 9 9 14 11 7 8 10 -12 10 -24 0
-28 -4 -29 -27 l-2 -28 -4 27 c-3 22 -12 30 -44 38 -28 8 -40 16 -38 28 3 39
-2 53 -26 62 -14 5 -25 16 -25 23 0 8 -15 25 -34 38 -19 13 -32 27 -30 31 3 5
10 6 15 3 5 -4 9 2 9 12 0 10 -10 24 -21 32 -19 11 -21 11 -16 -1 7 -19 -25
-39 -44 -27 -21 13 -39 11 -39 -6 0 -9 -11 -20 -24 -24 -15 -6 -26 -21 -31
-43 -12 -51 -15 -181 -4 -194 5 -6 8 -32 8 -57 -2 -46 12 -77 36 -77 7 0 16
-7 19 -16 11 -29 7 -1674 -5 -1674 -5 0 -7 -4 -4 -10 3 -6 -1 -7 -9 -4 -20 8
-20 12 0 31 12 13 13 18 3 24 -17 10 -17 10 -23 -35 -5 -39 -16 -62 -16 -33 0
9 -4 17 -9 17 -14 0 -23 -18 -13 -24 5 -3 7 -19 4 -35 -2 -17 -8 -28 -13 -25
-5 3 -9 -2 -9 -10 0 -9 -7 -16 -15 -16 -8 0 -15 5 -15 11 0 5 5 7 10 4 6 -3
10 -1 10 4 0 6 -7 11 -16 11 -9 0 -18 9 -21 20 -3 11 -11 20 -18 20 -7 0 -15
6 -18 13 -3 8 -9 6 -20 -8 -15 -20 -16 -19 -22 8 -7 28 -25 38 -25 13 0 -13
-20 -26 -41 -26 -5 0 -9 9 -9 20 0 11 -7 20 -16 20 -8 0 -12 5 -9 10 3 6 -1
13 -9 16 -9 3 -13 10 -10 15 5 9 4 10 -34 14 -13 1 -28 7 -35 14 -20 20 -28
12 -12 -12 8 -13 12 -27 8 -30 -12 -12 -21 -7 -26 14 -5 17 -8 19 -26 8 -11
-7 -17 -17 -15 -21 3 -4 0 -8 -7 -8 -7 0 -9 -3 -6 -6 4 -4 13 -1 21 5 10 8 16
9 21 1 3 -5 2 -10 -4 -10 -5 0 -8 -11 -7 -25 2 -13 -1 -22 -6 -19 -22 14 -56
-6 -63 -38 l-8 -33 -7 30 c-6 22 -8 25 -9 9 -1 -28 -26 -76 -35 -67 -3 4 -12
-2 -20 -12 -7 -10 -18 -15 -25 -11 -6 4 -28 2 -47 -4 -27 -9 -33 -15 -23 -21
11 -7 11 -9 -3 -9 -9 0 -20 5 -23 10 -3 6 -16 10 -29 10 -13 0 -33 9 -46 20
-13 11 -19 20 -15 20 4 0 -9 11 -29 25 -20 14 -41 25 -47 25 -6 0 -7 5 -4 10
3 6 -3 10 -14 10 -12 0 -21 5 -21 11 0 6 7 9 15 5 23 -8 18 0 -11 19 -36 23
-56 25 -72 6 -8 -9 -11 -10 -7 -3 12 22 -5 52 -30 52 -22 0 -37 18 -40 52 -3
28 -14 48 -25 48 -7 0 -8 -6 0 -19 5 -11 10 -30 10 -43 l-1 -23 -12 23 c-7 12
-16 20 -19 16 -4 -3 -6 7 -6 23 1 32 -17 73 -33 73 -5 0 -7 11 -5 25 4 22 3
23 -15 12 -10 -6 -19 -16 -19 -21 0 -4 -10 -6 -23 -4 -13 2 -29 -2 -36 -9 -7
-7 -17 -10 -23 -6 -8 4 -6 9 6 13 10 3 17 10 17 15 -1 12 -61 16 -61 4 0 -5
-5 -9 -11 -9 -6 0 -8 9 -4 23 5 16 4 18 -4 8 -5 -8 -16 -16 -25 -17 -12 -2
-14 2 -6 16 15 28 12 32 -9 11 -10 -10 -23 -20 -29 -22 -6 -2 -13 -53 -16
-124 -8 -175 -6 -166 -38 -160 -16 4 -29 1 -35 -7 -4 -7 -8 -196 -8 -420 l0
-408 170 -2 170 -1 -171 -10 -171 -9 1 -32 c1 -74 -5 -126 -15 -126 -6 0 -8 8
-4 19 3 11 1 22 -5 26 -5 3 -10 26 -10 51 0 60 -15 87 -43 78 -24 -8 -41 -23
-45 -43 -2 -8 3 -11 13 -8 9 4 15 1 15 -8 0 -8 -7 -15 -16 -15 -8 0 -12 -5 -8
-11 4 -7 0 -10 -11 -7 -15 3 -18 18 -21 113 -2 61 -8 238 -14 395 -16 440 -39
1393 -50 2050 -5 327 -13 669 -16 759 l-7 164 22 -6 c11 -3 19 -1 16 3 -3 5 5
12 17 16 20 6 19 8 -15 26 -35 17 -37 21 -37 68 l0 49 42 5 c107 12 538 40
459 29 -41 -6 -71 -30 -47 -39 8 -3 12 -12 9 -21 -4 -11 -15 -14 -42 -9 -25 4
-31 2 -21 -4 17 -11 78 -12 135 -2 l40 7 -25 18 c-13 9 -18 17 -11 17 8 0 11
3 8 6 -3 4 -2 15 3 24 7 14 28 20 82 25 40 3 107 10 148 16 41 5 157 16 257
24 99 9 203 19 229 24 29 6 55 6 64 0 11 -6 6 -8 -17 -9 -17 0 -34 -4 -37 -9
-3 -5 -16 -7 -29 -4 -18 4 -19 3 -7 -6 12 -8 8 -11 -20 -12 l-35 -1 33 -8 c44
-10 55 -24 16 -18 -23 3 -31 1 -27 -8 3 -8 -2 -11 -15 -7 -11 2 -23 -1 -27 -7
-6 -9 14 -10 81 -5 128 9 144 13 144 37 0 11 10 28 23 39 19 16 19 18 5 19
-10 0 -18 -5 -18 -12 0 -9 -3 -9 -11 -1 -6 6 -19 9 -28 6 -14 -4 -14 -3 -1 6
8 6 32 11 54 11 l38 0 -17 -26 c-11 -17 -13 -29 -7 -33 12 -7 18 -35 28 -131
9 -90 24 -80 24 15 0 56 -3 74 -15 79 -12 4 -14 10 -5 25 5 11 10 32 10 48 0
40 51 67 100 53 22 -6 55 -6 95 0 33 5 63 10 68 10 4 0 7 9 7 19 0 11 5 23 10
26 6 3 10 -3 10 -14 0 -18 6 -21 45 -21 35 0 47 4 56 21 8 15 14 18 22 10 12
-12 68 -14 105 -5 15 5 25 17 29 36 7 35 36 35 41 -1 3 -20 8 -22 35 -17 18 3
70 10 117 16 47 5 153 21 235 36 147 25 384 64 396 64 12 0 -36 116 -65 161
-17 24 -48 64 -70 88 -38 41 -39 42 -9 21 18 -13 51 -49 73 -81z m5976 64 c-6
-14 -9 -15 -16 -4 -11 19 -1 46 13 32 5 -5 7 -18 3 -28z m-6386 -54 c0 -5 11
-9 25 -9 22 0 25 -4 25 -38 0 -21 -7 -47 -15 -58 -13 -18 -14 -16 -15 21 0 55
-9 65 -58 67 -56 2 -58 27 -2 26 22 0 40 -4 40 -9z m6390 -18 c0 -11 -4 -22
-9 -25 -11 -7 -20 14 -13 32 7 19 22 14 22 -7z m-6545 -25 c-23 -69 -12 -156
20 -156 12 0 15 -6 9 -22 -3 -13 -8 -25 -9 -26 -6 -6 -61 53 -70 73 -12 30 -5
117 11 142 18 29 49 20 39 -11z m125 -43 c0 -12 -4 -24 -9 -27 -5 -3 -9 13 -9
36 -1 30 2 38 8 28 6 -8 10 -25 10 -37z m-52 -82 c-2 -27 -8 -46 -17 -49 -10
-3 -12 0 -8 12 4 10 7 50 8 89 1 68 2 70 10 32 6 -22 9 -60 7 -84z m6472 59
c0 -11 -4 -20 -10 -20 -5 0 -10 9 -10 20 0 11 5 20 10 20 6 0 10 -9 10 -20z
m2 -372 c1 -180 -1 -330 -5 -334 -8 -8 -8 0 -9 361 0 301 0 310 6 304 3 -2 6
-151 8 -331z m-7205 146 c2 -7 -6 -10 -22 -6 -34 6 -40 18 -8 17 15 0 28 -5
30 -11z m1306 -151 c-7 -2 -19 -2 -25 0 -7 3 -2 5 12 5 14 0 19 -2 13 -5z m37
-103 c0 -5 -5 -10 -11 -10 -5 0 -7 5 -4 10 3 6 8 10 11 10 2 0 4 -4 4 -10z
m5870 -290 c0 -11 -4 -20 -10 -20 -5 0 -10 9 -10 20 0 11 5 20 10 20 6 0 10
-9 10 -20z m0 -87 c0 -20 -3 -24 -11 -16 -7 7 -9 19 -6 27 10 24 17 19 17 -11z
m5 -479 c3 -241 8 -556 10 -699 3 -143 7 -372 9 -510 2 -137 7 -385 11 -550 3
-165 5 -327 4 -360 -3 -124 -1 -161 11 -187 8 -18 10 -32 4 -40 -10 -14 -10
-84 0 -1028 14 -1203 15 -1845 5 -1827 -8 14 -12 88 -9 197 0 8 -2 114 -4 235
-3 121 -7 488 -10 815 -7 788 -13 1275 -15 1275 -6 0 -5 107 1 111 4 3 5 35 2
72 -2 37 -5 81 -4 98 0 18 -7 37 -15 44 -19 16 -19 34 -1 49 11 9 13 61 10
284 -7 520 -13 952 -13 965 0 6 0 24 1 40 0 23 -7 599 -16 1227 -3 174 0 242
10 232 2 -2 6 -201 9 -443z m-4525 269 c0 -11 -4 -11 -20 -3 -11 6 -20 20 -20
32 0 20 1 21 20 3 11 -10 20 -24 20 -32z m-2220 -173 c0 -5 -4 -10 -10 -10 -5
0 -10 5 -10 10 0 6 5 10 10 10 6 0 10 -4 10 -10z m-5 -59 c0 -22 -3 -37 -7
-34 -14 8 -8 73 6 73 1 0 1 -18 1 -39z m-45 -123 c0 -35 0 -319 1 -633 0 -367
-4 -571 -10 -573 -6 -2 -11 43 -13 115 -7 217 -8 1120 -2 1137 13 34 24 13 24
-46z m2519 -315 c13 -10 14 -12 1 -12 -23 0 -78 27 -57 28 15 1 17 12 17 85 0
46 -3 86 -7 88 -5 2 -4 46 2 98 l10 95 9 -185 c7 -151 11 -187 25 -197z
m-1999 312 c7 -8 8 -15 2 -15 -5 0 -15 7 -22 15 -7 8 -8 15 -2 15 5 0 15 -7
22 -15z m159 -13 c10 -10 11 -16 2 -25 -8 -8 -11 -7 -11 6 0 9 -4 17 -10 17
-5 0 -10 -4 -10 -10 0 -5 -4 -10 -10 -10 -5 0 -10 9 -10 19 0 22 27 23 49 3z
m-52 -74 c-3 -8 -6 -5 -6 6 -1 11 2 17 5 13 3 -3 4 -12 1 -19z m1975 -408 c-3
-114 -6 -128 -27 -155 -33 -40 -43 -25 -12 17 19 24 23 38 17 48 -11 17 -13
146 -3 203 4 30 8 36 17 25 8 -9 10 -54 8 -138z m-101 -192 c11 -97 7 -144
-11 -133 -13 8 -13 145 0 145 6 0 11 -6 11 -12z m-1815 -89 c3 -6 2 -15 -4
-21 -6 -6 -11 -2 -15 11 -5 22 7 29 19 10z m2 -75 c-12 -26 -34 -34 -24 -8 3
9 6 22 6 30 0 7 6 11 14 8 12 -5 13 -11 4 -30z m-18 -38 c0 -2 -7 -7 -16 -10
-8 -3 -12 -2 -9 4 6 10 25 14 25 6z m77 -172 c-3 -3 -12 -4 -19 -1 -8 3 -5 6
6 6 11 1 17 -2 13 -5z m-745 -182 c8 -28 -4 -182 -13 -182 -5 0 -9 45 -9 100
0 91 10 128 22 82z m5308 -147 l0 -115 -119 3 c-66 1 -117 -1 -115 -4 4 -8
-139 -19 -231 -18 -48 0 -64 3 -50 9 17 7 16 9 -10 10 -26 1 -27 3 -10 10 l20
9 -20 1 c-17 2 -16 3 5 10 14 4 18 8 10 9 -12 1 -15 13 -13 56 2 51 0 55 -20
51 -12 -1 -16 -1 -9 1 7 3 9 9 6 15 -5 7 -2 8 6 3 8 -5 11 -3 8 6 -3 8 -17 13
-33 12 -41 -3 -21 10 23 14 75 8 429 30 490 32 l62 1 0 -115z m-917 98 c-7 -2
-21 -2 -30 0 -10 3 -4 5 12 5 17 0 24 -2 18 -5z m-60 -10 c-7 -2 -19 -2 -25 0
-7 3 -2 5 12 5 14 0 19 -2 13 -5z m1773 -89 c26 -38 13 -33 -36 15 -42 41 -43
43 -13 27 18 -9 40 -28 49 -42z m-2538 4 c2 -11 -3 -18 -12 -18 -9 0 -16 -8
-17 -17 0 -11 -3 -13 -6 -5 -2 6 -18 12 -34 12 -29 0 -29 -1 -29 -56 l0 -57
40 6 c22 3 40 1 40 -3 0 -5 12 -7 26 -4 16 3 23 1 19 -6 -3 -5 0 -10 7 -10 10
0 10 -2 -1 -9 -7 -5 -11 -13 -7 -19 5 -9 -243 -25 -359 -22 -27 0 -90 -2 -138
-4 -96 -5 -118 -1 -111 19 4 10 -1 12 -18 9 l-23 -5 23 11 c28 12 46 4 37 -17
-5 -14 -3 -14 11 -2 13 11 18 11 21 2 3 -7 9 -13 14 -13 6 0 7 5 4 10 -3 6 2
13 12 18 14 5 8 8 -22 13 l-40 6 43 2 c23 0 42 -3 42 -9 0 -5 5 -10 11 -10 5
0 8 4 5 8 -2 4 0 14 5 22 8 12 12 12 16 3 2 -7 11 -13 20 -13 12 0 13 8 8 43
-4 23 -11 50 -16 59 -6 11 -5 18 4 21 6 2 0 4 -15 3 -14 0 -26 -3 -26 -6 1 -3
-3 -24 -7 -47 -5 -31 -12 -43 -25 -43 -10 0 -17 8 -17 18 0 58 -2 62 -31 60
-27 -2 -29 -5 -27 -40 2 -49 -13 -50 -17 -1 -3 35 -5 38 -35 38 -17 0 -35 3
-39 8 -4 4 -12 7 -18 7 -6 0 -4 -5 4 -10 11 -7 5 -9 -20 -6 -19 2 -34 9 -32
15 1 6 -2 11 -7 11 -5 0 -12 -10 -14 -22 -4 -20 -4 -19 -6 4 -1 34 0 35 194
44 83 4 209 10 280 14 210 11 279 8 283 -12z m-780 -29 c-7 -5 -9 -9 -5 -9 5
0 5 -5 1 -11 -5 -8 -10 -6 -16 5 -5 9 -14 16 -19 16 -15 0 -39 -26 -39 -42 0
-8 -5 -19 -12 -26 -8 -8 -8 -12 -1 -12 11 0 10 -76 -2 -88 -4 -4 -6 11 -4 33
2 22 0 46 -4 52 -4 6 -3 14 2 18 21 12 -1 35 -28 29 -20 -4 -23 -3 -11 5 8 6
23 11 34 11 12 0 16 5 12 15 -4 12 5 15 50 14 35 -1 51 -5 42 -10z m-173 -9
c-3 -5 -13 -10 -21 -10 -8 0 -14 5 -14 10 0 6 9 10 21 10 11 0 17 -4 14 -10z
m52 4 c-3 -3 -12 -4 -19 -1 -8 3 -5 6 6 6 11 1 17 -2 13 -5z m1940 -9 c0 -8
-4 -12 -9 -9 -5 3 -6 10 -3 15 9 13 12 11 12 -6z m-1857 -15 c-11 -21 -30 -27
-30 -9 0 5 5 7 10 4 6 -3 10 1 10 9 0 9 5 16 10 16 7 0 7 -6 0 -20z m-2386
-21 c-3 -5 0 -9 5 -9 6 0 11 -4 11 -10 0 -5 -7 -10 -15 -10 -8 0 -15 7 -15 15
0 9 -9 15 -25 15 -17 0 -23 4 -19 14 4 11 12 12 35 4 16 -5 26 -14 23 -19z
m2260 16 c-4 -8 -10 -12 -15 -9 -11 6 -2 24 11 24 5 0 7 -7 4 -15z m883 -7
c-3 -8 -6 -5 -6 6 -1 11 2 17 5 13 3 -3 4 -12 1 -19z m-3502 1 c-4 -6 -1 -10
6 -8 25 3 39 -1 39 -10 0 -5 -9 -7 -20 -4 -16 4 -21 -1 -27 -38 l-7 -44 -7 40
c-12 61 -10 75 7 75 8 0 12 -5 9 -11z m278 -3 c4 -10 1 -13 -7 -10 -7 3 -25 0
-39 -5 -32 -12 -58 -5 -50 15 7 19 89 19 96 0z m2304 8 c-3 -3 -12 -4 -19 -1
-8 3 -5 6 6 6 11 1 17 -2 13 -5z m-2419 -18 c3 -3 -13 -6 -36 -6 -23 0 -42 4
-42 9 0 9 68 6 78 -3z m2379 -1 c0 -8 -4 -15 -9 -15 -10 0 -11 14 -1 23 9 10
10 9 10 -8z m183 -15 c0 -5 -4 -10 -10 -10 -5 0 -10 5 -10 10 0 6 5 10 10 10
6 0 10 -4 10 -10z m18 -35 c1 -42 0 -45 -18 -35 -24 13 -26 38 -5 46 8 4 15
12 15 20 0 8 2 14 4 14 2 0 4 -20 4 -45z m-2427 22 c-1 -12 -15 -9 -19 4 -3 6
1 10 8 8 6 -3 11 -8 11 -12z m2603 -13 c3 -8 2 -12 -4 -9 -6 3 -10 10 -10 16
0 14 7 11 14 -7z m-4334 -14 c0 -5 -4 -10 -10 -10 -5 0 -10 5 -10 10 0 6 5 10
10 10 6 0 10 -4 10 -10z m4380 -24 c0 -2 -9 -6 -20 -9 -11 -3 -18 -1 -14 4 5
9 34 13 34 5z m-405 -26 c3 -5 1 -10 -4 -10 -6 0 -11 5 -11 10 0 6 2 10 4 10
3 0 8 -4 11 -10z m69 -11 c-3 -5 0 -9 5 -9 6 0 11 5 11 10 0 6 5 10 12 10 8 0
6 -6 -4 -17 -15 -14 -19 -14 -34 -2 -16 12 -17 12 -12 -2 4 -9 1 -16 -8 -16
-7 0 -11 4 -8 8 2 4 -2 10 -8 12 -8 3 -6 6 5 6 9 1 17 5 17 11 0 5 7 7 15 4 8
-4 12 -10 9 -15z m-4114 -9 c0 -5 -4 -10 -10 -10 -5 0 -10 5 -10 10 0 6 5 10
10 10 6 0 10 -4 10 -10z m4390 -5 c0 -1 -12 -2 -26 -2 -17 0 -22 2 -13 7 10 7
39 3 39 -5z m-4300 -13 c0 -5 -7 -9 -15 -9 -8 0 -15 4 -15 9 0 4 7 8 15 8 8 0
15 -4 15 -8z m765 -52 c-3 -5 -10 -10 -16 -10 -5 0 -9 5 -9 10 0 6 7 10 16 10
8 0 12 -4 9 -10z m77 -32 c-11 -11 -32 -3 -32 12 0 4 9 6 21 3 13 -4 17 -9 11
-15z m292 -5 c-20 -15 -34 -17 -34 -5 0 13 7 18 30 18 20 0 20 -1 4 -13z
m-364 -8 c-7 -8 -16 -12 -21 -9 -16 9 -10 20 12 21 17 2 18 -1 9 -12z m-75
-14 c-3 -6 -11 -8 -17 -5 -6 4 -5 9 3 15 16 10 23 4 14 -10z m5855 -25 c0 -8
9 -21 21 -29 12 -9 16 -18 10 -21 -5 -4 -12 -2 -16 4 -4 6 -11 7 -17 4 -7 -5
-9 -2 -6 8 5 11 -1 15 -23 15 -32 0 -36 -8 -14 -27 20 -17 8 -32 -16 -20 -14
8 -19 7 -19 -3 0 -8 19 -18 48 -24 l47 -10 -48 -2 c-29 0 -46 -5 -42 -11 3 -5
15 -10 26 -10 28 0 24 -18 -6 -26 -26 -6 -35 -24 -12 -24 8 0 7 -4 -3 -10 -13
-9 -13 -11 0 -19 22 -15 5 -24 -19 -11 -17 8 -21 20 -21 58 -1 38 -5 50 -25
65 -24 17 -25 17 -25 0 -1 -16 -1 -16 -10 -1 -6 10 -18 14 -30 11 -15 -4 -20
0 -20 16 0 17 5 22 23 19 28 -4 31 25 2 30 -78 13 -19 28 118 30 61 2 77 -1
77 -12z m80 4 c0 -5 -2 -10 -4 -10 -3 0 -8 5 -11 10 -3 6 -1 10 4 10 6 0 11
-4 11 -10z m17 -12 c-3 -8 -6 -5 -6 6 -1 11 2 17 5 13 3 -3 4 -12 1 -19z
m-359 5 c-10 -2 -28 -2 -40 0 -13 2 -5 4 17 4 22 1 32 -1 23 -4z m-6616 -25
c-7 -7 -12 -8 -12 -2 0 14 12 26 19 19 2 -3 -1 -11 -7 -17z m6053 12 c-16 -4
-22 -8 -12 -9 18 -1 25 -31 7 -31 -5 0 -10 5 -10 10 0 6 -10 10 -22 10 -18 0
-20 2 -9 9 11 7 9 10 -10 14 -13 2 1 4 31 4 45 1 49 -1 25 -7z m562 -6 c-3 -3
-12 -4 -19 -1 -8 3 -5 6 6 6 11 1 17 -2 13 -5z m-1349 -21 c-10 -2 -26 -2 -35
0 -10 3 -2 5 17 5 19 0 27 -2 18 -5z m-140 -12 c10 -6 5 -11 -19 -20 -31 -11
-87 -15 -61 -4 10 4 9 8 -5 19 -16 12 -13 13 27 14 25 0 51 -4 58 -9z m1829
-23 c-3 -8 -6 -5 -6 6 -1 11 2 17 5 13 3 -3 4 -12 1 -19z m-1950 -20 c-3 -8
-6 -5 -6 6 -1 11 2 17 5 13 3 -3 4 -12 1 -19z m-2687 -10 c0 -19 -2 -20 -10
-8 -13 19 -13 30 0 30 6 0 10 -10 10 -22z m3680 18 c0 -9 -30 -14 -35 -6 -4 6
3 10 14 10 12 0 21 -2 21 -4z m-1007 -86 l13 -65 8 46 c5 37 12 49 34 59 22
11 24 14 9 17 -24 6 -11 23 19 23 19 0 24 -5 25 -27 2 -36 3 -44 13 -66 5 -11
4 -23 -3 -30 -17 -17 -13 -47 7 -47 10 0 13 -3 6 -8 -19 -13 -23 -39 -8 -61
13 -18 13 -20 -1 -15 -8 3 -15 12 -15 20 0 8 -5 14 -10 14 -6 0 -8 -15 -4 -40
4 -27 3 -40 -5 -40 -6 0 -11 9 -11 20 0 21 -28 25 -42 6 -3 -5 -9 7 -13 26 -4
23 -14 38 -25 41 -16 4 -18 16 -17 106 1 56 3 98 4 94 2 -5 9 -37 16 -73z
m1954 74 c-3 -3 -12 -4 -19 -1 -8 3 -5 6 6 6 11 1 17 -2 13 -5z m-5579 -29 c3
-3 3 -7 0 -10 -5 -5 -68 23 -68 30 0 5 61 -13 68 -20z m4545 -72 c-7 -2 -19
-2 -25 0 -7 3 -2 5 12 5 14 0 19 -2 13 -5z m-3643 -87 c0 -2 -7 -7 -16 -10 -8
-3 -12 -2 -9 4 6 10 25 14 25 6z m2857 -28 c-3 -8 -6 -5 -6 6 -1 11 2 17 5 13
3 -3 4 -12 1 -19z m-1187 -57 c-1 -17 -23 -51 -34 -51 -10 0 -7 48 4 55 6 4 8
11 5 16 -3 5 1 6 9 3 9 -3 16 -14 16 -23z m1115 -11 c3 -5 1 -10 -4 -10 -6 0
-11 5 -11 10 0 6 2 10 4 10 3 0 8 -4 11 -10z m4293 -62 c-7 -13 -11 -30 -9
-38 2 -10 -1 -12 -7 -5 -14 14 -3 65 15 65 11 0 12 -4 1 -22z m62 -28 c-8 -5
-11 -12 -8 -16 4 -4 19 1 33 10 23 15 115 20 115 6 0 -10 -20 -35 -20 -25 0 6
-5 3 -10 -5 -8 -12 -10 -12 -10 -1 0 11 -5 10 -20 -4 -11 -10 -20 -13 -20 -7
0 7 5 12 10 12 6 0 5 6 -2 14 -17 18 -30 9 -23 -15 5 -13 2 -19 -10 -19 -9 0
-13 4 -10 10 3 6 -1 7 -9 4 -9 -3 -14 -9 -12 -13 2 -3 -12 -5 -32 -3 -21 2
-45 4 -54 5 -19 2 -13 17 7 17 7 0 15 6 18 14 5 13 24 20 62 24 6 1 3 -2 -5
-8z m-7160 -10 c0 -5 7 -7 16 -3 15 5 15 3 -1 -20 -16 -25 -22 -27 -86 -26
-45 1 -67 5 -62 12 4 6 -1 8 -13 5 -14 -4 -20 0 -20 13 0 22 7 24 25 7 11 -11
12 -10 6 1 -6 10 -4 12 5 6 18 -11 71 -14 64 -4 -2 4 4 10 13 12 32 8 53 7 53
-3z m7000 -15 c0 -8 -4 -15 -10 -15 -5 0 -10 7 -10 15 0 8 5 15 10 15 6 0 10
-7 10 -15z m27 -7 c-3 -8 -6 -5 -6 6 -1 11 2 17 5 13 3 -3 4 -12 1 -19z
m-6072 -76 c-5 -4 -16 -17 -22 -29 -11 -19 -10 -24 3 -31 14 -8 14 -10 -4 -14
-18 -5 -20 -1 -19 46 0 28 5 54 11 58 14 9 45 -20 31 -30z m-68 -8 c-3 -3 -12
-4 -19 -1 -8 3 -5 6 6 6 11 1 17 -2 13 -5z m-1087 -20 c0 -14 -3 -14 -15 -4
-8 7 -15 14 -15 16 0 2 7 4 15 4 8 0 15 -7 15 -16z m680 -34 c0 -5 -8 -10 -17
-10 -15 0 -16 2 -3 10 19 12 20 12 20 0z m3495 -8 c-3 -3 -11 0 -18 7 -9 10
-8 11 6 5 10 -3 15 -9 12 -12z m3361 -159 c-1 -86 -3 -98 -19 -99 -12 -1 -13
-1 -2 3 16 5 21 23 6 23 -5 0 -8 21 -6 48 2 26 1 39 -1 29 -8 -26 -24 -10 -24
24 0 19 5 29 15 29 8 0 14 3 14 8 -3 17 2 32 9 32 4 0 8 -44 8 -97z m-6553 80
c-7 -2 -19 -2 -25 0 -7 3 -2 5 12 5 14 0 19 -2 13 -5z m-318 -42 c-3 -5 -1
-12 5 -16 6 -4 5 -13 -3 -25 -15 -26 -31 -26 -17 -1 15 29 12 35 -7 20 -15
-11 -14 -10 1 9 19 22 32 30 21 13z m-1547 -8 c-10 -2 -26 -2 -35 0 -10 3 -2
5 17 5 19 0 27 -2 18 -5z m-650 -10 c-10 -2 -26 -2 -35 0 -10 3 -2 5 17 5 19
0 27 -2 18 -5z m1949 -24 c16 -6 22 -6 18 1 -4 6 9 10 32 10 28 0 34 -3 23
-10 -10 -6 -11 -10 -2 -10 6 0 12 -10 12 -22 0 -18 -2 -20 -9 -9 -8 12 -12 12
-26 -3 -10 -9 -15 -25 -12 -36 3 -10 0 -21 -7 -24 -8 -3 -7 -7 2 -14 10 -7 10
-11 -2 -22 -9 -7 -13 -16 -10 -21 3 -5 -2 -6 -11 -3 -11 5 -13 10 -5 19 8 9
-1 10 -37 5 -57 -9 -83 -3 -83 19 0 24 -20 41 -48 41 -16 0 -22 -5 -19 -13 4
-10 -5 -12 -32 -9 -20 2 -40 3 -46 3 -5 -1 -27 -2 -47 -4 -21 -1 -38 1 -38 5
0 5 -9 4 -21 -2 -11 -7 -27 -9 -34 -6 -7 2 -21 -4 -31 -15 -15 -16 -15 -19 -1
-19 16 0 17 -23 2 -37 -4 -4 -5 -3 -2 3 7 12 -16 38 -25 29 -2 -3 -5 2 -5 10
0 8 7 16 16 16 9 1 3 4 -14 8 -28 6 -30 9 -28 46 1 22 -4 43 -10 47 -7 5 -2 8
13 9 14 1 37 2 52 3 15 1 30 5 33 8 10 9 376 7 402 -3z m-2602 -99 c3 -5 -1
-10 -9 -10 -9 0 -16 5 -16 10 0 6 4 10 9 10 6 0 13 -4 16 -10z m2460 0 c3 -6
-1 -7 -9 -4 -18 7 -21 14 -7 14 6 0 13 -4 16 -10z m2952 -32 c-3 -8 -6 -5 -6
6 -1 11 2 17 5 13 3 -3 4 -12 1 -19z m-2430 -30 c-3 -8 -6 -5 -6 6 -1 11 2 17
5 13 3 -3 4 -12 1 -19z m-477 5 c0 -5 -15 -9 -33 -10 -26 -1 -28 0 -12 7 26
11 45 12 45 3z m-285 -13 c-3 -5 -12 -10 -18 -10 -7 0 -6 4 3 10 19 12 23 12
15 0z m202 4 c-3 -3 -12 -4 -19 -1 -8 3 -5 6 6 6 11 1 17 -2 13 -5z m129 -14
c8 0 14 -5 14 -12 0 -6 -3 -9 -6 -5 -4 3 -22 0 -42 -9 -19 -8 -37 -12 -40 -9
-3 2 8 10 25 17 16 7 29 19 27 26 -1 7 0 8 3 2 2 -5 11 -10 19 -10z m2571 -12
c-3 -7 -5 -2 -5 12 0 14 2 19 5 13 2 -7 2 -19 0 -25z m-5127 12 c0 -5 -5 -10
-11 -10 -5 0 -7 5 -4 10 3 6 8 10 11 10 2 0 4 -4 4 -10z m115 -59 c0 -38 -3
-73 -7 -77 -5 -4 -8 27 -8 69 0 43 3 77 8 77 4 0 7 -31 7 -69z m9622 47 c-3
-8 -6 -5 -6 6 -1 11 2 17 5 13 3 -3 4 -12 1 -19z m-7117 2 c0 -13 -11 -13 -30
0 -12 8 -11 10 8 10 12 0 22 -4 22 -10z m-273 -26 c-3 -3 -12 -4 -19 -1 -8 3
-5 6 6 6 11 1 17 -2 13 -5z m117 -2 c3 -5 -8 -6 -25 -4 -16 2 -29 6 -29 8 0 8
49 4 54 -4z m101 -2 c-3 -5 -18 -10 -33 -9 -24 0 -25 1 -7 9 28 12 47 12 40 0z
m7167 -107 c-3 -65 -6 -142 -6 -170 -1 -34 -5 -53 -13 -53 -6 0 -14 -8 -17
-17 -5 -18 1 132 7 194 2 18 0 30 -5 27 -4 -3 -8 0 -8 5 0 6 4 11 9 11 5 0 8
26 6 58 -3 38 -2 47 3 27 6 -24 9 -27 14 -12 4 9 5 24 2 32 -4 8 -1 15 4 15 8
0 9 -38 4 -117z m-7301 97 c10 0 19 -4 19 -8 0 -12 -59 -2 -67 11 -4 7 0 8 11
4 10 -4 26 -7 37 -7z m186 4 c-3 -3 -12 -4 -19 -1 -8 3 -5 6 6 6 11 1 17 -2
13 -5z m-2616 -13 c-11 -7 -11 -10 3 -14 15 -5 15 -5 0 -3 -24 2 -30 26 -7 26
14 0 15 -2 4 -9z m5126 -13 c-3 -8 -6 -5 -6 6 -1 11 2 17 5 13 3 -3 4 -12 1
-19z m-2624 5 c-7 -2 -19 -2 -25 0 -7 3 -2 5 12 5 14 0 19 -2 13 -5z m74 -9
c-3 -3 -12 -4 -19 -1 -8 3 -5 6 6 6 11 1 17 -2 13 -5z m13 -18 c0 -2 -7 -7
-16 -10 -8 -3 -12 -2 -9 4 6 10 25 14 25 6z m-2535 -35 c19 -30 23 -56 24
-143 1 -60 -3 -88 -11 -91 -9 -4 -9 -8 -3 -14 6 -4 11 -19 12 -33 3 -23 2 -23
-8 -6 -16 26 -29 3 -29 -51 0 -24 -3 -43 -7 -43 -16 0 -42 150 -49 278 l-7
132 34 -7 c19 -3 39 -13 44 -22z m2197 2 c-6 -2 -9 -10 -6 -15 4 -7 2 -8 -5
-4 -13 9 -5 26 12 25 9 0 8 -2 -1 -6z m53 -3 c-3 -5 -12 -10 -18 -10 -7 0 -6
4 3 10 19 12 23 12 15 0z m108 -9 c3 -13 0 -18 -12 -16 -9 1 -20 -3 -24 -9 -6
-7 -7 -5 -4 6 3 9 1 19 -6 22 -7 2 -5 5 5 5 9 1 19 -5 21 -11 3 -8 6 -6 6 5 1
22 7 22 14 -2z m43 0 c8 7 14 7 14 1 0 -12 -26 -23 -34 -15 -3 4 -5 13 -5 22
1 12 2 12 6 -2 4 -14 8 -16 19 -6z m74 -1 c0 -5 -2 -10 -4 -10 -3 0 -8 5 -11
10 -3 6 -1 10 4 10 6 0 11 -4 11 -10z m-306 -16 c5 -14 4 -15 -9 -4 -17 14
-19 20 -6 20 5 0 12 -7 15 -16z m-24 -9 c7 -9 8 -15 2 -15 -5 0 -12 7 -16 15
-3 8 -4 15 -2 15 2 0 9 -7 16 -15z m-2079 -313 c-2 -7 -5 -11 -7 -9 -8 8 -15
287 -7 299 8 13 22 -264 14 -290z m2111 248 c6 0 9 -3 6 -6 -9 -8 -48 14 -48
27 0 6 7 3 16 -5 8 -9 20 -16 26 -16z m738 -16 c0 -8 -4 -14 -10 -14 -5 0 -10
9 -10 21 0 11 5 17 10 14 6 -3 10 -13 10 -21z m4254 1 c-4 -8 -8 -15 -10 -15
-2 0 -4 7 -4 15 0 8 4 15 10 15 5 0 7 -7 4 -15z m-4390 -39 c-4 -10 4 -12 31
-11 23 2 35 -2 35 -10 0 -7 3 -27 6 -44 6 -30 6 -31 -25 -25 -22 5 -32 2 -36
-9 -4 -8 -14 -13 -24 -10 -24 6 -27 110 -2 116 9 3 17 5 18 6 1 0 0 -5 -3 -13z
m136 -41 c0 -72 -14 -72 -17 0 -1 30 2 55 7 55 6 0 10 -25 10 -55z m4490 0 c0
-8 -2 -15 -4 -15 -2 0 -6 7 -10 15 -3 8 -1 15 4 15 6 0 10 -7 10 -15z m-4550
-75 c0 -5 -5 -10 -11 -10 -5 0 -7 5 -4 10 3 6 8 10 11 10 2 0 4 -4 4 -10z m60
-5 c0 -13 9 -15 53 -10 38 5 48 4 37 -4 -8 -6 -36 -11 -62 -11 -41 0 -47 3
-45 20 2 23 17 27 17 5z m4620 -10 c0 -20 -5 -25 -22 -24 -17 1 -19 2 -5 6 9
2 17 13 17 24 0 10 2 19 5 19 3 0 5 -11 5 -25z m30 10 c0 -8 -4 -15 -10 -15
-5 0 -10 7 -10 15 0 8 5 15 10 15 6 0 10 -7 10 -15z m158 8 c-10 -2 -26 -2
-35 0 -10 3 -2 5 17 5 19 0 27 -2 18 -5z m1962 -14 c0 -5 -6 -12 -14 -15 -11
-4 -12 -12 -4 -35 6 -17 6 -39 1 -54 -8 -24 -9 -24 -20 -6 -10 16 -10 23 3 36
14 13 11 19 -7 17 -4 -1 -2 16 3 38 7 27 14 37 24 33 8 -3 14 -9 14 -14z
m-5867 4 c-7 -2 -19 -2 -25 0 -7 3 -2 5 12 5 14 0 19 -2 13 -5z m-1033 -13 c0
-5 -4 -10 -10 -10 -5 0 -10 5 -10 10 0 6 5 10 10 10 6 0 10 -4 10 -10z m925
-1 c-50 -11 -460 -75 -535 -84 -103 -12 -38 13 75 29 61 9 139 20 175 26 36 6
103 15 150 21 47 6 87 13 89 15 2 2 23 3 45 3 l41 -1 -40 -9z m2243 -21 c17
-17 15 -55 -4 -62 -30 -12 -54 3 -54 34 0 37 33 53 58 28z m1612 -30 c-13 -5
-28 -7 -34 -4 -6 2 -3 5 7 5 9 1 17 5 17 11 0 5 7 7 17 3 14 -5 12 -8 -7 -15z
m-7543 -10 c-3 -8 -6 -5 -6 6 -1 11 2 17 5 13 3 -3 4 -12 1 -19z m2061 15
c-21 -2 -57 -2 -80 0 -24 2 -7 4 37 4 44 0 63 -2 43 -4z m5425 0 c-7 -2 -19
-2 -25 0 -7 3 -2 5 12 5 14 0 19 -2 13 -5z m-5620 -10 c-18 -2 -48 -2 -65 0
-18 2 -4 4 32 4 36 0 50 -2 33 -4z m-236 -10 c-20 -2 -52 -2 -70 0 -17 2 0 4
38 4 39 0 53 -2 32 -4z m-1588 -54 c-20 -12 -22 -4 -7 20 11 18 14 19 16 5 2
-9 -2 -20 -9 -25z m1118 35 c-3 -3 -12 -4 -19 -1 -8 3 -5 6 6 6 11 1 17 -2 13
-5z m-1194 -41 c-7 -2 -21 -2 -30 0 -10 3 -4 5 12 5 17 0 24 -2 18 -5z m2957
-3 c0 -5 -4 -10 -10 -10 -5 0 -10 5 -10 10 0 6 5 10 10 10 6 0 10 -4 10 -10z
m5194 -160 c-6 -6 -31 -10 -55 -8 l-44 3 -3 65 -3 65 58 -57 c41 -41 54 -61
47 -68z m-941 83 c-7 -2 -19 -2 -25 0 -7 3 -2 5 12 5 14 0 19 -2 13 -5z
m-7393 -23 c0 -5 -5 -10 -11 -10 -5 0 -7 5 -4 10 3 6 8 10 11 10 2 0 4 -4 4
-10z m7998 -15 c3 -2 -36 -4 -86 -3 -50 1 -89 5 -86 10 5 8 164 1 172 -7z
m414 -154 c1 -37 2 -40 5 -13 5 35 19 43 27 15 8 -29 15 -377 22 -1090 5 -503
4 -673 -5 -673 -8 0 -11 44 -12 148 0 81 -2 161 -4 177 -2 17 -6 244 -10 505
-4 261 -9 477 -12 480 -5 5 6 -1193 12 -1246 4 -37 -6 -57 -27 -49 -16 6 -19
111 -37 1392 l-6 442 23 -21 c16 -16 22 -34 24 -67z m-3244 34 c-3 -3 -9 2
-12 12 -6 14 -5 15 5 6 7 -7 10 -15 7 -18z m482 15 c11 -7 5 -8 -18 -4 -25 5
-36 2 -47 -12 -13 -17 -14 -17 -15 -2 0 26 50 37 80 18z m-45 -108 c-3 -3 -11
0 -18 7 -9 10 -8 11 6 5 10 -3 15 -9 12 -12z m-845 -2 c0 -5 -2 -10 -4 -10 -3
0 -8 5 -11 10 -3 6 -1 10 4 10 6 0 11 -4 11 -10z m3045 -11 c-4 -5 -1 -9 4 -9
6 0 11 6 11 14 0 17 130 22 161 5 20 -10 21 -16 15 -83 -4 -39 -7 -217 -7
-396 0 -302 -1 -321 -14 -261 -17 74 -25 88 -25 41 0 -37 14 -87 39 -137 l15
-32 23 21 c17 16 26 19 34 11 9 -9 6 -19 -9 -38 -12 -15 -18 -33 -15 -42 5
-13 0 -15 -25 -11 -27 4 -30 2 -19 -10 10 -13 9 -14 -10 -2 -12 8 -20 17 -17
21 2 4 -6 9 -18 11 -22 3 -23 8 -28 113 l-5 110 -43 3 c-38 3 -44 7 -57 39 -9
20 -13 38 -10 41 3 3 5 0 5 -7 0 -7 5 -9 11 -5 8 5 6 10 -5 16 -9 5 -16 18
-16 28 0 11 -4 20 -10 20 -5 0 -9 19 -8 43 1 96 -8 212 -17 219 -7 5 -6 14 3
28 7 11 9 20 5 20 -5 0 -9 12 -9 28 -5 81 -8 99 -22 115 -11 12 -12 17 -2 17
9 0 9 4 2 13 -10 12 10 42 22 30 3 -3 11 6 17 20 7 15 16 24 21 21 4 -3 6 -10
3 -15z m-2765 -5 c0 -8 -4 -12 -10 -9 -6 4 -11 -6 -11 -22 -2 -25 -2 -25 -6
-5 -5 28 2 52 17 52 5 0 10 -7 10 -16z m17 -26 c-3 -8 -6 -5 -6 6 -1 11 2 17
5 13 3 -3 4 -12 1 -19z m4624 3 c-21 -18 -21 -19 -2 -24 11 -3 23 0 26 7 3 8
7 8 11 -1 3 -7 16 -13 29 -13 26 0 41 -15 25 -25 -5 -3 -10 -1 -10 5 0 7 -5 8
-12 3 -7 -4 -35 -8 -61 -8 -48 -1 -48 -1 -45 29 2 20 10 33 23 38 35 11 39 9
16 -11z m93 4 c3 -8 1 -15 -4 -15 -6 0 -10 7 -10 15 0 8 2 15 4 15 2 0 6 -7
10 -15z m-5014 -25 c0 -5 -4 -10 -10 -10 -5 0 -10 5 -10 10 0 6 5 10 10 10 6
0 10 -4 10 -10z m4860 -20 c-7 -4 -9 -13 -6 -19 4 -6 3 -11 -2 -11 -18 0 -21
40 -4 49 20 12 31 -7 12 -19z m-4572 -5 c-3 -3 -9 2 -12 12 -6 14 -5 15 5 6 7
-7 10 -15 7 -18z m4779 3 c1 -10 -2 -18 -8 -18 -5 0 -9 7 -9 16 0 8 -4 12 -10
9 -5 -3 -10 -2 -10 4 0 18 36 7 37 -11z m-1330 -30 c-3 -8 -6 -5 -6 6 -1 11 2
17 5 13 3 -3 4 -12 1 -19z m-5484 -12 c4 -10 1 -13 -8 -9 -8 3 -12 9 -9 14 7
12 11 11 17 -5z m6577 4 c0 -5 -5 -10 -11 -10 -5 0 -7 5 -4 10 3 6 8 10 11 10
2 0 4 -4 4 -10z m160 -5 c0 -9 -6 -12 -16 -8 -13 5 -13 7 -2 14 17 11 18 11
18 -6z m-9470 -16 c0 -11 -4 -18 -10 -14 -5 3 -7 12 -3 20 7 21 13 19 13 -6z
m2723 -7 c10 -5 -23 -31 -40 -32 -10 0 -12 23 -4 47 1 3 31 -8 44 -15z m2637
-2 c0 -5 -12 -10 -27 -9 l-28 1 25 8 c14 4 26 8 28 9 1 1 2 -3 2 -9z m3940 6
c0 -3 -4 -8 -10 -11 -5 -3 -10 -1 -10 4 0 6 5 11 10 11 6 0 10 -2 10 -4z m123
-21 c-3 -9 -8 -14 -10 -11 -3 3 -2 9 2 15 9 16 15 13 8 -4z m-9422 -143 c0
-68 -2 -126 -5 -129 -3 -4 -6 23 -7 58 0 35 -2 97 -4 138 -2 43 0 70 6 64 4
-4 9 -64 10 -131z m2722 58 c3 0 4 6 1 14 -4 11 0 13 15 9 16 -4 21 -13 21
-37 0 -24 -3 -27 -10 -16 -8 13 -10 12 -11 -5 -1 -16 -2 -16 -6 -3 -6 22 -34
32 -45 16 -12 -20 -10 -34 4 -20 17 17 33 15 18 -3 -7 -8 -19 -15 -27 -15 -15
0 -15 12 3 54 5 13 4 17 -3 13 -6 -4 -13 0 -17 8 -3 8 -1 15 5 15 6 0 7 6 4
13 -4 6 4 0 17 -15 13 -16 27 -28 31 -28z m6617 -4 c0 -3 -4 -8 -10 -11 -5 -3
-10 -1 -10 4 0 6 5 11 10 11 6 0 10 -2 10 -4z m94 -20 c-3 -9 -10 -14 -14 -11
-5 3 -13 -3 -19 -12 -9 -16 -10 -14 -11 9 0 19 4 26 14 22 8 -3 17 0 21 6 10
16 17 6 9 -14z m126 0 c0 -3 -4 -8 -10 -11 -5 -3 -10 -1 -10 4 0 6 5 11 10 11
6 0 10 -2 10 -4z m-47 -76 c-3 -12 -8 -19 -11 -16 -5 6 5 36 12 36 2 0 2 -9
-1 -20z m-6813 -26 c0 -14 -21 -19 -32 -8 -3 3 -4 14 -1 25 4 15 8 17 19 8 8
-6 14 -18 14 -25z m6703 11 c-3 -9 -8 -14 -10 -11 -3 3 -2 9 2 15 9 16 15 13
8 -4z m71 -12 c-10 -8 -27 -19 -37 -24 -17 -9 -17 -8 -7 11 6 11 15 18 21 15
5 -4 12 1 15 9 3 9 11 13 17 9 6 -4 3 -12 -9 -20z m-6734 -7 c0 -3 -4 -8 -10
-11 -5 -3 -10 -1 -10 4 0 6 5 11 10 11 6 0 10 -2 10 -4z m-50 -26 c0 -5 -5
-10 -11 -10 -5 0 -7 5 -4 10 3 6 8 10 11 10 2 0 4 -4 4 -10z m40 -16 c0 -8 -5
-12 -10 -9 -6 4 -8 11 -5 16 9 14 15 11 15 -7z m6617 -55 c2 -16 -1 -19 -9
-11 -5 5 -7 15 -4 21 10 15 12 14 13 -10z m-6663 -4 c-4 -8 -8 -15 -10 -15 -2
0 -4 7 -4 15 0 8 4 15 10 15 5 0 7 -7 4 -15z m6633 -11 c-3 -3 -12 -4 -19 -1
-8 3 -5 6 6 6 11 1 17 -2 13 -5z m-9310 -91 c3 -44 2 -74 -3 -70 -5 5 -10 43
-11 84 -3 98 7 88 14 -14z m3740 55 c-2 -7 -10 -12 -16 -10 -15 3 -14 -15 2
-21 6 -2 9 -8 5 -12 -4 -4 -17 3 -30 15 -13 13 -18 20 -12 17 7 -4 14 0 18 8
3 8 13 15 22 15 8 0 14 -6 11 -12z m5696 -11 c20 4 21 3 5 -10 -10 -8 -18 -20
-18 -26 0 -7 -5 -9 -10 -6 -6 4 -8 10 -5 15 3 5 1 11 -5 15 -6 4 -7 11 -3 18
5 8 8 8 10 0 2 -6 14 -9 26 -6z m-278 -56 c3 -5 2 -12 -3 -15 -5 -3 -9 1 -9 9
0 17 3 19 12 6z m-9149 -283 c2 -101 6 -196 9 -213 2 -16 5 -135 6 -262 1
-128 5 -231 8 -228 4 2 13 0 21 -6 11 -6 7 -9 -15 -9 -35 0 -30 -65 -40 510
-4 223 -4 402 0 398 4 -3 9 -89 11 -190z m9451 176 c-3 -3 -12 -4 -19 -1 -8 3
-5 6 6 6 11 1 17 -2 13 -5z m-1657 -164 c0 -5 -4 -10 -10 -10 -5 0 -10 5 -10
10 0 6 5 10 10 10 6 0 10 -4 10 -10z m-123 -109 c10 -16 8 -24 -10 -47 l-22
-28 -5 29 c-11 59 12 86 37 46z m-3575 -134 c48 -83 141 -287 134 -294 -2 -3
-46 78 -98 179 -109 215 -104 203 -89 194 6 -4 30 -39 53 -79z m5428 69 c0 -3
-4 -8 -10 -11 -5 -3 -10 -1 -10 4 0 6 5 11 10 11 6 0 10 -2 10 -4z m-9855 -62
l0 -49 -65 -22 c-78 -25 -372 -114 -450 -135 -30 -9 -84 -23 -120 -33 -64 -17
-158 -45 -422 -124 -138 -41 -193 -52 -155 -30 9 5 23 7 30 3 7 -4 8 -3 4 2
-5 5 -23 9 -40 10 -17 1 -33 7 -35 13 -2 6 -11 11 -20 12 -12 0 -13 2 -3 6 11
5 11 7 0 14 -10 6 -5 9 16 10 29 1 29 1 5 8 l-25 7 30 9 c17 4 37 9 45 10 8 2
56 16 105 33 50 17 119 38 155 47 36 9 108 29 160 45 457 136 758 220 775 216
6 -2 10 -25 10 -52z m9792 24 c-3 -8 -6 -5 -6 6 -1 11 2 17 5 13 3 -3 4 -12 1
-19z m-1787 -18 l29 -21 1 -211 c0 -145 4 -214 11 -219 9 -5 8 -15 -2 -38 -16
-35 -30 -42 -22 -10 4 15 0 27 -12 35 -21 16 -83 18 -105 5 -10 -7 -21 -3 -38
15 -21 20 -25 34 -25 87 1 41 -2 55 -7 42 -7 -16 -9 -17 -9 -3 -1 9 3 19 7 22
5 3 8 44 6 91 -2 51 1 83 7 80 5 -4 9 -1 9 4 0 7 23 11 55 11 l55 0 0 65 c0
36 3 65 6 65 3 0 19 -9 34 -20z m1835 10 c3 -6 -1 -7 -9 -4 -18 7 -21 14 -7
14 6 0 13 -4 16 -10z m-148 -112 c-3 -7 -5 -2 -5 12 0 14 2 19 5 13 2 -7 2
-19 0 -25z m-6637 13 c0 -5 10 -12 23 -14 20 -4 20 -4 1 -6 -11 0 -29 6 -40
14 -17 13 -17 14 -1 15 9 0 17 -4 17 -9z m-34 -37 c-4 -9 -9 -15 -11 -12 -3 3
-3 13 1 22 4 9 9 15 11 12 3 -3 3 -13 -1 -22z m6724 17 c0 -6 -4 -13 -10 -16
-5 -3 -10 1 -10 9 0 9 5 16 10 16 6 0 10 -4 10 -9z m-6650 -26 c11 -13 10 -14
-4 -9 -9 3 -16 10 -16 15 0 13 6 11 20 -6z m6653 -54 c-9 -12 -23 18 -16 35 6
17 8 17 13 -6 4 -14 5 -27 3 -29z m-5473 24 c0 -8 -4 -15 -10 -15 -5 0 -7 7
-4 15 4 8 8 15 10 15 2 0 4 -7 4 -15z m-32 -64 c-2 -15 -10 -27 -20 -29 -11
-2 -16 3 -14 15 2 10 1 13 -1 6 -2 -6 -15 -19 -29 -28 -26 -17 -26 -16 -37 32
-3 12 -2 22 2 21 3 -1 16 3 28 10 17 9 22 9 26 -1 3 -6 6 -1 6 12 1 24 1 24
21 6 13 -12 20 -29 18 -44z m32 -21 c0 -22 -4 -40 -8 -40 -4 0 -7 12 -6 28 1
15 3 33 3 40 1 6 3 12 6 12 3 0 5 -18 5 -40z m-1195 0 c-3 -5 -2 -10 4 -10 5
0 11 6 14 13 3 6 4 2 4 -10 -1 -18 -4 -20 -19 -12 -16 9 -17 29 -2 29 3 0 2
-4 -1 -10z m-4318 -146 c-3 -3 -12 -4 -19 -1 -8 3 -5 6 6 6 11 1 17 -2 13 -5z
m5519 -71 c-11 -11 -19 6 -11 24 8 17 8 17 12 0 3 -10 2 -21 -1 -24z m4612
-47 c5 -24 7 -58 4 -76 -5 -35 8 -50 45 -50 16 0 28 -11 41 -37 11 -21 31 -59
46 -85 15 -27 24 -48 19 -48 -4 0 -39 16 -77 35 -39 19 -76 35 -83 35 -8 0
-46 14 -86 31 -40 17 -107 42 -149 55 -78 25 -118 51 -62 41 16 -3 88 -7 159
-9 l130 -3 1 60 c1 33 -3 68 -8 78 -5 10 -5 17 1 17 5 0 14 -20 19 -44z
m-8370 17 c-21 -2 -57 -2 -80 0 -24 2 -7 4 37 4 44 0 63 -2 43 -4z m2514 -47
c7 4 8 2 4 -4 -12 -20 -26 -13 -25 11 1 17 2 18 6 4 2 -9 9 -14 15 -11z m58
14 c0 -5 -5 -10 -11 -10 -5 0 -7 5 -4 10 3 6 8 10 11 10 2 0 4 -4 4 -10z m347
-30 c-1 -11 -7 -20 -14 -20 -14 0 -18 22 -6 33 12 13 22 7 20 -13z m-2270 -6
c-3 -3 -12 -4 -19 -1 -8 3 -5 6 6 6 11 1 17 -2 13 -5z m1952 -46 c1 -14 -7
-18 -38 -18 -55 0 -71 8 -71 36 0 24 14 32 25 14 3 -5 19 -10 36 -10 21 0 29
5 30 18 0 14 2 14 9 -3 5 -11 9 -28 9 -37z m-3139 38 c0 -2 -9 -6 -20 -9 -11
-3 -18 -1 -14 4 5 9 34 13 34 5z m4300 -53 c0 -16 -5 -35 -10 -43 -7 -11 -10
-4 -10 28 0 23 5 42 10 42 6 0 10 -12 10 -27z m3986 -19 c98 -25 191 -52 208
-60 28 -13 21 -14 -89 -9 -162 7 -430 24 -482 31 -48 6 -58 30 -23 52 17 10
20 10 20 -3 0 -13 12 -15 73 -13 64 3 73 6 82 26 5 12 15 22 22 22 6 0 91 -21
189 -46z m-4836 11 c-7 -9 -15 -13 -19 -10 -3 3 1 10 9 15 21 14 24 12 10 -5z
m850 -95 c0 -10 -4 -22 -10 -25 -6 -4 -10 7 -10 25 0 18 4 29 10 25 6 -3 10
-15 10 -25z m4801 3 c6 -16 19 -45 30 -65 21 -40 24 -58 10 -58 -8 0 -81 130
-81 144 0 19 32 2 41 -21z m-9401 -50 c0 -5 -16 -8 -35 -8 -19 0 -35 3 -35 8
0 4 16 7 35 7 19 0 35 -3 35 -7z m247 -1 c-6 -8 -227 -6 -235 3 -3 3 50 5 117
5 67 0 120 -3 118 -8z m4360 -14 c-3 -8 -6 -5 -6 6 -1 11 2 17 5 13 3 -3 4
-12 1 -19z m-1077 2 c0 -5 -7 -10 -16 -10 -8 0 -12 5 -9 10 3 6 10 10 16 10 5
0 9 -4 9 -10z m-20 -30 c0 -5 -4 -10 -10 -10 -5 0 -10 5 -10 10 0 6 5 10 10
10 6 0 10 -4 10 -10z m1100 -90 c0 -27 -3 -50 -8 -50 -4 0 -7 21 -6 48 2 53 2
52 9 52 3 0 5 -22 5 -50z m-768 19 c-12 -11 -27 -17 -33 -13 -8 4 -3 12 12 20
36 20 46 17 21 -7z m126 -76 c-10 -2 -28 -2 -40 0 -13 2 -5 4 17 4 22 1 32 -1
23 -4z m-83 -26 c27 -20 10 -37 -39 -37 -46 0 -83 20 -72 38 10 16 88 15 111
-1z m460 -7 c-3 -5 -4 -10 -1 -10 2 0 12 -3 22 -7 13 -5 15 -3 9 7 -6 10 12
12 94 8 56 -3 104 -8 107 -11 4 -3 -1 -13 -9 -21 -8 -9 -17 -21 -19 -28 -5
-15 -168 -13 -278 2 -36 5 -90 10 -121 10 -31 0 -70 3 -87 6 -27 6 -30 9 -21
25 9 18 20 19 138 15 71 -2 135 0 142 5 19 12 32 11 24 -1z m265 -38 c0 -15
-2 -15 -10 -2 -13 20 -13 33 0 25 6 -3 10 -14 10 -23z m3709 12 c36 -7 42 -34
9 -35 -95 -4 -148 6 -148 27 0 15 79 20 139 8z m-7571 -36 c-3 -7 -10 -13 -16
-12 -7 1 -21 2 -32 3 -35 2 -21 21 16 21 24 0 34 -4 32 -12z m77 -8 c-3 -5
-10 -10 -16 -10 -5 0 -9 5 -9 10 0 6 7 10 16 10 8 0 12 -4 9 -10z m7968 -97
c6 -126 9 -1199 3 -1192 -2 2 -6 36 -10 74 -3 39 -10 120 -15 180 -12 132 -25
1020 -16 1035 3 5 12 10 19 10 10 0 15 -28 19 -107z m39 -366 c2 -251 0 -457
-4 -457 -5 0 -8 71 -8 158 0 86 -3 297 -6 467 -5 217 -3 307 4 300 7 -7 12
-164 14 -468z m-3962 413 c0 -5 -20 -10 -44 -10 -26 0 -46 -5 -49 -12 -3 -8
-6 -7 -6 4 -1 9 -11 19 -23 21 -13 2 10 5 50 6 42 0 72 -3 72 -9z m113 -7 c-7
-2 -19 -2 -25 0 -7 3 -2 5 12 5 14 0 19 -2 13 -5z m125 -10 c-10 -2 -28 -2
-40 0 -13 2 -5 4 17 4 22 1 32 -1 23 -4z m85 -10 c-7 -2 -19 -2 -25 0 -7 3 -2
5 12 5 14 0 19 -2 13 -5z m-2675 -10 c-10 -2 -26 -2 -35 0 -10 3 -2 5 17 5 19
0 27 -2 18 -5z m52 -14 c4 -5 565 -60 608 -59 6 0 12 -7 12 -16 0 -20 -26 -19
-505 16 -294 22 -364 33 -372 57 -3 9 27 12 124 10 70 -1 130 -5 133 -8z
m-1370 -14 c0 -13 3 -13 26 1 19 13 28 14 37 5 9 -10 8 -15 -6 -22 -10 -6 -22
-21 -27 -35 -7 -17 -16 -23 -35 -22 -28 3 -34 18 -7 19 13 0 14 2 2 6 -34 13
-42 63 -10 63 11 0 20 -7 20 -15z m120 -5 c0 -5 -5 -10 -11 -10 -5 0 -7 5 -4
10 3 6 8 10 11 10 2 0 4 -4 4 -10z m7085 -20 c3 -5 -3 -10 -14 -10 -11 0 -23
5 -26 10 -3 6 3 10 14 10 11 0 23 -4 26 -10z m-7134 -42 c-3 -25 -6 -34 -9
-23 -2 11 -9 23 -16 27 -7 5 -4 12 9 22 11 9 20 16 20 16 0 0 -2 -19 -4 -42z
m-1694 6 c-3 -3 -12 -4 -19 -1 -8 3 -5 6 6 6 11 1 17 -2 13 -5z m3668 -9 c0
-5 -10 -11 -22 -13 -16 -2 -23 2 -23 13 0 11 7 15 23 13 12 -2 22 -7 22 -13z
m-3720 -5 c-3 -5 -13 -10 -21 -10 -8 0 -12 5 -9 10 3 6 13 10 21 10 8 0 12 -4
9 -10z m3839 -128 c3 -5 -1 -9 -9 -9 -8 0 -12 4 -9 9 3 4 7 8 9 8 2 0 6 -4 9
-8z m72 -31 c-3 -5 -17 -11 -32 -14 -29 -5 -20 9 11 16 11 3 21 5 23 6 2 0 1
-3 -2 -8z m-62 -67 c3 -8 2 -12 -4 -9 -6 3 -10 10 -10 16 0 14 7 11 14 -7z
m57 -46 c-11 -11 -13 -10 -7 0 4 7 2 21 -5 30 -12 15 -11 15 6 0 16 -15 17
-20 6 -30z m3196 -14 c-3 -3 -12 -4 -19 -1 -8 3 -5 6 6 6 11 1 17 -2 13 -5z
m-5497 -28 c0 -2 -7 -7 -16 -10 -8 -3 -12 -2 -9 4 6 10 25 14 25 6z m2280 -6
c13 -8 13 -10 -2 -10 -9 0 -20 5 -23 10 -8 13 5 13 25 0z m-46 -16 c3 -8 2
-12 -4 -9 -6 3 -10 10 -10 16 0 14 7 11 14 -7z m-2144 -113 c0 -11 -3 -11 -14
-1 -8 6 -12 18 -9 27 5 12 7 12 14 1 5 -7 9 -19 9 -27z m2160 35 c0 -2 -7 -6
-15 -10 -8 -3 -15 -1 -15 4 0 6 7 10 15 10 8 0 15 -2 15 -4z m1532 -36 c7 -11
18 -20 25 -20 19 0 16 -23 -7 -48 -18 -18 -18 -22 -5 -22 26 0 13 -33 -15 -41
-14 -4 -54 -7 -90 -8 -51 0 -70 4 -89 19 l-23 20 31 27 c17 15 31 35 31 44 0
22 24 41 43 33 8 -3 18 -1 22 5 11 19 64 13 77 -9z m-4197 -50 c3 -5 2 -10 -4
-10 -5 0 -13 5 -16 10 -3 6 -2 10 4 10 5 0 13 -4 16 -10z m2655 0 c8 -5 11
-10 5 -10 -5 0 -17 5 -25 10 -8 5 -10 10 -5 10 6 0 17 -5 25 -10z m40 0 c0 -5
-2 -10 -4 -10 -3 0 -8 5 -11 10 -3 6 -1 10 4 10 6 0 11 -4 11 -10z m5039 -36
c4 -3 5 -43 1 -59 -1 -5 -2 -20 -1 -32 1 -27 21 -31 22 -5 0 12 3 10 12 -8 11
-24 11 -24 15 13 2 20 7 37 13 37 14 0 11 -44 -7 -79 -9 -18 -13 -42 -10 -56
3 -13 1 -27 -5 -30 -6 -5 -8 -23 -4 -49 7 -39 6 -40 -9 -21 -15 19 -16 19 -5
-10 17 -49 -6 -14 -30 44 -13 33 -17 57 -12 61 6 3 7 20 1 45 -5 21 -6 43 -3
48 3 4 -4 11 -16 14 -18 5 -22 22 -11 53 1 3 1 16 0 28 -1 21 2 23 22 17 12
-4 25 -9 27 -11z m-5092 -16 c-3 -8 -6 -5 -6 6 -1 11 2 17 5 13 3 -3 4 -12 1
-19z m64 -7 c7 12 9 12 9 -1 0 -8 -4 -22 -9 -29 -6 -9 -6 -22 0 -32 7 -15 5
-17 -12 -14 -12 3 -24 7 -28 11 -3 4 2 4 11 1 14 -5 16 1 13 46 -1 29 -1 41 2
28 4 -19 7 -21 14 -10z m-2516 9 c-3 -5 -11 -10 -16 -10 -6 0 -7 5 -4 10 3 6
11 10 16 10 6 0 7 -4 4 -10z m-75 -15 c0 -8 -7 -15 -15 -15 -13 0 -14 3 -3 15
16 18 18 18 18 0z m2557 -11 c-3 -3 -12 -4 -19 -1 -8 3 -5 6 6 6 11 1 17 -2
13 -5z m-4532 -14 c-28 -12 -45 -12 -45 0 0 6 15 10 33 9 27 0 29 -2 12 -9z
m4515 -9 c0 -6 -4 -13 -10 -16 -5 -3 -10 1 -10 9 0 9 5 16 10 16 6 0 10 -4 10
-9z m-4593 -7 c-3 -3 -12 -4 -19 -1 -8 3 -5 6 6 6 11 1 17 -2 13 -5z m-72 -34
c4 -6 11 -8 16 -5 15 10 10 -2 -8 -16 -10 -8 -14 -9 -10 -2 4 7 0 16 -10 22
-10 6 -13 11 -6 11 6 0 15 -5 18 -10z m-25 -10 c8 -5 11 -10 5 -10 -5 0 -17 5
-25 10 -8 5 -10 10 -5 10 6 0 17 -5 25 -10z m2850 -10 c24 -8 24 -8 -7 -9 -17
-1 -35 4 -38 9 -7 11 9 11 45 0z m-1256 -15 c-4 -8 -8 -15 -10 -15 -2 0 -4 7
-4 15 0 8 4 15 10 15 5 0 7 -7 4 -15z m1383 9 c-3 -3 -12 -4 -19 -1 -8 3 -5 6
6 6 11 1 17 -2 13 -5z m-1366 -37 c-6 -6 -11 -22 -11 -35 0 -19 4 -22 20 -17
14 5 20 2 20 -9 0 -9 4 -16 9 -16 4 0 11 -44 14 -99 3 -54 11 -109 18 -122 7
-13 14 -43 15 -66 l1 -41 -141 5 c-78 3 -149 10 -160 15 -14 7 -16 7 -11 -2 6
-9 1 -10 -16 -4 -13 4 -44 8 -68 8 l-45 1 -2 67 c-1 38 2 70 7 74 5 3 9 12 9
20 0 9 -5 12 -12 8 -6 -4 -3 5 8 19 10 15 23 27 28 27 5 0 2 -8 -8 -19 -15
-17 -15 -19 0 -32 14 -11 15 -10 12 6 -1 10 4 20 12 22 13 4 13 3 0 -7 -12 -9
-11 -10 7 -5 12 3 24 1 28 -5 3 -5 21 -10 40 -10 25 0 35 5 40 21 4 11 9 18
13 15 3 -3 11 3 19 14 8 11 19 20 25 20 7 0 3 -7 -8 -15 -17 -13 -17 -14 -2
-15 9 0 20 5 24 11 4 8 9 7 16 -2 8 -11 9 -10 4 4 -8 27 5 80 17 68 7 -7 7
-14 -1 -23 -7 -9 -7 -19 -2 -28 8 -12 10 -10 10 8 0 13 4 21 9 17 5 -3 17 2
26 11 15 15 14 17 -2 31 -17 14 -17 14 3 10 17 -4 20 0 16 19 -5 26 19 95 26
75 2 -7 -1 -18 -7 -24z m27 -2 c-1 -19 -8 -37 -15 -39 -10 -4 -11 -1 -3 14 5
10 10 28 10 39 0 12 2 21 5 21 3 0 5 -16 3 -35z m-1704 0 c-10 -8 -23 -15 -28
-15 -6 0 -1 7 10 15 10 8 23 15 28 15 6 0 1 -7 -10 -15z m4825 12 c-2 -1 -13
-9 -24 -17 -19 -14 -19 -14 -6 3 7 9 18 17 24 17 6 0 8 -1 6 -3z m-3185 -43
c3 -8 2 -12 -4 -9 -6 3 -10 10 -10 16 0 14 7 11 14 -7z m3176 2 c0 -3 -4 -8
-10 -11 -5 -3 -10 -1 -10 4 0 6 5 11 10 11 6 0 10 -2 10 -4z m-2366 -41 c160
-18 213 -28 225 -41 19 -20 18 -19 -289 21 -107 13 -210 25 -227 25 -32 0 -41
9 -25 24 4 5 30 5 57 2 28 -4 144 -17 259 -31z m3756 -5 l-25 -6 25 -7 c38
-10 53 -8 47 6 -6 15 69 11 79 -5 3 -5 12 -4 20 3 20 16 31 2 16 -21 -10 -16
-8 -19 16 -23 21 -3 18 -5 -13 -6 -36 -2 -38 -3 -16 -12 13 -5 32 -7 41 -4 14
4 19 -1 22 -24 5 -33 -3 -54 -18 -49 -5 2 -9 -1 -9 -7 0 -5 8 -10 18 -9 10 0
17 -7 17 -17 0 -24 -16 -32 -37 -20 -11 6 -24 6 -35 0 -12 -7 -18 -6 -18 2 0
7 -14 10 -40 7 -22 -2 -41 0 -42 4 -2 3 -34 10 -72 13 -66 7 -106 21 -106 37
0 5 5 8 10 8 6 0 10 -4 10 -9 0 -17 66 -22 101 -7 26 12 29 15 13 16 -25 0
-36 20 -24 40 5 8 4 22 -1 31 -5 10 -9 27 -9 38 0 12 -6 21 -12 21 -10 0 -10
2 0 9 7 4 25 6 40 3 l27 -6 -25 -6z m-4582 -30 c-2 -7 -10 1 -17 16 -12 27
-11 28 4 12 10 -9 16 -21 13 -28z m8201 -27 c15 -31 17 -42 8 -34 -19 15 -25
6 -25 -39 0 -19 -5 -46 -11 -60 -9 -23 -10 -21 -10 18 -1 23 -5 42 -10 42 -5
0 -12 7 -15 16 -3 8 -2 13 3 10 5 -3 7 16 5 42 -3 36 -2 41 5 22 l9 -25 1 28
c1 39 14 33 40 -20z m228 -20 c-2 -16 -4 -5 -4 22 0 28 2 40 4 28 2 -13 2 -35
0 -50z m-8713 24 c4 -19 3 -26 -4 -22 -5 3 -10 18 -10 32 0 32 5 28 14 -10z
m3444 15 c6 -18 -15 -14 -22 4 -4 10 -1 14 6 12 6 -2 14 -10 16 -16z m-1838
-17 c63 -8 153 -19 200 -25 201 -23 526 -65 635 -81 44 -7 91 -12 104 -12 13
1 19 -2 13 -5 -5 -4 27 -8 71 -8 45 -1 129 -9 187 -17 58 -9 149 -21 202 -28
60 -7 95 -15 91 -21 -6 -11 -35 -9 -248 16 -71 9 -168 20 -215 26 -341 40
-644 76 -875 105 -148 19 -297 37 -330 41 -33 3 -66 10 -73 13 -23 13 121 10
238 -4z m-1621 -45 c0 -10 -3 -8 -9 5 -12 27 -12 43 0 25 5 -8 9 -22 9 -30z
m5141 10 c0 -5 -2 -10 -4 -10 -3 0 -8 5 -11 10 -3 6 -1 10 4 10 6 0 11 -4 11
-10z m-4990 -30 c0 -5 -8 -10 -17 -10 -15 0 -16 2 -3 10 19 12 20 12 20 0z
m3311 -8 c-13 -2 -27 0 -32 5 -6 6 3 7 23 4 28 -4 29 -6 9 -9z m4988 -156 c1
-19 0 -19 -12 -2 -8 10 -11 30 -9 45 l6 26 7 -25 c4 -14 7 -34 8 -44z m290
-39 c6 -43 11 -88 10 -100 -1 -33 -38 123 -39 163 0 59 18 20 29 -63z m-5374
53 c44 -6 88 -11 97 -11 10 0 20 -5 24 -10 6 -11 -48 -8 -248 13 -63 6 -105
15 -102 20 7 10 99 5 229 -12z m5122 -12 c-3 -7 -5 -2 -5 12 0 14 2 19 5 13 2
-7 2 -19 0 -25z m-4922 -18 c4 -6 -7 -10 -27 -9 -27 0 -30 2 -13 9 27 12 33
12 40 0z m4852 -42 c-3 -7 -5 -2 -5 12 0 14 2 19 5 13 2 -7 2 -19 0 -25z m440
-10 c-3 -8 -6 -5 -6 6 -1 11 2 17 5 13 3 -3 4 -12 1 -19z m-8764 -5 c-7 -2
-19 -2 -25 0 -7 3 -2 5 12 5 14 0 19 -2 13 -5z m8324 -25 c-3 -8 -6 -5 -6 6
-1 11 2 17 5 13 3 -3 4 -12 1 -19z m35 -5 c6 -22 -1 -43 -13 -43 -5 0 -9 14
-9 30 0 33 15 41 22 13z"/>
<path d="M4800 8512 c0 -11 7 -13 31 -8 17 3 43 6 57 6 46 0 12 14 -38 16 -39
1 -50 -2 -50 -14z"/>
<path d="M4177 8509 c7 -7 21 -7 44 -1 l34 10 -44 1 c-32 1 -42 -2 -34 -10z"/>
<path d="M4500 8510 c-34 -7 -34 -7 -5 -8 17 0 44 4 60 8 27 7 27 8 5 8 -14
-1 -41 -4 -60 -8z"/>
<path d="M4690 8494 l-25 -15 25 7 c14 3 32 10 40 15 13 7 13 8 0 8 -8 0 -26
-6 -40 -15z"/>
<path d="M4390 8490 c-10 -6 -2 -7 25 -3 49 7 58 13 19 13 -16 0 -36 -5 -44
-10z"/>
<path d="M4480 8475 c-74 -13 -180 -29 -235 -34 -99 -11 -208 -31 -202 -38 2
-1 39 2 83 7 43 6 133 17 198 26 65 8 123 17 127 20 4 2 40 7 80 10 40 3 84
11 98 19 36 20 16 18 -149 -10z"/>
<path d="M4985 8490 c3 -5 8 -10 11 -10 2 0 4 5 4 10 0 6 -5 10 -11 10 -5 0
-7 -4 -4 -10z"/>
<path d="M4187 8470 c-32 -4 -64 -13 -70 -20 -10 -10 -8 -12 6 -6 10 3 43 9
73 12 30 4 57 11 60 15 3 5 2 8 -3 8 -4 -1 -34 -5 -66 -9z"/>
<path d="M4538 8393 c-26 -6 -22 -23 5 -23 17 0 19 -2 7 -10 -12 -8 -12 -10 2
-15 24 -9 38 2 38 31 0 24 -11 28 -52 17z"/>
<path d="M4212 8377 c-8 -9 -4 -15 14 -24 20 -9 26 -9 30 2 12 30 -23 48 -44
22z"/>
<path d="M3455 8290 c-3 -6 -11 -8 -16 -5 -5 4 -9 1 -9 -4 0 -6 0 -14 0 -18 0
-5 3 -8 8 -8 4 0 13 -4 20 -8 7 -5 12 -4 12 2 0 6 6 11 13 11 7 0 21 6 31 13
13 10 14 14 5 14 -8 0 -24 3 -36 7 -12 4 -24 2 -28 -4z"/>
<path d="M2485 8234 c-60 -7 -153 -15 -205 -19 -121 -7 -240 -25 -240 -36 0
-5 -7 -5 -17 -2 -11 4 -14 3 -9 -5 8 -13 88 -17 99 -5 4 3 22 8 39 9 51 5 206
24 273 34 33 5 93 12 133 16 41 3 86 10 100 14 41 13 -40 10 -173 -6z"/>
<path d="M2888 8243 c7 -3 16 -2 19 1 4 3 -2 6 -13 5 -11 0 -14 -3 -6 -6z"/>
<path d="M3105 8240 c-18 -8 -17 -9 8 -9 16 -1 26 3 22 9 -3 6 -7 10 -8 9 -1
0 -11 -4 -22 -9z"/>
<path d="M2858 8224 c-6 -5 -151 -13 -233 -13 -70 0 -314 -35 -308 -44 4 -6
-4 -7 -19 -4 -25 7 -113 -5 -125 -16 -7 -7 22 -37 36 -37 12 0 32 -10 211 -99
69 -35 132 -69 140 -75 14 -12 117 -59 150 -68 8 -3 10 -7 4 -11 -6 -3 -27 3
-47 13 -20 11 -43 20 -49 20 -7 0 42 -28 110 -62 67 -33 121 -63 119 -65 -3
-2 -16 1 -30 6 -40 15 -43 -5 -5 -29 18 -11 38 -22 43 -25 6 -3 5 -7 -2 -11
-13 -6 -7 -31 15 -56 8 -10 12 -24 8 -33 -3 -9 1 -18 9 -21 8 -4 15 -13 15
-20 0 -26 23 -42 47 -33 17 6 23 5 23 -5 0 -25 30 -27 39 -3 9 21 9 21 16 -7
l8 -29 18 24 c10 13 19 29 19 34 0 15 -76 75 -95 75 -9 0 -13 5 -10 10 4 7 12
7 25 0 24 -13 57 -13 65 0 8 13 -14 42 -25 35 -12 -8 -41 6 -34 16 3 5 -2 9
-11 9 -11 0 -15 5 -11 15 4 12 0 14 -20 9 -23 -6 -25 -4 -23 17 2 13 0 30 -5
38 -5 8 -4 16 4 21 17 10 4 44 -14 37 -21 -8 -7 35 18 55 18 15 19 19 6 28 -9
6 -10 10 -3 10 6 0 18 -7 27 -15 14 -14 46 -21 46 -10 0 3 -9 16 -21 28 -18
20 -19 22 -3 25 9 2 27 -8 40 -24 13 -15 24 -22 24 -16 0 7 15 12 35 12 19 0
35 5 35 10 0 6 -14 10 -31 10 -28 0 -30 2 -28 33 4 57 0 66 -28 73 -35 9 -53
27 -53 53 0 20 -5 21 -65 20 -36 -1 -65 -5 -65 -10 0 -5 7 -9 16 -9 21 0 14
-34 -8 -38 -11 -2 -18 6 -23 28 -6 25 -11 31 -26 27 -13 -3 -24 2 -32 14 -8
12 -23 19 -44 19 -18 0 -33 4 -33 9 0 4 19 5 43 0 62 -12 77 -11 71 5 -4 11 4
14 34 13 25 -1 38 -6 35 -14 -3 -6 10 -14 28 -18 24 -6 34 -3 41 9 7 13 13 14
23 6 8 -7 16 -7 19 -2 9 15 -46 46 -81 46 -18 0 -33 4 -33 8 0 9 -14 11 -22 2z
m183 -206 c5 1 9 -2 9 -8 0 -5 -4 -10 -9 -10 -5 0 -18 -3 -28 -6 -15 -5 -15
-4 -3 5 12 8 12 13 2 23 -6 6 -12 17 -12 23 0 5 8 1 16 -10 8 -11 20 -19 25
-17z m-92 -370 c-6 -11 -8 -26 -5 -33 3 -8 1 -17 -4 -20 -6 -4 -10 13 -10 39
0 36 3 44 15 40 11 -5 12 -10 4 -26z"/>
<path d="M3160 8210 c0 -5 7 -10 16 -10 8 0 12 5 9 10 -3 6 -10 10 -16 10 -5
0 -9 -4 -9 -10z"/>
<path d="M1997 8099 c7 -7 15 -10 18 -7 3 3 -2 9 -12 12 -14 6 -15 5 -6 -5z"/>
<path d="M2155 8101 c5 -10 65 -40 198 -101 27 -12 51 -19 54 -16 3 3 -34 24
-83 48 -49 23 -96 47 -104 53 -20 17 -74 29 -65 16z"/>
<path d="M2136 8045 c6 -16 44 -41 56 -37 3 1 12 -5 18 -13 7 -8 19 -15 27
-15 8 0 11 -4 8 -10 -4 -6 11 -10 37 -10 45 0 122 -24 149 -47 9 -7 26 -16 38
-18 13 -2 48 -14 79 -25 87 -33 50 -9 -78 49 -63 29 -122 57 -130 62 -8 5 -22
12 -30 15 -8 3 -45 19 -83 35 -76 33 -99 36 -91 14z"/>
<path d="M2490 7939 c36 -17 73 -35 83 -41 11 -5 21 -7 24 -4 7 6 -105 61
-142 70 -16 3 -1 -8 35 -25z"/>
<path d="M2267 7903 c-3 -5 -2 -15 2 -22 7 -10 10 -10 16 -1 4 6 3 16 -3 22
-5 5 -12 6 -15 1z"/>
<path d="M2670 7824 c0 -13 30 -34 47 -34 11 0 24 -5 31 -12 9 -9 15 -9 24 0
9 9 7 12 -9 12 -12 0 -24 4 -27 9 -7 10 -66 33 -66 25z"/>
<path d="M3660 7796 c0 -14 29 -31 38 -21 6 6 -18 35 -29 35 -5 0 -9 -6 -9
-14z"/>
<path d="M4910 7673 c0 -106 12 -153 26 -99 9 38 -1 185 -14 198 -9 9 -12 -15
-12 -99z"/>
<path d="M2141 7668 c0 -7 4 -22 9 -33 7 -17 9 -15 9 13 1 17 -3 32 -9 32 -5
0 -10 -6 -9 -12z"/>
<path d="M2140 7577 c0 -10 5 -15 10 -12 6 3 10 -1 10 -10 0 -9 -4 -13 -10
-10 -6 4 -10 -7 -10 -25 0 -18 -4 -29 -10 -25 -6 4 -10 -6 -10 -24 0 -16 5
-33 10 -36 8 -5 7 -11 0 -20 -7 -8 -9 -19 -5 -25 4 -6 1 -18 -6 -26 -11 -13
-12 -41 -9 -194 0 -26 3 -31 10 -20 7 11 10 7 10 -17 0 -18 5 -33 10 -33 6 0
10 -7 10 -16 0 -9 -5 -12 -12 -8 -6 4 -8 3 -5 -3 4 -6 16 -13 27 -16 17 -4 20
0 20 28 0 19 6 40 13 47 17 18 22 95 6 114 -10 13 -10 17 2 24 11 8 11 12 -6
24 -11 9 -17 16 -13 16 3 0 0 21 -8 46 -13 45 -13 47 12 77 25 29 25 30 6 48
-12 11 -18 26 -15 41 3 15 -3 33 -16 48 -17 21 -20 22 -21 7z"/>
<path d="M2121 7534 c0 -11 3 -14 6 -6 3 7 2 16 -1 19 -3 4 -6 -2 -5 -13z"/>
<path d="M3240 7519 c0 -5 5 -7 10 -4 6 3 10 8 10 11 0 2 -4 4 -10 4 -5 0 -10
-5 -10 -11z"/>
<path d="M5076 7511 c-4 -6 -16 -11 -27 -11 -25 0 -25 -26 0 -40 30 -16 38
-12 44 18 6 29 -6 51 -17 33z"/>
<path d="M4205 7490 c-3 -5 1 -10 10 -10 9 0 13 5 10 10 -3 6 -8 10 -10 10 -2
0 -7 -4 -10 -10z"/>
<path d="M5130 7490 c0 -5 5 -10 10 -10 6 0 10 5 10 10 0 6 -4 10 -10 10 -5 0
-10 -4 -10 -10z"/>
<path d="M2892 7448 c-6 -6 -12 -20 -12 -29 0 -10 -3 -25 -6 -34 -5 -13 -8
-14 -15 -3 -6 8 -9 -5 -9 -36 0 -39 3 -47 15 -42 11 4 21 -5 32 -29 21 -44 30
-44 39 0 3 20 12 35 20 35 26 0 8 71 -31 124 -16 21 -23 24 -33 14z m-25 -120
c-3 -7 -5 -2 -5 12 0 14 2 19 5 13 2 -7 2 -19 0 -25z"/>
<path d="M10102 7420 c0 -14 2 -19 5 -12 2 6 2 18 0 25 -3 6 -5 1 -5 -13z"/>
<path d="M2525 7410 c-3 -5 -1 -10 4 -10 6 0 11 5 11 10 0 6 -2 10 -4 10 -3 0
-8 -4 -11 -10z"/>
<path d="M2527 7347 c-3 -9 5 -25 20 -38 14 -13 29 -33 34 -44 8 -17 9 -16 4
5 -2 14 -5 33 -5 43 0 10 -8 21 -17 24 -10 4 -21 11 -24 16 -3 5 -9 2 -12 -6z"/>
<path d="M2595 7327 c-4 -14 -3 -32 1 -39 5 -7 7 -23 6 -35 -2 -11 2 -24 8
-28 7 -5 10 12 7 54 -4 68 -13 86 -22 48z"/>
<path d="M2640 7259 c0 -5 5 -7 10 -4 6 3 10 8 10 11 0 2 -4 4 -10 4 -5 0 -10
-5 -10 -11z"/>
<path d="M2630 7220 c0 -5 5 -10 10 -10 6 0 10 5 10 10 0 6 -4 10 -10 10 -5 0
-10 -4 -10 -10z"/>
<path d="M3613 7055 c0 -27 2 -38 4 -22 2 15 2 37 0 50 -2 12 -4 0 -4 -28z"/>
<path d="M9812 7070 c0 -14 2 -19 5 -12 2 6 2 18 0 25 -3 6 -5 1 -5 -13z"/>
<path d="M9813 7000 c0 -25 2 -35 4 -22 2 12 2 32 0 45 -2 12 -4 2 -4 -23z"/>
<path d="M9812 6885 c0 -16 2 -22 5 -12 2 9 2 23 0 30 -3 6 -5 -1 -5 -18z"/>
<path d="M9823 6485 c0 -44 2 -61 4 -37 2 23 2 59 0 80 -2 20 -4 1 -4 -43z"/>
<path d="M8068 6041 c-31 -3 -60 -10 -65 -15 -4 -4 17 -5 47 -2 30 3 76 5 103
6 26 0 47 5 47 10 0 11 -39 11 -132 1z"/>
<path d="M9819 6015 c18 -8 43 -15 55 -14 12 0 1 7 -24 15 -58 18 -74 17 -31
-1z"/>
<path d="M2350 5996 c0 -2 7 -7 16 -10 8 -3 12 -2 9 4 -6 10 -25 14 -25 6z"/>
<path d="M2315 5980 c-3 -5 -1 -10 4 -10 6 0 11 5 11 10 0 6 -2 10 -4 10 -3 0
-8 -4 -11 -10z"/>
<path d="M2335 5960 c-3 -5 1 -10 10 -10 9 0 13 5 10 10 -3 6 -8 10 -10 10 -2
0 -7 -4 -10 -10z"/>
<path d="M9392 5929 c-22 -20 -29 -63 -14 -87 5 -7 23 -16 40 -21 41 -12 82
17 82 58 0 53 -70 86 -108 50z"/>
<path d="M2590 5874 c0 -14 4 -23 10 -19 6 3 10 15 10 26 0 10 -4 19 -10 19
-5 0 -10 -12 -10 -26z"/>
<path d="M2410 5873 c0 -13 5 -23 10 -23 13 0 13 11 0 30 -8 12 -10 11 -10 -7z"/>
<path d="M4347 5844 c-8 -8 3 -34 14 -34 11 0 12 27 0 34 -4 3 -11 3 -14 0z"/>
<path d="M3195 5810 c3 -5 8 -10 11 -10 2 0 4 5 4 10 0 6 -5 10 -11 10 -5 0
-7 -4 -4 -10z"/>
<path d="M2590 5711 c0 -6 5 -13 10 -16 6 -3 10 1 10 9 0 9 -4 16 -10 16 -5 0
-10 -4 -10 -9z"/>
<path d="M6360 5691 c0 -5 9 -7 20 -4 11 3 20 7 20 9 0 2 -9 4 -20 4 -11 0
-20 -4 -20 -9z"/>
<path d="M4602 5650 c0 -14 2 -19 5 -12 2 6 2 18 0 25 -3 6 -5 1 -5 -13z"/>
<path d="M8705 5650 c3 -5 8 -10 11 -10 2 0 4 5 4 10 0 6 -5 10 -11 10 -5 0
-7 -4 -4 -10z"/>
<path d="M3155 5640 c-3 -5 -2 -10 4 -10 5 0 13 5 16 10 3 6 2 10 -4 10 -5 0
-13 -4 -16 -10z"/>
<path d="M6600 5590 c0 -5 -7 -10 -15 -10 -8 0 -15 -4 -15 -10 0 -11 43 -14
53 -4 8 8 -3 34 -14 34 -5 0 -9 -4 -9 -10z"/>
<path d="M4584 5569 c-4 -7 0 -17 9 -24 9 -6 17 -30 20 -56 3 -41 4 -41 5 12
1 38 -3 60 -12 68 -11 9 -16 9 -22 0z"/>
<path d="M7145 5570 c-3 -5 -1 -10 4 -10 6 0 11 5 11 10 0 6 -2 10 -4 10 -3 0
-8 -4 -11 -10z"/>
<path d="M4540 5452 c0 -12 19 -26 26 -19 2 2 -2 10 -11 17 -9 8 -15 8 -15 2z"/>
<path d="M4613 5395 c0 -27 2 -38 4 -22 2 15 2 37 0 50 -2 12 -4 0 -4 -28z"/>
<path d="M4584 5389 c-3 -6 -1 -16 5 -22 8 -8 11 -5 11 11 0 24 -5 28 -16 11z"/>
<path d="M4610 5267 c-3 -44 -1 -81 3 -84 13 -8 13 -3 7 82 l-6 80 -4 -78z"/>
<path d="M5756 5277 c3 -10 9 -15 12 -12 3 3 0 11 -7 18 -10 9 -11 8 -5 -6z"/>
<path d="M4490 5186 c0 -2 7 -6 15 -10 8 -3 15 -1 15 4 0 6 -7 10 -15 10 -8 0
-15 -2 -15 -4z"/>
<path d="M4576 5150 c-19 -6 -19 -7 -1 -14 10 -3 22 -3 28 3 12 12 -4 20 -27
11z"/>
<path d="M4650 5005 c0 -18 -4 -24 -12 -19 -9 5 -9 3 1 -9 13 -17 62 -14 69 5
2 4 8 5 14 2 5 -3 4 3 -4 15 -7 12 -18 21 -25 21 -6 0 -18 3 -27 6 -12 5 -16
0 -16 -21z"/>
<path d="M4712 4880 c0 -19 2 -27 5 -17 2 9 2 25 0 35 -3 9 -5 1 -5 -18z"/>
<path d="M5735 4870 c3 -5 8 -10 11 -10 2 0 4 5 4 10 0 6 -5 10 -11 10 -5 0
-7 -4 -4 -10z"/>
<path d="M4545 4800 c-14 -6 3 -9 53 -8 39 0 72 4 72 9 0 11 -99 10 -125 -1z"/>
<path d="M9230 4495 c0 -8 5 -15 10 -15 6 0 10 7 10 15 0 8 -4 15 -10 15 -5 0
-10 -7 -10 -15z"/>
<path d="M9288 4283 c6 -2 18 -2 25 0 6 3 1 5 -13 5 -14 0 -19 -2 -12 -5z"/>
<path d="M6372 4240 c0 -14 2 -19 5 -12 2 6 2 18 0 25 -3 6 -5 1 -5 -13z"/>
<path d="M9543 4210 c-8 -12 -9 -21 -3 -25 15 -9 30 4 30 26 0 24 -12 24 -27
-1z"/>
<path d="M9600 4220 c0 -5 7 -10 15 -10 8 0 15 5 15 10 0 6 -7 10 -15 10 -8 0
-15 -4 -15 -10z"/>
<path d="M6383 4165 c0 -22 2 -30 4 -17 2 12 2 30 0 40 -3 9 -5 -1 -4 -23z"/>
<path d="M9600 4196 c0 -2 7 -6 15 -10 8 -3 15 -1 15 4 0 6 -7 10 -15 10 -8 0
-15 -2 -15 -4z"/>
<path d="M6393 4040 c0 -41 2 -58 4 -37 2 20 2 54 0 75 -2 20 -4 3 -4 -38z"/>
<path d="M6381 3884 c0 -11 3 -14 6 -6 3 7 2 16 -1 19 -3 4 -6 -2 -5 -13z"/>
<path d="M6361 3824 c0 -11 3 -14 6 -6 3 7 2 16 -1 19 -3 4 -6 -2 -5 -13z"/>
<path d="M6391 3804 c0 -11 3 -14 6 -6 3 7 2 16 -1 19 -3 4 -6 -2 -5 -13z"/>
<path d="M6371 3734 c0 -11 3 -14 6 -6 3 7 2 16 -1 19 -3 4 -6 -2 -5 -13z"/>
<path d="M6555 3730 c3 -5 11 -10 16 -10 6 0 7 5 4 10 -3 6 -11 10 -16 10 -6
0 -7 -4 -4 -10z"/>
<path d="M6392 3670 c0 -14 2 -19 5 -12 2 6 2 18 0 25 -3 6 -5 1 -5 -13z"/>
<path d="M6823 3593 c9 -2 23 -2 30 0 6 3 -1 5 -18 5 -16 0 -22 -2 -12 -5z"/>
<path d="M7044 5865 c-14 -10 -16 -17 -7 -22 6 -5 13 -26 15 -48 2 -28 8 -41
21 -43 11 -2 17 2 15 15 0 10 0 32 2 48 2 25 4 22 9 -15 3 -25 4 -47 1 -50
-10 -10 -11 -40 -1 -40 27 0 38 12 33 38 -5 24 -3 26 11 13 14 -11 21 -11 41
3 18 12 26 12 30 3 3 -8 9 -7 19 6 10 12 17 14 22 8 3 -6 13 -11 21 -11 14 0
15 19 5 103 -3 20 -21 3 -22 -20 0 -28 -1 -28 -11 -5 -11 23 -38 31 -38 11 0
-8 -4 -8 -12 -1 -7 6 -37 10 -66 10 -28 1 -56 3 -61 6 -4 3 -17 -1 -27 -9z
m136 -45 c0 -16 -4 -30 -10 -30 -5 0 -10 14 -10 30 0 17 5 30 10 30 6 0 10
-13 10 -30z"/>
<path d="M6968 5713 c12 -2 32 -2 45 0 12 2 2 4 -23 4 -25 0 -35 -2 -22 -4z"/>
<path d="M6600 5760 c0 -5 5 -10 10 -10 6 0 10 5 10 10 0 6 -4 10 -10 10 -5 0
-10 -4 -10 -10z"/>
<path d="M8968 5543 c7 -3 16 -2 19 1 4 3 -2 6 -13 5 -11 0 -14 -3 -6 -6z"/>
<path d="M9008 5543 c7 -3 16 -2 19 1 4 3 -2 6 -13 5 -11 0 -14 -3 -6 -6z"/>
<path d="M7142 5305 c0 -16 2 -22 5 -12 2 9 2 23 0 30 -3 6 -5 -1 -5 -18z"/>
<path d="M7208 5235 c-6 -30 -3 -43 8 -33 3 4 4 19 2 35 l-3 28 -7 -30z"/>
<path d="M4243 4723 c9 -2 23 -2 30 0 6 3 -1 5 -18 5 -16 0 -22 -2 -12 -5z"/>
<path d="M4630 4664 c0 -8 5 -12 10 -9 6 3 10 10 10 16 0 5 -4 9 -10 9 -5 0
-10 -7 -10 -16z"/>
<path d="M4196 4651 c-4 -7 -5 -15 -2 -18 9 -9 19 4 14 18 -4 11 -6 11 -12 0z"/>
<path d="M4228 4633 c7 -3 16 -2 19 1 4 3 -2 6 -13 5 -11 0 -14 -3 -6 -6z"/>
<path d="M4520 4620 c0 -11 2 -20 4 -20 2 0 6 9 9 20 3 11 1 20 -4 20 -5 0 -9
-9 -9 -20z"/>
<path d="M10294 3550 c0 -74 1 -105 3 -67 2 37 2 97 0 135 -2 37 -3 6 -3 -68z"/>
<path d="M10290 3384 c0 -14 4 -23 9 -20 5 3 7 15 4 26 -7 28 -13 25 -13 -6z"/>
<path d="M9738 3465 c2 -19 9 -35 14 -35 6 0 7 7 4 16 -3 9 -6 24 -6 35 0 10
-4 19 -8 19 -4 0 -6 -16 -4 -35z"/>
<path d="M4835 3300 c-3 -5 -1 -10 4 -10 6 0 11 5 11 10 0 6 -2 10 -4 10 -3 0
-8 -4 -11 -10z"/>
<path d="M1810 510 c0 -5 5 -10 10 -10 6 0 10 5 10 10 0 6 -4 10 -10 10 -5 0
-10 -4 -10 -10z"/>
<path d="M1685 410 c27 -12 43 -12 25 0 -8 5 -22 9 -30 9 -10 0 -8 -3 5 -9z"/>
<path d="M1528 383 c7 -3 16 -2 19 1 4 3 -2 6 -13 5 -11 0 -14 -3 -6 -6z"/>
<path d="M6386 431 c-4 -7 -5 -15 -2 -18 9 -9 19 4 14 18 -4 11 -6 11 -12 0z"/>
<path d="M6508 433 c6 -2 18 -2 25 0 6 3 1 5 -13 5 -14 0 -19 -2 -12 -5z"/>
<path d="M6631 9468 c1 -73 5 -207 9 -298 6 -153 6 -144 8 133 1 192 -2 297
-8 297 -6 0 -9 -50 -9 -132z"/>
<path d="M6064 9225 c0 -49 1 -71 3 -48 2 23 2 64 0 90 -2 26 -3 8 -3 -42z"/>
<path d="M6084 8195 c0 -66 1 -92 3 -57 2 34 2 88 0 120 -2 31 -3 3 -3 -63z"/>
<path d="M10234 7660 c0 -80 2 -112 3 -72 2 39 2 105 0 145 -1 39 -3 7 -3 -73z"/>
<path d="M10302 5520 c0 -14 2 -19 5 -12 2 6 2 18 0 25 -3 6 -5 1 -5 -13z"/>
<path d="M10272 4995 c0 -16 2 -22 5 -12 2 9 2 23 0 30 -3 6 -5 -1 -5 -18z"/>
<path d="M10273 4840 c0 -36 2 -50 4 -32 2 17 2 47 0 65 -2 17 -4 3 -4 -33z"/>
<path d="M10282 4390 c0 -14 2 -19 5 -12 2 6 2 18 0 25 -3 6 -5 1 -5 -13z"/>
<path d="M10282 4340 c0 -14 2 -19 5 -12 2 6 2 18 0 25 -3 6 -5 1 -5 -13z"/>
<path d="M10283 4210 c0 -36 2 -50 4 -32 2 17 2 47 0 65 -2 17 -4 3 -4 -33z"/>
<path d="M10280 4114 c0 -8 5 -12 10 -9 6 4 8 11 5 16 -9 14 -15 11 -15 -7z"/>
<path d="M0 1338 c0 -193 3 -348 7 -344 5 4 8 13 8 19 0 7 12 13 28 15 15 2
27 9 27 15 0 7 4 6 10 -3 5 -8 10 -11 10 -6 0 5 -8 18 -17 29 -17 19 -17 19 5
12 21 -6 23 -4 17 13 -5 17 1 25 27 39 18 9 36 16 40 15 4 -1 5 10 2 23 -4 23
-1 25 33 25 29 0 34 3 23 10 -13 8 -11 11 8 16 12 4 22 10 22 15 0 5 9 9 21 9
11 0 18 4 14 10 -3 5 4 19 16 31 17 17 19 23 8 30 -12 8 -12 10 0 18 12 8 12
12 -2 26 -10 9 -17 21 -17 26 0 13 28 11 32 -3 3 -7 12 -9 24 -4 19 7 19 8 0
22 -11 8 -28 14 -39 14 -13 0 -17 5 -14 14 4 10 -2 16 -16 19 -15 3 -12 5 11
6 17 0 32 -4 32 -9 0 -6 6 -5 14 2 12 11 10 14 -13 20 -14 4 11 6 56 4 76 -2
84 -1 103 21 11 13 20 29 20 37 0 7 7 19 15 26 8 7 13 16 10 20 -3 5 2 16 11
24 8 9 10 16 4 16 -7 0 -8 6 -1 18 6 10 7 28 4 40 -5 22 -7 22 -274 22 l-269
0 0 -352z"/>
<path d="M10908 1476 c5 -19 4 -20 -14 -6 -15 11 -16 11 -6 0 6 -8 12 -20 12
-27 0 -19 91 -205 97 -199 7 7 33 -20 33 -34 0 -6 4 -9 8 -6 4 2 8 -4 8 -15 0
-12 -5 -18 -13 -15 -18 7 -16 -3 8 -44 11 -19 18 -27 15 -18 -3 10 0 20 6 24
7 4 8 3 4 -4 -4 -7 -2 -12 4 -12 6 0 8 -10 4 -25 -4 -17 3 -46 21 -88 15 -34
35 -80 45 -102 59 -136 123 -279 188 -420 27 -60 68 -150 90 -200 22 -50 53
-119 69 -155 16 -36 35 -80 42 -97 13 -31 16 -33 66 -33 l53 0 -125 262 c-180
379 -207 436 -290 608 -42 85 -91 187 -109 227 -19 39 -38 75 -44 78 -5 3 -10
15 -10 26 0 10 -4 19 -9 19 -5 0 -12 16 -15 35 -5 22 -11 33 -18 29 -6 -4 -8
-3 -5 4 6 9 -4 35 -66 161 -23 47 -59 67 -49 27z"/>
<path d="M820 1240 c-12 -8 -11 -10 7 -10 12 0 25 5 28 10 8 13 -15 13 -35 0z"/>
<path d="M855 1225 c-35 -17 -69 -19 -60 -5 8 13 15 15 -120 -36 -145 -55
-240 -88 -320 -110 -33 -10 -65 -21 -72 -27 -7 -5 -16 -6 -21 -3 -4 3 -26 -1
-47 -8 -21 -8 -32 -15 -24 -18 8 -3 2 -7 -13 -10 -15 -3 -25 -1 -22 4 5 8 -40
-9 -61 -23 -5 -3 -23 -9 -40 -13 -45 -11 -55 -24 -55 -72 0 -24 1 -44 3 -44 1
0 81 32 177 71 96 40 204 83 240 96 35 13 69 28 75 32 5 5 33 16 60 26 28 10
77 30 110 45 33 15 74 34 92 41 25 10 29 16 21 27 -9 10 -6 11 14 3 19 -7 35
-4 74 15 51 25 42 33 -11 9z"/>
<path d="M10655 795 c3 -225 8 -497 12 -602 l6 -193 78 0 c52 0 79 4 82 13 4
9 6 9 6 0 1 -10 33 -13 126 -13 69 0 125 4 125 8 0 5 -14 46 -31 93 -18 46
-49 131 -69 189 -21 58 -64 175 -95 260 -72 195 -105 283 -143 390 -41 114
-77 209 -91 240 -9 19 -10 -77 -6 -385z m152 -342 c-3 -10 -5 -4 -5 12 0 17 2
24 5 18 2 -7 2 -21 0 -30z m24 -216 c-8 -8 -11 -7 -11 4 0 20 13 34 18 19 3
-7 -1 -17 -7 -23z m6 -119 c-2 -18 -4 -4 -4 32 0 36 2 50 4 33 2 -18 2 -48 0
-65z"/>
<path d="M6185 490 c3 -5 8 -10 11 -10 2 0 4 5 4 10 0 6 -5 10 -11 10 -5 0 -7
-4 -4 -10z"/>
<path d="M1265 330 c-9 -14 24 -25 37 -12 8 8 4 9 -12 5 -16 -4 -21 -3 -16 5
4 7 5 12 2 12 -3 0 -8 -5 -11 -10z"/>
<path d="M1225 300 c-3 -5 -1 -10 4 -10 6 0 11 5 11 10 0 6 -2 10 -4 10 -3 0
-8 -4 -11 -10z"/>
<path d="M1274 281 c0 -15 10 -21 39 -25 22 -4 42 -4 45 -1 3 3 -2 5 -11 5 -9
0 -17 5 -17 11 0 6 -7 8 -16 5 -12 -4 -15 -2 -10 9 3 10 -1 15 -12 15 -11 0
-18 -8 -18 -19z"/>
<path d="M11070 276 c0 -18 73 -210 94 -250 25 -45 34 -23 11 27 -14 28 -25
57 -25 63 0 16 -60 156 -71 169 -6 5 -9 2 -9 -9z"/>
<path d="M1183 230 c-42 -19 -55 -42 -31 -56 16 -10 137 -11 131 -1 -3 5 4 11
15 14 11 2 24 15 30 28 9 20 8 24 -11 29 -39 10 -91 5 -134 -14z"/>
<path d="M5890 221 c0 -5 7 -11 15 -15 9 -3 15 0 15 9 0 8 -7 15 -15 15 -8 0
-15 -4 -15 -9z"/>
</g>
</svg>
