<?xml version="1.0" standalone="no"?>
<!DOCTYPE svg PUBLIC "-//W3C//DTD SVG 20010904//EN"
 "http://www.w3.org/TR/2001/REC-SVG-20010904/DTD/svg10.dtd">
<svg version="1.0" xmlns="http://www.w3.org/2000/svg"
 width="1161.000000pt" height="786.000000pt" viewBox="0 0 1161.000000 786.000000"
 preserveAspectRatio="xMidYMid meet">

<g transform="translate(0.000000,786.000000) scale(0.100000,-0.100000)"
fill="#000000" stroke="none">
<path d="M0 3940 l0 -3920 5750 0 5750 0 -2 3923 c-1 2157 -4 3874 -5 3815
l-4 -108 -329 0 -329 0 -4 108 -3 107 -2 -107 -2 -108 -325 0 -324 0 -4 108
-3 107 -2 -107 -2 -108 -325 0 -324 0 -4 108 -3 107 -2 -107 -2 -108 -325 0
-324 0 -4 108 -3 107 -2 -107 -2 -108 -330 0 -329 0 -4 108 -3 107 -2 -107 -2
-108 -325 0 -324 0 -4 108 -3 107 -2 -107 -2 -108 -325 0 -324 0 -4 108 -3
107 -2 -107 -2 -108 -325 0 -324 0 -4 108 -3 107 -2 -107 -2 -108 -325 0 -325
0 0 105 c0 63 -4 105 -10 105 -6 0 -10 -42 -10 -105 l0 -105 -325 0 -324 0 -4
108 -3 107 -2 -107 -2 -108 -325 0 -324 0 -4 108 -3 107 -2 -107 -2 -108 -325
0 -324 0 -4 108 -3 107 -2 -107 -2 -108 -325 0 -325 0 0 105 c0 63 -4 105 -10
105 -6 0 -10 -42 -10 -105 l0 -105 -325 0 -324 0 -4 108 -3 107 -2 -107 -2
-108 -325 0 -324 0 -4 108 -3 107 -2 -107 -2 -108 -325 0 -324 0 -4 108 -3
107 -2 -107 -2 -108 -325 0 -324 0 -4 108 -3 107 -2 -107 -2 -108 -105 0 -105
0 0 105 c0 63 -4 105 -10 105 -7 0 -10 -1313 -10 -3920z m230 3260 l0 -440
-105 0 -105 0 0 440 0 440 105 0 105 0 0 -440z m11260 -3090 l0 -3530 -5625 0
-5625 0 0 3530 0 3530 5625 0 5625 0 0 -3530z m-11260 2205 l0 -435 -105 0
-105 0 0 435 0 435 105 0 105 0 0 -435z m0 -880 l0 -435 -105 0 -105 0 0 435
0 435 105 0 105 0 0 -435z m0 -885 l0 -440 -105 0 -105 0 0 440 0 440 105 0
105 0 0 -440z m0 -885 l0 -435 -105 0 -105 0 0 435 0 435 105 0 105 0 0 -435z
m0 -880 l0 -435 -105 0 -105 0 0 435 0 435 105 0 105 0 0 -435z m0 -880 l0
-435 -105 0 -105 0 0 435 0 435 105 0 105 0 0 -435z m0 -890 l0 -435 -105 0
-105 0 0 435 0 435 105 0 105 0 0 -435z m2300 -575 l0 -130 -1255 0 -1255 0 0
130 0 130 1255 0 1255 0 0 -130z m6430 -140 l0 -270 -3210 0 -3210 0 0 270 0
270 3210 0 3210 0 0 -270z m2530 140 l0 -130 -1260 0 -1260 0 0 130 0 130
1260 0 1260 0 0 -130z m-8960 -275 l0 -135 -1255 0 -1255 0 0 135 0 135 1255
0 1255 0 0 -135z m8960 0 l0 -135 -1260 0 -1260 0 0 135 0 135 1260 0 1260 0
0 -135z"/>
<path d="M96 7203 c-9 -25 -14 -49 -11 -51 2 -3 7 3 11 12 8 20 44 21 44 1 0
-8 4 -15 9 -15 5 0 2 23 -7 50 -9 28 -19 50 -23 50 -4 0 -14 -21 -23 -47z m34
2 c0 -8 -4 -15 -10 -15 -5 0 -10 7 -10 15 0 8 5 15 10 15 6 0 10 -7 10 -15z"/>
<path d="M675 7501 c-3 -6 0 -8 8 -5 26 10 30 -17 8 -47 -28 -37 -27 -39 12
-38 31 2 31 2 3 6 l-28 5 22 23 c12 13 20 31 18 41 -4 21 -33 31 -43 15z"/>
<path d="M745 7501 c-3 -6 0 -8 8 -5 26 10 30 -17 8 -47 -28 -37 -27 -39 12
-38 31 2 31 2 3 6 l-28 5 22 23 c12 13 20 31 18 41 -4 21 -33 31 -43 15z"/>
<path d="M824 7496 c-11 -28 1 -81 18 -84 26 -5 45 41 30 73 -13 27 -39 33
-48 11z m36 -42 c0 -24 -5 -34 -15 -34 -10 0 -15 10 -15 33 0 19 3 37 6 40 13
13 24 -5 24 -39z"/>
<path d="M3325 7501 c-3 -6 0 -8 8 -5 26 10 30 -17 8 -47 -28 -37 -27 -39 12
-38 31 2 31 2 3 6 l-28 5 22 23 c12 13 20 31 18 41 -4 21 -33 31 -43 15z"/>
<path d="M3395 7501 c-3 -6 0 -8 8 -5 26 10 30 -17 8 -47 -28 -37 -27 -39 12
-38 31 2 31 2 3 6 l-28 5 22 23 c12 13 20 31 18 41 -4 21 -33 31 -43 15z"/>
<path d="M3474 7496 c-11 -28 1 -81 18 -84 26 -5 45 41 30 73 -13 27 -39 33
-48 11z m36 -42 c0 -24 -5 -34 -15 -34 -10 0 -15 10 -15 33 0 19 3 37 6 40 13
13 24 -5 24 -39z"/>
<path d="M3580 7509 c-1 -15 33 -99 40 -99 9 0 42 91 35 98 -5 5 -25 -42 -25
-59 0 -5 -4 -9 -10 -9 -5 0 -10 8 -10 18 0 16 -29 66 -30 51z"/>
<path d="M902 7450 c14 -42 24 -44 38 -10 9 23 19 30 39 30 l26 -1 -28 -15
c-34 -18 -31 -38 6 -42 25 -3 27 0 27 32 0 34 -2 36 -34 36 -28 0 -36 -5 -44
-27 l-10 -28 -7 28 c-4 15 -11 27 -16 27 -4 0 -3 -14 3 -30z m98 -9 c0 -12
-20 -25 -27 -18 -7 7 6 27 18 27 5 0 9 -4 9 -9z"/>
<path d="M1031 7461 c-14 -25 8 -55 35 -48 17 4 16 5 -3 6 -17 1 -23 7 -23 25
0 18 7 26 23 29 l22 4 -22 2 c-13 0 -27 -7 -32 -18z"/>
<path d="M3689 7471 l24 -6 -27 -13 c-33 -15 -29 -36 7 -40 25 -3 27 0 27 32
0 33 -2 36 -27 35 -27 -1 -27 -1 -4 -8z m21 -30 c0 -12 -20 -25 -27 -18 -7 7
6 27 18 27 5 0 9 -4 9 -9z"/>
<path d="M3741 7461 c-14 -25 8 -55 35 -48 17 4 16 5 -3 6 -17 1 -23 7 -23 25
0 18 7 26 23 29 l22 4 -22 2 c-13 0 -27 -7 -32 -18z"/>
<path d="M830 7155 l0 -225 -110 0 -110 0 2 -392 3 -392 53 3 52 2 0 -386 0
-386 -165 3 -165 3 0 -172 c0 -95 3 -173 8 -173 4 0 6 74 5 165 l-3 165 168 0
167 0 0 387 0 388 23 3 c12 2 22 -1 22 -7 0 -6 -5 -11 -10 -11 -6 0 -5 -6 2
-14 15 -16 29 -1 21 21 -3 8 2 13 16 13 l21 0 0 -1492 0 -1493 2050 0 2050 0
0 222 0 222 1490 -2 1490 -2 0 1443 0 1442 -1160 0 -1160 0 -3 163 -3 162 -2
-162 -2 -163 -550 0 -550 0 0 -1442 0 -1443 107 0 108 0 3 -102 3 -103 -1875
0 -1875 0 2 1373 2 1372 48 3 47 3 0 -385 c0 -212 3 -387 8 -389 4 -3 7 169 7
381 l0 387 55 0 55 0 -2 390 -1 390 -56 3 -55 3 2 219 c1 121 -1 220 -5 220
-5 0 -8 -99 -8 -220 l0 -220 -50 0 -49 0 2 220 c1 121 -1 220 -5 220 -5 0 -8
-99 -8 -220 l0 -220 -45 0 -45 0 0 225 c0 143 -4 225 -10 225 -6 0 -10 -82
-10 -225z m-1 -285 c-3 -49 -3 -50 -36 -50 -19 0 -33 5 -33 12 0 9 -3 9 -12 0
-7 -7 -27 -12 -45 -12 l-33 0 0 -225 c0 -173 3 -225 13 -226 6 -1 41 0 77 0
l65 2 1 -71 0 -72 -53 4 -53 3 0 -37 0 -38 -49 0 -50 0 0 372 c0 205 2 376 5
380 3 4 50 7 105 7 l100 0 -2 -49z m111 0 l0 -51 -48 2 -48 2 -1 40 c-1 22 0
44 3 49 3 4 25 8 50 8 l44 0 0 -50z m111 23 l1 -28 7 25 c6 22 13 25 54 28
l47 3 0 -380 0 -381 -51 0 -51 0 4 37 3 36 -55 1 -55 1 0 65 0 65 55 2 c30 1
67 2 83 2 l27 1 0 225 0 225 -85 0 -85 0 0 43 c0 24 3 47 7 50 3 4 26 7 50 7
40 0 43 -2 44 -27z m12 -90 c13 -8 -94 -113 -107 -106 -6 3 -8 2 -3 -2 10 -11
-93 -116 -106 -108 -6 3 -7 1 -3 -5 4 -7 2 -12 -4 -12 -6 0 -8 -10 -5 -22 5
-19 -9 -37 -69 -97 -42 -41 -79 -72 -83 -68 -4 4 29 43 72 87 44 44 76 80 72
80 -4 0 -23 -18 -43 -40 -20 -22 -41 -37 -47 -33 -5 3 -7 2 -4 -4 4 -5 -7 -23
-23 -38 l-30 -29 0 201 0 201 187 1 c102 0 191 -3 196 -6z m47 -1 c0 -4 -58
-66 -130 -137 -71 -70 -130 -122 -130 -114 0 14 238 259 252 259 5 0 8 -4 8
-8z m0 -227 l0 -195 -197 0 -198 0 195 195 c107 107 196 195 197 195 2 0 3
-88 3 -195z m4250 -871 l0 -774 330 0 330 0 0 -655 0 -655 -545 0 -545 0 0 51
0 51 55 -4 55 -3 0 283 0 282 -225 0 -225 0 0 -282 0 -283 52 0 53 0 3 -47 3
-48 -105 0 -106 0 0 1429 0 1430 435 0 435 0 0 -775z m2538 643 l3 -127 -933
2 -933 3 -3 115 c-1 63 0 120 2 127 4 9 227 11 933 10 l928 -2 3 -128z m-2318
-187 l0 -310 -40 0 -40 0 0 -45 c0 -38 -3 -45 -20 -45 -13 0 -20 -7 -20 -20 0
-11 -4 -20 -10 -20 -5 0 -10 -18 -10 -40 0 -22 5 -40 10 -40 6 0 10 -11 10
-25 0 -18 5 -25 20 -25 17 0 20 -7 20 -40 l0 -40 115 0 115 0 0 170 0 170 -70
0 -70 0 0 310 0 310 215 0 215 0 0 -765 0 -765 -325 0 -325 0 0 765 0 765 105
0 105 0 0 -310z m-4640 105 l0 -105 -49 0 -49 0 4 103 c2 56 4 103 4 105 0 1
20 2 45 2 l45 0 0 -105z m-110 -75 c0 -29 -1 -30 -50 -30 -49 0 -50 1 -50 30
0 29 1 30 50 30 49 0 50 -1 50 -30z m220 0 c0 -29 -1 -30 -50 -30 -49 0 -50 1
-50 30 0 29 1 30 50 30 49 0 50 -1 50 -30z m6850 -615 l0 -635 -932 2 -933 3
-2 633 -2 632 935 0 934 0 0 -635z m-7020 565 c0 -5 -5 -10 -10 -10 -6 0 -5
-6 2 -14 15 -16 29 -1 21 21 -3 9 3 13 21 13 l26 0 2 -1381 3 -1381 1883 -1
1882 -2 0 112 0 113 103 -3 102 -2 3 -212 2 -213 -2039 0 -2040 0 0 1477 c0
813 3 1481 5 1485 7 12 34 10 34 -2z m4702 -337 l1 -38 4 38 4 37 65 0 64 0 0
-160 0 -160 -105 0 -105 0 0 40 c0 33 -3 40 -20 40 -15 0 -20 7 -20 25 0 14
-5 25 -11 25 -6 0 -9 12 -7 28 2 15 8 26 14 25 7 -1 9 8 6 22 -3 20 0 25 17
25 18 0 21 6 21 38 0 46 5 52 42 52 25 0 28 -3 30 -37z m2318 -955 c-1 -67 -3
-79 -12 -63 -6 11 -12 22 -14 24 -2 2 -19 -6 -39 -17 l-35 -21 0 29 0 30 -115
0 -115 0 0 -170 0 -170 115 0 115 0 0 104 0 104 50 31 50 31 0 -570 0 -570
-934 0 -935 0 0 655 0 655 935 0 934 0 0 -82z m-110 -56 c0 -22 -8 -33 -39
-50 -21 -12 -50 -22 -65 -22 -31 0 -66 -32 -66 -60 0 -24 34 -60 56 -60 26 0
54 20 64 45 5 13 18 29 30 35 19 10 20 8 20 -85 l0 -95 -105 0 -105 0 0 160 0
160 105 0 105 0 0 -28z m85 -22 c0 -7 -17 -24 -37 -37 l-38 -23 0 25 c0 16 9
29 28 39 30 17 47 16 47 -4z m-85 -43 c0 -12 -10 -28 -21 -35 -18 -12 -24 -11
-37 1 -13 14 -11 18 19 36 42 26 39 26 39 -2z m-65 -38 c7 -7 3 -17 -12 -29
-13 -10 -23 -21 -23 -25 0 -4 7 -2 15 5 21 18 30 6 10 -14 -24 -23 -52 -20
-71 9 -15 23 -15 27 1 51 13 21 22 25 43 19 15 -3 32 -11 37 -16z m-2695 -690
l0 -269 -50 0 -50 0 0 46 c0 37 5 50 25 66 32 25 34 71 3 92 -31 22 -51 20
-77 -8 -29 -31 -22 -71 14 -88 22 -10 25 -18 25 -60 l0 -48 -105 0 -105 0 0
46 c0 37 5 50 25 66 52 41 14 120 -50 104 -52 -13 -56 -100 -5 -113 17 -4 20
-14 20 -54 l0 -49 -50 0 -50 0 0 269 0 270 215 0 215 0 0 -270z m-294 -80 c40
-44 -23 -103 -66 -64 -25 22 -25 40 -2 63 24 24 47 24 68 1z m226 -1 c12 -19
10 -52 -4 -66 -19 -19 -55 -14 -72 10 -20 29 -20 34 4 58 20 20 58 20 72 -2z
m-44 -250 l3 -48 -105 0 -106 0 0 50 0 50 103 -3 102 -2 3 -47z"/>
<path d="M685 6310 c-3 -5 -1 -10 4 -10 6 0 11 5 11 10 0 6 -2 10 -4 10 -3 0
-8 -4 -11 -10z"/>
<path d="M765 6310 c3 -5 8 -10 11 -10 2 0 4 5 4 10 0 6 -5 10 -11 10 -5 0 -7
-4 -4 -10z"/>
<path d="M727 6703 c-4 -3 -7 -11 -7 -17 0 -6 5 -5 12 2 18 18 32 15 43 -10
13 -30 44 -29 62 2 l15 25 -20 -22 c-26 -30 -40 -29 -52 2 -9 24 -38 34 -53
18z"/>
<path d="M737 6633 c18 -2 50 -2 70 0 21 2 7 4 -32 4 -38 0 -55 -2 -38 -4z"/>
<path d="M775 6610 c-3 -5 -1 -10 4 -10 6 0 11 5 11 10 0 6 -2 10 -4 10 -3 0
-8 -4 -11 -10z"/>
<path d="M900 6540 c0 -5 5 -10 11 -10 5 0 7 5 4 10 -3 6 -8 10 -11 10 -2 0
-4 -4 -4 -10z"/>
<path d="M1008 6473 c17 -2 47 -2 65 0 17 2 3 4 -33 4 -36 0 -50 -2 -32 -4z"/>
<path d="M1008 6443 c18 -2 45 -2 60 0 15 2 0 4 -33 4 -33 0 -45 -2 -27 -4z"/>
<path d="M4590 6095 l0 -285 280 0 280 0 0 285 0 285 -280 0 -280 0 0 -285z
m548 3 l2 -268 -270 0 -270 0 0 270 0 269 268 -2 267 -2 3 -267z"/>
<path d="M4730 6245 c0 -38 -3 -45 -20 -45 -13 0 -20 -7 -20 -19 0 -10 -7 -21
-15 -25 -17 -6 -21 -76 -5 -76 6 0 15 -11 20 -25 5 -14 15 -24 22 -23 9 2 14
-12 16 -39 l3 -43 115 0 114 0 0 170 0 170 -115 0 -115 0 0 -45z m220 -125 l0
-160 -105 0 -105 0 0 45 c0 38 -3 45 -20 45 -13 0 -20 7 -20 20 0 11 -7 20
-16 20 -11 0 -14 8 -12 28 2 17 9 27 19 26 11 -1 14 5 11 22 -3 19 0 24 17 24
18 0 21 6 21 45 l0 45 105 0 105 0 0 -160z"/>
<path d="M4812 6240 c0 -19 2 -27 5 -17 2 9 2 25 0 35 -3 9 -5 1 -5 -18z"/>
<path d="M4634 5740 c0 -9 5 -17 11 -17 6 0 11 8 11 17 0 9 -5 17 -11 17 -6 0
-11 -8 -11 -17z"/>
<path d="M4672 5740 c0 -14 2 -19 5 -12 2 6 2 18 0 25 -3 6 -5 1 -5 -13z"/>
<path d="M4702 5740 c0 -14 2 -19 5 -12 2 6 2 18 0 25 -3 6 -5 1 -5 -13z"/>
<path d="M4632 5660 c0 -14 2 -19 5 -12 2 6 2 18 0 25 -3 6 -5 1 -5 -13z"/>
<path d="M4650 5673 c1 -30 35 -39 37 -10 2 17 0 19 -7 7 -7 -10 -10 -11 -10
-2 0 6 -4 12 -10 12 -5 0 -10 -3 -10 -7z"/>
<path d="M4724 5660 c0 -9 6 -17 13 -17 7 0 13 8 13 17 0 9 -6 17 -13 17 -7 0
-13 -8 -13 -17z"/>
<path d="M4802 5660 c0 -14 2 -19 5 -12 2 6 2 18 0 25 -3 6 -5 1 -5 -13z"/>
<path d="M4827 5666 c-4 -10 -5 -21 -2 -24 9 -9 17 6 13 25 -3 17 -4 17 -11
-1z"/>
<path d="M4872 5660 c0 -14 2 -19 5 -12 2 6 2 18 0 25 -3 6 -5 1 -5 -13z"/>
<path d="M4652 5590 c0 -14 2 -19 5 -12 2 6 2 18 0 25 -3 6 -5 1 -5 -13z"/>
<path d="M4699 5593 c-8 -9 -9 -14 -2 -10 6 4 14 1 16 -5 3 -7 6 -3 6 10 1 26
-2 27 -20 5z"/>
<path d="M4590 5100 l0 -170 280 0 280 0 0 170 0 170 -280 0 -280 0 0 -170z
m550 0 l0 -160 -270 0 -270 0 0 160 0 160 270 0 270 0 0 -160z"/>
<path d="M4632 4860 c0 -14 2 -19 5 -12 2 6 2 18 0 25 -3 6 -5 1 -5 -13z"/>
<path d="M4660 4863 c0 -13 5 -23 10 -23 13 0 13 11 0 30 -8 12 -10 11 -10 -7z"/>
<path d="M4714 4869 c-3 -6 -2 -15 3 -20 5 -5 9 -1 9 11 0 23 -2 24 -12 9z"/>
<path d="M4802 4860 c0 -14 2 -19 5 -12 2 6 2 18 0 25 -3 6 -5 1 -5 -13z"/>
<path d="M4824 4860 c0 -11 4 -20 8 -20 4 0 8 9 8 20 0 11 -4 20 -8 20 -4 0
-8 -9 -8 -20z"/>
<path d="M4854 4861 c0 -26 32 -23 34 3 1 17 -1 18 -8 6 -7 -10 -10 -11 -10
-2 0 6 -4 12 -8 12 -4 0 -8 -9 -8 -19z"/>
<path d="M4902 4860 c0 -14 2 -19 5 -12 2 6 2 18 0 25 -3 6 -5 1 -5 -13z"/>
<path d="M4955 4859 c-4 -6 -5 -12 -2 -15 2 -3 7 2 10 11 7 17 1 20 -8 4z"/>
<path d="M6087 6403 c-15 -14 -6 -40 19 -51 28 -13 23 -37 -7 -29 -11 3 -19 1
-19 -5 0 -5 12 -8 27 -6 38 4 42 34 8 50 -30 14 -28 34 4 31 13 -2 20 1 16 7
-7 11 -38 13 -48 3z"/>
<path d="M6155 6360 c0 -27 5 -50 10 -50 6 0 10 23 10 50 0 28 -4 50 -10 50
-5 0 -10 -22 -10 -50z"/>
<path d="M6200 6360 l0 -50 33 1 c30 2 30 2 5 6 -19 3 -28 10 -28 23 0 13 9
20 28 23 l27 4 -27 2 c-35 1 -37 21 -3 21 14 0 25 5 25 10 0 6 -13 10 -30 10
-29 0 -30 -1 -30 -50z"/>
<path d="M6271 6358 c2 -52 2 -53 8 -13 6 35 8 37 14 18 5 -13 12 -23 17 -23
5 0 12 10 17 23 6 19 8 17 14 -18 6 -40 6 -39 8 13 0 28 -1 52 -4 52 -2 0 -11
-12 -19 -27 l-14 -28 -13 28 c-19 42 -29 32 -28 -25z"/>
<path d="M6368 6388 c-2 -13 -1 -35 1 -50 3 -24 8 -28 35 -27 30 2 30 2 4 6
-19 3 -28 10 -28 23 0 13 9 20 28 23 l27 4 -27 2 c-35 1 -37 21 -3 21 14 0 25
5 25 10 0 6 -13 10 -29 10 -23 0 -30 -5 -33 -22z"/>
<path d="M6451 6358 c2 -51 2 -52 8 -14 l6 40 20 -37 c11 -20 23 -37 27 -37 5
0 7 24 7 53 -2 52 -2 52 -8 12 l-7 -40 -19 38 c-10 20 -22 37 -27 37 -4 0 -7
-24 -7 -52z"/>
<path d="M6547 6403 c-15 -14 -6 -40 19 -51 28 -13 23 -37 -7 -29 -11 3 -19 1
-19 -4 0 -12 47 -11 55 1 8 13 -4 52 -14 46 -4 -3 -13 -1 -20 4 -20 12 -3 32
21 24 14 -4 18 -2 14 5 -8 12 -39 15 -49 4z"/>
<path d="M7174 6369 c-3 -6 -2 -15 3 -20 5 -5 9 -1 9 11 0 23 -2 24 -12 9z"/>
<path d="M7202 6360 c0 -14 2 -19 5 -12 2 6 2 18 0 25 -3 6 -5 1 -5 -13z"/>
<path d="M7241 6364 c0 -11 3 -14 6 -6 3 7 2 16 -1 19 -3 4 -6 -2 -5 -13z"/>
<path d="M7302 6360 c0 -14 2 -19 5 -12 2 6 2 18 0 25 -3 6 -5 1 -5 -13z"/>
<path d="M7372 6360 c0 -14 2 -19 5 -12 2 6 2 18 0 25 -3 6 -5 1 -5 -13z"/>
<path d="M7462 6360 c0 -14 2 -19 5 -12 2 6 2 18 0 25 -3 6 -5 1 -5 -13z"/>
<path d="M7522 6360 c0 -14 2 -19 5 -12 2 6 2 18 0 25 -3 6 -5 1 -5 -13z"/>
<path d="M7542 6360 c0 -14 2 -19 5 -12 2 6 2 18 0 25 -3 6 -5 1 -5 -13z"/>
<path d="M7560 6373 c0 -3 7 -11 15 -19 13 -14 15 -13 15 4 0 10 -7 19 -15 19
-8 0 -15 -2 -15 -4z"/>
<path d="M7410 6359 c0 -5 5 -7 10 -4 6 3 10 8 10 11 0 2 -4 4 -10 4 -5 0 -10
-5 -10 -11z"/>
<path d="M5507 5403 c-4 -3 -7 -24 -7 -45 0 -31 -3 -38 -20 -38 -13 0 -20 -7
-20 -19 0 -11 -4 -23 -10 -26 -5 -3 -10 -21 -10 -40 0 -19 5 -37 10 -40 6 -3
10 -15 10 -26 0 -12 7 -19 19 -19 16 0 20 -8 23 -42 l3 -43 113 -3 112 -3 0
176 0 175 -108 0 c-60 0 -112 -3 -115 -7z m213 -163 l0 -160 -105 0 -105 0 0
40 c0 33 -3 40 -20 40 -15 0 -20 7 -20 25 0 14 -4 25 -10 25 -5 0 -10 11 -10
25 0 14 6 25 14 25 9 0 12 8 8 25 -3 20 0 25 17 25 18 0 21 6 21 38 0 21 3 42
7 45 3 4 51 7 105 7 l98 0 0 -160z"/>
<path d="M5582 5355 c0 -16 2 -22 5 -12 2 9 2 23 0 30 -3 6 -5 -1 -5 -18z"/>
<path d="M7467 6161 c-3 -14 0 -17 14 -14 22 6 26 33 5 33 -7 0 -16 -8 -19
-19z"/>
<path d="M7510 6165 c0 -8 7 -15 15 -15 8 0 15 7 15 15 0 8 -7 15 -15 15 -8 0
-15 -7 -15 -15z"/>
<path d="M7562 6164 c4 -21 22 -23 26 -1 2 10 -3 17 -13 17 -10 0 -15 -6 -13
-16z"/>
<path d="M6120 5675 l0 -396 148 3 147 3 3 393 2 392 -150 0 -150 0 0 -395z
m288 3 l2 -378 -140 0 -140 0 0 380 0 381 138 -3 137 -3 3 -377z"/>
<path d="M6155 6044 c-5 -2 -9 -32 -8 -66 1 -35 2 -82 2 -105 l1 -43 120 0
121 0 -3 108 -3 107 -110 2 c-60 1 -114 0 -120 -3z m143 -56 c3 -46 5 -48 33
-48 28 0 29 -1 28 -47 -2 -48 -2 -48 -8 -10 -3 21 -10 38 -16 38 -5 0 -13 -17
-16 -38 l-6 -38 -2 38 c-1 29 -6 40 -23 47 -13 5 -17 9 -10 9 18 1 15 52 -5
67 -10 7 -35 14 -55 14 -38 0 -38 0 -38 -40 0 -39 1 -40 38 -42 l37 -1 -37 -4
c-37 -4 -38 -5 -38 -44 l0 -39 55 0 c51 0 55 2 55 24 0 13 -6 27 -12 29 -8 3
-6 6 5 6 13 1 17 -7 17 -34 l0 -35 -70 0 -70 0 0 93 c0 52 3 97 7 101 4 4 34
5 67 4 l61 -3 3 -47z m50 -31 c24 -4 24 -4 -5 -6 l-33 -1 2 48 1 47 4 -42 c4
-36 7 -42 31 -46z m-120 46 c-34 -5 -41 -43 -8 -43 11 0 20 5 20 11 0 6 -7 9
-15 5 -8 -3 -15 -1 -15 4 0 6 9 10 20 10 13 0 20 -7 20 -20 0 -16 -7 -20 -30
-20 -27 0 -30 3 -30 30 0 27 3 30 33 29 30 -2 30 -2 5 -6z m39 -45 c-3 -7 -5
-2 -5 12 0 14 2 19 5 13 2 -7 2 -19 0 -25z m-29 -55 c-10 -2 -26 -2 -35 0 -10
3 -2 5 17 5 19 0 27 -2 18 -5z m99 -45 c-2 -13 -4 -5 -4 17 -1 22 1 32 4 23 2
-10 2 -28 0 -40z m-94 25 c-7 -2 -21 -2 -30 0 -10 3 -4 5 12 5 17 0 24 -2 18
-5z m10 -20 c-13 -2 -33 -2 -45 0 -13 2 -3 4 22 4 25 0 35 -2 23 -4z"/>
<path d="M6219 5580 c-20 -10 -43 -35 -55 -57 l-21 -40 21 -44 c40 -83 125
-101 188 -39 23 23 28 37 28 74 0 87 -87 144 -161 106z m121 -28 c70 -70 7
-195 -90 -176 -64 13 -100 81 -75 140 28 68 114 87 165 36z"/>
<path d="M6136 5253 c-4 -11 0 -20 11 -27 16 -9 16 -10 -2 -17 -19 -7 -18 -8
3 -8 26 -1 30 24 5 33 -14 6 -15 9 -4 15 8 5 9 11 3 15 -5 3 -13 -2 -16 -11z"/>
<path d="M6363 5235 c0 -22 2 -30 4 -17 2 12 2 30 0 40 -3 9 -5 -1 -4 -23z"/>
<path d="M6182 5230 c0 -19 2 -27 5 -17 2 9 2 25 0 35 -3 9 -5 1 -5 -18z"/>
<path d="M6270 5235 c-6 -15 -8 -30 -6 -33 3 -3 10 8 16 23 6 15 8 30 6 33 -3
3 -10 -8 -16 -23z"/>
<path d="M6306 5252 c7 -4 14 -18 16 -32 3 -23 4 -22 9 8 5 27 3 32 -15 32
-13 0 -17 -3 -10 -8z"/>
<path d="M6390 5245 c-16 -19 -6 -45 17 -44 17 1 17 2 1 6 -10 2 -18 11 -18
18 0 8 8 19 18 24 9 6 12 11 6 11 -6 0 -17 -7 -24 -15z"/>
<path d="M6217 5233 c3 -7 9 -13 13 -13 4 0 10 6 13 13 3 7 -3 13 -13 13 -10
0 -16 -6 -13 -13z"/>
<path d="M6290 5221 c0 -6 4 -13 10 -16 6 -3 7 1 4 9 -7 18 -14 21 -14 7z"/>
<path d="M6152 5153 c20 -3 28 -11 30 -31 3 -26 4 -26 9 6 5 31 5 32 -30 31
-29 -2 -31 -3 -9 -6z"/>
<path d="M6230 5150 c12 -7 11 -12 -5 -30 -19 -21 -19 -21 21 -18 34 3 39 7
39 28 0 21 -5 25 -34 27 -23 1 -30 -2 -21 -7z m50 -20 c0 -11 -4 -20 -9 -20
-5 0 -11 9 -14 20 -3 13 0 20 9 20 8 0 14 -9 14 -20z m-30 -10 c0 -5 -5 -10
-11 -10 -5 0 -7 5 -4 10 3 6 8 10 11 10 2 0 4 -4 4 -10z"/>
<path d="M6318 5153 c14 -5 17 -43 3 -43 -5 0 -12 8 -15 18 -4 13 -4 13 -3 -3
2 -15 11 -20 40 -22 39 -4 53 19 20 31 -13 5 -14 9 -5 15 8 5 0 8 -20 8 -18 0
-27 -2 -20 -4z m47 -33 c3 -5 -1 -10 -9 -10 -9 0 -16 5 -16 10 0 6 4 10 9 10
6 0 13 -4 16 -10z"/>
<path d="M6410 5151 c13 -10 13 -12 0 -22 -13 -9 -13 -10 0 -6 8 2 15 10 15
17 0 7 -7 15 -15 17 -13 4 -13 3 0 -6z"/>
<path d="M6138 5103 c7 -3 16 -2 19 1 4 3 -2 6 -13 5 -11 0 -14 -3 -6 -6z"/>
<path d="M7500 5045 c0 -8 7 -15 15 -15 8 0 15 7 15 15 0 8 -7 15 -15 15 -8 0
-15 -7 -15 -15z"/>
<path d="M900 6071 c0 -5 -12 -12 -27 -14 -26 -4 -26 -4 5 -6 22 -1 32 3 32
14 0 8 -2 15 -5 15 -3 0 -5 -4 -5 -9z"/>
<path d="M7620 4056 l0 -334 35 -4 35 -4 0 338 0 338 -35 0 -35 0 0 -334z m60
-1 l0 -325 -25 0 -25 0 0 325 0 325 25 0 25 0 0 -325z"/>
<path d="M7665 4690 c-3 -6 1 -7 9 -4 18 7 21 14 7 14 -6 0 -13 -4 -16 -10z"/>
<path d="M4656 4201 c-23 -26 -17 -60 15 -84 23 -16 30 -17 50 -7 30 16 39 29
39 57 0 49 -70 72 -104 34z m82 -3 c7 -7 12 -21 12 -33 0 -29 -19 -45 -52 -45
-36 0 -56 36 -39 69 13 23 59 29 79 9z"/>
<path d="M4874 4195 c-19 -29 -11 -60 20 -81 56 -36 117 43 70 90 -24 25 -71
20 -90 -9z m84 3 c7 -7 12 -21 12 -33 0 -29 -19 -45 -52 -45 -25 0 -48 23 -48
49 0 33 63 54 88 29z"/>
<path d="M4640 4060 c0 -18 7 -20 60 -20 53 0 60 2 60 20 0 18 -7 20 -60 20
-53 0 -60 -2 -60 -20z m110 0 c0 -5 -22 -10 -50 -10 -27 0 -50 5 -50 10 0 6
23 10 50 10 28 0 50 -4 50 -10z"/>
<path d="M4860 4060 c0 -18 7 -20 60 -20 53 0 60 2 60 20 0 18 -7 20 -60 20
-53 0 -60 -2 -60 -20z m110 0 c0 -5 -22 -10 -50 -10 -27 0 -50 5 -50 10 0 6
23 10 50 10 28 0 50 -4 50 -10z"/>
<path d="M4640 3980 c0 -18 7 -20 60 -20 53 0 60 2 60 20 0 18 -7 20 -60 20
-53 0 -60 -2 -60 -20z m110 0 c0 -5 -22 -10 -50 -10 -27 0 -50 5 -50 10 0 6
23 10 50 10 28 0 50 -4 50 -10z"/>
<path d="M4860 3980 c0 -18 7 -20 60 -20 53 0 60 2 60 20 0 18 -7 20 -60 20
-53 0 -60 -2 -60 -20z m110 0 c0 -5 -22 -10 -50 -10 -27 0 -50 5 -50 10 0 6
23 10 50 10 28 0 50 -4 50 -10z"/>
<path d="M3480 7325 c0 -28 -4 -45 -12 -45 -9 0 -9 -3 0 -12 8 -8 8 -15 1 -24
-7 -9 -4 -12 14 -10 18 1 24 7 24 23 0 13 -4 20 -9 17 -6 -4 -9 13 -7 45 2 28
1 51 -3 51 -5 0 -8 -20 -8 -45z"/>
<path d="M3810 7325 c0 -28 -4 -45 -12 -45 -9 0 -9 -3 0 -12 7 -7 8 -16 2 -23
-7 -8 -1 -12 20 -12 21 0 27 4 20 12 -6 7 -5 16 3 25 10 10 8 12 -6 6 -17 -5
-19 -1 -15 44 1 27 0 50 -4 50 -5 0 -8 -20 -8 -45z"/>
<path d="M3430 7249 c0 -8 11 -57 25 -109 14 -52 25 -105 25 -117 0 -16 7 -22
28 -25 19 -2 28 -9 30 -25 3 -20 -1 -23 -27 -23 -24 0 -31 -4 -31 -20 0 -13 7
-20 20 -20 12 0 20 -7 20 -16 0 -9 -9 -18 -20 -21 -18 -5 -20 -14 -20 -84 l0
-79 -110 0 -110 0 0 -160 0 -160 -165 0 -165 0 0 -396 0 -395 -110 3 -110 3 2
-120 2 -120 3 113 4 112 112 0 112 0 -3 50 -4 50 106 0 106 0 0 -153 0 -153
-32 -9 c-37 -11 -78 -65 -78 -102 0 -45 29 -89 71 -108 l39 -18 0 -109 0 -108
338 0 337 0 -2 965 c-1 785 1 965 12 965 7 0 19 7 26 16 12 14 9 20 -16 40
l-30 24 33 0 c30 0 32 2 32 35 0 32 -3 35 -28 35 -17 0 -29 5 -29 13 0 22 -55
238 -60 234 -2 -3 8 -50 22 -105 14 -55 25 -112 25 -126 0 -20 6 -25 28 -28
19 -2 28 -9 30 -25 3 -20 -1 -23 -27 -23 -24 0 -31 -4 -31 -19 0 -13 8 -21 23
-23 12 -2 22 -7 22 -13 0 -5 -10 -14 -22 -20 l-23 -10 0 -962 0 -963 -325 0
-324 0 0 103 0 104 39 17 c50 22 82 82 69 129 -10 37 -61 87 -89 87 -18 0 -19
8 -19 155 l0 155 50 0 49 0 0 -50 0 -50 110 0 110 0 0 -165 c0 -91 3 -165 8
-165 4 0 6 77 5 171 l-1 171 -109 1 -108 2 -3 43 -3 42 45 0 46 0 0 350 0 350
-45 0 -44 0 2 153 2 152 110 0 110 0 -2 83 c-2 63 0 82 11 82 7 0 20 7 27 16
12 14 9 20 -16 40 l-30 24 33 0 c31 0 33 2 30 32 -2 26 -8 34 -28 38 -15 3
-26 13 -28 25 -6 35 -53 220 -58 224 -2 2 -4 -2 -4 -10z m-80 -1209 l0 -340
-202 2 -203 3 -3 338 -2 337 205 0 205 0 0 -340z m-142 -679 c11 -6 7 -17 -18
-45 -32 -35 -33 -36 -52 -19 -32 29 -42 54 -27 64 18 11 80 11 97 0z m-76 -74
c8 -16 3 -26 -23 -53 l-33 -34 -13 22 c-14 26 -9 83 8 104 10 12 15 12 31 -3
11 -10 24 -26 30 -36z m116 28 c16 -35 15 -77 -3 -101 -14 -18 -16 -18 -51 19
l-36 39 33 34 c18 19 36 34 39 34 4 0 12 -11 18 -25z m-55 -141 c-15 -7 -34
-10 -43 -9 -8 2 -19 4 -25 4 -5 1 -17 6 -25 11 -12 8 -9 15 20 45 l35 36 32
-38 33 -38 -27 -11z"/>
<path d="M2966 6314 c-8 -20 11 -44 34 -44 20 0 32 23 24 45 -8 20 -50 19 -58
-1z m49 -5 c11 -16 1 -19 -13 -3 -7 8 -8 14 -3 14 5 0 13 -5 16 -11z m-19 -26
c-7 -7 -26 7 -26 19 0 6 6 6 15 -2 9 -7 13 -15 11 -17z"/>
<path d="M3066 6314 c-8 -20 11 -44 34 -44 20 0 32 23 24 45 -8 20 -50 19 -58
-1z m49 -5 c11 -16 1 -19 -13 -3 -7 8 -8 14 -3 14 5 0 13 -5 16 -11z m-20 -28
c-6 -5 -25 10 -25 20 0 5 6 4 14 -3 8 -7 12 -15 11 -17z"/>
<path d="M3166 6314 c-8 -20 11 -44 34 -44 20 0 32 23 24 45 -8 20 -50 19 -58
-1z m49 -5 c11 -16 1 -19 -13 -3 -7 8 -8 14 -3 14 5 0 13 -5 16 -11z m-20 -28
c-6 -5 -25 10 -25 20 0 5 6 4 14 -3 8 -7 12 -15 11 -17z"/>
<path d="M3266 6315 c-8 -22 4 -45 24 -45 10 0 23 7 30 15 15 18 -2 45 -30 45
-10 0 -20 -7 -24 -15z m49 -6 c11 -16 1 -19 -13 -3 -7 8 -8 14 -3 14 5 0 13
-5 16 -11z m-20 -28 c-6 -5 -25 10 -25 20 0 5 6 4 14 -3 8 -7 12 -15 11 -17z"/>
<path d="M2967 6244 c-4 -4 -7 -97 -7 -206 l0 -198 185 0 185 0 -2 203 -3 202
-176 3 c-96 1 -178 -1 -182 -4z m353 -29 c0 -8 -6 -15 -12 -16 -9 0 -10 -2 -1
-5 8 -4 12 -56 13 -175 l1 -169 -176 0 -175 0 0 190 0 190 175 0 c149 0 175
-2 175 -15z"/>
<path d="M3179 6208 c-2 -18 2 -42 7 -48 7 -7 24 23 24 43 0 19 -29 24 -31 5z"/>
<path d="M3243 6193 c9 -2 25 -2 35 0 9 3 1 5 -18 5 -19 0 -27 -2 -17 -5z"/>
<path d="M3038 6183 c12 -2 32 -2 45 0 12 2 2 4 -23 4 -25 0 -35 -2 -22 -4z"/>
<path d="M3170 6069 c0 -11 4 -18 10 -14 5 3 7 12 3 20 -7 21 -13 19 -13 -6z"/>
<path d="M3091 6064 c0 -11 3 -14 6 -6 3 7 2 16 -1 19 -3 4 -6 -2 -5 -13z"/>
<path d="M3110 6065 c0 -8 5 -15 10 -15 6 0 10 7 10 15 0 8 -4 15 -10 15 -5 0
-10 -7 -10 -15z"/>
<path d="M3221 6064 c0 -11 3 -14 6 -6 3 7 2 16 -1 19 -3 4 -6 -2 -5 -13z"/>
<path d="M3140 6060 c0 -5 5 -10 10 -10 6 0 10 5 10 10 0 6 -4 10 -10 10 -5 0
-10 -4 -10 -10z"/>
<path d="M3253 5975 c0 -22 2 -30 4 -17 2 12 2 30 0 40 -3 9 -5 -1 -4 -23z"/>
<path d="M2966 5794 c-8 -21 11 -44 35 -44 19 0 35 33 24 50 -10 16 -52 12
-59 -6z m49 -5 c11 -16 1 -19 -13 -3 -7 8 -8 14 -3 14 5 0 13 -5 16 -11z m-25
-14 c7 -9 8 -15 2 -15 -5 0 -12 7 -16 15 -3 8 -4 15 -2 15 2 0 9 -7 16 -15z"/>
<path d="M3066 5794 c-7 -19 10 -44 29 -44 19 0 36 25 29 44 -3 9 -16 16 -29
16 -13 0 -26 -7 -29 -16z m49 -5 c11 -16 1 -19 -13 -3 -7 8 -8 14 -3 14 5 0
13 -5 16 -11z m-20 -28 c-6 -5 -25 10 -25 20 0 5 6 4 14 -3 8 -7 12 -15 11
-17z"/>
<path d="M3166 5794 c-7 -19 10 -44 29 -44 19 0 36 25 29 44 -3 9 -16 16 -29
16 -13 0 -26 -7 -29 -16z m49 -5 c11 -16 1 -19 -13 -3 -7 8 -8 14 -3 14 5 0
13 -5 16 -11z m-20 -28 c-6 -5 -25 10 -25 20 0 5 6 4 14 -3 8 -7 12 -15 11
-17z"/>
<path d="M3276 5794 c-7 -19 10 -44 29 -44 19 0 36 25 29 44 -3 9 -16 16 -29
16 -13 0 -26 -7 -29 -16z m49 -5 c11 -16 1 -19 -13 -3 -7 8 -8 14 -3 14 5 0
13 -5 16 -11z m-20 -28 c-6 -5 -25 10 -25 20 0 5 6 4 14 -3 8 -7 12 -15 11
-17z"/>
<path d="M8622 7168 c-17 -17 -15 -80 3 -104 8 -10 15 -14 15 -7 0 6 -4 15
-10 18 -13 8 -13 61 0 86 12 22 9 24 -8 7z"/>
<path d="M8675 7171 c-3 -6 0 -8 8 -5 26 10 30 -17 8 -47 -28 -37 -27 -39 12
-38 31 2 31 2 3 6 l-28 5 22 23 c12 13 20 31 18 41 -4 21 -33 31 -43 15z"/>
<path d="M8879 7163 c14 -27 14 -80 1 -88 -5 -3 -10 -11 -10 -18 0 -23 22 11
30 47 6 29 4 41 -12 59 l-19 22 10 -22z"/>
<path d="M8811 7165 c-2 -5 -2 -23 -1 -39 1 -16 -4 -33 -12 -37 -9 -6 -3 -9
17 -9 17 0 25 4 18 8 -6 4 -13 25 -16 47 -2 22 -5 36 -6 30z"/>
<path d="M9062 7128 c-17 -17 -15 -80 3 -104 8 -10 15 -14 15 -7 0 6 -4 15
-10 18 -13 8 -13 61 0 86 12 22 9 24 -8 7z"/>
<path d="M9115 7131 c-3 -6 0 -8 8 -5 26 10 30 -17 8 -47 -28 -37 -27 -39 12
-38 31 2 31 2 3 6 l-28 5 22 23 c12 13 20 31 18 41 -4 21 -33 31 -43 15z"/>
<path d="M9230 7131 c0 -6 6 -8 14 -5 25 10 29 -17 7 -47 -28 -37 -27 -39 12
-38 31 2 31 2 3 6 l-28 5 22 23 c12 13 20 31 18 42 -3 19 -48 32 -48 14z"/>
<path d="M9318 7123 c15 -27 16 -80 2 -88 -5 -3 -10 -12 -10 -18 0 -7 7 -3 15
7 20 27 19 90 -2 107 -15 13 -15 12 -5 -8z"/>
<path d="M8758 7123 c7 -3 16 -2 19 1 4 3 -2 6 -13 5 -11 0 -14 -3 -6 -6z"/>
<path d="M9188 7083 c7 -3 16 -2 19 1 4 3 -2 6 -13 5 -11 0 -14 -3 -6 -6z"/>
<path d="M8780 6768 c0 -217 -3 -278 -13 -287 -8 -6 -52 -10 -108 -9 l-94 1
-3 -1090 -2 -1090 272 -8 c150 -4 275 -11 276 -16 2 -5 9 -9 15 -9 5 0 7 3 3
8 -4 4 167 12 381 17 l388 10 3 23 c2 12 -1 22 -7 22 -6 0 -11 -9 -11 -20 0
-18 -7 -20 -80 -20 l-80 0 0 210 0 210 -545 0 -545 0 0 -210 0 -210 -29 0 -30
0 0 425 0 425 665 0 664 0 0 25 c0 14 -4 25 -10 25 -5 0 -10 -9 -10 -20 0 -20
-7 -20 -654 -20 l-655 0 0 215 0 215 655 0 c647 0 654 0 654 -20 0 -11 5 -20
11 -20 6 0 9 11 7 25 l-3 26 -660 2 -660 2 -2 423 -2 422 59 0 60 0 -3 -152
-2 -153 170 2 c94 1 187 3 208 3 l37 0 0 150 0 150 48 0 c26 0 53 -5 60 -12 7
-7 12 -36 12 -64 0 -47 -3 -53 -22 -57 -13 -2 2 -4 32 -4 30 0 43 2 28 4 -24
4 -26 8 -26 55 -1 62 14 77 75 78 l43 0 -3 -152 -2 -153 207 0 208 0 0 153 0
152 60 0 c54 0 60 -2 60 -21 0 -11 5 -17 10 -14 6 4 9 18 8 33 l-2 27 -93 -3
c-138 -3 -132 -14 -131 241 0 115 -3 211 -6 214 -3 4 -6 -92 -6 -213 0 -120
-4 -224 -8 -231 -5 -7 -37 -12 -89 -12 -117 0 -112 -10 -111 242 0 115 -3 211
-6 214 -3 4 -6 -93 -6 -214 0 -166 -3 -223 -13 -231 -19 -16 -155 -14 -182 4
-19 13 -24 13 -34 0 -16 -19 -158 -21 -183 -2 -15 11 -17 39 -16 280 0 147 -3
270 -6 273 -3 4 -6 -118 -6 -269 0 -210 -3 -278 -13 -286 -19 -16 -166 -14
-183 2 -10 11 -13 70 -12 280 0 147 -3 270 -6 273 -3 4 -6 -118 -6 -269z m0
-310 c0 -16 -3 -19 -11 -11 -6 6 -8 16 -5 22 11 17 16 13 16 -11z m217 -10
c-3 -7 -5 -2 -5 12 0 14 2 19 5 13 2 -7 2 -19 0 -25z m220 0 c-3 -7 -5 -2 -5
12 0 14 2 19 5 13 2 -7 2 -19 0 -25z m233 10 c0 -16 -3 -19 -11 -11 -6 6 -8
16 -5 22 11 17 16 13 16 -11z m17 -10 c-3 -7 -5 -2 -5 12 0 14 2 19 5 13 2 -7
2 -19 0 -25z m203 10 c0 -16 -3 -19 -11 -11 -6 6 -8 16 -5 22 11 17 16 13 16
-11z m17 -10 c-3 -7 -5 -2 -5 12 0 14 2 19 5 13 2 -7 2 -19 0 -25z m-877 13
c0 -6 -4 -13 -10 -16 -5 -3 -10 1 -10 9 0 9 5 16 10 16 6 0 10 -4 10 -9z m220
0 c0 -6 -4 -13 -10 -16 -5 -3 -10 1 -10 9 0 9 5 16 10 16 6 0 10 -4 10 -9z
m220 0 c0 -6 -4 -13 -10 -16 -5 -3 -10 1 -10 9 0 9 5 16 10 16 6 0 10 -4 10
-9z m-485 -21 c3 -5 15 -10 26 -10 10 0 19 5 19 10 0 15 163 13 178 -2 7 -7
12 -26 13 -42 1 -17 5 -42 10 -56 6 -18 7 -10 4 29 -5 59 9 80 53 81 22 0 22
-1 22 -145 l0 -145 -195 0 -195 0 0 145 0 145 29 0 c17 0 33 -4 36 -10z m665
0 c0 -5 9 -10 19 -10 11 0 23 5 26 10 3 6 44 10 91 10 49 0 84 -4 84 -10 0 -5
9 -10 19 -10 11 0 23 5 26 10 3 6 17 10 31 10 l24 0 0 -145 0 -145 -190 0
-190 0 0 145 0 145 30 0 c17 0 30 -4 30 -10z m280 -1935 l0 -205 -100 0 c-60
0 -100 4 -100 10 0 6 -117 10 -330 10 -213 0 -330 -4 -330 -10 0 -6 -42 -10
-105 -10 l-105 0 0 205 0 205 535 0 535 0 0 -205z m-600 -205 c0 -6 -48 -10
-125 -10 -77 0 -125 4 -125 10 0 6 48 10 125 10 77 0 125 -4 125 -10z m390 0
c0 -6 -70 -10 -190 -10 -120 0 -190 4 -190 10 0 6 70 10 190 10 120 0 190 -4
190 -10z"/>
<path d="M8741 6353 c-1 -25 3 -33 17 -33 11 0 13 3 6 8 -7 4 -14 18 -17 32
-4 21 -4 20 -6 -7z"/>
<path d="M8970 6371 c0 -5 7 -15 17 -22 15 -13 15 -12 4 9 -12 23 -21 28 -21
13z"/>
<path d="M8795 6360 c3 -5 0 -10 -7 -10 -10 0 -9 -3 2 -9 8 -6 17 -8 22 -5 9
6 -1 34 -14 34 -5 0 -6 -4 -3 -10z"/>
<path d="M8880 6246 c0 -13 -6 -26 -12 -28 -8 -3 -4 -9 10 -17 18 -10 26 -10
38 0 10 8 12 15 4 23 -5 5 -10 18 -10 28 0 10 -7 18 -15 18 -9 0 -15 -9 -15
-24z m17 -33 c-3 -10 -5 -4 -5 12 0 17 2 24 5 18 2 -7 2 -21 0 -30z"/>
<path d="M9411 6353 c-1 -25 3 -33 17 -33 11 0 13 3 6 8 -7 4 -14 18 -17 32
-4 21 -4 20 -6 -7z"/>
<path d="M9640 6371 c0 -5 7 -15 17 -22 15 -13 15 -12 4 9 -12 23 -21 28 -21
13z"/>
<path d="M9677 6373 c-2 -5 -1 -19 4 -33 7 -23 7 -23 8 8 1 31 -3 40 -12 25z"/>
<path d="M9463 6355 c-10 -10 -9 -14 2 -19 17 -6 26 5 17 21 -5 8 -11 7 -19
-2z"/>
<path d="M9537 6255 c-12 -8 -14 -15 -8 -20 6 -3 11 -15 11 -26 0 -28 29 -23
40 7 13 33 13 32 -8 43 -12 6 -23 5 -35 -4z m25 -30 c-2 -14 -6 -25 -8 -25 -2
0 -4 11 -4 25 0 14 4 25 9 25 4 0 6 -11 3 -25z"/>
<path d="M9135 4639 c-4 -6 -5 -12 -2 -15 2 -3 7 2 10 11 7 17 1 20 -8 4z"/>
<path d="M8701 4611 c0 -19 0 -32 2 -30 1 2 10 14 20 26 14 16 15 23 6 29 -7
4 -10 3 -5 -4 3 -6 2 -13 -3 -16 -5 -4 -12 2 -14 11 -3 10 -5 3 -6 -16z"/>
<path d="M8752 4610 c0 -19 2 -29 5 -22 4 9 8 10 18 2 11 -9 12 -6 9 12 l-5
23 12 -23 c8 -15 20 -22 33 -20 23 3 34 34 18 50 -6 6 -8 0 -4 -17 4 -22 1
-26 -14 -23 -11 2 -19 12 -18 24 0 12 -6 20 -17 20 -10 0 -16 -4 -13 -7 2 -4
0 -10 -5 -13 -5 -4 -12 2 -14 11 -3 10 -5 2 -5 -17z"/>
<path d="M8871 4608 c1 -18 3 -25 6 -15 5 21 22 22 29 2 11 -27 21 -16 16 17
-4 26 -6 29 -12 14 -6 -17 -7 -17 -23 -2 -16 16 -17 15 -16 -16z"/>
<path d="M8951 4635 c0 -23 38 -55 66 -54 23 0 25 2 9 8 -14 5 -16 10 -8 15 9
5 9 11 -2 22 -20 19 -36 18 -36 -3 0 -15 -2 -14 -15 3 -8 10 -14 15 -14 9z"/>
<path d="M9052 4610 c0 -19 2 -27 5 -17 2 9 2 25 0 35 -3 9 -5 1 -5 -18z"/>
<path d="M9171 4613 c-1 -27 3 -33 19 -33 11 0 20 5 20 10 0 14 27 12 34 -2 3
-7 3 -2 0 12 -10 40 -22 46 -33 17 -13 -35 -29 -34 -34 1 -4 25 -4 25 -6 -5z"/>
<path d="M9270 4637 c0 -5 9 -20 20 -34 l20 -26 -1 34 c-1 19 -3 26 -6 16 -5
-18 -5 -18 -19 0 -7 10 -14 14 -14 10z"/>
<path d="M9325 4605 c0 -40 1 -41 14 -16 7 13 7 23 -2 35 -10 14 -12 11 -12
-19z"/>
<path d="M9130 4581 c0 -6 4 -13 10 -16 6 -3 7 1 4 9 -7 18 -14 21 -14 7z"/>
<path d="M8760 4524 c0 -11 49 -58 55 -52 7 7 -8 57 -16 52 -5 -3 -7 -10 -4
-15 11 -16 -7 -9 -21 9 -7 9 -14 12 -14 6z"/>
<path d="M8827 4524 c-12 -13 -7 -34 7 -34 8 0 17 -6 20 -12 3 -7 3 -2 0 12
-7 30 -18 43 -27 34z"/>
<path d="M8970 4505 c-6 -15 -8 -30 -5 -33 3 -3 5 0 5 6 0 16 27 15 34 0 3 -7
3 -2 0 12 -10 40 -22 46 -34 15z"/>
<path d="M9019 4515 c-12 -40 15 -61 40 -31 12 15 5 46 -11 46 -6 0 -5 -6 2
-15 6 -8 9 -19 5 -25 -11 -18 -24 -11 -27 18 -3 23 -4 24 -9 7z"/>
<path d="M9081 4503 c-1 -30 1 -32 29 -30 16 1 30 6 30 11 0 5 6 4 13 -2 10
-8 12 -5 12 14 -1 13 -5 27 -10 31 -4 5 -5 3 -1 -4 3 -6 2 -14 -4 -18 -5 -3
-10 0 -10 7 0 8 -9 14 -21 15 -16 2 -18 -1 -9 -12 6 -8 9 -19 5 -25 -11 -18
-24 -11 -28 18 -4 25 -4 25 -6 -5z"/>
<path d="M9190 4502 l0 -32 62 2 c62 3 88 20 48 33 -11 3 -17 11 -14 17 5 7 2
8 -6 3 -10 -6 -7 -12 11 -26 l24 -19 -22 0 c-13 0 -23 4 -23 9 0 5 -9 13 -20
16 -11 4 -18 11 -15 16 4 5 2 9 -4 9 -5 0 -12 -6 -14 -12 -4 -10 -8 -9 -16 2
-8 12 -11 8 -11 -18z m50 -7 c5 3 11 1 15 -5 4 -6 -6 -10 -24 -10 -17 0 -31 4
-31 9 0 12 24 20 28 9 2 -4 8 -6 12 -3z"/>
<path d="M8874 4497 c3 -10 6 -21 6 -23 0 -2 10 -4 23 -3 14 0 17 2 7 6 -8 3
-21 13 -29 22 -12 15 -13 14 -7 -2z"/>
<path d="M9695 7030 c-4 -6 -10 -8 -14 -6 -12 8 4 -93 17 -106 9 -9 12 -9 12
-1 0 7 -4 15 -10 18 -13 8 -13 61 0 86 11 19 6 27 -5 9z"/>
<path d="M9735 7030 c-3 -5 0 -7 8 -4 19 7 34 -16 17 -26 -9 -5 -9 -9 -1 -14
17 -11 13 -34 -6 -39 -14 -3 -13 -4 2 -3 15 1 20 8 21 32 1 17 4 36 7 41 4 6
0 14 -9 17 -22 8 -32 8 -39 -4z"/>
<path d="M9865 7031 c-3 -6 0 -8 8 -5 26 10 30 -17 8 -47 -28 -37 -27 -39 12
-38 31 2 31 2 3 6 l-28 5 22 23 c12 13 20 31 18 41 -4 21 -33 31 -43 15z"/>
<path d="M9938 7023 c15 -27 16 -80 2 -88 -5 -3 -10 -12 -10 -18 0 -7 7 -3 15
7 20 27 19 90 -2 107 -15 13 -15 12 -5 -8z"/>
<path d="M1130 7015 c0 -8 -4 -15 -10 -15 -5 0 -10 5 -10 11 0 6 -7 4 -15 -5
-16 -16 -21 -41 -6 -31 5 3 12 1 15 -4 4 -5 -2 -12 -11 -14 -10 -3 -2 -5 17
-6 28 0 32 2 18 10 -22 12 -23 29 -3 29 8 0 15 9 15 20 0 11 -2 20 -5 20 -3 0
-5 -7 -5 -15z"/>
<path d="M888 7013 c-37 -6 -36 -18 2 -18 17 0 30 5 30 13 0 6 -1 11 -2 11 -2
-1 -15 -4 -30 -6z"/>
<path d="M984 6981 c19 -7 19 -8 1 -14 -10 -4 -15 -10 -12 -13 3 -4 18 3 33
15 l27 21 -34 -1 c-26 0 -30 -2 -15 -8z"/>
<path d="M9818 6983 c7 -3 16 -2 19 1 4 3 -2 6 -13 5 -11 0 -14 -3 -6 -6z"/>
<path d="M910 6971 c0 -5 -12 -12 -27 -14 -26 -4 -26 -4 5 -6 22 -1 32 3 32
14 0 8 -2 15 -5 15 -3 0 -5 -4 -5 -9z"/>
<path d="M5532 6948 c-17 -17 -15 -80 3 -104 8 -10 15 -14 15 -7 0 6 -4 15
-10 18 -13 8 -13 61 0 86 12 22 9 24 -8 7z"/>
<path d="M5585 6951 c-3 -6 0 -8 8 -5 26 10 30 -17 8 -47 -28 -37 -27 -39 12
-38 31 2 31 2 3 6 l-28 5 22 23 c12 13 20 31 18 41 -4 21 -33 31 -43 15z"/>
<path d="M5785 6951 c-3 -6 0 -8 8 -5 26 10 30 -17 8 -47 -28 -37 -27 -39 12
-38 31 2 31 2 3 6 l-28 5 22 23 c12 13 20 31 18 41 -4 21 -33 31 -43 15z"/>
<path d="M5858 6943 c15 -27 16 -80 2 -88 -5 -3 -10 -12 -10 -18 0 -7 7 -3 15
7 20 27 19 90 -2 107 -15 13 -15 12 -5 -8z"/>
<path d="M5721 6945 c-2 -5 -2 -23 -1 -39 1 -16 -4 -33 -12 -37 -9 -6 -3 -9
17 -9 17 0 25 4 18 8 -6 4 -13 25 -16 47 -2 22 -5 36 -6 30z"/>
<path d="M5668 6903 c7 -3 16 -2 19 1 4 3 -2 6 -13 5 -11 0 -14 -3 -6 -6z"/>
<path d="M388 6841 c-14 -5 -15 -9 -4 -30 9 -17 15 -20 21 -11 4 7 2 16 -5 20
-9 6 -9 9 1 12 8 3 12 8 9 10 -3 3 -13 3 -22 -1z"/>
<path d="M441 6827 c-13 -21 -12 -21 5 -5 10 10 16 20 13 22 -3 3 -11 -5 -18
-17z"/>
<path d="M352 6720 c0 -14 2 -19 5 -12 2 6 2 18 0 25 -3 6 -5 1 -5 -13z"/>
<path d="M370 6733 c0 -5 5 -15 10 -23 8 -12 10 -11 10 8 0 12 -4 22 -10 22
-5 0 -10 -3 -10 -7z"/>
<path d="M408 6717 c-3 -19 -2 -25 4 -19 6 6 8 18 6 28 -3 14 -5 12 -10 -9z"/>
<path d="M432 6720 c0 -14 2 -19 5 -12 2 6 2 18 0 25 -3 6 -5 1 -5 -13z"/>
<path d="M465 6710 c-3 -5 -1 -10 4 -10 6 0 11 5 11 10 0 6 -2 10 -4 10 -3 0
-8 -4 -11 -10z"/>
<path d="M9880 6375 c0 -14 5 -25 10 -25 6 0 10 11 10 25 0 14 -4 25 -10 25
-5 0 -10 -11 -10 -25z"/>
<path d="M9880 6305 c0 -14 5 -25 10 -25 6 0 10 11 10 25 0 14 -4 25 -10 25
-5 0 -10 -11 -10 -25z"/>
<path d="M9213 6293 c9 -2 25 -2 35 0 9 3 1 5 -18 5 -19 0 -27 -2 -17 -5z"/>
<path d="M9218 6273 c7 -3 16 -2 19 1 4 3 -2 6 -13 5 -11 0 -14 -3 -6 -6z"/>
<path d="M9880 6240 c0 -11 5 -20 10 -20 6 0 10 9 10 20 0 11 -4 20 -10 20 -5
0 -10 -9 -10 -20z"/>
<path d="M9880 6176 c0 -14 5 -28 10 -31 6 -4 10 7 10 24 0 17 -4 31 -10 31
-5 0 -10 -11 -10 -24z"/>
<path d="M9880 6105 c0 -14 5 -25 10 -25 6 0 10 11 10 25 0 14 -4 25 -10 25
-5 0 -10 -11 -10 -25z"/>
<path d="M8776 6095 c4 -9 -1 -24 -10 -34 -16 -18 -15 -19 11 -24 24 -4 25 -3
10 7 -9 7 -14 16 -11 19 8 7 37 -3 46 -17 4 -6 8 4 8 22 0 32 -13 42 -26 20
-4 -7 -3 -8 4 -4 7 4 12 2 12 -3 0 -6 -7 -11 -15 -11 -8 0 -15 6 -15 14 0 8
-4 18 -10 21 -6 3 -7 -1 -4 -10z"/>
<path d="M9436 6095 c4 -9 -1 -24 -10 -34 -16 -18 -15 -19 11 -24 24 -4 25 -3
10 7 -9 7 -14 16 -11 19 8 7 37 -3 46 -17 4 -6 8 4 8 22 0 32 -13 42 -26 20
-4 -7 -3 -8 4 -4 7 4 12 2 12 -3 0 -6 -7 -11 -15 -11 -8 0 -15 6 -15 14 0 8
-4 18 -10 21 -6 3 -7 -1 -4 -10z"/>
<path d="M974 6091 c5 -8 56 -3 56 5 0 2 -14 4 -31 4 -16 0 -28 -4 -25 -9z"/>
<path d="M1084 6091 c5 -8 56 -3 56 5 0 2 -14 4 -31 4 -16 0 -28 -4 -25 -9z"/>
<path d="M8852 6070 c11 -34 22 -30 32 10 l7 25 -15 -25 c-11 -18 -15 -21 -16
-8 0 9 -4 19 -10 23 -5 3 -5 -7 2 -25z"/>
<path d="M8901 6066 l-1 -38 27 17 c18 12 28 14 31 7 2 -7 13 -12 25 -11 21 0
21 1 2 9 -11 4 -27 17 -35 29 -8 12 -18 21 -23 21 -5 0 -4 -7 3 -15 6 -8 9
-19 5 -25 -11 -18 -24 -11 -28 18 -3 21 -4 18 -6 -12z"/>
<path d="M9512 6070 c11 -34 22 -30 32 10 l7 25 -15 -25 c-11 -18 -15 -21 -16
-8 0 9 -4 19 -10 23 -5 3 -5 -7 2 -25z"/>
<path d="M9561 6066 l-1 -38 27 17 c18 12 28 14 31 7 2 -7 13 -12 25 -11 21 0
21 1 2 9 -11 4 -27 17 -35 29 -8 12 -18 21 -23 21 -5 0 -4 -7 3 -15 6 -8 9
-19 5 -25 -11 -18 -24 -11 -28 18 -3 21 -4 18 -6 -12z"/>
<path d="M800 6071 c0 -5 -12 -12 -27 -14 -26 -4 -26 -4 5 -6 22 -1 32 3 32
14 0 8 -2 15 -5 15 -3 0 -5 -4 -5 -9z"/>
<path d="M984 6065 c-10 -8 -14 -15 -8 -15 6 0 17 7 24 15 16 19 9 19 -16 0z"/>
<path d="M1094 6065 c-10 -8 -14 -15 -8 -15 6 0 17 7 24 15 16 19 9 19 -16 0z"/>
<path d="M9880 6040 c0 -11 5 -20 10 -20 6 0 10 9 10 20 0 11 -4 20 -10 20 -5
0 -10 -9 -10 -20z"/>
<path d="M9880 5975 c0 -14 5 -25 10 -25 6 0 10 11 10 25 0 14 -4 25 -10 25
-5 0 -10 -11 -10 -25z"/>
<path d="M9880 5904 c0 -14 4 -23 10 -19 6 3 10 15 10 26 0 10 -4 19 -10 19
-5 0 -10 -12 -10 -26z"/>
<path d="M9880 5846 c0 -14 5 -28 10 -31 6 -4 10 7 10 24 0 17 -4 31 -10 31
-5 0 -10 -11 -10 -24z"/>
<path d="M9880 5775 c0 -14 5 -25 10 -25 6 0 10 11 10 25 0 14 -4 25 -10 25
-5 0 -10 -11 -10 -25z"/>
<path d="M9880 5710 c0 -11 5 -20 10 -20 6 0 10 9 10 20 0 11 -4 20 -10 20 -5
0 -10 -9 -10 -20z"/>
<path d="M9880 5645 c0 -14 5 -25 10 -25 6 0 10 11 10 25 0 14 -4 25 -10 25
-5 0 -10 -11 -10 -25z"/>
<path d="M9880 5511 c0 -11 5 -23 10 -26 6 -4 10 5 10 19 0 14 -4 26 -10 26
-5 0 -10 -9 -10 -19z"/>
<path d="M9880 5445 c0 -14 5 -25 10 -25 6 0 10 11 10 25 0 14 -4 25 -10 25
-5 0 -10 -11 -10 -25z"/>
<path d="M8906 5447 c6 -17 -11 -47 -27 -47 -5 0 -9 11 -9 25 0 14 -3 25 -7
25 -5 0 -8 -13 -8 -30 0 -28 3 -30 35 -29 19 0 30 3 23 6 -10 3 -10 9 0 23 9
15 9 22 -1 32 -11 11 -12 10 -6 -5z"/>
<path d="M8711 5421 c0 -19 0 -32 2 -30 1 2 10 14 20 26 14 16 15 23 6 29 -7
4 -10 3 -5 -4 3 -6 2 -13 -3 -16 -5 -4 -12 2 -14 11 -3 10 -5 3 -6 -16z"/>
<path d="M8790 5424 c0 -19 -4 -25 -15 -20 -8 3 -15 1 -15 -4 0 -6 9 -10 20
-10 16 0 20 7 20 30 0 17 -2 30 -5 30 -3 0 -5 -12 -5 -26z"/>
<path d="M8935 5420 c0 -16 5 -30 11 -30 6 0 9 13 6 30 -2 17 -7 30 -11 30 -3
0 -6 -13 -6 -30z"/>
<path d="M8984 5438 c-4 -7 -3 -8 4 -4 7 4 12 3 12 -3 0 -5 -8 -12 -17 -14
-17 -4 -17 -5 0 -6 9 0 17 -7 17 -13 0 -8 5 -6 10 4 17 29 -8 65 -26 36z"/>
<path d="M8654 5417 c3 -10 6 -21 6 -23 0 -2 10 -4 23 -3 14 0 17 2 7 6 -8 3
-21 13 -29 22 -12 15 -13 14 -7 -2z"/>
<path d="M9020 5399 c0 -5 9 -9 20 -9 11 0 20 2 20 4 0 2 -9 6 -20 9 -11 3
-20 1 -20 -4z"/>
<path d="M9880 5374 c0 -14 4 -23 10 -19 6 3 10 15 10 26 0 10 -4 19 -10 19
-5 0 -10 -12 -10 -26z"/>
<path d="M8661 5313 c-1 -35 15 -43 37 -21 9 9 12 9 12 0 0 -7 10 -12 23 -11
l22 0 -24 10 c-16 6 -22 15 -19 27 4 12 -1 18 -14 19 -16 2 -17 -1 -8 -12 6
-8 9 -19 5 -25 -11 -18 -24 -11 -28 18 -4 25 -4 25 -6 -5z"/>
<path d="M8801 5313 c-1 -35 14 -43 38 -20 11 10 14 10 18 0 3 -7 13 -13 24
-13 10 0 19 -6 20 -12 0 -7 5 -2 10 11 5 13 8 29 5 35 -2 6 -5 3 -5 -6 -1 -26
-35 -22 -57 7 -10 14 -23 25 -28 25 -4 0 -3 -7 4 -15 6 -8 9 -19 5 -25 -11
-18 -24 -11 -28 18 -4 25 -4 25 -6 -5z"/>
<path d="M8951 5313 c-1 -35 15 -43 37 -21 9 9 12 9 12 0 0 -7 10 -12 23 -11
l22 0 -24 10 c-16 6 -22 15 -19 27 4 12 -1 18 -14 19 -16 2 -17 -1 -8 -12 6
-8 9 -19 5 -25 -11 -18 -24 -11 -28 18 -4 25 -4 25 -6 -5z"/>
<path d="M9351 5311 c0 -19 0 -32 2 -30 1 2 10 14 20 26 14 16 15 23 6 29 -7
4 -10 3 -5 -4 3 -6 2 -13 -3 -16 -5 -4 -12 2 -14 11 -3 10 -5 3 -6 -16z"/>
<path d="M9400 5315 c-6 -15 -8 -30 -5 -33 3 -3 5 0 5 6 0 16 27 15 34 0 3 -7
3 -2 0 12 -10 40 -22 46 -34 15z"/>
<path d="M9452 5310 c0 -19 2 -29 5 -22 3 9 9 10 17 3 8 -7 11 -3 11 15 -1 13
-5 27 -10 31 -4 5 -5 3 -1 -4 3 -6 2 -14 -3 -17 -5 -4 -12 2 -14 11 -3 10 -5
2 -5 -17z"/>
<path d="M9522 5310 c0 -19 2 -27 5 -17 2 9 2 25 0 35 -3 9 -5 1 -5 -18z"/>
<path d="M9605 5311 c0 -36 31 -50 41 -19 3 11 3 22 0 25 -3 4 -6 -1 -6 -10 0
-9 -4 -17 -10 -17 -5 0 -10 11 -10 25 0 14 -3 25 -7 25 -5 0 -8 -13 -8 -29z"/>
<path d="M9670 5327 c0 -9 6 -18 13 -20 9 -4 8 -8 -3 -16 -13 -9 -13 -11 3
-11 21 0 22 26 2 46 -13 14 -15 14 -15 1z"/>
<path d="M9880 5315 c0 -14 5 -25 10 -25 6 0 10 11 10 25 0 14 -4 25 -10 25
-5 0 -10 -11 -10 -25z"/>
<path d="M8771 5313 c-1 -6 -4 -20 -7 -30 -5 -17 -5 -17 6 0 6 10 9 23 6 30
-3 9 -5 9 -5 0z"/>
<path d="M2552 5288 c-17 -17 -15 -80 3 -104 8 -10 15 -14 15 -7 0 6 -4 15
-10 18 -13 8 -13 61 0 86 12 22 9 24 -8 7z"/>
<path d="M2605 5291 c-3 -6 0 -8 8 -5 26 10 30 -17 8 -47 -28 -37 -27 -39 12
-38 31 2 31 2 3 6 l-28 5 22 23 c12 13 20 31 18 41 -4 21 -33 31 -43 15z"/>
<path d="M2809 5283 c14 -27 15 -80 1 -88 -5 -3 -10 -11 -10 -18 0 -26 23 13
30 52 6 34 4 43 -13 58 -19 18 -20 17 -8 -4z"/>
<path d="M2741 5285 c-2 -5 -2 -23 -1 -39 1 -16 -4 -33 -12 -37 -9 -6 -3 -9
17 -9 17 0 25 4 18 8 -6 4 -13 25 -16 47 -2 22 -5 36 -6 30z"/>
<path d="M9880 5245 c0 -14 5 -25 10 -25 6 0 10 11 10 25 0 14 -4 25 -10 25
-5 0 -10 -11 -10 -25z"/>
<path d="M2688 5243 c7 -3 16 -2 19 1 4 3 -2 6 -13 5 -11 0 -14 -3 -6 -6z"/>
<path d="M1012 5178 c-17 -17 -15 -80 3 -104 8 -10 15 -14 15 -7 0 6 -4 15
-10 18 -13 8 -13 61 0 86 12 22 9 24 -8 7z"/>
<path d="M1055 5181 c-3 -6 0 -8 8 -5 26 10 30 -17 8 -47 -28 -37 -27 -39 12
-38 31 2 31 2 3 6 l-28 5 22 23 c12 13 20 31 18 41 -4 21 -33 31 -43 15z"/>
<path d="M1259 5173 c14 -27 15 -80 1 -88 -5 -3 -10 -11 -10 -18 0 -26 23 13
30 52 6 34 4 43 -13 58 -19 18 -20 17 -8 -4z"/>
<path d="M3332 5178 c-17 -17 -15 -80 3 -104 8 -10 15 -14 15 -7 0 6 -4 15
-10 18 -13 8 -13 61 0 86 12 22 9 24 -8 7z"/>
<path d="M3376 5182 c-3 -6 2 -9 11 -8 9 0 18 -5 21 -13 3 -10 0 -12 -14 -7
-17 6 -17 6 -1 -12 22 -24 22 -40 0 -45 -14 -3 -13 -4 2 -3 17 1 20 8 20 46 0
34 -4 46 -17 48 -9 2 -19 -1 -22 -6z"/>
<path d="M3579 5173 c14 -27 15 -80 1 -88 -5 -3 -10 -11 -10 -18 0 -26 23 13
30 52 6 34 4 43 -13 58 -19 18 -20 17 -8 -4z"/>
<path d="M1183 5161 c-11 -10 -29 -21 -39 -24 -12 -2 -4 -7 24 -12 28 -5 42
-13 43 -24 0 -13 2 -12 8 3 8 21 2 76 -8 76 -4 0 -16 -9 -28 -19z m27 -10 c0
-12 -20 -25 -27 -18 -7 7 6 27 18 27 5 0 9 -4 9 -9z"/>
<path d="M3503 5161 c-11 -10 -29 -21 -39 -24 -12 -2 -4 -7 24 -12 28 -5 42
-13 43 -24 0 -13 2 -12 8 3 8 21 2 76 -8 76 -4 0 -16 -9 -28 -19z m27 -10 c0
-12 -20 -25 -27 -18 -7 7 6 27 18 27 5 0 9 -4 9 -9z"/>
<path d="M9880 5115 c0 -14 5 -25 10 -25 6 0 10 11 10 25 0 14 -4 25 -10 25
-5 0 -10 -11 -10 -25z"/>
<path d="M9880 5045 c0 -14 5 -25 10 -25 6 0 10 11 10 25 0 14 -4 25 -10 25
-5 0 -10 -11 -10 -25z"/>
<path d="M9880 4980 c0 -11 5 -20 10 -20 6 0 10 9 10 20 0 11 -4 20 -10 20 -5
0 -10 -9 -10 -20z"/>
<path d="M9880 4915 c0 -14 5 -25 10 -25 6 0 10 11 10 25 0 14 -4 25 -10 25
-5 0 -10 -11 -10 -25z"/>
<path d="M9880 4845 c0 -14 5 -25 10 -25 6 0 10 11 10 25 0 14 -4 25 -10 25
-5 0 -10 -11 -10 -25z"/>
<path d="M352 4848 c-17 -17 -15 -80 3 -104 8 -10 15 -14 15 -7 0 6 -4 15 -10
18 -13 8 -13 61 0 86 12 22 9 24 -8 7z"/>
<path d="M395 4851 c-3 -6 0 -8 8 -5 26 10 30 -17 8 -47 -28 -37 -27 -39 12
-38 31 2 31 2 3 6 l-28 5 22 23 c12 13 20 31 18 41 -4 21 -33 31 -43 15z"/>
<path d="M517 4853 c-4 -3 -7 -14 -7 -24 0 -10 -9 -19 -22 -22 -22 -4 -22 -4
-2 -6 13 0 24 -10 27 -21 7 -28 35 -25 49 5 19 41 -18 96 -45 68z m33 -49 c0
-24 -5 -34 -15 -34 -10 0 -15 10 -15 33 0 19 3 37 6 40 13 13 24 -5 24 -39z"/>
<path d="M599 4843 c14 -27 15 -80 1 -88 -5 -3 -10 -11 -10 -18 0 -26 23 13
30 52 6 34 4 43 -13 58 -19 18 -20 17 -8 -4z"/>
<path d="M9004 4813 c4 -8 1 -23 -6 -32 -11 -14 -11 -14 3 -4 12 10 18 10 28
0 11 -10 11 -8 3 9 -7 13 -8 24 -2 30 6 6 2 10 -11 11 -15 1 -19 -2 -15 -14z"/>
<path d="M9065 4800 c0 -16 5 -30 11 -30 6 0 9 13 6 30 -2 17 -7 30 -11 30 -3
0 -6 -13 -6 -30z"/>
<path d="M9128 4800 c2 -17 5 -30 6 -28 1 2 9 13 19 25 14 16 15 23 6 29 -7 4
-10 3 -5 -4 3 -6 2 -13 -4 -17 -5 -3 -10 1 -10 9 0 9 -4 16 -8 16 -5 0 -7 -14
-4 -30z"/>
<path d="M9185 4800 c0 -16 5 -30 11 -30 6 0 9 13 6 30 -2 17 -7 30 -11 30 -3
0 -6 -13 -6 -30z"/>
<path d="M9880 4785 c0 -14 5 -25 10 -25 6 0 10 11 10 25 0 14 -4 25 -10 25
-5 0 -10 -11 -10 -25z"/>
<path d="M9880 4715 c0 -14 5 -25 10 -25 6 0 10 11 10 25 0 14 -4 25 -10 25
-5 0 -10 -11 -10 -25z"/>
<path d="M9880 4650 c0 -11 5 -20 10 -20 6 0 10 9 10 20 0 11 -4 20 -10 20 -5
0 -10 -9 -10 -20z"/>
<path d="M9880 4585 c0 -14 5 -25 10 -25 6 0 10 11 10 25 0 14 -4 25 -10 25
-5 0 -10 -11 -10 -25z"/>
<path d="M9880 4515 c0 -14 5 -25 10 -25 6 0 10 11 10 25 0 14 -4 25 -10 25
-5 0 -10 -11 -10 -25z"/>
<path d="M9880 4456 c0 -14 5 -26 10 -26 6 0 10 9 10 19 0 11 -4 23 -10 26 -6
4 -10 -5 -10 -19z"/>
<path d="M9880 4385 c0 -14 5 -25 10 -25 6 0 10 11 10 25 0 14 -4 25 -10 25
-5 0 -10 -11 -10 -25z"/>
<path d="M8962 3858 c-17 -17 -15 -80 3 -104 8 -10 15 -14 15 -7 0 6 -4 15
-10 18 -13 8 -13 61 0 86 12 22 9 24 -8 7z"/>
<path d="M9005 3861 c-3 -6 0 -8 8 -5 26 10 30 -17 8 -47 -28 -37 -27 -39 12
-38 31 2 31 2 3 6 l-28 5 22 23 c12 13 20 31 18 41 -4 21 -33 31 -43 15z"/>
<path d="M9288 3853 c15 -27 16 -80 2 -88 -5 -3 -10 -12 -10 -18 0 -7 7 -3 15
7 20 27 19 90 -2 107 -15 13 -15 12 -5 -8z"/>
<path d="M9141 3855 c-2 -5 -2 -23 -1 -39 1 -16 -4 -33 -12 -37 -9 -6 -3 -9
17 -9 17 0 25 4 18 8 -6 4 -13 25 -16 47 -2 22 -5 36 -6 30z"/>
<path d="M9219 3854 c-1 -5 0 -22 1 -38 1 -16 -4 -33 -12 -37 -9 -6 -3 -9 17
-9 17 0 25 3 18 8 -6 4 -11 22 -11 40 1 29 -10 60 -13 36z"/>
<path d="M9088 3813 c7 -3 16 -2 19 1 4 3 -2 6 -13 5 -11 0 -14 -3 -6 -6z"/>
<path d="M90 6319 c0 -49 1 -50 28 -47 24 3 27 7 29 43 1 41 -9 55 -39 55 -15
0 -18 -9 -18 -51z m50 20 c0 -5 -9 -9 -20 -9 -19 0 -26 11 -14 23 8 8 34 -3
34 -14z m-5 -40 c0 -7 -8 -15 -17 -17 -18 -3 -25 18 -11 32 10 10 28 1 28 -15z"/>
<path d="M95 5456 c-22 -33 -5 -76 29 -76 14 0 27 4 30 8 2 4 -8 8 -22 7 -21
0 -28 5 -30 23 -5 31 16 54 41 46 13 -4 17 -2 13 5 -12 19 -45 12 -61 -13z"/>
<path d="M80 4550 c0 -46 2 -50 24 -50 22 0 56 32 56 52 0 16 -40 48 -60 48
-17 0 -20 -7 -20 -50z m60 -4 c0 -22 -16 -36 -41 -36 -10 0 -13 63 -3 73 13
12 44 -14 44 -37z"/>
<path d="M90 3670 l0 -50 33 1 c30 2 30 2 5 6 -19 3 -28 10 -28 23 0 13 9 20
28 23 l27 4 -27 2 c-35 1 -37 21 -3 21 14 0 25 5 25 10 0 6 -13 10 -30 10 -29
0 -30 -1 -30 -50z"/>
<path d="M91 2778 c1 -37 3 -46 8 -29 3 13 15 28 26 32 19 7 19 8 -2 8 -28 1
-31 21 -3 21 11 0 20 5 20 10 0 6 -11 10 -25 10 -24 0 -25 -3 -24 -52z"/>
<path d="M85 1926 c-24 -36 -5 -76 35 -76 25 0 30 4 30 25 0 17 -5 25 -17 24
-11 0 -13 -3 -5 -6 6 -2 12 -11 12 -20 0 -25 -45 -11 -48 15 -5 31 16 54 41
46 13 -4 17 -2 13 5 -12 19 -45 12 -61 -13z"/>
<path d="M83 1020 c0 -30 2 -42 4 -27 4 22 9 28 26 25 13 -2 24 -13 28 -28 5
-17 7 -7 7 30 -1 30 -3 45 -5 33 -3 -16 -11 -23 -28 -23 -17 0 -25 7 -28 23
-2 12 -4 -3 -4 -33z"/>
<path d="M66 443 c-9 -25 -14 -49 -11 -51 2 -3 7 3 11 12 8 20 44 21 44 1 0
-8 4 -15 9 -15 5 0 2 23 -7 50 -9 28 -19 50 -23 50 -4 0 -14 -21 -23 -47z m34
2 c0 -8 -4 -15 -10 -15 -5 0 -10 7 -10 15 0 8 5 15 10 15 6 0 10 -7 10 -15z"/>
<path d="M580 440 c0 -46 2 -50 24 -50 22 0 56 32 56 52 0 16 -40 48 -60 48
-17 0 -20 -7 -20 -50z m60 -4 c0 -22 -16 -36 -41 -36 -10 0 -13 63 -3 73 13
12 44 -14 44 -37z"/>
<path d="M671 438 c1 -29 4 -43 6 -30 2 12 8 22 13 22 5 0 16 -10 25 -22 15
-22 17 -22 29 -5 16 21 46 23 46 2 0 -8 4 -15 9 -15 5 0 2 23 -7 50 -9 28 -19
50 -24 50 -4 0 -13 -18 -19 -40 -13 -44 -35 -56 -25 -14 8 30 -8 54 -35 54
-16 0 -19 -7 -18 -52z m49 21 c0 -12 -29 -24 -37 -16 -3 4 -3 13 0 21 6 16 37
11 37 -5z m60 -14 c0 -8 -4 -15 -10 -15 -5 0 -10 7 -10 15 0 8 5 15 10 15 6 0
10 -7 10 -15z"/>
<path d="M820 439 c0 -49 1 -50 28 -47 24 3 27 7 29 43 1 41 -9 55 -39 55 -15
0 -18 -9 -18 -51z m50 20 c0 -5 -9 -9 -20 -9 -19 0 -26 11 -14 23 8 8 34 -3
34 -14z m-5 -40 c0 -7 -8 -15 -17 -17 -18 -3 -25 18 -11 32 10 10 28 1 28 -15z"/>
<path d="M980 440 l0 -51 36 3 c20 1 38 8 41 15 7 18 43 16 43 -2 0 -8 4 -15
9 -15 5 0 2 23 -7 50 -9 28 -19 50 -23 50 -4 0 -13 -16 -19 -36 -8 -25 -15
-32 -20 -24 -5 7 -6 20 -3 28 7 16 -13 32 -39 32 -15 0 -18 -9 -18 -50z m50
19 c0 -5 -9 -9 -20 -9 -19 0 -26 11 -14 23 8 8 34 -3 34 -14z m60 -14 c0 -8
-4 -15 -10 -15 -5 0 -10 7 -10 15 0 8 5 15 10 15 6 0 10 -7 10 -15z m-65 -26
c0 -7 -8 -15 -17 -17 -18 -3 -25 18 -11 32 10 10 28 1 28 -15z"/>
<path d="M1132 443 l-2 -53 35 0 c22 0 38 6 41 15 4 8 15 15 25 15 10 0 19 -7
19 -15 0 -8 4 -15 9 -15 5 0 2 23 -7 50 -9 28 -19 50 -23 50 -4 0 -14 -19 -21
-42 -12 -34 -20 -44 -41 -46 -24 -3 -26 0 -30 45 l-3 48 -2 -52z m108 2 c0 -8
-4 -15 -10 -15 -5 0 -10 7 -10 15 0 8 5 15 10 15 6 0 10 -7 10 -15z"/>
<path d="M1356 443 c-9 -25 -14 -49 -11 -51 2 -3 7 3 11 12 8 20 44 21 44 1 0
-8 4 -15 9 -15 5 0 2 23 -7 50 -9 28 -19 50 -23 50 -4 0 -14 -21 -23 -47z m34
2 c0 -8 -4 -15 -10 -15 -5 0 -10 7 -10 15 0 8 5 15 10 15 6 0 10 -7 10 -15z"/>
<path d="M1437 483 c-15 -14 -6 -40 19 -51 28 -13 23 -37 -7 -29 -11 3 -19 1
-19 -5 0 -5 12 -8 27 -6 38 4 42 34 8 50 -30 14 -28 34 4 31 13 -2 20 1 16 7
-7 11 -38 13 -48 3z"/>
<path d="M1507 483 c-15 -14 -6 -40 19 -51 28 -13 23 -37 -7 -29 -11 3 -19 1
-19 -5 0 -5 12 -8 27 -6 38 4 42 34 8 50 -30 14 -28 34 4 31 13 -2 20 1 16 7
-7 11 -38 13 -48 3z"/>
<path d="M1580 480 c0 -5 9 -10 21 -10 20 0 20 0 1 -27 -36 -53 -36 -53 5 -52
34 1 35 2 10 8 l-28 6 26 34 c32 45 32 51 -5 51 -16 0 -30 -4 -30 -10z"/>
<path d="M1740 440 l0 -50 33 1 c30 2 30 2 5 6 -19 3 -28 10 -28 23 0 13 9 20
28 23 l27 4 -27 2 c-35 1 -37 21 -3 21 14 0 25 5 25 10 0 6 -13 10 -30 10 -29
0 -30 -1 -30 -50z"/>
<path d="M1812 443 l-2 -53 33 1 c29 2 29 2 5 6 -24 4 -27 9 -31 51 l-3 47 -2
-52z"/>
<path d="M1885 466 c-24 -36 -5 -76 35 -76 25 0 30 4 30 25 0 17 -5 25 -17 24
-11 0 -13 -3 -5 -6 6 -2 12 -11 12 -20 0 -25 -45 -11 -48 15 -5 31 16 54 41
46 13 -4 17 -2 13 5 -12 19 -45 12 -61 -13z"/>
<path d="M1971 438 c2 -52 2 -53 8 -13 6 35 8 37 14 18 5 -13 12 -23 17 -23 5
0 12 10 17 23 6 19 8 17 14 -18 6 -40 6 -39 8 13 0 28 -1 52 -4 52 -2 0 -11
-12 -19 -27 l-14 -28 -13 28 c-19 42 -29 32 -28 -25z"/>
<path d="M210 470 c0 -5 -7 -10 -15 -10 -10 0 -15 -10 -15 -30 0 -42 -27 -40
-33 3 l-5 32 2 -35 c1 -30 5 -35 29 -38 24 -3 27 0 28 30 l1 33 7 -29 c3 -16
12 -31 19 -32 7 -1 8 0 2 3 -12 6 -13 50 -1 55 5 2 3 9 -5 16 -8 7 -14 8 -14
2z"/>
<path d="M257 441 c-7 -27 15 -54 39 -48 17 4 16 5 -3 6 -30 1 -29 17 1 23 18
4 26 0 29 -14 3 -12 14 -18 31 -18 23 0 26 4 26 35 0 19 -4 35 -10 35 -5 0
-10 -13 -10 -30 0 -20 -5 -30 -15 -30 -10 0 -15 10 -15 28 0 25 -4 28 -34 30
-26 2 -35 -2 -39 -17z m43 -1 c0 -5 -7 -10 -15 -10 -8 0 -15 5 -15 10 0 6 7
10 15 10 8 0 15 -4 15 -10z"/>
<path d="M401 423 c1 -27 3 -31 6 -13 2 14 12 31 21 38 14 11 13 12 -6 12 -19
0 -22 -5 -21 -37z"/>
<path d="M908 373 c12 -2 30 -2 40 0 9 3 -1 5 -23 4 -22 0 -30 -2 -17 -4z"/>
<path d="M1278 373 c12 -2 30 -2 40 0 9 3 -1 5 -23 4 -22 0 -30 -2 -17 -4z"/>
<path d="M1668 373 c12 -2 30 -2 40 0 9 3 -1 5 -23 4 -22 0 -30 -2 -17 -4z"/>
<path d="M5483 300 c0 -30 2 -43 4 -27 2 15 2 39 0 55 -2 15 -4 2 -4 -28z"/>
<path d="M5798 327 c-2 -7 -2 -25 1 -42 6 -27 10 -30 49 -33 l42 -3 0 36 c0
32 -2 35 -27 34 -27 -1 -27 -1 -4 -8 l24 -6 -27 -12 c-14 -7 -26 -17 -26 -23
0 -5 -4 -10 -10 -10 -12 0 -13 47 -1 52 5 2 3 8 -4 15 -10 9 -14 9 -17 0z m82
-46 c0 -12 -20 -25 -27 -18 -7 7 6 27 18 27 5 0 9 -4 9 -9z"/>
<path d="M5908 327 c-7 -21 6 -70 20 -73 7 -1 8 0 2 3 -12 6 -13 50 -1 55 5 2
3 8 -4 15 -10 9 -14 9 -17 0z"/>
<path d="M5429 311 l24 -6 -27 -13 c-33 -15 -29 -36 7 -40 25 -3 27 0 27 32 0
33 -2 36 -27 35 -27 -1 -27 -1 -4 -8z m21 -30 c0 -12 -20 -25 -27 -18 -7 7 6
27 18 27 5 0 9 -4 9 -9z"/>
<path d="M5513 285 c0 -22 2 -30 4 -17 2 12 2 30 0 40 -3 9 -5 -1 -4 -23z"/>
<path d="M5552 283 c1 -37 1 -37 5 -5 3 18 10 32 18 32 8 0 15 -14 18 -32 l4
-33 1 33 c1 20 7 32 16 32 9 0 16 -13 19 -32 4 -32 4 -32 5 5 l2 37 -45 0 -45
0 2 -37z"/>
<path d="M5657 300 c-7 -26 15 -53 39 -47 17 4 16 5 -3 6 -31 1 -29 17 1 23
19 4 26 0 29 -16 3 -13 5 -9 6 12 1 43 31 45 31 2 0 -16 5 -30 10 -30 11 0 13
30 4 54 -7 19 -50 21 -57 4 -4 -10 -6 -10 -6 0 -2 20 -48 14 -54 -8z m43 0 c0
-5 -7 -10 -15 -10 -8 0 -15 5 -15 10 0 6 7 10 15 10 8 0 15 -4 15 -10z"/>
<path d="M5953 285 c0 -22 2 -30 4 -17 2 12 2 30 0 40 -3 9 -5 -1 -4 -23z"/>
<path d="M5986 304 c-8 -22 11 -54 33 -54 22 0 34 25 26 51 -8 23 -50 25 -59
3z m47 -6 c6 -19 -3 -38 -19 -38 -8 0 -14 10 -14 25 0 26 25 35 33 13z"/>
<path d="M6062 283 c1 -37 1 -37 5 -5 6 42 33 44 33 2 0 -16 5 -30 10 -30 11
0 13 30 4 54 -3 9 -17 16 -30 16 -21 0 -24 -4 -22 -37z"/>
<path d="M9011 438 c1 -37 3 -46 8 -29 3 13 15 28 26 32 19 7 19 8 -2 8 -28 1
-31 21 -3 21 11 0 20 5 20 10 0 6 -11 10 -25 10 -24 0 -25 -3 -24 -52z"/>
<path d="M9183 440 c0 -31 2 -41 4 -22 6 42 33 44 33 2 0 -16 5 -30 10 -30 11
0 13 30 4 54 -3 9 -14 16 -24 16 -10 0 -21 8 -23 18 -3 9 -4 -8 -4 -38z"/>
<path d="M9083 425 c0 -22 2 -30 4 -17 2 12 2 30 0 40 -3 9 -5 -1 -4 -23z"/>
<path d="M9111 441 c-14 -25 8 -55 35 -48 17 4 16 5 -3 6 -17 1 -23 7 -23 25
0 18 7 26 23 29 l22 4 -22 2 c-13 0 -27 -7 -32 -18z"/>
<path d="M9253 425 c0 -22 2 -30 4 -17 2 12 2 30 0 40 -3 9 -5 -1 -4 -23z"/>
<path d="M9287 440 c-7 -26 15 -53 39 -47 17 4 16 5 -3 6 -31 1 -29 17 1 23
19 4 26 0 29 -16 3 -17 5 -15 6 6 0 15 9 32 19 37 15 9 15 10 -5 11 -12 0 -24
-6 -26 -12 -4 -10 -6 -10 -6 0 -2 20 -48 14 -54 -8z m43 0 c0 -5 -7 -10 -15
-10 -8 0 -15 5 -15 10 0 6 7 10 15 10 8 0 15 -4 15 -10z"/>
<path d="M60 160 c0 -46 2 -50 24 -50 22 0 56 32 56 52 0 16 -40 48 -60 48
-17 0 -20 -7 -20 -50z m60 -4 c0 -22 -16 -36 -41 -36 -10 0 -13 63 -3 73 13
12 44 -14 44 -37z"/>
<path d="M210 190 c0 -5 -15 -10 -32 -11 -29 -1 -30 -2 -9 -8 l24 -6 -27 -13
c-33 -15 -29 -36 7 -40 24 -3 27 0 28 30 l1 33 7 -29 c3 -16 12 -31 19 -32 7
-1 8 0 2 3 -12 6 -13 50 -1 55 5 2 3 9 -5 16 -8 7 -14 8 -14 2z m-20 -49 c0
-12 -20 -25 -27 -18 -7 7 6 27 18 27 5 0 9 -4 9 -9z"/>
<path d="M257 160 c-7 -26 15 -53 39 -47 17 4 16 5 -3 6 -27 1 -31 21 -5 21
24 0 32 8 25 26 -8 21 -50 17 -56 -6z m43 0 c0 -5 -7 -10 -15 -10 -8 0 -15 5
-15 10 0 6 7 10 15 10 8 0 15 -4 15 -10z"/>
<path d="M9011 158 c1 -37 3 -46 8 -29 3 13 15 28 26 32 19 7 19 8 -2 8 -28 1
-31 21 -3 21 11 0 20 5 20 10 0 6 -11 10 -25 10 -24 0 -25 -3 -24 -52z"/>
<path d="M9163 160 c0 -30 2 -43 4 -28 2 16 2 40 0 56 -2 15 -4 2 -4 -28z"/>
<path d="M9518 153 c-22 -77 -15 -79 10 -4 11 34 18 61 14 61 -4 0 -15 -26
-24 -57z"/>
<path d="M9451 195 c-2 -5 -2 -23 -1 -39 1 -16 -4 -33 -12 -37 -9 -6 -3 -9 17
-9 17 0 25 4 18 8 -6 4 -13 25 -16 47 -2 22 -5 36 -6 30z"/>
<path d="M9572 177 c-28 -30 -28 -37 3 -37 17 0 25 -6 26 -17 0 -16 1 -16 8 1
8 21 2 76 -8 76 -4 0 -17 -10 -29 -23z m28 -6 c0 -12 -20 -25 -27 -18 -7 7 6
27 18 27 5 0 9 -4 9 -9z"/>
<path d="M9076 164 c-8 -22 11 -54 33 -54 22 0 34 25 26 51 -8 23 -50 25 -59
3z m47 -6 c6 -19 -3 -38 -19 -38 -8 0 -14 10 -14 25 0 26 25 35 33 13z"/>
<path d="M9193 145 c0 -22 2 -30 4 -17 2 12 2 30 0 40 -3 9 -5 -1 -4 -23z"/>
<path d="M9216 164 c-8 -22 11 -54 33 -54 22 0 34 25 26 51 -8 23 -50 25 -59
3z m47 -6 c6 -19 -3 -38 -19 -38 -8 0 -14 10 -14 25 0 26 25 35 33 13z"/>
<path d="M534 7786 c-11 -28 1 -81 18 -84 26 -5 45 41 30 73 -13 27 -39 33
-48 11z m36 -42 c0 -24 -5 -34 -15 -34 -10 0 -15 10 -15 33 0 19 3 37 6 40 13
13 24 -5 24 -39z"/>
<path d="M1855 7791 c-3 -6 0 -8 8 -5 26 10 30 -17 8 -47 -28 -37 -27 -39 12
-38 31 2 31 2 3 6 l-28 5 22 23 c12 13 20 31 18 41 -4 21 -33 31 -43 15z"/>
<path d="M2525 7791 c-3 -6 0 -8 8 -5 19 7 34 -16 17 -26 -9 -5 -9 -9 -1 -14
17 -11 13 -34 -6 -39 -14 -3 -13 -4 2 -3 17 1 20 8 20 46 0 34 -4 46 -17 48
-9 2 -19 -2 -23 -7z"/>
<path d="M3840 7775 c0 -18 5 -25 20 -25 27 0 27 -37 0 -43 -17 -4 -16 -4 2
-3 32 2 38 45 9 53 -27 7 -27 23 -1 23 11 0 20 5 20 10 0 6 -11 10 -25 10 -20
0 -25 -5 -25 -25z"/>
<path d="M4511 7786 c-7 -8 -11 -30 -9 -48 2 -25 8 -34 25 -36 14 -2 23 3 28
17 8 27 -1 41 -28 41 l-22 1 24 19 c16 14 19 20 8 20 -8 0 -20 -6 -26 -14z
m29 -57 c0 -24 -23 -21 -28 4 -2 10 3 17 12 17 10 0 16 -9 16 -21z"/>
<path d="M5160 7790 c0 -5 9 -10 20 -10 25 0 25 -7 0 -47 -11 -18 -16 -33 -12
-33 11 0 52 87 45 94 -10 10 -53 7 -53 -4z"/>
<path d="M5836 7788 c-3 -7 -4 -29 -3 -48 2 -27 7 -36 23 -38 26 -4 34 14 25
59 -7 34 -37 53 -45 27z m34 -13 c0 -8 -7 -15 -15 -15 -16 0 -20 12 -8 23 11
12 23 8 23 -8z m0 -51 c0 -8 -7 -14 -15 -14 -15 0 -21 21 -9 33 10 9 24 -2 24
-19z"/>
<path d="M6492 7783 c-13 -24 -4 -43 19 -43 26 0 24 -19 -3 -30 l-23 -9 23 0
c16 -1 26 7 33 26 19 50 -26 101 -49 56z m38 -19 c0 -8 -7 -14 -15 -14 -15 0
-21 21 -9 33 10 9 24 -2 24 -19z"/>
<path d="M7194 7786 c-11 -28 1 -81 18 -84 26 -5 45 41 30 73 -13 27 -39 33
-48 11z m36 -42 c0 -24 -5 -34 -15 -34 -10 0 -15 10 -15 33 0 19 3 37 6 40 13
13 24 -5 24 -39z"/>
<path d="M8525 7791 c-3 -6 0 -8 8 -5 26 10 30 -17 8 -47 -28 -37 -27 -39 12
-38 31 2 31 2 3 6 l-28 5 22 23 c12 13 20 31 18 41 -4 21 -33 31 -43 15z"/>
<path d="M9185 7791 c-3 -6 0 -8 8 -5 19 7 34 -16 17 -26 -9 -5 -9 -9 -1 -14
17 -11 13 -34 -6 -39 -14 -3 -13 -4 2 -3 17 1 20 8 20 46 0 34 -4 46 -17 48
-9 2 -19 -2 -23 -7z"/>
<path d="M10500 7775 c0 -18 5 -25 20 -25 27 0 27 -37 0 -43 -17 -4 -16 -4 2
-3 32 2 38 45 9 53 -27 7 -27 23 -1 23 11 0 20 5 20 10 0 6 -11 10 -25 10 -20
0 -25 -5 -25 -25z"/>
<path d="M11171 7786 c-7 -8 -11 -30 -9 -48 2 -25 8 -34 25 -36 14 -2 23 3 28
17 8 27 -1 41 -28 41 l-22 1 24 19 c16 14 19 20 8 20 -8 0 -20 -6 -26 -14z
m29 -57 c0 -24 -23 -21 -28 4 -2 10 3 17 12 17 10 0 16 -9 16 -21z"/>
<path d="M1211 7785 c-2 -5 -2 -23 -1 -39 1 -16 -4 -33 -12 -37 -9 -6 -3 -9
17 -9 17 0 25 4 18 8 -6 4 -13 25 -16 47 -2 22 -5 36 -6 30z"/>
<path d="M3192 7767 c-28 -30 -28 -37 3 -37 17 0 25 -6 26 -17 0 -16 1 -16 8
1 8 21 2 76 -8 76 -4 0 -17 -10 -29 -23z m28 -6 c0 -12 -20 -25 -27 -18 -7 7
6 27 18 27 5 0 9 -4 9 -9z"/>
<path d="M7131 7785 c-2 -5 -2 -23 -1 -39 1 -16 -4 -33 -12 -37 -9 -6 -3 -9
17 -9 17 0 25 4 18 8 -6 4 -13 25 -16 47 -2 22 -5 36 -6 30z"/>
<path d="M7801 7785 c-2 -5 -2 -23 -1 -39 1 -16 -4 -33 -12 -37 -9 -6 -3 -9
17 -9 17 0 25 4 18 8 -6 4 -13 25 -16 47 -2 22 -5 36 -6 30z"/>
<path d="M7871 7785 c-2 -5 -2 -23 -1 -39 1 -16 -4 -33 -12 -37 -9 -6 -3 -9
17 -9 17 0 25 4 18 8 -6 4 -13 25 -16 47 -2 22 -5 36 -6 30z"/>
<path d="M8461 7785 c-2 -5 -2 -23 -1 -39 1 -16 -4 -33 -12 -37 -9 -6 -3 -9
17 -9 17 0 25 4 18 8 -6 4 -13 25 -16 47 -2 22 -5 36 -6 30z"/>
<path d="M9121 7785 c-2 -5 -2 -23 -1 -39 1 -16 -4 -33 -12 -37 -9 -6 -3 -9
17 -9 17 0 25 4 18 8 -6 4 -13 25 -16 47 -2 22 -5 36 -6 30z"/>
<path d="M9781 7785 c-2 -5 -2 -23 -1 -39 1 -16 -4 -33 -12 -37 -9 -6 -3 -9
17 -9 17 0 25 4 18 8 -6 4 -13 25 -16 47 -2 22 -5 36 -6 30z"/>
<path d="M9852 7767 c-28 -30 -28 -37 3 -37 17 0 25 -6 26 -17 0 -16 1 -16 8
1 8 21 2 76 -8 76 -4 0 -17 -10 -29 -23z m28 -6 c0 -12 -20 -25 -27 -18 -7 7
6 27 18 27 5 0 9 -4 9 -9z"/>
<path d="M10441 7785 c-2 -5 -2 -23 -1 -39 1 -16 -4 -33 -12 -37 -9 -6 -3 -9
17 -9 17 0 25 4 18 8 -6 4 -13 25 -16 47 -2 22 -5 36 -6 30z"/>
<path d="M11111 7785 c-2 -5 -2 -23 -1 -39 1 -16 -4 -33 -12 -37 -9 -6 -3 -9
17 -9 17 0 25 4 18 8 -6 4 -13 25 -16 47 -2 22 -5 36 -6 30z"/>
</g>
</svg>
