<?xml version="1.0" standalone="no"?>
<!DOCTYPE svg PUBLIC "-//W3C//DTD SVG 20010904//EN"
 "http://www.w3.org/TR/2001/REC-SVG-20010904/DTD/svg10.dtd">
<svg version="1.0" xmlns="http://www.w3.org/2000/svg"
 width="1170.000000pt" height="677.000000pt" viewBox="0 0 1170.000000 677.000000"
 preserveAspectRatio="xMidYMid meet">

<g transform="translate(0.000000,677.000000) scale(0.100000,-0.100000)"
fill="#000000" stroke="none">
<path d="M20 3385 l0 -3385 5815 0 5815 0 0 3385 0 3385 -5815 0 -5815 0 0
-3385z m190 3285 l0 -90 -90 0 -90 0 0 90 0 90 90 0 90 0 0 -90z m570 0 l0
-90 -280 0 -280 0 0 90 0 90 280 0 280 0 0 -90z m570 0 l0 -90 -280 0 -280 0
0 90 0 90 280 0 280 0 0 -90z m570 0 l0 -90 -280 0 -280 0 0 90 0 90 280 0
280 0 0 -90z m580 0 l0 -90 -285 0 -285 0 0 90 0 90 285 0 285 0 0 -90z m570
0 l0 -90 -280 0 -280 0 0 90 0 90 280 0 280 0 0 -90z m570 0 l0 -90 -280 0
-280 0 0 90 0 90 280 0 280 0 0 -90z m570 0 l0 -90 -280 0 -280 0 0 90 0 90
280 0 280 0 0 -90z m570 0 l0 -90 -280 0 -280 0 0 90 0 90 280 0 280 0 0 -90z
m570 0 l0 -90 -280 0 -280 0 0 90 0 90 280 0 280 0 0 -90z m580 0 l0 -90 -285
0 -285 0 0 90 0 90 285 0 285 0 0 -90z m570 0 l0 -90 -280 0 -280 0 0 90 0 90
280 0 280 0 0 -90z m570 0 l0 -90 -280 0 -280 0 0 90 0 90 280 0 280 0 0 -90z
m570 0 l0 -90 -280 0 -280 0 0 90 0 90 280 0 280 0 0 -90z m570 0 l0 -90 -280
0 -280 0 0 90 0 90 280 0 280 0 0 -90z m570 0 l0 -90 -280 0 -280 0 0 90 0 90
280 0 280 0 0 -90z m580 0 l0 -90 -285 0 -285 0 0 90 0 90 285 0 285 0 0 -90z
m570 0 l0 -90 -280 0 -280 0 0 90 0 90 280 0 280 0 0 -90z m570 0 l0 -90 -280
0 -280 0 0 90 0 90 280 0 280 0 0 -90z m570 0 l0 -90 -280 0 -280 0 0 90 0 90
280 0 280 0 0 -90z m570 0 l0 -90 -280 0 -280 0 0 90 0 90 280 0 280 0 0 -90z
m-11430 -475 l0 -375 -90 0 -90 0 0 375 0 375 90 0 90 0 0 -375z m11430 -2665
l0 -3040 -5710 0 -5710 0 0 3040 0 3040 5710 0 5710 0 0 -3040z m-11430 1905
l0 -375 -90 0 -90 0 0 375 0 375 90 0 90 0 0 -375z m0 -760 l0 -375 -90 0 -90
0 0 375 0 375 90 0 90 0 0 -375z m0 -760 l0 -375 -90 0 -90 0 0 375 0 375 90
0 90 0 0 -375z m0 -765 l0 -380 -90 0 -90 0 0 380 0 380 90 0 90 0 0 -380z m0
-765 l0 -375 -90 0 -90 0 0 375 0 375 90 0 90 0 0 -375z m0 -760 l0 -375 -90
0 -90 0 0 375 0 375 90 0 90 0 0 -375z m0 -760 l0 -375 -90 0 -90 0 0 375 0
375 90 0 90 0 0 -375z m2360 -500 l0 -115 -1270 0 -1270 0 0 115 0 115 1270 0
1270 0 0 -115z m6520 -120 l0 -235 -3255 0 -3255 0 0 235 0 235 3255 0 3255 0
0 -235z m2550 120 l0 -115 -1270 0 -1270 0 0 115 0 115 1270 0 1270 0 0 -115z
m-9070 -240 l0 -115 -1270 0 -1270 0 0 115 0 115 1270 0 1270 0 0 -115z m9070
0 l0 -115 -1270 0 -1270 0 0 115 0 115 1270 0 1270 0 0 -115z"/>
<path d="M467 6690 c-8 -31 3 -60 23 -60 22 0 34 31 25 60 -3 11 -15 20 -25
20 -9 0 -20 -9 -23 -20z m38 -20 c0 -13 -6 -25 -12 -27 -9 -3 -13 6 -13 27 0
21 4 30 13 28 6 -3 12 -15 12 -28z"/>
<path d="M1057 6679 c4 -21 1 -34 -8 -40 -11 -7 -9 -9 6 -9 18 0 20 5 17 40
-2 22 -8 40 -13 40 -5 0 -6 -14 -2 -31z"/>
<path d="M1623 6703 c21 -6 22 -26 2 -43 -23 -19 -18 -30 13 -29 26 1 26 1 3
8 -21 6 -22 8 -7 20 24 20 21 51 -6 50 -17 -1 -19 -2 -5 -6z"/>
<path d="M2203 6703 c20 -5 22 -19 5 -26 -10 -4 -10 -6 0 -6 18 -1 14 -29 -5
-34 -14 -4 -13 -5 3 -6 22 -1 40 24 25 34 -5 3 -7 14 -4 25 4 16 1 20 -18 19
-17 -1 -19 -3 -6 -6z"/>
<path d="M2765 6688 c-15 -22 -14 -23 5 -26 11 -2 20 -11 21 -20 0 -14 2 -14
8 2 9 23 2 66 -10 66 -4 0 -15 -10 -24 -22z m25 -8 c0 -5 -5 -10 -11 -10 -5 0
-7 5 -4 10 3 6 8 10 11 10 2 0 4 -4 4 -10z"/>
<path d="M3330 6690 c0 -11 7 -20 15 -20 21 0 19 -28 -2 -33 -14 -4 -13 -5 3
-6 22 -1 39 23 28 40 -3 5 -12 9 -20 9 -20 0 -18 18 4 23 13 4 11 5 -5 6 -17
1 -23 -5 -23 -19z"/>
<path d="M3901 6688 c-11 -29 5 -60 27 -56 26 5 28 38 3 45 -26 7 -27 20 -3
26 16 4 16 5 -1 6 -10 0 -21 -9 -26 -21z m37 -30 c-6 -18 -28 -21 -28 -4 0 9
7 16 16 16 9 0 14 -5 12 -12z"/>
<path d="M4483 6703 c21 -5 21 -7 2 -43 -21 -40 -10 -38 15 3 26 42 25 47 -7
46 -17 -1 -21 -3 -10 -6z"/>
<path d="M5039 6683 c-7 -40 2 -56 27 -51 14 2 19 12 19 37 0 18 -3 35 -7 38
-5 2 -8 -3 -8 -11 0 -22 -18 -20 -22 2 -3 10 -6 4 -9 -15z m33 -28 c0 -5 -5
-11 -11 -13 -6 -2 -11 4 -11 13 0 9 5 15 11 13 6 -2 11 -8 11 -13z"/>
<path d="M5618 6698 c-7 -19 2 -38 18 -38 20 0 17 -18 -3 -23 -17 -4 -17 -5 0
-6 20 -1 42 40 34 63 -8 19 -43 21 -49 4z m34 -13 c0 -5 -5 -11 -11 -13 -6 -2
-11 4 -11 13 0 9 5 15 11 13 6 -2 11 -8 11 -13z"/>
<path d="M6167 6679 c4 -21 1 -34 -8 -40 -11 -7 -9 -9 6 -9 18 0 20 5 17 40
-2 22 -8 40 -13 40 -5 0 -6 -14 -2 -31z"/>
<path d="M6217 6690 c-8 -31 3 -60 23 -60 22 0 34 31 25 60 -3 11 -15 20 -25
20 -9 0 -20 -9 -23 -20z m38 -20 c0 -13 -6 -25 -12 -27 -9 -3 -13 6 -13 27 0
21 4 30 13 28 6 -3 12 -15 12 -28z"/>
<path d="M6747 6679 c4 -21 1 -34 -8 -40 -11 -7 -9 -9 6 -9 18 0 20 5 17 40
-2 22 -8 40 -13 40 -5 0 -6 -14 -2 -31z"/>
<path d="M6807 6679 c4 -21 1 -34 -8 -40 -11 -7 -9 -9 6 -9 18 0 20 5 17 40
-2 22 -8 40 -13 40 -5 0 -6 -14 -2 -31z"/>
<path d="M7317 6679 c4 -21 1 -34 -8 -40 -11 -7 -9 -9 6 -9 18 0 20 5 17 40
-2 22 -8 40 -13 40 -5 0 -6 -14 -2 -31z"/>
<path d="M7373 6703 c21 -6 22 -26 2 -43 -23 -19 -18 -30 13 -29 26 1 26 1 3
8 -21 6 -22 8 -7 20 24 20 21 51 -6 50 -17 -1 -19 -2 -5 -6z"/>
<path d="M7887 6679 c4 -21 1 -34 -8 -40 -11 -7 -9 -9 6 -9 18 0 20 5 17 40
-2 22 -8 40 -13 40 -5 0 -6 -14 -2 -31z"/>
<path d="M7953 6703 c20 -5 22 -19 5 -26 -10 -4 -10 -6 0 -6 18 -1 14 -29 -5
-34 -14 -4 -13 -5 3 -6 22 -1 40 24 25 34 -5 3 -7 14 -4 25 4 16 1 20 -18 19
-17 -1 -19 -3 -6 -6z"/>
<path d="M8457 6679 c4 -21 1 -34 -8 -40 -11 -7 -9 -9 6 -9 18 0 20 5 17 40
-2 22 -8 40 -13 40 -5 0 -6 -14 -2 -31z"/>
<path d="M8515 6688 c-15 -22 -14 -23 5 -26 11 -2 20 -11 21 -20 0 -14 2 -14
8 2 9 23 2 66 -10 66 -4 0 -15 -10 -24 -22z m25 -8 c0 -5 -5 -10 -11 -10 -5 0
-7 5 -4 10 3 6 8 10 11 10 2 0 4 -4 4 -10z"/>
<path d="M9027 6679 c4 -21 1 -34 -8 -40 -11 -7 -9 -9 6 -9 18 0 20 5 17 40
-2 22 -8 40 -13 40 -5 0 -6 -14 -2 -31z"/>
<path d="M9080 6690 c0 -11 7 -20 15 -20 21 0 19 -28 -2 -33 -14 -4 -13 -5 3
-6 22 -1 39 23 28 40 -3 5 -12 9 -20 9 -20 0 -18 18 4 23 13 4 11 5 -5 6 -17
1 -23 -5 -23 -19z"/>
<path d="M9597 6679 c4 -21 1 -34 -8 -40 -11 -7 -9 -9 6 -9 18 0 20 5 17 40
-2 22 -8 40 -13 40 -5 0 -6 -14 -2 -31z"/>
<path d="M9651 6688 c-11 -29 5 -60 27 -56 26 5 28 38 3 45 -26 7 -27 20 -3
26 16 4 16 5 -1 6 -10 0 -21 -9 -26 -21z m37 -30 c-6 -18 -28 -21 -28 -4 0 9
7 16 16 16 9 0 14 -5 12 -12z"/>
<path d="M10177 6679 c4 -21 1 -34 -8 -40 -11 -7 -9 -9 6 -9 18 0 20 5 17 40
-2 22 -8 40 -13 40 -5 0 -6 -14 -2 -31z"/>
<path d="M10233 6703 c21 -5 21 -7 2 -43 -21 -40 -10 -38 15 3 26 42 25 47 -7
46 -17 -1 -21 -3 -10 -6z"/>
<path d="M10747 6679 c4 -21 1 -34 -8 -40 -11 -7 -9 -9 6 -9 18 0 20 5 17 40
-2 22 -8 40 -13 40 -5 0 -6 -14 -2 -31z"/>
<path d="M10799 6683 c-7 -40 2 -56 27 -51 14 2 19 12 19 37 0 18 -3 35 -7 38
-5 2 -8 -3 -8 -11 0 -22 -18 -20 -22 2 -3 10 -6 4 -9 -15z m33 -28 c0 -5 -5
-11 -11 -13 -6 -2 -11 4 -11 13 0 9 5 15 11 13 6 -2 11 -8 11 -13z"/>
<path d="M11317 6679 c4 -21 1 -34 -8 -40 -11 -7 -9 -9 6 -9 18 0 20 5 17 40
-2 22 -8 40 -13 40 -5 0 -6 -14 -2 -31z"/>
<path d="M11368 6698 c-7 -19 2 -38 18 -38 20 0 17 -18 -3 -23 -17 -4 -17 -5
0 -6 20 -1 42 40 34 63 -8 19 -43 21 -49 4z m34 -13 c0 -5 -5 -11 -11 -13 -6
-2 -11 4 -11 13 0 9 5 15 11 13 6 -2 11 -8 11 -13z"/>
<path d="M96 6216 c-3 -13 -9 -32 -12 -41 -6 -15 -4 -15 14 -4 17 10 23 10 36
0 14 -12 14 -9 3 25 -16 46 -32 54 -41 20z m24 -11 c0 -8 -4 -15 -10 -15 -5 0
-7 7 -4 15 4 8 8 15 10 15 2 0 4 -7 4 -15z"/>
<path d="M9930 6467 c0 -3 5 -18 12 -32 8 -19 8 -32 -1 -52 -11 -27 -10 -27 4
-8 11 13 14 30 10 50 -5 26 -25 60 -25 42z"/>
<path d="M9647 6453 c-10 -9 -9 -81 1 -86 4 -3 7 17 7 44 0 27 0 49 -1 49 0 0
-4 -3 -7 -7z"/>
<path d="M9703 6453 c9 -2 17 -9 17 -15 0 -5 -8 -7 -17 -4 -17 6 -17 5 0 -8 9
-7 17 -18 17 -24 0 -6 -8 -13 -17 -15 -14 -4 -13 -5 3 -6 22 -1 40 24 25 34
-5 3 -7 14 -4 25 4 16 1 20 -18 19 -17 -1 -19 -3 -6 -6z"/>
<path d="M9796 6444 c-3 -8 -2 -12 4 -9 6 3 10 -5 10 -19 0 -13 -6 -27 -12
-29 -7 -3 -4 -6 7 -6 18 -1 20 4 17 39 -4 41 -15 52 -26 24z"/>
<path d="M9860 6440 c0 -11 7 -20 15 -20 21 0 19 -28 -2 -33 -14 -4 -13 -5 3
-6 12 0 25 6 28 15 7 19 -12 47 -25 38 -5 -3 -9 -1 -9 5 0 5 8 12 18 14 13 4
11 5 -5 6 -17 1 -23 -5 -23 -19z"/>
<path d="M9768 6413 c7 -3 16 -2 19 1 4 3 -2 6 -13 5 -11 0 -14 -3 -6 -6z"/>
<path d="M2140 6376 c0 -3 5 -17 12 -31 8 -19 8 -31 0 -51 -7 -14 -8 -23 -3
-20 14 9 32 66 20 66 -5 0 -9 6 -9 14 0 8 -4 18 -10 21 -5 3 -10 4 -10 1z"/>
<path d="M1867 6363 c-10 -9 -9 -81 1 -86 4 -3 7 17 7 44 0 27 0 49 -1 49 0 0
-4 -3 -7 -7z"/>
<path d="M1923 6363 c20 -5 22 -19 5 -26 -10 -4 -10 -6 0 -6 18 -1 14 -29 -5
-34 -14 -4 -13 -5 3 -6 22 -1 40 24 25 34 -5 3 -7 14 -4 25 4 16 1 20 -18 19
-17 -1 -19 -3 -6 -6z"/>
<path d="M2027 6339 c4 -21 1 -34 -8 -40 -11 -7 -9 -9 6 -9 18 0 20 5 17 40
-2 22 -8 40 -13 40 -5 0 -6 -14 -2 -31z"/>
<path d="M2087 6352 c-22 -24 -21 -32 3 -32 12 0 20 -7 21 -17 0 -16 1 -16 8
1 8 22 3 66 -9 66 -4 0 -14 -8 -23 -18z m23 -12 c0 -5 -5 -10 -11 -10 -5 0 -7
5 -4 10 3 6 8 10 11 10 2 0 4 -4 4 -10z"/>
<path d="M6740 6343 c0 -5 0 -132 0 -284 0 -212 -2 -279 -12 -287 -17 -14
-148 -14 -165 0 -9 7 -17 7 -27 -1 -8 -7 -45 -10 -94 -9 -61 2 -83 0 -87 -10
-3 -8 -5 -432 -5 -943 l0 -929 95 0 c79 0 96 -3 105 -17 11 -17 11 -17 6 0 -5
15 4 17 89 17 81 0 94 -2 98 -17 4 -17 5 -17 6 0 1 15 12 17 90 17 77 0 90 -2
94 -17 4 -17 5 -17 6 0 1 15 12 17 90 17 77 0 90 -2 94 -17 4 -17 5 -17 6 0 1
15 13 17 96 17 l95 0 0 934 0 935 -21 6 c-11 4 -93 7 -182 7 -99 -1 -166 3
-174 10 -9 7 -17 7 -26 0 -7 -6 -46 -10 -87 -9 l-75 2 -3 287 -2 286 1470 0
1470 0 3 -426 2 -427 3 433 2 432 -1480 0 c-814 0 -1480 -3 -1480 -7z m4 -612
c-9 -10 -26 18 -18 30 5 9 9 8 14 -7 4 -10 6 -21 4 -23z m190 0 c-9 -10 -26
18 -18 30 5 9 9 8 14 -7 4 -10 6 -21 4 -23z m-366 17 c-2 -6 -10 -14 -16 -16
-7 -2 -10 2 -6 12 7 18 28 22 22 4z m258 0 c82 5 104 -11 104 -74 0 -36 -3
-43 -22 -47 -13 -2 -3 -4 22 -4 25 -1 37 1 27 4 -15 4 -17 15 -16 71 1 37 4
62 6 57 2 -6 19 -9 38 -7 l35 4 0 -131 0 -131 -270 0 -270 0 0 130 c0 115 2
130 17 130 9 0 25 -7 35 -17 17 -15 19 -15 36 0 25 23 128 23 153 1 19 -17 40
-12 35 9 -1 7 -1 10 1 7 1 -3 33 -3 69 -2z m-356 -133 l0 -135 38 0 c20 -1
147 -2 282 -3 l245 -2 -2 138 -3 138 138 -3 137 -3 3 -367 2 -368 -474 0 -475
0 1 362 c0 200 2 366 4 370 3 5 27 8 55 8 l49 0 0 -135z m840 -800 l0 -185
-474 0 -475 0 0 185 0 185 475 0 474 0 0 -185z m0 -560 l0 -365 -45 0 -44 0 2
175 2 175 -387 0 -388 0 0 -175 0 -175 -44 0 -44 0 0 365 -1 365 475 0 474 0
0 -365z m-670 -195 l0 -170 -45 0 c-36 0 -45 4 -46 18 -1 16 -2 16 -6 0 -3
-13 -15 -18 -44 -18 l-39 0 0 170 0 170 90 0 90 0 0 -170z m190 0 l0 -170 -40
0 c-31 0 -40 4 -41 18 -1 16 -2 16 -6 0 -3 -14 -15 -18 -48 -18 l-43 0 -1 170
0 170 90 0 89 0 0 -170z m190 0 l0 -170 -40 0 c-31 0 -40 4 -41 18 -1 16 -2
16 -6 0 -3 -14 -15 -18 -48 -18 l-43 0 -1 170 0 170 90 0 89 0 0 -170z m190 0
l0 -170 -40 0 c-31 0 -40 4 -41 18 -1 16 -2 16 -6 0 -3 -14 -15 -18 -48 -18
l-43 0 -1 170 0 170 90 0 89 0 0 -170z"/>
<path d="M6730 5665 c-8 -9 -8 -15 -2 -15 12 0 26 19 19 26 -2 2 -10 -2 -17
-11z"/>
<path d="M6550 5662 c0 -15 11 -21 27 -15 12 5 12 7 1 14 -17 11 -28 11 -28 1z"/>
<path d="M6518 5633 c7 -3 16 -2 19 1 4 3 -2 6 -13 5 -11 0 -14 -3 -6 -6z"/>
<path d="M6918 5603 c6 -2 18 -2 25 0 6 3 1 5 -13 5 -14 0 -19 -2 -12 -5z"/>
<path d="M6925 5580 c3 -5 8 -10 11 -10 2 0 4 5 4 10 0 6 -5 10 -11 10 -5 0
-7 -4 -4 -10z"/>
<path d="M6620 5556 c0 -2 7 -7 16 -10 8 -3 12 -2 9 4 -6 10 -25 14 -25 6z"/>
<path d="M6789 5553 c-11 -2 -15 -11 -12 -23 3 -12 -1 -20 -14 -22 -10 -3 0
-5 22 -5 22 0 32 2 23 4 -10 3 -18 11 -18 18 0 8 8 19 18 24 17 11 10 12 -19
4z"/>
<path d="M6660 5535 c-10 -13 -9 -15 11 -14 13 0 18 3 11 6 -6 2 -10 9 -6 14
9 15 -2 10 -16 -6z"/>
<path d="M6720 5536 c0 -9 -4 -14 -10 -11 -5 3 -10 2 -10 -4 0 -5 4 -12 9 -16
11 -6 26 33 17 42 -3 4 -6 -1 -6 -11z"/>
<path d="M6620 5515 c-10 -13 -9 -15 11 -14 13 0 18 3 11 6 -6 2 -10 9 -6 14
9 15 -2 10 -16 -6z"/>
<path d="M6420 4915 c-16 -19 -6 -45 17 -44 17 1 17 2 1 6 -10 2 -18 11 -18
18 0 8 8 19 18 24 9 6 12 11 6 11 -6 0 -17 -7 -24 -15z"/>
<path d="M6640 4920 c12 -7 12 -12 -4 -29 -19 -21 -19 -21 5 -20 13 0 18 3 11
6 -10 4 -10 8 -2 19 13 15 5 34 -13 34 -7 0 -6 -4 3 -10z"/>
<path d="M6670 4926 c0 -2 7 -7 16 -10 8 -3 12 -2 9 4 -6 10 -25 14 -25 6z"/>
<path d="M6711 4927 c2 -1 13 -9 24 -17 19 -14 19 -14 6 3 -7 9 -18 17 -24 17
-6 0 -8 -1 -6 -3z"/>
<path d="M6456 4911 c-3 -5 4 -12 17 -15 21 -7 21 -7 2 -16 -19 -8 -19 -9 3
-9 12 -1 22 5 22 12 0 16 -37 39 -44 28z"/>
<path d="M6530 4905 c-9 -10 -9 -15 -1 -15 6 0 11 5 11 11 0 5 5 7 12 3 7 -4
8 -3 4 4 -9 15 -11 15 -26 -3z"/>
<path d="M6595 4895 c0 -14 3 -25 8 -25 4 0 7 11 7 25 0 14 -3 25 -7 25 -5 0
-8 -11 -8 -25z"/>
<path d="M6675 4889 c-4 -6 -5 -12 -2 -15 2 -3 7 2 10 11 7 17 1 20 -8 4z"/>
<path d="M6715 4889 c-4 -6 -5 -12 -2 -15 2 -3 7 2 10 11 7 17 1 20 -8 4z"/>
<path d="M6474 4295 c2 -7 -1 -18 -7 -25 -9 -10 -9 -11 0 -6 7 4 17 15 22 25
8 13 6 18 -5 18 -8 0 -13 -6 -10 -12z"/>
<path d="M6525 4285 c0 -14 3 -25 8 -25 4 0 7 11 7 25 0 14 -3 25 -7 25 -5 0
-8 -11 -8 -25z"/>
<path d="M6515 4071 c19 -8 19 -8 0 -19 -11 -6 -15 -12 -9 -12 15 0 36 25 27
33 -3 4 -13 7 -22 6 -12 0 -11 -2 4 -8z"/>
<path d="M6559 4068 c0 -7 -2 -21 -4 -30 -2 -10 2 -18 9 -18 8 0 11 10 8 30
-4 31 -11 40 -13 18z"/>
<path d="M6705 4071 c19 -8 19 -8 0 -19 -11 -6 -15 -12 -9 -12 15 0 36 25 27
33 -3 4 -13 7 -22 6 -12 0 -11 -2 4 -8z"/>
<path d="M6761 4068 c-1 -10 -5 -18 -10 -18 -5 0 -11 -7 -15 -15 -4 -11 1 -15
17 -14 12 0 16 3 9 6 -10 4 -10 8 -1 19 6 7 9 19 6 26 -4 8 -6 7 -6 -4z"/>
<path d="M6895 4071 c19 -8 19 -8 0 -19 -11 -6 -15 -12 -9 -12 15 0 36 25 27
33 -3 4 -13 7 -22 6 -12 0 -11 -2 4 -8z"/>
<path d="M6942 4059 c-8 -12 -9 -18 -3 -14 6 3 11 2 11 -4 0 -5 -6 -12 -12
-14 -8 -3 -7 -6 4 -6 12 -1 16 7 16 29 -1 17 -2 30 -2 30 -1 0 -7 -9 -14 -21z"/>
<path d="M7095 4071 c19 -8 19 -8 0 -19 -11 -6 -15 -12 -9 -12 15 0 36 25 27
33 -3 4 -13 7 -22 6 -12 0 -11 -2 4 -8z"/>
<path d="M7134 4068 c-4 -7 -3 -8 4 -4 7 4 12 2 12 -3 0 -6 -8 -11 -17 -12
-14 0 -15 -2 -3 -6 8 -3 18 -11 22 -17 4 -6 8 4 8 22 0 32 -13 42 -26 20z"/>
<path d="M1975 6330 c-3 -5 1 -10 10 -10 9 0 13 5 10 10 -3 6 -8 10 -10 10 -2
0 -7 -4 -10 -10z"/>
<path d="M9780 5868 c0 -210 3 -379 6 -376 8 9 10 758 2 758 -5 0 -8 -172 -8
-382z"/>
<path d="M9882 5868 l3 -383 2 378 3 377 235 0 235 0 -2 -1765 c-2 -971 0
-1765 5 -1765 4 0 7 797 7 1770 l0 1770 -245 0 -245 0 2 -382z"/>
<path d="M1780 5732 l0 -432 -50 0 -50 0 0 -390 0 -390 50 0 50 0 0 -190 c0
-104 3 -190 8 -190 4 0 6 85 5 190 l-2 190 49 0 50 0 0 390 0 390 -49 0 -50 0
1 426 c0 234 -3 428 -6 431 -3 4 -6 -188 -6 -425z m1 -469 c1 -17 2 -17 6 0 3
12 15 17 42 17 l38 0 0 -370 0 -370 -38 0 c-30 0 -39 4 -40 18 -1 16 -2 16 -6
0 -3 -13 -15 -18 -44 -18 l-39 0 0 370 0 370 40 0 c31 0 40 -4 41 -17z"/>
<path d="M1748 5023 c23 -2 59 -2 80 0 20 2 1 4 -43 4 -44 0 -61 -2 -37 -4z"/>
<path d="M1748 4793 c23 -2 59 -2 80 0 20 2 1 4 -43 4 -44 0 -61 -2 -37 -4z"/>
<path d="M1759 4733 c-13 -16 -12 -17 4 -4 9 7 17 15 17 17 0 8 -8 3 -21 -13z"/>
<path d="M1800 4738 c14 -16 13 -31 -2 -22 -7 5 -8 3 -3 -6 6 -10 3 -12 -13
-8 -12 4 -20 2 -16 -3 8 -14 30 -11 44 7 11 12 10 18 -3 30 -9 8 -12 9 -7 2z"/>
<path d="M6540 6150 c0 -5 5 -10 11 -10 5 0 7 5 4 10 -3 6 -8 10 -11 10 -2 0
-4 -4 -4 -10z"/>
<path d="M710 6086 c0 -3 5 -17 12 -31 9 -19 8 -31 -1 -52 -8 -17 -8 -24 -2
-17 15 14 33 76 20 69 -5 -4 -9 1 -9 9 0 8 -4 18 -10 21 -5 3 -10 4 -10 1z"/>
<path d="M1350 6087 c0 -3 5 -18 12 -32 8 -19 8 -32 -1 -52 -11 -27 -10 -27 4
-8 11 13 14 30 10 50 -5 26 -25 60 -25 42z"/>
<path d="M497 6073 c-10 -9 -9 -81 1 -86 4 -3 7 17 7 44 0 27 0 49 -1 49 0 0
-4 -3 -7 -7z"/>
<path d="M555 6049 c5 -22 3 -34 -6 -40 -11 -7 -9 -9 6 -9 18 0 20 5 17 40 -2
22 -8 40 -14 40 -6 0 -7 -13 -3 -31z"/>
<path d="M645 6061 c-3 -11 -14 -22 -23 -24 -12 -3 -11 -5 6 -6 12 -1 22 -7
22 -16 0 -22 38 -18 45 5 9 29 -4 60 -25 60 -10 0 -21 -9 -25 -19z m40 -21 c0
-13 -6 -25 -12 -27 -9 -3 -13 6 -13 27 0 21 4 30 13 28 6 -3 12 -15 12 -28z"/>
<path d="M1077 6073 c-10 -9 -9 -81 1 -86 4 -3 7 17 7 44 0 27 0 49 -1 49 0 0
-4 -3 -7 -7z"/>
<path d="M1125 6049 c5 -22 3 -34 -6 -40 -11 -7 -9 -9 6 -9 18 0 20 5 17 40
-2 22 -8 40 -14 40 -6 0 -7 -13 -3 -31z"/>
<path d="M1237 6049 c4 -21 1 -34 -8 -40 -11 -7 -9 -9 6 -9 18 0 20 5 17 40
-2 22 -8 40 -13 40 -5 0 -6 -14 -2 -31z"/>
<path d="M1300 6072 c19 -8 20 -26 3 -43 -20 -20 -15 -29 15 -28 26 1 26 1 3
8 -21 6 -22 8 -7 20 24 20 21 51 -6 50 -17 0 -19 -2 -8 -7z"/>
<path d="M1188 6033 c7 -3 16 -2 19 1 4 3 -2 6 -13 5 -11 0 -14 -3 -6 -6z"/>
<path d="M630 5635 l0 -335 -45 0 -45 0 0 -390 0 -390 49 0 49 0 1 -522 c1
-287 3 -524 6 -526 3 -3 5 232 5 521 l0 527 50 0 50 0 0 389 0 390 -47 3 -48
3 -3 333 c-1 210 -6 332 -12 332 -6 0 -10 -121 -10 -335z m11 -372 c1 -17 2
-17 6 0 3 12 15 17 44 17 l39 0 0 -127 0 -128 -85 3 -85 3 0 125 0 124 40 0
c31 0 40 -4 41 -17z m69 -353 l0 -109 -67 -4 c-66 -3 -65 -4 10 -3 l77 1 0
-127 0 -128 -40 0 -40 0 -2 48 -2 47 -3 -47 -4 -48 -40 0 -39 0 0 73 c0 41 3
149 7 240 l6 167 69 0 68 0 0 -110z"/>
<path d="M610 4724 c0 -18 28 -37 45 -30 8 3 15 11 14 18 0 10 -2 10 -6 1 -7
-19 -30 -16 -42 5 -6 9 -11 12 -11 6z"/>
<path d="M1210 5640 l-5 -335 -47 -3 -48 -3 0 -390 0 -389 51 0 50 0 -3 -190
c-2 -105 0 -190 5 -190 4 0 7 86 7 190 l0 190 50 0 50 0 0 390 0 390 -50 0
-50 0 -2 338 -3 337 -5 -335z m1 -377 c1 -17 2 -17 6 0 3 12 15 17 44 17 l39
0 0 -370 0 -370 -40 0 -40 0 -2 48 -2 47 -3 -47 -4 -48 -40 0 -39 0 0 73 c0
41 3 149 7 240 l6 166 76 4 76 3 -82 2 -83 2 0 125 0 125 40 0 c31 0 40 -4 41
-17z"/>
<path d="M1210 4800 l-75 -6 78 -2 c46 -1 77 2 77 8 0 6 -1 9 -2 8 -2 -1 -37
-4 -78 -8z"/>
<path d="M1190 4735 c-10 -12 -10 -18 0 -30 14 -17 36 -20 44 -6 4 5 -2 7 -13
4 -24 -6 -36 13 -21 32 7 8 10 15 7 15 -2 0 -10 -7 -17 -15z"/>
<path d="M3200 5797 c0 -3 5 -18 12 -32 8 -19 8 -32 -1 -52 -11 -27 -10 -27 4
-8 11 13 14 30 10 50 -5 26 -25 60 -25 42z"/>
<path d="M3760 5796 c0 -3 5 -17 12 -31 9 -19 8 -31 -1 -52 -8 -17 -8 -24 -2
-17 15 14 33 76 20 69 -5 -4 -9 1 -9 9 0 8 -4 18 -10 21 -5 3 -10 4 -10 1z"/>
<path d="M2987 5783 c-10 -9 -9 -81 1 -86 4 -3 7 17 7 44 0 27 0 49 -1 49 0 0
-4 -3 -7 -7z"/>
<path d="M3025 5768 c-15 -22 -14 -23 5 -26 11 -2 20 -11 21 -20 0 -14 2 -14
8 2 9 23 2 66 -10 66 -4 0 -15 -10 -24 -22z m25 -8 c0 -5 -5 -10 -11 -10 -5 0
-7 5 -4 10 3 6 8 10 11 10 2 0 4 -4 4 -10z"/>
<path d="M3143 5783 c21 -6 22 -26 2 -43 -23 -19 -18 -30 13 -29 26 1 26 1 3
8 -21 6 -22 8 -7 20 24 20 21 51 -6 50 -17 -1 -19 -2 -5 -6z"/>
<path d="M3547 5783 c-10 -9 -9 -81 1 -86 4 -3 7 17 7 44 0 27 0 49 -1 49 0 0
-4 -3 -7 -7z"/>
<path d="M3595 5768 c-15 -22 -14 -23 5 -26 11 -2 20 -11 21 -20 0 -14 2 -14
8 2 9 23 2 66 -10 66 -4 0 -15 -10 -24 -22z m25 -8 c0 -5 -5 -10 -11 -10 -5 0
-7 5 -4 10 3 6 8 10 11 10 2 0 4 -4 4 -10z"/>
<path d="M3713 5783 c20 -5 22 -19 5 -26 -10 -4 -10 -6 0 -6 18 -1 14 -29 -5
-34 -14 -4 -13 -5 3 -6 22 -1 40 24 25 34 -5 3 -7 14 -4 25 4 16 1 20 -18 19
-17 -1 -19 -3 -6 -6z"/>
<path d="M2590 5747 c0 -3 5 -18 12 -32 8 -19 8 -32 -1 -52 -11 -27 -10 -27 4
-8 11 13 14 30 10 50 -5 26 -25 60 -25 42z"/>
<path d="M3098 5743 c7 -3 16 -2 19 1 4 3 -2 6 -13 5 -11 0 -14 -3 -6 -6z"/>
<path d="M3668 5743 c7 -3 16 -2 19 1 4 3 -2 6 -13 5 -11 0 -14 -3 -6 -6z"/>
<path d="M2387 5733 c-10 -9 -9 -81 1 -86 4 -3 7 17 7 44 0 27 0 49 -1 49 0 0
-4 -3 -7 -7z"/>
<path d="M2425 5718 c-15 -22 -14 -23 5 -26 11 -2 20 -11 21 -20 0 -14 2 -14
8 2 9 23 2 66 -10 66 -4 0 -15 -10 -24 -22z m25 -8 c0 -5 -5 -10 -11 -10 -5 0
-7 5 -4 10 3 6 8 10 11 10 2 0 4 -4 4 -10z"/>
<path d="M2538 5721 c-7 -10 -22 -21 -33 -24 -11 -3 -3 -5 19 -6 29 -1 37 -4
32 -16 -3 -8 -1 -15 4 -15 11 0 17 28 12 58 -5 27 -17 28 -34 3z m22 -11 c0
-5 -5 -10 -11 -10 -5 0 -7 5 -4 10 3 6 8 10 11 10 2 0 4 -4 4 -10z"/>
<path d="M2350 5492 l0 -192 -50 0 -50 0 0 -390 0 -390 50 0 50 0 0 -190 c0
-104 3 -190 8 -190 4 0 6 85 5 190 l-2 190 49 0 50 0 0 389 0 390 -47 3 -48 3
-1 183 c-1 101 -5 186 -8 189 -3 4 -6 -80 -6 -185z m1 -229 c1 -17 2 -17 6 0
3 12 15 17 44 17 l39 0 0 -125 0 -125 -82 -2 -83 -2 76 -3 76 -4 6 -166 c4
-91 7 -199 7 -240 l0 -73 -40 0 c-31 0 -40 4 -41 18 -1 16 -2 16 -6 0 -3 -13
-15 -18 -44 -18 l-39 0 0 128 0 127 82 -1 83 -1 -75 6 -75 6 -6 120 c-4 66 -7
173 -8 238 l-1 117 40 0 c31 0 40 -4 41 -17z"/>
<path d="M2368 4738 c15 -15 16 -31 0 -22 -7 5 -8 3 -3 -6 6 -10 3 -12 -13 -8
-12 4 -20 2 -16 -3 8 -13 30 -11 43 5 13 15 5 46 -12 46 -7 0 -7 -4 1 -12z"/>
<path d="M2920 5485 l0 -185 -50 0 -50 0 0 -390 0 -390 50 0 50 0 0 -190 c0
-104 3 -190 8 -190 4 0 6 85 5 190 l-3 190 55 0 55 0 0 389 0 390 -52 3 -53 3
0 183 c0 100 -3 182 -7 182 -5 0 -8 -83 -8 -185z m1 -222 c1 -17 2 -17 6 0 3
12 15 17 44 17 l39 0 0 -125 0 -125 -80 0 -80 0 0 125 0 125 35 0 c26 0 35 -4
36 -17z m82 -410 c4 -91 7 -199 7 -240 l0 -73 -40 0 c-31 0 -40 4 -41 18 -1
16 -2 16 -6 0 -3 -13 -15 -18 -39 -18 l-34 0 0 125 0 125 78 2 77 2 -72 3 -73
4 0 109 0 110 68 0 69 0 6 -167z"/>
<path d="M2938 4743 c6 -2 12 -11 12 -19 0 -9 -5 -12 -12 -8 -7 4 -8 3 -4 -4
4 -7 1 -12 -8 -12 -8 0 -17 6 -19 13 -4 9 -6 9 -6 -1 -1 -20 29 -26 46 -9 17
17 11 47 -9 46 -10 0 -10 -2 0 -6z"/>
<path d="M9680 5296 l0 -54 56 -4 c31 -1 78 -1 105 0 l49 4 0 55 c0 33 -4 52
-10 48 -5 -3 -10 -24 -10 -45 0 -44 -10 -55 -46 -46 -21 6 -24 12 -24 51 0 25
-4 45 -10 45 -5 0 -10 -20 -10 -44 0 -48 -19 -64 -60 -51 -16 5 -20 15 -20 51
0 24 -4 44 -10 44 -5 0 -10 -24 -10 -54z"/>
<path d="M3443 5303 l-53 -4 0 -390 0 -389 110 0 110 0 0 390 0 390 -44 0
c-24 0 -50 1 -58 3 -7 2 -37 2 -65 0z m58 -40 c1 -17 2 -17 6 0 3 12 15 17 39
17 l34 0 0 -125 0 -125 -80 0 -80 0 0 125 0 125 40 0 c31 0 40 -4 41 -17z m69
-353 l0 -109 -72 -4 -73 -3 78 -2 77 -2 0 -125 0 -125 -35 0 c-26 0 -35 4 -36
18 -1 16 -2 16 -6 0 -3 -13 -15 -18 -44 -18 l-39 0 0 73 c0 41 3 149 7 240 l6
167 69 0 68 0 0 -110z"/>
<path d="M3474 4735 c-4 -9 0 -23 9 -32 21 -21 49 -9 45 19 -4 28 -45 38 -54
13z m46 -16 c0 -14 -5 -19 -17 -17 -26 5 -29 38 -4 38 15 0 21 -6 21 -21z"/>
<path d="M3970 4910 l0 -390 50 0 51 0 -3 -190 c-2 -105 0 -190 5 -190 4 0 7
86 7 190 l0 190 50 0 50 0 0 390 0 390 -105 0 -105 0 0 -390z m101 353 c1 -17
2 -17 6 0 3 12 15 17 44 17 l39 0 0 -127 0 -128 -85 3 -85 3 0 125 0 124 40 0
c31 0 40 -4 41 -17z m69 -353 l0 -109 -67 -4 c-66 -3 -65 -4 10 -3 l77 1 0
-127 0 -128 -40 0 c-31 0 -40 4 -41 18 -1 16 -2 16 -6 0 -3 -13 -15 -18 -44
-18 l-39 0 0 73 c0 41 3 149 7 240 l6 167 69 0 68 0 0 -110z"/>
<path d="M4040 4724 c0 -18 28 -37 45 -30 8 3 15 11 14 18 0 10 -2 10 -6 1 -7
-19 -30 -16 -42 5 -6 9 -11 12 -11 6z"/>
<path d="M3490 4150 c0 -5 5 -10 10 -10 6 0 10 5 10 10 0 6 -4 10 -10 10 -5 0
-10 -4 -10 -10z"/>
<path d="M6500 3517 c0 -3 5 -18 12 -32 8 -19 8 -32 -1 -52 -11 -27 -10 -27 4
-8 11 13 14 30 10 50 -5 26 -25 60 -25 42z"/>
<path d="M7070 3517 c0 -3 5 -18 12 -32 8 -19 8 -32 -1 -52 -11 -27 -10 -27 4
-8 11 13 14 30 10 50 -5 26 -25 60 -25 42z"/>
<path d="M6217 3503 c-10 -9 -9 -81 1 -86 4 -3 7 17 7 44 0 27 0 49 -1 49 0 0
-4 -3 -7 -7z"/>
<path d="M6277 3479 c4 -21 1 -34 -8 -40 -11 -7 -9 -9 6 -9 18 0 20 5 17 40
-2 22 -8 40 -13 40 -5 0 -6 -14 -2 -31z"/>
<path d="M6377 3479 c4 -21 1 -34 -8 -40 -11 -7 -9 -9 6 -9 18 0 20 5 17 40
-2 22 -8 40 -13 40 -5 0 -6 -14 -2 -31z"/>
<path d="M6443 3503 c20 -5 22 -19 5 -26 -10 -4 -10 -6 0 -6 18 -1 14 -29 -5
-34 -14 -4 -13 -5 3 -6 22 -1 40 24 25 34 -5 3 -7 14 -4 25 4 16 1 20 -18 19
-17 -1 -19 -3 -6 -6z"/>
<path d="M6787 3503 c-10 -9 -9 -81 1 -86 4 -3 7 17 7 44 0 27 0 49 -1 49 0 0
-4 -3 -7 -7z"/>
<path d="M6843 3503 c20 -5 22 -19 5 -26 -10 -4 -10 -6 0 -6 18 -1 14 -29 -5
-34 -14 -4 -13 -5 3 -6 22 -1 40 24 25 34 -5 3 -7 14 -4 25 4 16 1 20 -18 19
-17 -1 -19 -3 -6 -6z"/>
<path d="M6957 3479 c4 -21 1 -34 -8 -40 -11 -7 -9 -9 6 -9 18 0 20 5 17 40
-2 22 -8 40 -13 40 -5 0 -6 -14 -2 -31z"/>
<path d="M7017 3479 c4 -21 1 -34 -8 -40 -11 -7 -9 -9 6 -9 16 0 20 6 19 28
-1 15 -3 33 -3 40 -1 6 -5 12 -11 12 -5 0 -7 -13 -3 -31z"/>
<path d="M6345 3470 c-16 -7 -17 -9 -3 -9 9 -1 20 4 23 9 7 11 7 11 -20 0z"/>
<path d="M6915 3470 c-16 -7 -17 -9 -3 -9 9 -1 20 4 23 9 7 11 7 11 -20 0z"/>
<path d="M810 3318 c0 -4 5 -19 12 -33 8 -19 8 -32 -1 -52 -10 -26 -10 -27 4
-9 19 25 19 57 0 82 -8 10 -15 16 -15 12z"/>
<path d="M6760 3317 c0 -3 5 -18 12 -32 8 -19 8 -32 -1 -52 -11 -27 -10 -27 4
-8 11 13 14 30 10 50 -5 26 -25 60 -25 42z"/>
<path d="M597 3303 c-10 -9 -9 -81 1 -86 4 -3 7 17 7 44 0 27 0 49 -1 49 0 0
-4 -3 -7 -7z"/>
<path d="M653 3303 c9 -2 17 -9 17 -15 0 -5 -8 -7 -17 -4 -17 6 -17 5 0 -8 9
-7 17 -18 17 -24 0 -6 -8 -13 -17 -15 -14 -4 -13 -5 3 -6 22 -1 40 24 25 34
-5 3 -7 14 -4 25 4 16 1 20 -18 19 -17 -1 -19 -3 -6 -6z"/>
<path d="M753 3303 c21 -6 22 -26 2 -43 -23 -19 -18 -30 13 -29 26 1 26 1 3 8
-21 6 -22 8 -7 20 24 20 21 51 -6 50 -17 -1 -19 -2 -5 -6z"/>
<path d="M6597 3303 c-10 -9 -9 -81 1 -86 4 -3 7 17 7 44 0 27 0 49 -1 49 0 0
-4 -3 -7 -7z"/>
<path d="M6715 3284 c-9 -9 -14 -23 -11 -31 3 -8 6 -17 6 -19 0 -2 10 -4 23
-3 l22 0 -22 9 c-29 12 -29 28 -1 39 13 5 17 10 11 14 -6 4 -19 0 -28 -9z"/>
<path d="M6640 3248 c0 -24 4 -38 8 -32 4 6 15 13 25 17 26 10 18 51 -10 55
-21 3 -23 -1 -23 -40z m38 15 c-5 -25 -28 -28 -28 -4 0 12 6 21 16 21 9 0 14
-7 12 -17z"/>
<path d="M708 3263 c7 -3 16 -2 19 1 4 3 -2 6 -13 5 -11 0 -14 -3 -6 -6z"/>
<path d="M7190 3226 c0 -3 5 -17 12 -31 9 -19 8 -31 -1 -52 -8 -17 -8 -24 -2
-17 15 14 33 76 20 69 -5 -4 -9 1 -9 9 0 8 -4 18 -10 21 -5 3 -10 4 -10 1z"/>
<path d="M6977 3213 c-10 -9 -9 -81 1 -86 4 -3 7 17 7 44 0 27 0 49 -1 49 0 0
-4 -3 -7 -7z"/>
<path d="M7035 3189 c5 -22 3 -34 -6 -40 -11 -7 -9 -9 6 -9 18 0 20 5 17 40
-2 22 -8 40 -14 40 -6 0 -7 -13 -3 -31z"/>
<path d="M7130 3210 c-1 -8 -2 -20 -1 -27 1 -7 -8 -9 -21 -7 l-23 5 23 -10
c12 -6 22 -15 22 -21 0 -6 10 -10 23 -8 18 2 22 9 22 36 0 19 -3 36 -7 39 -5
2 -8 -3 -8 -11 0 -22 -17 -20 -23 2 -4 13 -5 13 -7 2z m32 -45 c0 -5 -5 -11
-11 -13 -6 -2 -11 4 -11 13 0 9 5 15 11 13 6 -2 11 -8 11 -13z"/>
<path d="M8267 2708 c2 -5 227 -8 500 -8 273 0 494 3 490 6 -8 9 -996 10 -990
2z"/>
<path d="M9558 2713 c138 -2 366 -2 505 0 138 1 25 2 -253 2 -278 0 -391 -1
-252 -2z"/>
<path d="M7468 2693 c139 -2 364 -2 500 0 136 1 22 2 -253 2 -275 0 -386 -1
-247 -2z"/>
<path d="M6418 2683 c139 -2 364 -2 500 0 136 1 22 2 -253 2 -275 0 -386 -1
-247 -2z"/>
<path d="M5368 2673 c139 -2 364 -2 500 0 136 1 22 2 -253 2 -275 0 -386 -1
-247 -2z"/>
<path d="M4318 2663 c139 -2 364 -2 500 0 136 1 22 2 -253 2 -275 0 -386 -1
-247 -2z"/>
<path d="M3268 2653 c139 -2 364 -2 500 0 136 1 22 2 -253 2 -275 0 -386 -1
-247 -2z"/>
<path d="M2218 2643 c139 -2 364 -2 500 0 136 1 22 2 -253 2 -275 0 -386 -1
-247 -2z"/>
<path d="M1158 2633 c138 -2 366 -2 505 0 138 1 25 2 -253 2 -278 0 -391 -1
-252 -2z"/>
<path d="M350 1863 l0 -768 123 -39 c67 -21 133 -43 147 -48 14 -6 148 -10
307 -9 l282 0 4 -147 3 -147 2 147 2 147 280 0 280 -1 0 -144 c0 -79 3 -144 8
-144 4 0 7 64 7 142 l0 143 570 0 570 0 -3 143 -2 142 50 0 50 0 0 390 0 390
-105 0 -105 0 0 -390 0 -390 50 0 50 0 0 -135 0 -135 -279 0 -280 0 0 135 0
135 50 0 49 0 0 390 0 390 -50 0 -50 0 2 90 c1 50 -2 93 -5 97 -12 11 -8 68 6
83 10 12 9 12 -5 1 -15 -11 -17 -27 -11 -142 l6 -129 -51 0 -52 0 0 -390 0
-390 50 0 50 0 0 -135 0 -135 -279 0 -280 0 0 135 0 135 50 0 49 0 0 390 0
390 -105 0 -105 0 0 -390 0 -390 50 0 50 0 0 -135 0 -135 -280 0 -280 0 0 135
0 135 50 0 50 0 0 390 0 390 -105 0 -105 0 0 -390 0 -390 50 0 50 0 0 -135 0
-135 -280 0 -280 0 0 135 0 135 50 0 50 0 0 390 0 390 -105 0 -105 0 0 -390 0
-390 50 0 50 0 0 -130 c0 -95 -3 -130 -12 -130 -7 0 -69 19 -139 42 l-127 42
1 755 2 756 243 1 c134 1 246 5 249 8 4 3 -109 6 -250 6 l-257 0 0 -767z m291
160 c1 -17 2 -17 6 0 3 12 15 17 44 17 l39 0 0 -370 0 -370 -40 0 c-31 0 -40
4 -41 18 -1 16 -2 16 -6 0 -3 -13 -15 -18 -44 -18 l-39 0 0 370 0 370 40 0
c31 0 40 -4 41 -17z m570 0 c1 -17 2 -17 6 0 3 12 15 17 44 17 l39 0 0 -370 0
-370 -40 0 c-31 0 -40 4 -41 18 -1 16 -2 16 -6 0 -3 -13 -15 -18 -44 -18 l-39
0 0 370 0 370 40 0 c31 0 40 -4 41 -17z m570 0 c1 -17 2 -17 6 0 3 12 15 17
44 17 l39 0 0 -370 0 -370 -40 0 c-31 0 -40 4 -41 18 -1 16 -2 16 -6 0 -3 -13
-15 -18 -44 -18 l-39 0 0 370 0 370 40 0 c31 0 40 -4 41 -17z m570 0 c1 -17 2
-17 6 0 3 12 15 17 44 17 l39 0 0 -370 0 -370 -40 0 c-31 0 -40 4 -41 18 -1
16 -2 16 -6 0 -3 -13 -15 -18 -44 -18 l-39 0 0 370 0 370 40 0 c31 0 40 -4 41
-17z m570 0 c1 -17 2 -17 6 0 3 12 15 17 44 17 l39 0 0 -370 0 -370 -40 0
c-31 0 -40 4 -41 18 -1 16 -2 16 -6 0 -3 -13 -15 -18 -44 -18 l-39 0 0 370 0
370 40 0 c31 0 40 -4 41 -17z"/>
<path d="M640 2329 c0 -5 7 -9 15 -9 18 0 20 -16 3 -23 -10 -4 -10 -6 0 -6 18
-1 14 -29 -5 -34 -14 -4 -13 -5 3 -6 22 -1 40 24 25 34 -5 3 -7 13 -4 24 3 12
-2 20 -16 24 -12 3 -21 1 -21 -4z"/>
<path d="M746 2329 c3 -5 12 -9 20 -9 18 0 18 -24 -1 -40 -23 -19 -18 -30 13
-29 26 1 26 1 3 8 -21 6 -22 8 -7 20 24 20 20 48 -9 53 -13 3 -22 1 -19 -3z"/>
<path d="M810 2334 c0 -2 5 -15 12 -29 8 -18 8 -32 1 -48 -8 -18 -8 -24 1 -24
8 0 12 18 12 52 -1 34 -5 52 -13 52 -7 0 -13 -2 -13 -3z"/>
<path d="M2563 2319 c21 -29 21 -53 1 -73 -8 -9 -11 -16 -4 -16 6 0 15 11 21
24 13 28 1 77 -21 84 -9 3 -8 -2 3 -19z"/>
<path d="M597 2323 c-10 -9 -9 -81 1 -86 4 -3 7 17 7 44 0 27 0 49 -1 49 0 0
-4 -3 -7 -7z"/>
<path d="M2395 2308 c-15 -22 -14 -23 5 -26 11 -2 20 -11 21 -20 0 -14 2 -14
8 2 9 23 2 66 -10 66 -4 0 -15 -10 -24 -22z m25 -8 c0 -5 -5 -10 -11 -10 -5 0
-7 5 -4 10 3 6 8 10 11 10 2 0 4 -4 4 -10z"/>
<path d="M2508 2311 c-7 -10 -22 -21 -33 -24 -12 -3 -4 -5 18 -6 28 -1 37 -5
38 -18 0 -16 1 -16 8 1 9 23 2 66 -10 66 -4 0 -14 -8 -21 -19z m22 -11 c0 -5
-5 -10 -11 -10 -5 0 -7 5 -4 10 3 6 8 10 11 10 2 0 4 -4 4 -10z"/>
<path d="M718 2283 c7 -3 16 -2 19 1 4 3 -2 6 -13 5 -11 0 -14 -3 -6 -6z"/>
<path d="M3090 2285 c0 -2 5 -16 12 -30 8 -19 8 -31 0 -50 -15 -33 -6 -32 11
1 12 23 12 31 0 55 -13 26 -23 37 -23 24z"/>
<path d="M1290 2277 c0 -3 5 -18 12 -32 8 -19 8 -32 -1 -52 -11 -27 -10 -27 4
-8 11 13 14 30 10 50 -5 26 -25 60 -25 42z"/>
<path d="M1760 2276 c0 -3 5 -17 12 -31 8 -19 8 -31 0 -51 -7 -14 -8 -23 -3
-20 14 9 32 66 20 66 -5 0 -9 6 -9 14 0 8 -4 18 -10 21 -5 3 -10 4 -10 1z"/>
<path d="M2877 2273 c-10 -9 -9 -81 1 -86 4 -3 7 17 7 44 0 27 0 49 -1 49 0 0
-4 -3 -7 -7z"/>
<path d="M2925 2258 c-15 -22 -14 -23 5 -26 11 -2 20 -11 21 -20 0 -14 2 -14
8 2 9 23 2 66 -10 66 -4 0 -15 -10 -24 -22z m25 -8 c0 -5 -5 -10 -11 -10 -5 0
-7 5 -4 10 3 6 8 10 11 10 2 0 4 -4 4 -10z"/>
<path d="M3037 2249 c4 -21 1 -34 -8 -40 -11 -7 -9 -9 6 -9 18 0 20 5 17 40
-2 22 -8 40 -13 40 -5 0 -6 -14 -2 -31z"/>
<path d="M1077 2263 c-10 -9 -9 -81 1 -86 4 -3 7 17 7 44 0 27 0 49 -1 49 0 0
-4 -3 -7 -7z"/>
<path d="M1125 2238 c4 -20 1 -34 -7 -39 -9 -6 -7 -9 7 -9 18 0 20 5 17 40 -2
22 -8 40 -13 40 -5 0 -7 -14 -4 -32z"/>
<path d="M1233 2263 c20 -5 22 -19 5 -26 -10 -4 -10 -6 0 -6 18 -1 14 -29 -5
-34 -14 -4 -13 -5 3 -6 22 -1 40 24 25 34 -5 3 -7 14 -4 25 4 16 1 20 -18 19
-17 -1 -19 -3 -6 -6z"/>
<path d="M1547 2263 c-10 -9 -9 -81 1 -86 4 -3 7 17 7 44 0 27 0 49 -1 49 0 0
-4 -3 -7 -7z"/>
<path d="M1595 2248 c-15 -22 -14 -23 5 -26 11 -2 20 -11 21 -20 0 -14 2 -14
8 2 9 23 2 66 -10 66 -4 0 -15 -10 -24 -22z m25 -8 c0 -5 -5 -10 -11 -10 -5 0
-7 5 -4 10 3 6 8 10 11 10 2 0 4 -4 4 -10z"/>
<path d="M1700 2255 c0 -9 -10 -20 -22 -25 l-23 -9 23 0 c13 -1 22 -7 22 -16
0 -22 38 -18 45 5 3 11 3 29 0 40 -7 23 -45 27 -45 5z m35 -25 c0 -13 -6 -25
-12 -27 -9 -3 -13 6 -13 27 0 21 4 30 13 28 6 -3 12 -15 12 -28z"/>
<path d="M1195 2230 c-16 -7 -17 -9 -3 -9 9 -1 20 4 23 9 7 11 7 11 -20 0z"/>
<path d="M2988 2233 c7 -3 16 -2 19 1 4 3 -2 6 -13 5 -11 0 -14 -3 -6 -6z"/>
<path d="M1160 847 c0 -3 5 -18 12 -32 8 -19 8 -32 -1 -52 -11 -27 -10 -27 4
-8 11 13 14 30 10 50 -5 26 -25 60 -25 42z"/>
<path d="M887 833 c-10 -9 -9 -81 1 -86 4 -3 7 17 7 44 0 27 0 49 -1 49 0 0
-4 -3 -7 -7z"/>
<path d="M935 808 c4 -20 1 -34 -7 -39 -9 -6 -7 -9 7 -9 18 0 20 5 17 40 -2
22 -8 40 -13 40 -5 0 -7 -14 -4 -32z"/>
<path d="M1047 809 c4 -21 1 -34 -8 -40 -11 -7 -9 -9 6 -9 18 0 20 5 17 40 -2
22 -8 40 -13 40 -5 0 -6 -14 -2 -31z"/>
<path d="M1103 833 c20 -5 22 -19 5 -26 -10 -4 -10 -6 0 -6 18 -1 14 -29 -5
-34 -14 -4 -13 -5 4 -6 25 -1 31 11 25 51 -3 21 -9 28 -26 27 -17 -1 -17 -2
-3 -6z"/>
<path d="M3150 817 c0 -3 5 -18 12 -32 8 -19 8 -32 -1 -52 -11 -27 -10 -27 4
-8 11 13 14 30 10 50 -5 26 -25 60 -25 42z"/>
<path d="M1005 800 c-16 -7 -17 -9 -3 -9 9 -1 20 4 23 9 7 11 7 11 -20 0z"/>
<path d="M2930 760 c0 -27 3 -50 8 -50 4 0 7 22 7 50 0 27 -3 50 -7 50 -5 0
-8 -22 -8 -50z"/>
<path d="M2997 779 c4 -21 1 -34 -8 -40 -11 -7 -9 -9 6 -9 18 0 20 5 17 40 -2
22 -8 40 -13 40 -5 0 -6 -14 -2 -31z"/>
<path d="M3097 779 c4 -21 1 -34 -8 -40 -11 -7 -9 -9 6 -9 18 0 20 5 17 40 -2
22 -8 40 -13 40 -5 0 -6 -14 -2 -31z"/>
<path d="M3048 763 c7 -3 16 -2 19 1 4 3 -2 6 -13 5 -11 0 -14 -3 -6 -6z"/>
<path d="M2050 637 c0 -3 5 -18 12 -32 8 -19 8 -32 -1 -52 -10 -26 -10 -27 4
-9 18 23 16 72 -2 88 -7 6 -13 8 -13 5z"/>
<path d="M1837 623 c-10 -9 -9 -81 1 -86 4 -3 7 17 7 44 0 27 0 49 -1 49 0 0
-4 -3 -7 -7z"/>
<path d="M1880 620 c0 -5 7 -7 15 -4 8 4 15 2 15 -4 0 -6 -6 -13 -12 -15 -10
-4 -10 -6 0 -6 18 -1 14 -29 -5 -34 -14 -4 -13 -5 3 -6 22 -1 40 24 25 34 -5
3 -7 14 -4 25 4 15 0 20 -16 20 -11 0 -21 -4 -21 -10z"/>
<path d="M1980 620 c0 -5 7 -7 15 -4 19 8 19 0 0 -36 -21 -40 -10 -38 15 3 26
42 25 47 -5 47 -14 0 -25 -4 -25 -10z"/>
<path d="M1948 583 c7 -3 16 -2 19 1 4 3 -2 6 -13 5 -11 0 -14 -3 -6 -6z"/>
<path d="M90 5429 c0 -36 2 -40 23 -37 18 2 22 10 24 41 2 33 0 37 -22 37 -22
0 -25 -4 -25 -41z m40 21 c0 -5 -7 -10 -15 -10 -8 0 -15 5 -15 10 0 6 7 10 15
10 8 0 15 -4 15 -10z m0 -35 c0 -8 -7 -15 -15 -15 -8 0 -15 7 -15 15 0 8 7 15
15 15 8 0 15 -7 15 -15z"/>
<path d="M90 4690 c-15 -27 4 -60 33 -59 l22 0 -22 9 c-35 14 -31 57 5 63 l27
4 -27 2 c-18 0 -31 -6 -38 -19z"/>
<path d="M80 3911 c0 -32 4 -41 18 -41 30 0 44 16 40 46 -2 23 -9 30 -30 32
-27 3 -28 1 -28 -37z m45 -1 c0 -16 -6 -26 -17 -28 -14 -3 -18 3 -18 28 0 25
4 31 18 28 11 -2 17 -12 17 -28z"/>
<path d="M90 3150 c0 -37 2 -40 28 -39 23 2 24 2 5 6 -13 2 -23 11 -23 18 0 7
10 16 23 18 l22 4 -22 2 c-13 0 -23 5 -23 10 0 5 10 12 23 14 19 4 18 4 -5 6
-26 1 -28 -2 -28 -39z"/>
<path d="M91 2378 c1 -24 4 -33 6 -21 2 13 13 24 26 26 l22 4 -22 2 c-13 0
-23 5 -23 10 0 5 10 12 23 14 19 4 18 4 -5 6 -27 1 -28 -1 -27 -41z"/>
<path d="M80 1640 c-15 -28 4 -60 35 -60 18 0 25 5 25 20 0 12 -7 20 -17 20
-15 0 -16 -2 -3 -10 18 -11 7 -25 -15 -17 -8 4 -15 17 -15 31 0 19 6 26 28 29
l27 4 -27 2 c-18 0 -31 -6 -38 -19z"/>
<path d="M83 860 c0 -25 2 -35 4 -22 3 13 12 22 23 22 11 0 20 -9 23 -22 2
-13 4 -3 4 22 1 25 -1 37 -4 28 -2 -10 -13 -18 -23 -18 -10 0 -21 8 -23 18 -3
9 -5 -3 -4 -28z"/>
<path d="M76 376 c-3 -13 -9 -32 -12 -41 -6 -15 -4 -15 14 -4 17 11 24 11 34
1 6 -6 25 -12 40 -12 25 0 28 3 27 33 -1 29 -2 29 -8 8 -10 -36 -31 -38 -32
-4 -1 28 -1 28 -8 3 -7 -25 -7 -25 -19 8 -13 38 -27 41 -36 8z m24 -11 c0 -8
-4 -15 -10 -15 -5 0 -7 7 -4 15 4 8 8 15 10 15 2 0 4 -7 4 -15z"/>
<path d="M198 388 c-9 -25 5 -68 21 -67 10 0 11 2 4 6 -15 5 -17 40 -4 45 5 2
3 8 -4 15 -10 9 -15 9 -17 1z"/>
<path d="M236 365 c-9 -24 4 -45 28 -44 21 0 21 0 -1 9 -30 12 -29 20 2 20 16
0 25 -6 25 -15 0 -9 9 -15 25 -15 22 0 25 4 24 33 -1 29 -2 29 -8 8 -10 -36
-31 -39 -31 -5 0 22 -3 25 -12 16 -7 -7 -19 -12 -27 -11 -11 0 -10 3 4 9 19 8
19 9 -1 9 -12 1 -24 -6 -28 -14z"/>
<path d="M361 348 c2 -28 2 -29 6 -8 3 14 10 28 17 32 7 5 5 8 -6 8 -14 0 -18
-8 -17 -32z"/>
<path d="M5431 247 c-1 -45 1 -48 22 -45 30 4 37 47 8 55 -11 3 -22 12 -24 22
-3 9 -5 -6 -6 -32z m37 -14 c-5 -25 -28 -28 -28 -4 0 12 6 21 16 21 9 0 14 -7
12 -17z"/>
<path d="M6223 245 c0 -27 2 -38 4 -22 2 15 10 27 18 27 8 0 16 -12 18 -27 l4
-28 2 28 c1 21 -4 30 -18 34 -11 3 -22 12 -24 22 -3 9 -5 -6 -4 -34z"/>
<path d="M5888 268 c-9 -25 5 -68 21 -67 10 0 11 2 4 6 -15 5 -17 40 -4 45 5
2 3 8 -4 15 -10 9 -15 9 -17 1z"/>
<path d="M6129 271 c-3 -8 -3 -27 -1 -43 4 -25 8 -28 41 -27 31 0 33 1 14 9
-13 5 -23 14 -23 20 0 6 10 15 23 20 20 8 19 9 -10 9 -17 1 -33 7 -35 14 -4 9
-6 8 -9 -2z m27 -41 c0 -11 -4 -20 -8 -20 -4 0 -8 9 -8 20 0 11 4 20 8 20 4 0
8 -9 8 -20z"/>
<path d="M5497 246 c-10 -26 4 -47 27 -44 15 2 21 10 21 28 0 29 -38 41 -48
16z m43 -10 c0 -8 -5 -18 -11 -22 -14 -8 -33 11 -25 25 10 16 36 13 36 -3z"/>
<path d="M5561 228 c2 -28 2 -29 6 -8 3 14 10 28 17 32 7 5 5 8 -6 8 -14 0
-18 -8 -17 -32z"/>
<path d="M5601 228 c2 -30 2 -31 6 -5 5 34 30 36 36 2 4 -23 4 -23 3 2 -1 21
-7 29 -23 31 -20 3 -23 -1 -22 -30z"/>
<path d="M5672 230 c0 -19 2 -27 5 -17 2 9 2 25 0 35 -3 9 -5 1 -5 -18z"/>
<path d="M5696 245 c-10 -26 5 -45 35 -45 24 0 29 4 29 24 0 13 6 27 13 29 7
3 6 6 -5 6 -9 1 -20 -3 -23 -9 -3 -5 -14 -10 -23 -9 -14 0 -13 2 3 9 19 8 19
9 -1 9 -12 1 -24 -6 -28 -14z m54 -25 c0 -5 -9 -10 -19 -10 -11 0 -23 5 -26
10 -4 6 5 10 19 10 14 0 26 -4 26 -10z"/>
<path d="M5827 246 c-10 -25 3 -46 27 -45 20 0 19 1 -4 12 l-25 11 28 4 c16 2
27 9 24 15 -6 18 -44 20 -50 3z m40 -2 c-3 -3 -12 -4 -19 -1 -8 3 -5 6 6 6 11
1 17 -2 13 -5z"/>
<path d="M5955 251 c-3 -6 5 -15 17 -22 22 -12 22 -12 3 -20 -16 -6 -17 -8 -3
-8 26 -1 32 19 12 34 -18 14 -18 14 4 15 15 0 22 -6 22 -19 0 -29 17 -35 26
-9 l7 23 9 -25 10 -25 9 24 c5 13 8 29 5 35 -2 6 -5 2 -6 -9 -1 -20 -1 -20
-15 -1 -14 19 -15 18 -23 -4 l-9 -24 -5 22 c-4 15 -14 22 -31 22 -14 0 -28 -4
-32 -9z"/>
<path d="M6102 230 c0 -19 2 -27 5 -17 2 9 2 25 0 35 -3 9 -5 1 -5 -18z"/>
<path d="M9283 365 c0 -27 2 -38 4 -22 2 15 10 27 18 27 8 0 16 -12 18 -27 l4
-28 2 28 c1 21 -4 30 -18 34 -11 3 -22 12 -24 22 -3 9 -5 -6 -4 -34z"/>
<path d="M9141 358 c1 -24 4 -33 6 -20 3 13 12 22 23 22 11 0 20 -9 23 -22 3
-18 5 -15 6 8 1 28 -1 31 -24 26 -14 -2 -25 0 -25 6 0 6 12 13 28 15 25 4 25
4 -5 6 -33 1 -33 0 -32 -41z"/>
<path d="M9216 365 c-9 -24 4 -45 28 -44 21 0 21 0 -1 9 -13 5 -23 14 -23 20
0 6 10 15 23 20 22 9 22 9 1 9 -12 1 -24 -6 -28 -14z"/>
<path d="M9352 350 c0 -19 2 -27 5 -17 2 9 2 25 0 35 -3 9 -5 1 -5 -18z"/>
<path d="M9376 365 c-10 -26 5 -45 35 -45 24 0 29 4 29 24 0 13 6 27 13 29 7
3 6 6 -5 6 -9 1 -20 -3 -23 -9 -3 -5 -14 -10 -23 -9 -14 0 -13 2 3 9 19 8 19
9 -1 9 -12 1 -24 -6 -28 -14z m54 -25 c0 -5 -9 -10 -19 -10 -11 0 -23 5 -26
10 -4 6 5 10 19 10 14 0 26 -4 26 -10z"/>
<path d="M70 122 l0 -39 55 0 c54 0 55 0 55 28 0 24 -4 29 -22 28 -21 0 -22
-1 -4 -8 19 -7 19 -8 -1 -13 -17 -5 -23 -1 -25 16 -2 15 -11 22 -30 24 -26 3
-28 1 -28 -36z m45 -2 c0 -16 -6 -26 -17 -28 -14 -3 -18 3 -18 28 0 25 4 31
18 28 11 -2 17 -12 17 -28z m55 -20 c0 -5 -4 -10 -10 -10 -5 0 -10 5 -10 10 0
6 5 10 10 10 6 0 10 -4 10 -10z"/>
<path d="M198 148 c-9 -25 5 -68 21 -67 10 0 11 2 4 6 -15 5 -17 40 -4 45 5 2
3 8 -4 15 -10 9 -15 9 -17 1z"/>
<path d="M237 126 c-10 -25 3 -46 27 -45 20 0 19 1 -4 12 l-25 11 28 4 c16 2
27 9 24 15 -6 18 -44 20 -50 3z m40 -2 c-3 -3 -12 -4 -19 -1 -8 3 -5 6 6 6 11
1 17 -2 13 -5z"/>
<path d="M9263 125 c0 -27 2 -38 4 -22 2 15 2 37 0 50 -2 12 -4 0 -4 -28z"/>
<path d="M9586 155 c-3 -9 -6 -22 -5 -28 0 -7 5 -1 10 12 5 13 8 26 5 28 -2 2
-6 -3 -10 -12z"/>
<path d="M9141 118 c1 -24 4 -33 6 -20 5 28 29 29 38 1 10 -30 50 -22 50 11 0
23 -3 25 -42 22 -45 -2 -60 13 -20 21 19 4 18 4 -5 6 -27 1 -28 -1 -27 -41z
m89 -2 c0 -8 -5 -18 -11 -22 -14 -8 -33 11 -25 25 10 16 36 13 36 -3z"/>
<path d="M9513 153 c21 -6 22 -26 2 -43 -23 -19 -18 -30 13 -29 26 1 26 1 3 8
-21 6 -22 8 -7 20 24 20 21 51 -6 50 -17 -1 -19 -2 -5 -6z"/>
<path d="M9615 138 c-15 -22 -14 -23 5 -26 11 -2 20 -11 21 -20 0 -14 2 -14 8
2 9 23 2 66 -10 66 -4 0 -15 -10 -24 -22z m25 -8 c0 -5 -5 -10 -11 -10 -5 0
-7 5 -4 10 3 6 8 10 11 10 2 0 4 -4 4 -10z"/>
<path d="M9292 110 c0 -19 2 -27 5 -17 2 9 2 25 0 35 -3 9 -5 1 -5 -18z"/>
<path d="M9317 126 c-10 -26 4 -47 27 -44 15 2 21 10 21 28 0 29 -38 41 -48
16z m43 -10 c0 -8 -5 -18 -11 -22 -14 -8 -33 11 -25 25 10 16 36 13 36 -3z"/>
<path d="M9571 103 c-1 -6 -4 -20 -7 -30 -5 -17 -5 -17 6 0 6 10 9 23 6 30 -3
9 -5 9 -5 0z"/>
</g>
</svg>
