<?xml version="1.0" standalone="no"?>
<!DOCTYPE svg PUBLIC "-//W3C//DTD SVG 20010904//EN"
 "http://www.w3.org/TR/2001/REC-SVG-20010904/DTD/svg10.dtd">
<svg version="1.0" xmlns="http://www.w3.org/2000/svg"
 width="1155.000000pt" height="792.000000pt" viewBox="0 0 1155.000000 792.000000"
 preserveAspectRatio="xMidYMid meet">

<g transform="translate(0.000000,792.000000) scale(0.100000,-0.100000)"
fill="#000000" stroke="none">
<path d="M98 7903 l102 -4 0 -104 0 -104 -103 -4 -102 -3 103 -2 102 -2 0
-440 0 -439 -103 -4 -102 -3 103 -2 102 -2 0 -440 0 -439 -102 -4 -103 -3 103
-2 102 -2 0 -435 0 -434 -102 -4 -103 -3 103 -2 102 -2 0 -440 0 -439 -102 -4
-103 -3 103 -2 102 -2 0 -435 0 -434 -103 -4 -102 -3 103 -2 102 -2 0 -440 0
-439 -103 -4 -102 -3 103 -2 102 -2 0 -435 0 -434 -103 -4 -102 -3 103 -2 102
-2 0 -440 0 -439 -103 -4 c-56 -1 464 -4 1156 -5 l1257 -2 0 -135 0 -135
-1257 -3 -1258 -2 1258 -3 1257 -2 0 -130 0 -130 -1257 -3 c-692 -1 1331 -3
4495 -5 l5752 -2 0 2040 0 2040 25 0 25 0 0 1780 0 1780 -25 0 -25 0 0 115 0
115 -5752 -2 c-3164 -1 -5707 -4 -5650 -5z m762 -108 l0 -105 -325 0 -325 0 0
105 0 105 325 0 325 0 0 -105z m660 0 l0 -105 -325 0 -325 0 0 105 0 105 325
0 325 0 0 -105z m670 0 l0 -105 -325 0 -325 0 0 105 0 105 325 0 325 0 0 -105z
m660 0 l0 -105 -325 0 -325 0 0 105 0 105 325 0 325 0 0 -105z m670 0 l0 -105
-330 0 -330 0 0 105 0 105 330 0 330 0 0 -105z m660 0 l0 -105 -325 0 -325 0
0 105 0 105 325 0 325 0 0 -105z m670 0 l0 -105 -330 0 -330 0 0 105 0 105
330 0 330 0 0 -105z m660 0 l0 -105 -325 0 -325 0 0 105 0 105 325 0 325 0 0
-105z m660 0 l0 -105 -325 0 -325 0 0 105 0 105 325 0 325 0 0 -105z m670 0
l0 -105 -325 0 -325 0 0 105 0 105 325 0 325 0 0 -105z m660 0 l0 -105 -325 0
-325 0 0 105 0 105 325 0 325 0 0 -105z m670 0 l0 -105 -330 0 -330 0 0 105 0
105 330 0 330 0 0 -105z m660 0 l0 -105 -325 0 -325 0 0 105 0 105 325 0 325
0 0 -105z m670 0 l0 -105 -330 0 -330 0 0 105 0 105 330 0 330 0 0 -105z m660
0 l0 -105 -325 0 -325 0 0 105 0 105 325 0 325 0 0 -105z m660 0 l0 -105 -325
0 -325 0 0 105 0 105 325 0 325 0 0 -105z m670 0 l0 -105 -325 0 -325 0 0 105
0 105 325 0 325 0 0 -105z m-5260 -1895 l0 -1780 1869 0 c1661 0 1870 -2 1881
-15 12 -14 15 -14 36 0 16 10 48 15 97 15 112 0 106 16 110 -316 l3 -279 -1
287 c0 261 2 287 17 297 12 8 165 11 479 11 390 0 463 -2 475 -15 15 -14 44
-11 44 6 0 5 56 9 125 9 l125 0 0 -1760 0 -1760 -5640 0 -5640 0 0 3540 0
3540 3010 0 3010 0 0 -1780z m5260 5 l0 -1765 -124 0 c-133 0 -141 3 -144 54
-3 42 -12 46 -12 5 0 -19 -5 -40 -12 -47 -18 -18 -930 -17 -958 0 -16 10 -24
10 -40 0 -26 -16 -154 -16 -180 0 -16 10 -24 10 -40 0 -15 -9 -213 -12 -883
-12 l-864 0 1 23 c1 20 6 22 58 22 31 0 54 3 51 8 -2 4 -56 7 -120 7 -64 0
-113 -3 -110 -7 4 -4 31 -6 61 -4 53 2 53 2 49 -23 l-5 -26 -988 0 -988 0 0
1765 0 1765 2624 0 2624 0 0 -1765z m50 0 c0 -1758 0 -1765 -20 -1765 -20 0
-20 7 -20 1765 0 1758 0 1765 20 1765 20 0 20 -7 20 -1765z m-1553 -1787 c-3
-7 -5 -2 -5 12 0 14 2 19 5 13 2 -7 2 -19 0 -25z m25 0 c-9 -9 -12 -7 -12 12
0 19 3 21 12 12 9 -9 9 -15 0 -24z m195 0 c-3 -7 -5 -2 -5 12 0 14 2 19 5 13
2 -7 2 -19 0 -25z m25 0 c-9 -9 -12 -7 -12 12 0 19 3 21 12 12 9 -9 9 -15 0
-24z m978 10 c0 -16 -3 -19 -11 -11 -6 6 -8 16 -5 22 11 17 16 13 16 -11z m22
-10 c-9 -9 -12 -7 -12 12 0 19 3 21 12 12 9 -9 9 -15 0 -24z m-2282 -3798 l0
-270 -3215 0 -3215 0 0 270 0 270 3215 0 3215 0 0 -270z m2540 135 l0 -135
-1265 0 -1265 0 0 135 0 135 1265 0 1265 0 0 -135z m0 -275 l0 -130 -1265 0
-1265 0 0 130 0 130 1265 0 1265 0 0 -130z"/>
<path d="M504 7826 c-11 -28 1 -81 18 -84 26 -5 45 41 30 73 -13 27 -39 33
-48 11z m36 -42 c0 -24 -5 -34 -15 -34 -10 0 -15 10 -15 33 0 19 3 37 6 40 13
13 24 -5 24 -39z"/>
<path d="M1181 7825 c-2 -5 -2 -23 -1 -39 1 -16 -4 -33 -12 -37 -9 -6 -3 -9
17 -9 17 0 25 4 18 8 -6 4 -13 25 -16 47 -2 22 -5 36 -6 30z"/>
<path d="M1835 7831 c-3 -6 0 -8 8 -5 26 10 30 -17 8 -47 -28 -37 -27 -39 12
-38 31 2 31 2 3 6 l-28 5 22 23 c12 13 20 31 18 41 -4 21 -33 31 -43 15z"/>
<path d="M2490 7831 c0 -6 6 -8 14 -5 18 7 32 -16 16 -26 -9 -5 -9 -9 -1 -14
18 -11 13 -34 -9 -39 -17 -4 -16 -4 2 -3 20 1 23 6 23 46 0 39 -3 45 -22 48
-13 2 -23 -1 -23 -7z"/>
<path d="M3177 7813 c-28 -30 -27 -43 4 -43 10 0 19 -8 21 -17 7 -33 14 18 8
55 l-5 34 -28 -29z m23 -12 c0 -12 -20 -25 -27 -18 -7 7 6 27 18 27 5 0 9 -4
9 -9z"/>
<path d="M3820 7815 c0 -18 5 -25 20 -25 30 0 27 -40 -2 -41 -20 -1 -21 -2 -4
-6 26 -7 50 25 35 44 -6 7 -18 13 -25 13 -22 0 -16 20 9 30 21 8 21 9 -5 9
-23 1 -28 -3 -28 -24z"/>
<path d="M4501 7826 c-7 -8 -11 -30 -9 -48 2 -25 8 -34 25 -36 14 -2 23 3 28
17 8 27 -1 41 -28 41 l-22 1 24 19 c16 14 19 20 8 20 -8 0 -20 -6 -26 -14z
m29 -57 c0 -24 -23 -21 -28 4 -2 10 3 17 12 17 10 0 16 -9 16 -21z"/>
<path d="M5168 7833 c27 -5 28 -19 2 -60 -11 -18 -16 -33 -12 -33 7 0 52 83
52 95 0 3 -15 4 -32 4 -24 -1 -27 -3 -10 -6z"/>
<path d="M5816 7828 c-3 -7 -4 -29 -3 -48 2 -27 7 -36 23 -38 26 -4 34 14 25
59 -7 34 -37 53 -45 27z m34 -13 c0 -8 -7 -15 -15 -15 -16 0 -20 12 -8 23 11
12 23 8 23 -8z m0 -51 c0 -8 -7 -14 -15 -14 -15 0 -21 21 -9 33 10 9 24 -2 24
-19z"/>
<path d="M6482 7823 c-13 -24 -4 -43 19 -43 26 0 24 -19 -3 -30 l-23 -9 23 0
c16 -1 26 7 33 26 19 50 -26 101 -49 56z m38 -19 c0 -8 -7 -14 -15 -14 -15 0
-21 21 -9 33 10 9 24 -2 24 -19z"/>
<path d="M7184 7826 c-11 -28 1 -81 18 -84 26 -5 45 41 30 73 -13 27 -39 33
-48 11z m36 -42 c0 -24 -5 -34 -15 -34 -10 0 -15 10 -15 33 0 19 3 37 6 40 13
13 24 -5 24 -39z"/>
<path d="M7121 7825 c-2 -5 -2 -23 -1 -39 1 -16 -4 -33 -12 -37 -9 -6 -3 -9
17 -9 17 0 25 4 18 8 -6 4 -13 25 -16 47 -2 22 -5 36 -6 30z"/>
<path d="M7791 7825 c-2 -5 -2 -23 -1 -39 1 -16 -4 -33 -12 -37 -9 -6 -3 -9
17 -9 17 0 25 4 18 8 -6 4 -13 25 -16 47 -2 22 -5 36 -6 30z"/>
<path d="M7871 7825 c-2 -5 -2 -23 -1 -39 1 -16 -4 -33 -12 -37 -9 -6 -3 -9
17 -9 17 0 25 4 18 8 -6 4 -13 25 -16 47 -2 22 -5 36 -6 30z"/>
<path d="M8515 7831 c-3 -6 0 -8 8 -5 26 10 30 -17 8 -47 -28 -37 -27 -39 12
-38 31 2 31 2 3 6 l-28 5 22 23 c12 13 20 31 18 41 -4 21 -33 31 -43 15z"/>
<path d="M8451 7825 c-2 -5 -2 -23 -1 -39 1 -16 -4 -33 -12 -37 -9 -6 -3 -9
17 -9 17 0 25 4 18 8 -6 4 -13 25 -16 47 -2 22 -5 36 -6 30z"/>
<path d="M9170 7831 c0 -6 6 -8 14 -5 18 7 32 -16 16 -26 -9 -5 -9 -9 -1 -14
18 -11 13 -34 -9 -39 -17 -4 -16 -4 2 -3 20 1 23 6 23 46 0 39 -3 45 -22 48
-13 2 -23 -1 -23 -7z"/>
<path d="M9121 7825 c-2 -5 -2 -23 -1 -39 1 -16 -4 -33 -12 -37 -9 -6 -3 -9
17 -9 17 0 25 4 18 8 -6 4 -13 25 -16 47 -2 22 -5 36 -6 30z"/>
<path d="M9857 7813 c-28 -30 -27 -43 4 -43 10 0 19 -8 21 -17 7 -33 14 18 8
55 l-5 34 -28 -29z m23 -12 c0 -12 -20 -25 -27 -18 -7 7 6 27 18 27 5 0 9 -4
9 -9z"/>
<path d="M9781 7825 c-2 -5 -2 -23 -1 -39 1 -16 -4 -33 -12 -37 -9 -6 -3 -9
17 -9 17 0 25 4 18 8 -6 4 -13 25 -16 47 -2 22 -5 36 -6 30z"/>
<path d="M10500 7815 c0 -18 5 -25 20 -25 30 0 27 -40 -2 -41 -20 -1 -21 -2
-4 -6 26 -7 50 25 35 44 -6 7 -18 13 -25 13 -22 0 -16 20 9 30 21 8 21 9 -5 9
-23 1 -28 -3 -28 -24z"/>
<path d="M10451 7825 c-2 -5 -2 -23 -1 -39 1 -16 -4 -33 -12 -37 -9 -6 -3 -9
17 -9 17 0 25 4 18 8 -6 4 -13 25 -16 47 -2 22 -5 36 -6 30z"/>
<path d="M11181 7826 c-7 -8 -11 -30 -9 -48 2 -25 8 -34 25 -36 14 -2 23 3 28
17 8 27 -1 41 -28 41 l-22 1 24 19 c16 14 19 20 8 20 -8 0 -20 -6 -26 -14z
m29 -57 c0 -24 -23 -21 -28 4 -2 10 3 17 12 17 10 0 16 -9 16 -21z"/>
<path d="M11111 7825 c-2 -5 -2 -23 -1 -39 1 -16 -4 -33 -12 -37 -9 -6 -3 -9
17 -9 17 0 25 4 18 8 -6 4 -13 25 -16 47 -2 22 -5 36 -6 30z"/>
<path d="M2532 6758 c-17 -17 -15 -81 4 -104 15 -19 16 -19 8 1 -14 40 -16 73
-5 94 13 24 11 27 -7 9z"/>
<path d="M2597 6745 c-29 -28 -28 -45 3 -45 10 0 20 -8 22 -17 7 -32 14 18 8
55 l-5 32 -28 -25z m23 -14 c0 -12 -20 -25 -27 -18 -7 7 6 27 18 27 5 0 9 -4
9 -9z"/>
<path d="M2700 6761 c0 -6 6 -8 14 -5 18 7 32 -16 16 -26 -9 -5 -9 -9 -1 -14
18 -11 13 -34 -9 -39 -17 -4 -16 -4 2 -3 20 1 23 6 23 46 0 39 -3 45 -22 48
-13 2 -23 -1 -23 -7z"/>
<path d="M2788 6753 c15 -27 16 -80 2 -88 -5 -3 -10 -12 -10 -18 0 -7 7 -3 15
7 20 27 19 90 -2 107 -15 13 -15 12 -5 -8z"/>
<path d="M2658 6713 c7 -3 16 -2 19 1 4 3 -2 6 -13 5 -11 0 -14 -3 -6 -6z"/>
<path d="M2202 6538 c-17 -17 -15 -81 4 -104 15 -19 16 -19 8 1 -14 40 -16 73
-5 94 13 24 11 27 -7 9z"/>
<path d="M2257 6523 c-28 -30 -27 -43 4 -43 10 0 19 -8 21 -17 7 -33 14 18 8
55 l-5 34 -28 -29z m23 -12 c0 -12 -20 -25 -27 -18 -7 7 6 27 18 27 5 0 9 -4
9 -9z"/>
<path d="M2375 6541 c-3 -6 0 -8 8 -5 26 10 30 -17 8 -47 -28 -37 -27 -39 12
-38 31 2 31 2 3 6 l-28 5 22 23 c12 13 20 31 18 41 -4 21 -33 31 -43 15z"/>
<path d="M2449 6533 c14 -27 15 -80 1 -88 -5 -3 -10 -11 -10 -18 0 -26 23 13
30 52 6 34 4 43 -13 58 -19 18 -20 17 -8 -4z"/>
<path d="M2328 6493 c7 -3 16 -2 19 1 4 3 -2 6 -13 5 -11 0 -14 -3 -6 -6z"/>
<path d="M2033 6294 c4 -6 -5 -21 -18 -34 -27 -25 -25 -40 7 -40 16 0 19 -5
15 -21 -4 -16 -3 -19 5 -11 14 14 12 93 -3 107 -9 7 -10 7 -6 -1z m7 -43 c0
-12 -20 -25 -27 -18 -7 7 6 27 18 27 5 0 9 -4 9 -9z"/>
<path d="M2362 5979 c-2 -296 -4 -327 -20 -342 -23 -21 -155 -22 -187 -1 -19
13 -24 13 -34 0 -16 -19 -158 -21 -183 -2 -15 11 -17 35 -15 229 1 119 -1 217
-5 217 -5 0 -8 -98 -8 -219 0 -163 -3 -221 -13 -229 -16 -13 -184 -15 -192 -2
-4 6 -76 10 -176 10 l-169 0 1 -697 c1 -384 4 -686 6 -671 3 18 12 28 26 31
l22 4 -22 2 -23 1 0 660 0 659 163 0 163 0 -2 -37 c-2 -20 0 -27 2 -14 5 19
12 22 55 22 l49 0 0 -155 0 -155 1005 0 1005 0 0 155 0 155 49 0 c46 0 50 -2
54 -27 3 -17 4 -13 4 12 l-2 40 163 2 162 2 0 -658 c0 -518 -3 -660 -12 -664
-10 -4 -10 -6 0 -6 9 -1 12 -51 12 -216 l0 -215 -1434 0 -1435 0 -4 23 c-3 17
-5 16 -6 -8 l-1 -30 1437 0 1438 0 3 -428 2 -428 -67 3 -68 3 0 153 0 152
-1310 0 -1310 0 2 -155 3 -155 -60 0 c-56 0 -59 1 -63 28 -4 25 -4 25 -6 -5
l-1 -33 96 0 c69 0 99 -4 110 -14 11 -11 14 -49 14 -175 0 -88 3 -162 8 -164
4 -3 6 69 5 160 -3 148 -1 167 15 179 24 19 159 19 178 0 11 -12 14 -64 14
-285 0 -148 3 -272 8 -274 4 -3 6 117 5 266 -3 324 -9 307 107 307 57 0 81 -4
90 -15 12 -14 15 -14 36 0 33 22 161 21 186 -2 17 -15 19 -15 36 0 25 23 153
24 186 2 21 -14 24 -14 36 0 18 21 152 21 184 0 21 -14 25 -14 39 0 21 21 149
21 181 0 21 -14 25 -14 39 0 22 21 162 21 184 0 14 -14 18 -14 39 0 31 20 159
21 180 1 11 -12 14 -57 14 -230 0 -118 3 -217 8 -219 4 -3 6 92 5 211 -3 261
-7 252 107 252 46 0 81 -5 88 -12 9 -9 12 -74 12 -229 0 -120 3 -220 8 -222 4
-3 6 92 5 211 -3 261 -7 252 105 252 56 0 80 -4 94 -17 17 -15 19 -15 36 0 25
23 153 24 186 2 21 -14 24 -14 36 0 10 12 35 15 111 15 l99 0 0 1325 0 1325
-170 0 c-104 0 -170 -4 -170 -10 0 -16 -179 -11 -205 6 -19 13 -24 13 -34 0
-9 -11 -34 -15 -88 -15 -49 0 -83 5 -98 15 -19 13 -24 13 -34 0 -9 -11 -34
-15 -88 -15 -49 0 -83 5 -98 15 -19 13 -24 13 -34 0 -9 -11 -35 -15 -97 -15
-46 0 -84 4 -84 8 0 16 -29 20 -43 6 -21 -20 -171 -20 -188 1 -10 13 -15 13
-34 0 -26 -17 -162 -21 -182 -4 -10 8 -14 85 -15 342 l-3 331 -2 -329 c-3
-299 -5 -330 -21 -342 -23 -17 -167 -18 -181 0 -7 8 -12 126 -14 342 l-2 329
-3 -326z m-455 -381 c-3 -7 -5 -2 -5 12 0 14 2 19 5 13 2 -7 2 -19 0 -25z
m220 0 c-3 -7 -5 -2 -5 12 0 14 2 19 5 13 2 -7 2 -19 0 -25z m24 -1 c-8 -8
-11 -7 -11 4 0 20 13 34 18 19 3 -7 -1 -17 -7 -23z m209 12 c0 -11 -4 -17 -10
-14 -5 3 -10 13 -10 21 0 8 5 14 10 14 6 0 10 -9 10 -21z m17 -11 c-3 -7 -5
-2 -5 12 0 14 2 19 5 13 2 -7 2 -19 0 -25z m203 10 c0 -16 -3 -19 -11 -11 -6
6 -8 16 -5 22 11 17 16 13 16 -11z m17 -10 c-3 -7 -5 -2 -5 12 0 14 2 19 5 13
2 -7 2 -19 0 -25z m203 10 c0 -16 -3 -19 -11 -11 -6 6 -8 16 -5 22 11 17 16
13 16 -11z m23 -3 c-7 -21 -13 -19 -13 6 0 11 4 18 10 14 5 -3 7 -12 3 -20z
m197 3 c0 -16 -3 -19 -11 -11 -6 6 -8 16 -5 22 11 17 16 13 16 -11z m220 0 c0
-18 -2 -20 -9 -8 -6 8 -7 18 -5 22 9 14 14 9 14 -14z m217 -10 c-3 -7 -5 -2
-5 12 0 14 2 19 5 13 2 -7 2 -19 0 -25z m220 0 c-3 -7 -5 -2 -5 12 0 14 2 19
5 13 2 -7 2 -19 0 -25z m24 -1 c-8 -8 -11 -7 -11 4 0 20 13 34 18 19 3 -7 -1
-17 -7 -23z m-1761 14 c0 -6 -4 -13 -10 -16 -5 -3 -10 1 -10 9 0 9 5 16 10 16
6 0 10 -4 10 -9z m1110 0 c0 -6 -4 -13 -10 -16 -5 -3 -10 1 -10 9 0 9 5 16 10
16 6 0 10 -4 10 -9z m220 0 c0 -6 -4 -13 -10 -16 -5 -3 -10 1 -10 9 0 9 5 16
10 16 6 0 10 -4 10 -9z m220 0 c0 -6 -4 -13 -10 -16 -5 -3 -10 1 -10 9 0 9 5
16 10 16 6 0 10 -4 10 -9z m-1590 -23 c16 -10 24 -10 40 0 11 6 51 12 90 12
39 0 79 -6 90 -12 16 -10 24 -10 40 0 11 6 51 12 90 12 39 0 79 -6 90 -12 16
-10 24 -10 40 0 26 16 154 16 180 0 16 -10 24 -10 40 0 24 15 180 17 180 2 0
-5 9 -10 19 -10 11 0 23 5 26 10 9 14 161 12 185 -2 15 -10 22 -10 32 0 15 15
174 17 183 2 3 -5 15 -10 26 -10 10 0 19 5 19 10 0 15 156 13 180 -2 16 -10
24 -10 40 0 11 6 51 12 90 12 39 0 79 -6 90 -12 16 -10 24 -10 40 0 11 6 33
12 50 12 l30 0 0 -145 0 -145 -989 0 -990 0 0 145 0 145 35 0 c19 0 43 -6 54
-12z m2190 -2438 c0 -121 -3 -150 -14 -150 -7 0 -19 7 -26 15 -7 8 -21 15 -32
15 -10 0 -21 -7 -24 -15 -5 -12 -24 -15 -84 -15 -60 0 -79 3 -84 15 -3 8 -15
15 -26 15 -11 0 -23 -7 -26 -15 -5 -12 -24 -15 -84 -15 -60 0 -79 3 -84 15 -7
19 -40 19 -56 0 -18 -21 -152 -21 -170 0 -7 8 -18 15 -25 15 -7 0 -18 -7 -25
-15 -9 -11 -33 -15 -85 -15 -52 0 -76 4 -85 15 -7 8 -18 15 -25 15 -7 0 -18
-7 -25 -15 -9 -11 -33 -15 -85 -15 -52 0 -76 4 -85 15 -7 8 -18 15 -25 15 -7
0 -18 -7 -25 -15 -9 -11 -33 -15 -85 -15 -52 0 -76 4 -85 15 -7 8 -18 15 -25
15 -7 0 -18 -7 -25 -15 -9 -11 -33 -15 -85 -15 -52 0 -76 4 -85 15 -7 8 -21
15 -32 15 -10 0 -21 -7 -24 -15 -5 -12 -24 -15 -84 -15 -60 0 -79 3 -84 15 -3
8 -15 15 -26 15 -11 0 -23 -7 -26 -15 -5 -12 -24 -15 -84 -15 -60 0 -79 3 -84
15 -3 8 -14 15 -24 15 -11 0 -25 -7 -32 -15 -9 -11 -33 -15 -85 -15 -52 0 -76
4 -85 15 -7 8 -18 15 -25 15 -7 0 -18 -7 -25 -15 -9 -11 -33 -15 -85 -15 -52
0 -76 4 -85 15 -7 8 -18 15 -25 15 -7 0 -18 -7 -25 -15 -7 -8 -23 -15 -36 -15
l-24 0 0 150 0 150 1295 0 1295 0 0 -150z m-2485 -140 c3 -5 3 -15 -1 -22 -5
-8 -10 -6 -15 8 -7 17 -8 17 -8 1 -1 -10 -5 -16 -11 -12 -13 8 -1 35 15 35 8
0 17 -4 20 -10z m223 -13 c2 -9 -1 -17 -7 -17 -6 0 -11 8 -12 18 0 14 -2 14
-9 -3 -8 -19 -9 -19 -9 3 -1 17 4 23 16 20 10 -2 19 -11 21 -21z m220 0 c2 -9
-1 -17 -7 -17 -6 0 -11 8 -12 18 0 14 -2 14 -9 -3 -6 -15 -9 -16 -9 -4 -2 32
31 38 37 6z m218 -1 c2 -12 1 -13 -3 -1 -6 20 -23 19 -23 -2 0 -9 -3 -14 -6
-10 -4 3 -4 13 0 22 8 21 30 14 32 -9z m221 -2 c3 -18 2 -18 -6 1 -8 17 -10
18 -10 3 -1 -21 -21 -25 -21 -5 0 33 33 33 37 1z m222 4 c0 -22 -1 -22 -9 -3
-7 17 -9 17 -9 3 -1 -10 -5 -18 -11 -18 -11 0 -14 23 -3 33 14 15 33 6 32 -15z
m224 7 c4 -8 2 -17 -3 -20 -6 -4 -10 2 -11 12 0 16 -1 16 -8 -1 -5 -14 -10
-16 -15 -8 -4 7 -4 17 -1 22 9 15 32 12 38 -5z m222 5 c3 -5 3 -15 -1 -22 -5
-8 -10 -6 -15 8 -7 17 -8 17 -8 1 -1 -10 -5 -16 -11 -12 -13 8 -1 35 15 35 8
0 17 -4 20 -10z m223 -13 c2 -9 -1 -17 -7 -17 -6 0 -11 8 -12 18 0 14 -2 14
-9 -3 -8 -19 -9 -19 -9 3 -1 17 4 23 16 20 10 -2 19 -11 21 -21z m220 0 c2 -9
-1 -17 -7 -17 -6 0 -11 8 -12 18 0 14 -2 14 -9 -3 -6 -15 -9 -16 -9 -4 -2 32
31 38 37 6z m218 -1 c2 -12 1 -13 -3 -1 -6 20 -23 19 -23 -2 0 -9 -3 -14 -6
-10 -4 3 -4 13 0 22 8 21 30 14 32 -9z m221 -2 c3 -18 2 -18 -6 1 -8 17 -10
18 -10 3 -1 -21 -21 -25 -21 -5 0 33 33 33 37 1z"/>
<path d="M2130 5525 c-6 -8 -10 -20 -7 -27 3 -8 6 -6 6 5 1 10 5 16 10 12 5
-3 12 -1 15 4 10 16 -11 22 -24 6z"/>
<path d="M2596 5527 c4 -11 0 -25 -11 -37 -18 -19 -17 -20 6 -19 13 0 19 3 12
6 -10 3 -10 9 0 23 9 15 9 22 -1 32 -11 11 -12 10 -6 -5z"/>
<path d="M2817 5524 c5 -13 3 -15 -8 -9 -12 8 -12 6 0 -9 13 -15 13 -19 0 -27
-11 -7 -11 -9 4 -9 12 0 17 8 17 29 0 17 -4 33 -10 36 -6 4 -7 -1 -3 -11z"/>
<path d="M2355 5500 c0 -16 5 -30 11 -30 6 0 9 13 6 30 -2 17 -7 30 -11 30 -3
0 -6 -13 -6 -30z"/>
<path d="M3025 5520 c-3 -5 0 -10 7 -11 7 0 4 -4 -7 -9 -16 -7 -17 -9 -3 -9 9
-1 19 -7 21 -13 3 -7 6 2 6 20 1 31 -11 42 -24 22z"/>
<path d="M3240 5517 c0 -8 6 -18 13 -20 9 -4 8 -8 -3 -16 -13 -9 -13 -11 3
-11 21 0 23 33 2 50 -12 10 -15 10 -15 -3z"/>
<path d="M3463 5523 c4 -6 1 -13 -5 -16 -7 -2 -11 -7 -8 -9 3 -3 13 -2 23 1
18 7 18 8 1 21 -10 8 -15 10 -11 3z"/>
<path d="M3700 5530 c-8 -26 -7 -41 2 -32 6 6 8 16 5 24 -3 7 -6 11 -7 8z"/>
<path d="M1855 5490 c0 -16 5 -30 11 -30 6 0 9 13 6 30 -2 17 -7 30 -11 30 -3
0 -6 -13 -6 -30z"/>
<path d="M1890 5511 c0 -5 7 -15 17 -22 15 -13 15 -12 4 9 -12 23 -21 28 -21
13z"/>
<path d="M1926 5493 c10 -40 14 -41 14 -5 0 18 -5 32 -10 32 -6 0 -8 -11 -4
-27z"/>
<path d="M2140 5480 c-13 -8 -12 -10 3 -10 9 0 17 5 17 10 0 12 -1 12 -20 0z"/>
<path d="M3468 5473 c7 -3 16 -2 19 1 4 3 -2 6 -13 5 -11 0 -14 -3 -6 -6z"/>
<path d="M2125 5380 c-19 -37 -32 -38 -38 -2 -4 25 -4 25 -6 -5 -1 -35 15 -43
37 -21 9 9 12 9 12 0 0 -7 3 -12 8 -12 4 0 7 16 7 35 0 19 -1 35 -2 35 -1 0
-9 -13 -18 -30z"/>
<path d="M2178 5381 c11 -7 10 -9 -3 -15 -19 -7 -11 -26 11 -26 8 0 14 10 14
25 0 17 -5 25 -17 25 -14 0 -15 -2 -5 -9z"/>
<path d="M1971 3231 c-1 -30 1 -33 22 -28 12 3 31 -1 41 -9 11 -8 25 -14 30
-14 6 0 5 4 -3 9 -9 6 -10 11 -2 15 13 8 15 43 2 50 -4 3 -6 -6 -3 -20 4 -21
1 -25 -14 -22 -11 2 -19 12 -18 24 0 13 -7 21 -20 22 -15 1 -17 -1 -7 -7 8 -5
11 -16 8 -25 -10 -25 -25 -19 -30 12 -4 24 -4 24 -6 -7z"/>
<path d="M2098 3241 c11 -7 10 -9 -3 -15 -19 -7 -11 -26 11 -26 8 0 14 10 14
25 0 17 -5 25 -17 25 -14 0 -15 -2 -5 -9z"/>
<path d="M3731 3221 c-1 -30 1 -33 22 -27 14 3 33 -1 46 -10 12 -9 25 -13 28
-10 4 3 0 6 -7 6 -11 0 -11 3 -2 12 14 14 16 44 3 52 -4 3 -6 -6 -3 -20 4 -21
1 -25 -14 -22 -11 2 -19 12 -18 24 0 13 -7 21 -20 22 -15 1 -17 -1 -7 -7 8 -5
11 -16 8 -25 -10 -25 -25 -19 -30 12 -4 24 -4 24 -6 -7z"/>
<path d="M3850 3230 c0 -5 7 -7 15 -4 8 4 15 8 15 10 0 2 -7 4 -15 4 -8 0 -15
-4 -15 -10z"/>
<path d="M3858 3193 c7 -3 16 -2 19 1 4 3 -2 6 -13 5 -11 0 -14 -3 -6 -6z"/>
<path d="M1536 3102 c1 -14 -3 -30 -9 -34 -8 -5 -6 -8 6 -8 12 0 17 8 17 29 0
17 -4 32 -9 35 -4 3 -7 -7 -5 -22z"/>
<path d="M1776 3103 c1 -15 -3 -31 -9 -36 -8 -5 -5 -7 8 -5 15 3 19 10 17 28
-5 35 -20 47 -16 13z"/>
<path d="M2042 3118 c-7 -7 -12 -19 -11 -27 0 -10 4 -7 10 7 5 14 13 20 20 16
8 -4 9 -3 5 4 -9 15 -9 15 -24 0z"/>
<path d="M2487 3111 c3 -11 1 -21 -5 -21 -5 0 -12 -7 -16 -15 -4 -11 1 -15 17
-14 12 0 17 3 10 6 -10 3 -10 9 0 23 9 15 9 22 0 31 -9 9 -11 7 -6 -10z"/>
<path d="M2704 3121 c4 -6 2 -19 -6 -28 -9 -12 -9 -15 0 -9 6 4 12 3 12 -3 0
-5 -6 -12 -12 -14 -8 -3 -6 -6 5 -6 12 -1 17 7 17 28 0 17 -5 33 -12 37 -7 4
-8 3 -4 -5z"/>
<path d="M3792 3118 c-7 -7 -12 -19 -11 -27 0 -10 4 -7 10 7 5 14 13 20 20 16
8 -4 9 -3 5 4 -9 15 -9 15 -24 0z"/>
<path d="M1571 3093 c-1 -25 3 -33 17 -33 11 0 13 3 6 8 -7 4 -14 18 -17 32
-4 21 -4 20 -6 -7z"/>
<path d="M1800 3115 c0 -15 18 -40 24 -34 3 3 -1 14 -9 25 -8 10 -14 15 -15 9z"/>
<path d="M1837 3113 c-2 -5 -1 -19 4 -33 7 -23 7 -23 8 8 1 31 -3 40 -12 25z"/>
<path d="M2245 3090 c0 -16 5 -30 11 -30 6 0 9 13 6 30 -2 17 -7 30 -11 30 -3
0 -6 -13 -6 -30z"/>
<path d="M2914 3108 c-4 -7 -3 -8 4 -4 7 4 12 2 12 -3 0 -6 -8 -11 -17 -12
-14 0 -15 -2 -3 -6 8 -3 18 -11 22 -17 4 -6 8 4 8 22 0 32 -13 42 -26 20z"/>
<path d="M3130 3106 c0 -8 5 -18 11 -22 8 -4 7 -9 -2 -15 -11 -7 -10 -9 4 -9
21 0 22 26 2 46 -13 14 -15 14 -15 0z"/>
<path d="M3587 3101 c-4 -17 -3 -21 5 -13 5 5 8 16 6 23 -3 8 -7 3 -11 -10z"/>
<path d="M4025 3090 c-1 -16 4 -30 10 -30 7 0 10 12 7 30 -2 17 -7 30 -11 30
-3 0 -6 -13 -6 -30z"/>
<path d="M1623 3095 c-10 -10 -9 -14 2 -19 17 -6 26 5 17 21 -5 8 -11 7 -19
-2z"/>
<path d="M3340 3091 c0 -10 26 -9 36 2 4 4 -2 7 -14 7 -12 0 -22 -4 -22 -9z"/>
<path d="M3804 3082 c3 -5 0 -13 -6 -15 -8 -3 -6 -6 5 -6 19 -1 23 14 5 25 -6
4 -8 3 -4 -4z"/>
<path d="M2050 3070 c-13 -8 -12 -10 3 -10 9 0 17 5 17 10 0 12 -1 12 -20 0z"/>
<path d="M3358 3063 c7 -3 16 -2 19 1 4 3 -2 6 -13 5 -11 0 -14 -3 -6 -6z"/>
<path d="M1762 6278 c-17 -17 -15 -81 4 -104 15 -19 16 -19 8 1 -14 40 -16 73
-5 94 13 24 11 27 -7 9z"/>
<path d="M2088 6273 c15 -27 16 -80 2 -88 -5 -3 -10 -12 -10 -18 0 -7 7 -3 15
7 20 27 19 90 -2 107 -15 13 -15 12 -5 -8z"/>
<path d="M1821 6275 c-2 -5 -2 -25 -1 -42 1 -19 -3 -33 -10 -33 -6 0 -9 -4 -6
-9 3 -5 15 -7 27 -4 11 3 16 9 11 12 -6 3 -12 24 -15 46 -2 22 -5 36 -6 30z"/>
<path d="M1951 6275 c-2 -5 -2 -23 -1 -38 1 -17 -5 -34 -16 -41 -15 -11 -13
-12 15 -8 18 2 28 7 23 11 -6 3 -12 24 -15 46 -2 22 -5 36 -6 30z"/>
<path d="M1888 6233 c7 -3 16 -2 19 1 4 3 -2 6 -13 5 -11 0 -14 -3 -6 -6z"/>
<path d="M1690 5518 c0 -23 3 -29 9 -19 8 12 4 51 -5 51 -2 0 -4 -15 -4 -32z"/>
<path d="M3912 5515 c0 -16 2 -22 5 -12 2 9 2 23 0 30 -3 6 -5 -1 -5 -18z"/>
<path d="M1692 5455 c0 -16 2 -22 5 -12 2 9 2 23 0 30 -3 6 -5 -1 -5 -18z"/>
<path d="M3912 5445 c0 -16 2 -22 5 -12 2 9 2 23 0 30 -3 6 -5 -1 -5 -18z"/>
<path d="M1690 5391 c0 -17 2 -31 4 -31 8 0 13 51 5 56 -5 3 -9 -9 -9 -25z"/>
<path d="M3912 5380 c0 -19 2 -27 5 -17 2 9 2 25 0 35 -3 9 -5 1 -5 -18z"/>
<path d="M1690 5326 c0 -14 4 -27 8 -30 5 -3 6 8 4 25 -5 35 -12 38 -12 5z"/>
<path d="M3912 5315 c0 -16 2 -22 5 -12 2 9 2 23 0 30 -3 6 -5 -1 -5 -18z"/>
<path d="M1692 5255 c0 -16 2 -22 5 -12 2 9 2 23 0 30 -3 6 -5 -1 -5 -18z"/>
<path d="M3912 5245 c0 -16 2 -22 5 -12 2 9 2 23 0 30 -3 6 -5 -1 -5 -18z"/>
<path d="M2406 5225 c4 -9 -2 -25 -11 -35 -18 -19 -17 -20 6 -19 13 0 18 3 11
6 -6 2 -10 9 -7 13 7 11 37 1 47 -14 4 -6 8 4 8 22 0 32 -13 42 -26 20 -4 -7
-3 -8 4 -4 7 4 12 2 12 -3 0 -6 -7 -11 -15 -11 -8 0 -15 6 -15 14 0 8 -4 18
-10 21 -6 3 -7 -1 -4 -10z"/>
<path d="M2922 5228 c-10 -10 -8 -16 10 -31 l23 -19 -22 5 c-13 3 -23 1 -23
-5 0 -13 43 -6 47 9 2 6 -5 14 -17 18 -17 5 -19 10 -9 21 14 17 8 19 -9 2z"/>
<path d="M5412 5228 c-17 -17 -15 -81 4 -104 15 -19 16 -19 8 1 -14 40 -16 73
-5 94 13 24 11 27 -7 9z"/>
<path d="M5492 5228 c-7 -9 -9 -18 -5 -20 4 -3 3 -3 -4 -2 -14 3 -35 -20 -26
-29 3 -4 15 -7 25 -7 10 0 18 -7 19 -17 0 -14 2 -13 9 5 12 30 65 31 73 2 7
-28 35 -25 49 5 8 19 8 31 0 50 -14 30 -42 33 -49 5 -8 -30 -70 -29 -75 2 -3
19 -4 20 -16 6z m128 -44 c0 -24 -5 -34 -15 -34 -10 0 -15 10 -15 33 0 19 3
37 6 40 13 13 24 -5 24 -39z"/>
<path d="M5668 5223 c15 -27 16 -80 2 -88 -5 -3 -10 -12 -10 -18 0 -7 7 -3 15
7 20 27 19 90 -2 107 -15 13 -15 12 -5 -8z"/>
<path d="M2475 5205 c0 -13 3 -21 8 -18 4 2 7 -1 7 -8 0 -20 17 2 24 31 l7 25
-15 -25 c-11 -18 -15 -21 -16 -8 0 26 -15 29 -15 3z"/>
<path d="M2531 5203 c-1 -34 15 -43 36 -22 8 8 13 8 17 0 4 -6 17 -11 29 -10
22 0 21 0 -2 10 -18 7 -22 15 -18 32 5 20 4 20 -16 -5 -13 -16 -26 -28 -29
-28 -4 0 -9 12 -11 28 -4 25 -4 25 -6 -5z"/>
<path d="M2680 5202 c0 -18 5 -32 10 -32 6 0 8 11 4 28 -10 39 -14 40 -14 4z"/>
<path d="M2710 5220 c0 -5 5 -10 11 -10 5 0 7 5 4 10 -3 6 -8 10 -11 10 -2 0
-4 -4 -4 -10z"/>
<path d="M2738 5213 c-12 -45 17 -57 45 -18 12 17 14 26 5 31 -6 4 -8 3 -4 -4
3 -6 2 -13 -4 -17 -5 -3 -10 1 -10 9 0 22 -27 20 -32 -1z"/>
<path d="M2840 5204 c0 -21 -3 -24 -21 -19 -15 5 -19 4 -15 -4 4 -6 16 -11 27
-11 14 0 19 7 19 30 0 17 -2 30 -5 30 -3 0 -5 -12 -5 -26z"/>
<path d="M2872 5200 c0 -19 2 -27 5 -17 2 9 2 25 0 35 -3 9 -5 1 -5 -18z"/>
<path d="M1690 5188 c0 -23 3 -29 9 -19 8 12 4 51 -5 51 -2 0 -4 -15 -4 -32z"/>
<path d="M4972 5208 c-17 -17 -15 -81 4 -104 15 -19 16 -19 8 1 -14 40 -16 73
-5 94 13 24 11 27 -7 9z"/>
<path d="M5015 5211 c-3 -6 0 -8 8 -5 26 10 30 -17 8 -47 -28 -37 -27 -39 12
-38 31 2 31 2 3 6 l-28 5 22 23 c12 13 20 31 18 41 -4 21 -33 31 -43 15z"/>
<path d="M5135 5211 c-3 -6 0 -8 8 -5 26 10 30 -17 8 -47 -28 -37 -27 -39 12
-38 31 2 31 2 3 6 l-28 5 22 23 c12 13 20 31 18 41 -4 21 -33 31 -43 15z"/>
<path d="M5219 5203 c14 -27 15 -80 1 -88 -5 -3 -10 -11 -10 -18 0 -26 23 13
30 52 6 34 4 43 -13 58 -19 18 -20 17 -8 -4z"/>
<path d="M3912 5175 c0 -16 2 -22 5 -12 2 9 2 23 0 30 -3 6 -5 -1 -5 -18z"/>
<path d="M5098 5163 c7 -3 16 -2 19 1 4 3 -2 6 -13 5 -11 0 -14 -3 -6 -6z"/>
<path d="M1692 5125 c0 -16 2 -22 5 -12 2 9 2 23 0 30 -3 6 -5 -1 -5 -18z"/>
<path d="M3912 5115 c0 -16 2 -22 5 -12 2 9 2 23 0 30 -3 6 -5 -1 -5 -18z"/>
<path d="M1690 5055 c0 -14 2 -25 4 -25 2 0 6 11 8 25 3 14 1 25 -3 25 -5 0
-9 -11 -9 -25z"/>
<path d="M3912 5050 c0 -19 2 -27 5 -17 2 9 2 25 0 35 -3 9 -5 1 -5 -18z"/>
<path d="M1690 4990 c0 -16 4 -30 8 -30 5 0 7 14 4 30 -2 17 -6 30 -8 30 -2 0
-4 -13 -4 -30z"/>
<path d="M3912 4975 c0 -16 2 -22 5 -12 2 9 2 23 0 30 -3 6 -5 -1 -5 -18z"/>
<path d="M5230 4692 c0 -203 -3 -281 -12 -290 -8 -8 -47 -12 -110 -12 l-98 0
1 -32 c1 -30 2 -31 8 -8 6 23 11 25 66 25 l60 0 3 -152 3 -153 314 0 315 0 0
155 0 155 115 0 115 0 0 -429 0 -430 -497 1 -498 0 -2 -28 c-1 -21 0 -23 4 -6
l4 22 495 0 494 0 0 -214 0 -215 -27 -4 c-26 -4 -26 -4 5 -6 l32 -1 0 660 0
660 -154 0 c-125 0 -156 3 -166 15 -12 14 -15 14 -36 0 -29 -19 -164 -21 -182
-3 -9 9 -13 90 -14 292 l-3 281 -2 -274 c-4 -328 2 -311 -113 -311 -116 0
-110 -17 -107 308 1 150 -1 272 -5 272 -5 0 -8 -125 -8 -278z m-3 -324 c-3 -7
-5 -2 -5 12 0 14 2 19 5 13 2 -7 2 -19 0 -25z m33 18 c0 -8 -4 -18 -10 -21 -5
-3 -10 3 -10 14 0 12 5 21 10 21 6 0 10 -6 10 -14z m200 -7 c0 -11 -4 -17 -10
-14 -5 3 -10 13 -10 21 0 8 5 14 10 14 6 0 10 -9 10 -21z m17 -11 c-3 -7 -5
-2 -5 12 0 14 2 19 5 13 2 -7 2 -19 0 -25z m203 10 c0 -16 -3 -19 -11 -11 -6
6 -8 16 -5 22 11 17 16 13 16 -11z m17 -10 c-3 -7 -5 -2 -5 12 0 14 2 19 5 13
2 -7 2 -19 0 -25z m-487 -3 c7 -8 21 -15 32 -15 10 0 21 7 24 15 5 12 24 15
84 15 60 0 79 -3 84 -15 3 -8 14 -15 24 -15 11 0 25 7 32 15 9 11 33 15 85 15
56 0 74 -4 79 -15 7 -20 40 -19 56 0 7 9 23 15 34 13 20 -3 21 -10 24 -150 l3
-148 -306 0 -305 0 0 150 c0 140 1 150 19 150 10 0 24 -7 31 -15z"/>
<path d="M5206 4287 c4 -11 0 -25 -11 -37 -18 -19 -17 -20 11 -19 16 1 21 3
12 6 -14 4 -15 8 -5 23 9 15 9 22 -1 32 -11 11 -12 10 -6 -5z"/>
<path d="M5234 4289 c-3 -6 1 -18 11 -27 16 -16 17 -16 7 4 -6 12 -8 24 -5 28
3 3 4 6 0 6 -3 0 -9 -5 -13 -11z"/>
<path d="M5442 4288 c-7 -7 -12 -19 -11 -27 0 -10 4 -7 10 7 5 13 13 20 19 17
5 -3 10 -1 10 4 0 14 -13 14 -28 -1z"/>
<path d="M5679 4298 c-6 -20 -1 -68 6 -68 7 0 9 15 7 35 -3 29 -9 44 -13 33z"/>
<path d="M5267 4283 c-2 -5 -1 -19 4 -33 7 -23 7 -23 8 8 1 31 -3 40 -12 25z"/>
<path d="M5450 4240 c-13 -8 -12 -10 3 -10 9 0 17 5 17 10 0 12 -1 12 -20 0z"/>
<path d="M5409 4124 c-5 -15 -7 -29 -4 -32 3 -3 5 0 5 6 0 7 7 12 15 12 8 0
15 -5 15 -12 0 -6 2 -9 5 -6 9 8 -6 58 -16 58 -5 0 -14 -12 -20 -26z"/>
<path d="M5470 4120 c0 -16 4 -30 8 -30 5 0 7 14 4 30 -2 17 -6 30 -8 30 -2 0
-4 -13 -4 -30z"/>
<path d="M1692 4925 c0 -16 2 -22 5 -12 2 9 2 23 0 30 -3 6 -5 -1 -5 -18z"/>
<path d="M3912 4915 c0 -16 2 -22 5 -12 2 9 2 23 0 30 -3 6 -5 -1 -5 -18z"/>
<path d="M1690 4853 c0 -21 3 -24 9 -14 5 8 7 20 4 28 -8 21 -13 15 -13 -14z"/>
<path d="M3912 4845 c0 -16 2 -22 5 -12 2 9 2 23 0 30 -3 6 -5 -1 -5 -18z"/>
<path d="M1692 4790 c0 -19 2 -27 5 -17 2 9 2 25 0 35 -3 9 -5 1 -5 -18z"/>
<path d="M3912 4780 c0 -14 2 -19 5 -12 2 6 2 18 0 25 -3 6 -5 1 -5 -13z"/>
<path d="M1691 4723 c2 -24 2 -25 6 -6 l4 23 1102 3 1102 2 -1107 3 -1108 2 1
-27z"/>
<path d="M3912 4720 c0 -19 2 -27 5 -17 2 9 2 25 0 35 -3 9 -5 1 -5 -18z"/>
<path d="M1690 4660 c0 -16 4 -30 8 -30 5 0 7 14 4 30 -2 17 -6 30 -8 30 -2 0
-4 -13 -4 -30z"/>
<path d="M3912 4645 c0 -16 2 -22 5 -12 2 9 2 23 0 30 -3 6 -5 -1 -5 -18z"/>
<path d="M1692 4590 c0 -19 2 -27 5 -17 2 9 2 25 0 35 -3 9 -5 1 -5 -18z"/>
<path d="M2046 4597 c6 -17 -11 -47 -27 -47 -5 0 -9 11 -9 25 0 14 -3 25 -7
25 -5 0 -8 -13 -8 -30 0 -28 3 -30 35 -29 19 0 30 3 23 6 -10 3 -10 9 0 23 9
15 9 22 -1 32 -11 11 -12 10 -6 -5z"/>
<path d="M3912 4585 c0 -16 2 -22 5 -12 2 9 2 23 0 30 -3 6 -5 -1 -5 -18z"/>
<path d="M1795 4590 c-12 -19 6 -50 28 -49 21 0 21 1 -2 10 -17 7 -22 15 -18
29 6 22 2 26 -8 10z"/>
<path d="M1861 4573 l-1 -33 20 20 c22 22 26 40 9 40 -5 0 -8 -4 -4 -9 3 -5 1
-12 -4 -15 -5 -4 -12 2 -14 11 -3 10 -5 3 -6 -14z"/>
<path d="M1930 4574 c0 -19 -4 -25 -15 -20 -8 3 -15 1 -15 -4 0 -6 9 -10 20
-10 16 0 20 7 20 30 0 17 -2 30 -5 30 -3 0 -5 -12 -5 -26z"/>
<path d="M2085 4570 c0 -16 5 -30 11 -30 6 0 9 13 6 30 -2 17 -7 30 -11 30 -3
0 -6 -13 -6 -30z"/>
<path d="M2124 4588 c-4 -7 -3 -8 4 -4 7 4 12 2 12 -3 0 -6 -8 -11 -17 -12
-14 0 -15 -2 -3 -6 8 -3 18 -11 22 -17 4 -6 8 4 8 22 0 32 -13 42 -26 20z"/>
<path d="M2165 4590 c-12 -19 6 -50 28 -49 21 0 21 1 -2 10 -17 7 -22 15 -18
29 6 22 2 26 -8 10z"/>
<path d="M1690 4523 c0 -21 3 -24 9 -14 5 8 7 20 4 28 -8 21 -13 15 -13 -14z"/>
<path d="M3912 4515 c0 -16 2 -22 5 -12 2 9 2 23 0 30 -3 6 -5 -1 -5 -18z"/>
<path d="M3586 4487 c4 -11 0 -25 -10 -36 -16 -17 -15 -19 8 -23 19 -4 27 0
32 14 3 11 3 22 0 25 -3 4 -6 -1 -6 -10 0 -9 -7 -17 -15 -17 -13 0 -13 3 -3
20 10 16 10 22 0 32 -11 11 -12 10 -6 -5z"/>
<path d="M1692 4460 c0 -19 2 -27 5 -17 2 9 2 25 0 35 -3 9 -5 1 -5 -18z"/>
<path d="M1801 4463 c-1 -35 15 -43 37 -21 9 9 15 10 20 2 4 -6 17 -13 29 -16
16 -4 24 -1 29 14 3 11 3 22 0 25 -3 4 -6 -1 -6 -11 0 -12 -7 -16 -22 -14 -17
2 -23 9 -22 27 l1 25 -21 -27 c-27 -34 -34 -34 -39 1 -4 25 -4 25 -6 -5z"/>
<path d="M1951 4464 c-1 -30 0 -31 47 -31 38 -1 43 1 23 8 -16 6 -22 15 -19
27 4 13 -1 18 -16 20 -15 1 -17 -1 -7 -7 8 -5 11 -16 8 -25 -10 -25 -25 -19
-30 12 -4 26 -4 26 -6 -4z"/>
<path d="M2091 4464 c-1 -30 0 -31 47 -31 38 -1 43 1 23 8 -16 6 -22 15 -19
27 4 13 -1 18 -16 20 -15 1 -17 -1 -7 -7 8 -5 11 -16 8 -25 -10 -25 -25 -19
-30 12 -4 26 -4 26 -6 -4z"/>
<path d="M3331 4461 l-1 -33 21 23 20 24 -5 -25 c-3 -14 -3 -19 0 -12 7 15 34
16 34 0 0 -6 2 -9 5 -6 4 3 3 17 0 31 -5 18 -13 24 -30 23 -13 0 -21 -4 -19
-8 2 -4 0 -9 -5 -12 -5 -4 -12 2 -14 11 -3 10 -5 3 -6 -16z"/>
<path d="M3432 4460 c0 -19 2 -29 5 -22 3 9 9 10 17 3 8 -7 11 -3 11 15 -1 13
-5 27 -10 31 -4 5 -5 3 -1 -4 3 -6 2 -14 -3 -17 -5 -4 -12 2 -14 11 -3 10 -5
2 -5 -17z"/>
<path d="M3492 4460 c0 -19 2 -27 5 -17 2 9 2 25 0 35 -3 9 -5 1 -5 -18z"/>
<path d="M3650 4477 c0 -9 6 -18 13 -20 9 -4 8 -8 -3 -16 -13 -9 -13 -11 3
-11 21 0 22 26 2 46 -13 14 -15 14 -15 1z"/>
<path d="M2061 4463 c-1 -6 -4 -20 -7 -30 -5 -17 -5 -17 6 0 6 10 9 23 6 30
-3 9 -5 9 -5 0z"/>
<path d="M3912 4445 c0 -16 2 -22 5 -12 2 9 2 23 0 30 -3 6 -5 -1 -5 -18z"/>
<path d="M1690 4396 c0 -31 6 -34 13 -6 3 11 1 23 -4 26 -5 3 -9 -6 -9 -20z"/>
<path d="M3912 4385 c0 -16 2 -22 5 -12 2 9 2 23 0 30 -3 6 -5 -1 -5 -18z"/>
<path d="M1693 4327 l2 -29 1115 1 c1272 0 1138 -1 1124 9 -6 4 -14 14 -17 22
-4 12 -6 11 -6 -2 -1 -17 -61 -18 -1105 -18 l-1105 0 -4 23 c-4 16 -5 14 -4
-6z"/>
<path d="M5010 4293 c0 -21 3 -24 9 -14 5 8 7 20 4 28 -8 21 -13 15 -13 -14z"/>
<path d="M1433 4303 c7 -6 108 -6 114 1 3 3 -23 5 -57 5 -34 0 -59 -3 -57 -6z"/>
<path d="M1560 4306 c0 -9 40 -13 46 -5 3 5 -6 9 -20 9 -14 0 -26 -2 -26 -4z"/>
<path d="M1633 4303 c9 -2 25 -2 35 0 9 3 1 5 -18 5 -19 0 -27 -2 -17 -5z"/>
<path d="M3963 4303 c9 -2 23 -2 30 0 6 3 -1 5 -18 5 -16 0 -22 -2 -12 -5z"/>
<path d="M4020 4301 c0 -4 11 -6 25 -3 14 2 25 6 25 8 0 2 -11 4 -25 4 -14 0
-25 -4 -25 -9z"/>
<path d="M4080 4306 c0 -2 14 -6 30 -8 17 -3 30 -1 30 4 0 4 -13 8 -30 8 -16
0 -30 -2 -30 -4z"/>
<path d="M4163 4303 c9 -2 23 -2 30 0 6 3 -1 5 -18 5 -16 0 -22 -2 -12 -5z"/>
<path d="M5012 4225 c0 -16 2 -22 5 -12 2 9 2 23 0 30 -3 6 -5 -1 -5 -18z"/>
<path d="M1363 4180 c0 -36 2 -50 4 -32 2 17 2 47 0 65 -2 17 -4 3 -4 -33z"/>
<path d="M5010 4160 c0 -16 2 -30 4 -30 2 0 6 14 8 30 3 17 1 30 -4 30 -4 0
-8 -13 -8 -30z"/>
<path d="M1716 4137 c6 -17 -11 -47 -27 -47 -5 0 -9 11 -9 25 0 14 -3 25 -7
25 -5 0 -8 -13 -8 -29 0 -23 5 -31 22 -34 12 -2 28 0 35 4 10 7 10 9 0 9 -10
0 -10 4 0 20 10 16 10 22 0 32 -11 11 -12 10 -6 -5z"/>
<path d="M1464 4126 c-9 -23 14 -56 33 -49 14 5 12 8 -7 15 -16 6 -21 14 -17
28 6 23 -1 27 -9 6z"/>
<path d="M1521 4111 c0 -19 0 -32 2 -30 1 2 10 14 20 26 14 16 15 23 6 29 -7
4 -10 3 -5 -4 3 -6 2 -13 -3 -16 -5 -4 -12 2 -14 11 -3 10 -5 3 -6 -16z"/>
<path d="M1601 4116 c-1 -21 -5 -27 -16 -22 -8 3 -15 1 -15 -3 0 -5 7 -12 15
-15 19 -7 28 13 22 46 -4 20 -4 19 -6 -6z"/>
<path d="M1755 4110 c0 -16 5 -30 11 -30 6 0 9 13 6 30 -2 17 -7 30 -11 30 -3
0 -6 -13 -6 -30z"/>
<path d="M1794 4128 c-4 -7 -2 -8 4 -4 7 4 12 3 12 -3 0 -5 -8 -12 -17 -14
-16 -4 -16 -5 -1 -6 9 0 18 -9 20 -18 2 -11 7 -5 14 18 10 31 9 35 -7 36 -10
1 -22 -3 -25 -9z"/>
<path d="M5010 4095 c0 -14 4 -25 9 -25 4 0 6 11 3 25 -2 14 -6 25 -8 25 -2 0
-4 -11 -4 -25z"/>
<path d="M1362 4080 c0 -19 2 -27 5 -17 2 9 2 25 0 35 -3 9 -5 1 -5 -18z"/>
<path d="M1830 4089 c0 -5 9 -9 20 -9 11 0 20 2 20 4 0 2 -9 6 -20 9 -11 3
-20 1 -20 -4z"/>
<path d="M5012 4025 c0 -16 2 -22 5 -12 2 9 2 23 0 30 -3 6 -5 -1 -5 -18z"/>
<path d="M1362 4015 c0 -16 2 -22 5 -12 2 9 2 23 0 30 -3 6 -5 -1 -5 -18z"/>
<path d="M1471 4003 c-1 -32 12 -52 24 -33 3 5 20 7 38 4 29 -4 30 -4 8 6 -15
7 -22 16 -19 28 4 13 -1 18 -16 20 -15 1 -17 -1 -7 -7 8 -5 11 -16 8 -25 -10
-25 -25 -19 -30 12 -4 26 -4 25 -6 -5z"/>
<path d="M1611 4003 c-1 -35 15 -43 37 -21 9 9 15 10 20 2 4 -6 17 -14 29 -18
16 -5 23 -2 28 14 4 12 4 24 1 27 -3 4 -6 -1 -6 -11 0 -12 -7 -16 -22 -14 -17
2 -23 9 -22 27 l1 25 -21 -27 c-27 -34 -34 -34 -39 1 -4 25 -4 25 -6 -5z"/>
<path d="M1761 4001 c-1 -31 1 -33 24 -27 14 4 25 2 25 -3 0 -5 10 -7 22 -3
l22 5 -23 9 c-16 5 -22 14 -19 26 4 13 -1 18 -16 20 -15 1 -17 -1 -7 -7 8 -5
11 -16 8 -25 -10 -25 -25 -19 -30 12 -4 24 -4 24 -6 -7z"/>
<path d="M3651 4001 l-1 -33 21 23 c19 23 20 23 14 2 -3 -12 -1 -24 4 -28 7
-3 8 0 5 9 -4 11 0 16 10 16 9 0 16 -5 16 -12 0 -6 2 -9 5 -6 4 3 3 17 0 31
-5 18 -13 24 -30 23 -13 0 -21 -4 -19 -8 2 -4 0 -9 -5 -12 -5 -4 -12 2 -14 11
-3 10 -5 3 -6 -16z"/>
<path d="M3752 4000 c0 -19 2 -29 5 -22 3 9 9 10 17 3 8 -7 11 -3 11 15 -1 13
-5 27 -10 31 -4 5 -5 3 -1 -4 3 -6 2 -14 -3 -17 -5 -4 -12 2 -14 11 -3 10 -5
2 -5 -17z"/>
<path d="M3809 3998 c-3 -22 -1 -34 4 -29 5 5 7 21 5 37 -3 27 -4 26 -9 -8z"/>
<path d="M3890 4017 c0 -9 6 -18 13 -20 9 -4 9 -8 -1 -15 -11 -7 -11 -10 2
-15 21 -8 22 29 1 49 -13 14 -15 14 -15 1z"/>
<path d="M3970 4017 c0 -9 6 -18 13 -20 9 -4 8 -8 -3 -16 -13 -9 -13 -11 3
-11 21 0 22 26 2 46 -13 14 -15 14 -15 1z"/>
<path d="M5279 3994 c-5 -15 -7 -29 -4 -32 3 -3 5 0 5 6 0 7 7 12 15 12 8 0
15 -5 15 -12 0 -6 2 -9 5 -6 9 8 -6 58 -16 58 -5 0 -14 -12 -20 -26z"/>
<path d="M5330 4010 c0 -5 5 -10 11 -10 5 0 7 5 4 10 -3 6 -8 10 -11 10 -2 0
-4 -4 -4 -10z"/>
<path d="M5359 4008 c0 -7 -2 -21 -4 -30 -2 -10 1 -18 6 -18 5 0 9 14 9 30 0
29 -9 44 -11 18z"/>
<path d="M5389 3994 c-5 -15 -7 -29 -4 -32 3 -3 5 0 5 6 0 7 7 12 15 12 8 0
15 -5 15 -12 0 -6 2 -9 5 -6 9 8 -6 58 -16 58 -5 0 -14 -12 -20 -26z"/>
<path d="M5441 3993 c-1 -25 3 -33 17 -33 11 0 13 3 6 8 -7 4 -14 18 -17 32
-4 21 -4 20 -6 -7z"/>
<path d="M5485 4010 c-20 -33 26 -65 53 -38 9 9 12 9 12 0 0 -7 10 -12 23 -11
14 0 17 2 7 6 -8 3 -25 17 -37 32 l-21 26 5 -28 c5 -24 3 -28 -13 -25 -12 2
-19 12 -18 26 1 24 -2 27 -11 12z"/>
<path d="M1581 4003 c-1 -6 -4 -20 -7 -30 -5 -17 -5 -17 6 0 6 10 9 23 6 30
-3 9 -5 9 -5 0z"/>
<path d="M3941 4003 c-1 -6 -4 -20 -7 -30 -5 -17 -5 -17 6 0 6 10 9 23 6 30
-3 9 -5 9 -5 0z"/>
<path d="M5010 3963 c0 -18 2 -33 4 -33 9 0 13 39 5 51 -6 10 -9 4 -9 -18z"/>
<path d="M1362 3950 c0 -19 2 -27 5 -17 2 9 2 25 0 35 -3 9 -5 1 -5 -18z"/>
<path d="M5012 3895 c0 -16 2 -22 5 -12 2 9 2 23 0 30 -3 6 -5 -1 -5 -18z"/>
<path d="M5531 3876 c-10 -12 -8 -17 11 -27 l23 -13 -25 -7 c-23 -7 -24 -7 -3
-8 13 -1 27 8 34 20 6 12 7 19 1 15 -6 -3 -17 -3 -26 0 -13 5 -14 9 -5 20 6 8
9 14 6 14 -2 0 -10 -6 -16 -14z"/>
<path d="M5290 3850 c0 -16 4 -30 8 -30 5 0 7 14 4 30 -2 17 -6 30 -8 30 -2 0
-4 -13 -4 -30z"/>
<path d="M5320 3870 c0 -5 5 -10 11 -10 5 0 7 5 4 10 -3 6 -8 10 -11 10 -2 0
-4 -4 -4 -10z"/>
<path d="M5347 3861 c-2 -10 -1 -25 4 -32 6 -10 9 -4 9 19 0 36 -5 42 -13 13z"/>
<path d="M5381 3853 l-1 -33 20 20 c22 22 26 40 9 40 -5 0 -8 -4 -4 -9 3 -5 1
-12 -4 -15 -5 -4 -12 2 -14 11 -3 10 -5 3 -6 -14z"/>
<path d="M5450 3856 c0 -21 -4 -27 -15 -22 -8 3 -15 1 -15 -4 0 -6 8 -10 19
-10 21 0 33 31 20 51 -6 10 -9 5 -9 -15z"/>
<path d="M5492 3850 c0 -19 2 -27 5 -17 2 9 2 25 0 35 -3 9 -5 1 -5 -18z"/>
<path d="M5014 3846 c-3 -8 -4 -23 -2 -33 3 -11 6 -6 9 15 6 34 2 42 -7 18z"/>
<path d="M1362 3815 c0 -16 2 -22 5 -12 2 9 2 23 0 30 -3 6 -5 -1 -5 -18z"/>
<path d="M5010 3765 c0 -14 4 -25 9 -25 4 0 6 11 3 25 -2 14 -6 25 -8 25 -2 0
-4 -11 -4 -25z"/>
<path d="M1362 3750 c0 -19 2 -27 5 -17 2 9 2 25 0 35 -3 9 -5 1 -5 -18z"/>
<path d="M5012 3695 c0 -16 2 -22 5 -12 2 9 2 23 0 30 -3 6 -5 -1 -5 -18z"/>
<path d="M1362 3685 c0 -16 2 -22 5 -12 2 9 2 23 0 30 -3 6 -5 -1 -5 -18z"/>
<path d="M9512 3658 c-17 -17 -15 -81 4 -104 15 -19 16 -19 8 1 -14 40 -16 73
-5 94 13 24 11 27 -7 9z"/>
<path d="M9555 3661 c-3 -6 0 -8 8 -5 26 10 30 -17 8 -47 -28 -37 -27 -39 12
-38 31 2 31 2 3 6 l-28 5 22 23 c12 13 20 31 18 41 -4 21 -33 31 -43 15z"/>
<path d="M9675 3661 c-3 -6 0 -8 8 -5 26 10 30 -17 8 -47 -28 -37 -27 -39 12
-38 31 2 31 2 3 6 l-28 5 22 23 c12 13 20 31 18 41 -4 21 -33 31 -43 15z"/>
<path d="M9759 3653 c14 -27 15 -80 1 -88 -5 -3 -10 -11 -10 -18 0 -26 23 13
30 52 6 34 4 43 -13 58 -19 18 -20 17 -8 -4z"/>
<path d="M1362 3620 c0 -19 2 -27 5 -17 2 9 2 25 0 35 -3 9 -5 1 -5 -18z"/>
<path d="M5010 3626 c0 -31 6 -34 13 -6 3 11 1 23 -4 26 -5 3 -9 -6 -9 -20z"/>
<path d="M9940 3640 l-55 -7 63 -1 c36 -1 62 2 62 8 0 6 -3 9 -7 8 -5 -1 -33
-4 -63 -8z"/>
<path d="M9638 3613 c7 -3 16 -2 19 1 4 3 -2 6 -13 5 -11 0 -14 -3 -6 -6z"/>
<path d="M5012 3565 c0 -16 2 -22 5 -12 2 9 2 23 0 30 -3 6 -5 -1 -5 -18z"/>
<path d="M1362 3550 c0 -19 2 -27 5 -17 2 9 2 25 0 35 -3 9 -5 1 -5 -18z"/>
<path d="M1362 3485 c0 -16 2 -22 5 -12 2 9 2 23 0 30 -3 6 -5 -1 -5 -18z"/>
<path d="M10292 3458 c-17 -17 -15 -81 4 -104 15 -19 16 -19 8 1 -14 40 -16
73 -5 94 13 24 11 27 -7 9z"/>
<path d="M10335 3461 c-3 -6 0 -8 8 -5 26 10 30 -17 8 -47 -28 -37 -27 -39 12
-38 31 2 31 2 3 6 l-28 5 22 23 c12 13 20 31 18 41 -4 21 -33 31 -43 15z"/>
<path d="M10541 3456 c-7 -8 -11 -30 -9 -48 2 -25 8 -34 25 -36 14 -2 23 3 28
17 8 27 -1 41 -28 41 l-22 1 24 19 c16 14 19 20 8 20 -8 0 -20 -6 -26 -14z
m29 -58 c0 -11 -5 -18 -12 -16 -19 7 -21 35 -3 35 8 0 15 -9 15 -19z"/>
<path d="M10618 3453 c15 -27 16 -80 2 -88 -5 -3 -10 -12 -10 -18 0 -7 7 -3
15 7 20 27 19 90 -2 107 -15 13 -15 12 -5 -8z"/>
<path d="M5010 3429 c0 -16 4 -28 9 -25 8 5 3 56 -5 56 -2 0 -4 -14 -4 -31z"/>
<path d="M10471 3455 c-2 -5 -2 -23 -1 -39 1 -16 -4 -33 -12 -37 -9 -6 -3 -9
17 -9 17 0 25 4 18 8 -6 4 -13 25 -16 47 -2 22 -5 36 -6 30z"/>
<path d="M1362 3420 c0 -19 2 -27 5 -17 2 9 2 25 0 35 -3 9 -5 1 -5 -18z"/>
<path d="M8072 3438 c-17 -17 -15 -81 4 -104 15 -19 16 -19 8 1 -14 40 -16 73
-5 94 13 24 11 27 -7 9z"/>
<path d="M8115 3441 c-3 -6 0 -8 8 -5 26 10 30 -17 8 -47 -28 -37 -27 -39 12
-38 31 2 31 2 3 6 l-28 5 22 23 c12 13 20 31 18 41 -4 21 -33 31 -43 15z"/>
<path d="M8398 3433 c15 -27 16 -80 2 -88 -5 -3 -10 -12 -10 -18 0 -7 7 -3 15
7 20 27 19 90 -2 107 -15 13 -15 12 -5 -8z"/>
<path d="M5121 3425 c10 -11 19 -27 20 -37 3 -13 7 -12 22 7 12 17 14 26 5 31
-6 4 -8 3 -4 -4 3 -6 2 -13 -4 -17 -5 -3 -10 2 -10 11 0 10 -3 14 -7 11 -3 -4
-13 -1 -22 5 -14 11 -14 10 0 -7z"/>
<path d="M5336 3426 c6 -16 -11 -46 -27 -46 -5 0 -9 11 -9 25 0 14 -3 25 -7
25 -5 0 -8 -13 -8 -30 0 -28 3 -30 35 -29 19 0 29 3 22 6 -10 4 -10 9 3 23 14
15 14 18 0 30 -13 11 -14 10 -9 -4z"/>
<path d="M8240 3425 c-9 -11 -10 -16 -2 -11 8 5 12 -1 12 -23 0 -16 -6 -32
-12 -34 -7 -3 1 -6 17 -6 17 0 25 3 18 7 -6 4 -13 25 -15 46 -3 37 -4 38 -18
21z"/>
<path d="M8329 3435 c-1 -5 0 -23 1 -39 1 -16 -4 -33 -12 -37 -9 -6 -3 -9 17
-9 21 0 26 3 16 9 -8 5 -12 19 -9 34 3 14 1 32 -3 39 -5 7 -9 9 -10 3z"/>
<path d="M5085 3420 c-12 -19 6 -50 28 -49 21 0 21 1 -2 10 -17 7 -22 15 -18
29 6 22 2 26 -8 10z"/>
<path d="M5220 3404 c0 -19 -4 -25 -15 -20 -8 3 -15 1 -15 -4 0 -6 9 -10 20
-10 16 0 20 7 20 30 0 17 -2 30 -5 30 -3 0 -5 -12 -5 -26z"/>
<path d="M5375 3400 c0 -16 5 -30 11 -30 6 0 9 13 6 30 -2 17 -7 30 -11 30 -3
0 -6 -13 -6 -30z"/>
<path d="M5414 3418 c-4 -7 -3 -8 4 -4 7 4 12 2 12 -3 0 -6 -8 -11 -17 -12
-14 0 -15 -2 -3 -6 8 -3 18 -11 22 -16 4 -6 10 1 13 16 4 16 12 24 19 20 6 -3
8 -2 3 2 -12 14 -45 16 -53 3z"/>
<path d="M10418 3413 c6 -2 18 -2 25 0 6 3 1 5 -13 5 -14 0 -19 -2 -12 -5z"/>
<path d="M2336 3387 c4 -11 0 -25 -11 -37 -18 -19 -17 -20 6 -19 13 0 19 3 12
6 -10 3 -10 9 0 23 9 15 9 22 -1 32 -11 11 -12 10 -6 -5z"/>
<path d="M2941 3386 c-10 -12 -8 -17 11 -27 l23 -13 -25 -7 -25 -8 24 2 c31 3
38 23 11 32 -17 5 -19 10 -9 21 6 8 9 14 6 14 -2 0 -10 -6 -16 -14z"/>
<path d="M8198 3393 c7 -3 16 -2 19 1 4 3 -2 6 -13 5 -11 0 -14 -3 -6 -6z"/>
<path d="M2374 3378 c-4 -7 -3 -8 4 -4 7 4 12 2 12 -3 0 -6 -8 -11 -17 -12
-14 0 -15 -2 -3 -6 8 -3 18 -11 22 -17 4 -6 8 3 8 19 l1 30 13 -30 14 -30 11
29 c6 16 10 31 7 33 -2 3 -7 -6 -12 -19 l-7 -23 -8 23 c-9 24 -33 29 -45 10z"/>
<path d="M2471 3364 c-1 -30 0 -31 47 -31 38 -1 43 1 23 8 -16 6 -22 15 -19
27 4 13 -1 18 -16 20 -15 1 -17 -1 -7 -7 8 -5 11 -16 8 -25 -10 -25 -25 -19
-30 12 -4 26 -4 26 -6 -4z"/>
<path d="M2605 3380 c-12 -20 6 -51 28 -48 23 3 35 34 19 50 -6 6 -8 0 -4 -17
4 -22 1 -26 -14 -23 -12 2 -19 12 -18 26 1 24 -2 27 -11 12z"/>
<path d="M2710 3364 c0 -19 -4 -25 -15 -20 -8 3 -15 1 -15 -4 0 -6 9 -10 20
-10 16 0 20 7 20 30 0 17 -2 30 -5 30 -3 0 -5 -12 -5 -26z"/>
<path d="M2742 3360 c0 -19 2 -27 5 -17 2 9 2 25 0 35 -3 9 -5 1 -5 -18z"/>
<path d="M2791 3363 l-1 -33 20 20 c22 22 26 40 9 40 -5 0 -8 -4 -4 -9 3 -5 1
-12 -4 -15 -5 -4 -12 2 -14 11 -3 10 -5 3 -6 -14z"/>
<path d="M2860 3364 c0 -19 -4 -25 -15 -20 -8 3 -15 1 -15 -4 0 -6 9 -10 20
-10 16 0 20 7 20 30 0 17 -2 30 -5 30 -3 0 -5 -12 -5 -26z"/>
<path d="M2902 3360 c0 -19 2 -27 5 -17 2 9 2 25 0 35 -3 9 -5 1 -5 -18z"/>
<path d="M5012 3365 c0 -16 2 -22 5 -12 2 9 2 23 0 30 -3 6 -5 -1 -5 -18z"/>
<path d="M5450 3379 c0 -5 9 -9 20 -9 11 0 20 2 20 4 0 2 -9 6 -20 9 -11 3
-20 1 -20 -4z"/>
<path d="M1362 3350 c0 -19 2 -27 5 -17 2 9 2 25 0 35 -3 9 -5 1 -5 -18z"/>
<path d="M5345 3300 c-5 -25 -11 -31 -28 -28 -16 2 -22 10 -21 27 l1 25 -21
-27 c-12 -15 -25 -27 -29 -27 -14 0 -6 29 11 39 15 9 14 10 -5 8 -18 -1 -23
-7 -23 -29 0 -30 17 -37 38 -16 9 9 15 10 20 2 4 -6 17 -13 29 -16 18 -5 24 0
34 29 6 19 9 37 6 39 -3 3 -8 -9 -12 -26z"/>
<path d="M5456 3317 c3 -10 9 -15 12 -12 3 3 0 11 -7 18 -10 9 -11 8 -5 -6z"/>
<path d="M5010 3296 c0 -31 6 -34 13 -6 3 11 1 23 -4 26 -5 3 -9 -6 -9 -20z"/>
<path d="M5091 3294 c-1 -30 0 -31 47 -31 38 -1 43 1 23 8 -16 6 -22 15 -19
27 4 13 -1 18 -16 20 -15 1 -17 -1 -7 -7 8 -5 11 -16 8 -25 -10 -25 -25 -19
-30 12 -4 26 -4 26 -6 -4z"/>
<path d="M5381 3294 c-1 -30 0 -31 47 -31 38 -1 43 1 23 8 -16 6 -22 15 -19
27 4 13 -1 18 -16 20 -15 1 -17 -1 -7 -7 8 -5 11 -16 8 -25 -10 -25 -25 -19
-30 12 -4 26 -4 26 -6 -4z"/>
<path d="M1362 3285 c0 -16 2 -22 5 -12 2 9 2 23 0 30 -3 6 -5 -1 -5 -18z"/>
<path d="M5201 3293 c-1 -6 -4 -20 -7 -30 -5 -17 -5 -17 6 0 6 10 9 23 6 30
-3 9 -5 9 -5 0z"/>
<path d="M5011 3200 c0 -34 3 -59 6 -57 6 7 6 108 -1 114 -3 3 -5 -23 -5 -57z"/>
<path d="M1362 3220 c0 -19 2 -27 5 -17 2 9 2 25 0 35 -3 9 -5 1 -5 -18z"/>
<path d="M5091 3181 l-1 -33 21 23 20 24 -5 -25 c-3 -14 -3 -19 0 -12 7 15 34
16 34 0 0 -6 2 -9 5 -6 4 3 3 17 0 31 -5 18 -13 24 -30 23 -13 0 -21 -4 -19
-8 2 -4 0 -9 -5 -12 -5 -4 -12 2 -14 11 -3 10 -5 3 -6 -16z"/>
<path d="M5192 3180 c0 -19 2 -29 5 -22 3 9 9 10 17 3 8 -7 11 -3 11 15 -1 13
-5 27 -10 31 -4 5 -5 3 -1 -4 3 -6 2 -14 -3 -17 -5 -4 -12 2 -14 11 -3 10 -5
2 -5 -17z"/>
<path d="M5247 3203 c-2 -5 -1 -19 4 -33 7 -23 7 -23 8 8 1 31 -3 40 -12 25z"/>
<path d="M5334 3198 c-4 -7 -3 -8 4 -4 7 4 12 2 12 -3 0 -6 -8 -11 -17 -12
-14 0 -15 -2 -3 -6 8 -3 18 -11 22 -17 4 -6 8 4 8 22 0 32 -13 42 -26 20z"/>
<path d="M5410 3197 c0 -9 6 -18 13 -20 9 -4 8 -8 -3 -16 -13 -9 -13 -11 3
-11 21 0 22 26 2 46 -13 14 -15 14 -15 1z"/>
<path d="M5381 3183 c-1 -6 -4 -20 -7 -30 -5 -17 -5 -17 6 0 6 10 9 23 6 30
-3 9 -5 9 -5 0z"/>
<path d="M1362 3150 c0 -19 2 -27 5 -17 2 9 2 25 0 35 -3 9 -5 1 -5 -18z"/>
<path d="M5011 3099 c-1 -23 3 -25 42 -26 40 -1 40 -1 8 6 -21 3 -37 14 -42
26 -7 18 -8 17 -8 -6z"/>
<path d="M1362 3085 c0 -16 2 -22 5 -12 2 9 2 23 0 30 -3 6 -5 -1 -5 -18z"/>
<path d="M5115 3079 c-16 -6 -14 -8 13 -8 33 -1 41 4 20 12 -7 2 -22 1 -33 -4z"/>
<path d="M5234 3079 c-3 -5 9 -9 25 -9 17 0 31 2 31 4 0 8 -51 13 -56 5z"/>
<path d="M5325 3080 l-30 -8 33 -1 c17 0 32 4 32 9 0 6 -1 9 -2 9 -2 -1 -16
-5 -33 -9z"/>
<path d="M5445 3079 c-16 -6 -14 -8 13 -8 33 -1 41 4 20 12 -7 2 -22 1 -33 -4z"/>
<path d="M5570 3079 c0 -5 11 -9 25 -9 14 0 25 2 25 4 0 2 -11 6 -25 8 -14 3
-25 1 -25 -3z"/>
<path d="M5655 3080 l-30 -8 33 -1 c17 0 32 4 32 9 0 6 -1 9 -2 9 -2 -1 -16
-5 -33 -9z"/>
<path d="M5779 3079 c-10 -6 -7 -9 14 -9 29 0 35 5 14 13 -8 3 -20 1 -28 -4z"/>
<path d="M5900 3079 c0 -5 11 -9 25 -9 14 0 25 2 25 4 0 2 -11 6 -25 8 -14 3
-25 1 -25 -3z"/>
<path d="M5183 3073 c9 -2 23 -2 30 0 6 3 -1 5 -18 5 -16 0 -22 -2 -12 -5z"/>
<path d="M5383 3073 c9 -2 23 -2 30 0 6 3 -1 5 -18 5 -16 0 -22 -2 -12 -5z"/>
<path d="M5513 3073 c9 -2 23 -2 30 0 6 3 -1 5 -18 5 -16 0 -22 -2 -12 -5z"/>
<path d="M5713 3073 c9 -2 23 -2 30 0 6 3 -1 5 -18 5 -16 0 -22 -2 -12 -5z"/>
<path d="M5843 3073 c9 -2 25 -2 35 0 9 3 1 5 -18 5 -19 0 -27 -2 -17 -5z"/>
<path d="M1422 2558 c-17 -17 -15 -81 4 -104 15 -19 16 -19 8 1 -14 40 -16 73
-5 94 13 24 11 27 -7 9z"/>
<path d="M1475 2561 c-3 -6 0 -8 8 -5 26 10 30 -17 8 -47 -28 -37 -27 -39 12
-38 31 2 31 2 3 6 l-28 5 22 23 c12 13 20 31 18 41 -4 21 -33 31 -43 15z"/>
<path d="M1597 2563 c-4 -3 -7 -14 -7 -24 0 -10 -9 -19 -22 -22 -22 -4 -22 -4
-2 -6 13 0 24 -10 27 -21 7 -28 35 -25 49 5 19 41 -18 96 -45 68z m33 -49 c0
-24 -5 -34 -15 -34 -10 0 -15 10 -15 33 0 19 3 37 6 40 13 13 24 -5 24 -39z"/>
<path d="M1679 2553 c14 -27 14 -80 1 -88 -5 -3 -10 -11 -10 -18 0 -23 22 11
30 47 6 29 4 41 -12 59 l-19 22 10 -22z"/>
<path d="M3202 2448 c-17 -17 -15 -81 4 -104 15 -19 16 -19 8 1 -14 40 -16 73
-5 94 13 24 11 27 -7 9z"/>
<path d="M3257 2433 c-28 -30 -27 -43 4 -43 10 0 19 -8 21 -17 7 -33 14 18 8
55 l-5 34 -28 -29z m21 -15 c-2 -6 -10 -14 -16 -16 -7 -2 -10 2 -6 12 7 18 28
22 22 4z"/>
<path d="M3449 2443 c14 -27 14 -80 1 -88 -5 -3 -10 -11 -10 -18 0 -23 22 11
30 47 6 29 4 41 -12 59 l-19 22 10 -22z"/>
<path d="M3381 2445 c-2 -5 -2 -23 -1 -39 1 -16 -4 -33 -12 -37 -9 -6 -3 -9
17 -9 17 0 25 4 18 8 -6 4 -13 25 -16 47 -2 22 -5 36 -6 30z"/>
<path d="M3328 2403 c7 -3 16 -2 19 1 4 3 -2 6 -13 5 -11 0 -14 -3 -6 -6z"/>
<path d="M3532 2328 c-17 -17 -15 -81 4 -104 15 -19 16 -19 8 1 -14 40 -16 73
-5 94 13 24 11 27 -7 9z"/>
<path d="M3709 2316 c-14 -13 -34 -26 -45 -29 -12 -2 -4 -7 23 -12 27 -5 43
-13 45 -24 7 -30 14 22 8 57 l-5 32 -26 -24z m21 -15 c0 -12 -20 -25 -27 -18
-7 7 6 27 18 27 5 0 9 -4 9 -9z"/>
<path d="M3779 2323 c14 -27 15 -80 1 -88 -5 -3 -10 -11 -10 -18 0 -26 23 13
30 52 6 34 4 43 -13 58 -19 18 -20 17 -8 -4z"/>
<path d="M3588 2325 c-4 -4 -4 -21 -1 -37 4 -20 1 -33 -8 -39 -10 -6 -5 -9 16
-9 17 0 25 4 18 8 -6 4 -13 25 -15 46 -2 21 -6 35 -10 31z"/>
<path d="M1652 2218 c-17 -17 -15 -81 4 -104 15 -19 16 -19 8 1 -14 40 -16 73
-5 94 13 24 11 27 -7 9z"/>
<path d="M1695 2221 c-3 -6 0 -8 8 -5 26 10 30 -17 8 -47 -28 -37 -27 -39 12
-38 31 2 31 2 3 6 l-28 5 22 23 c12 13 20 31 18 41 -4 21 -33 31 -43 15z"/>
<path d="M1817 2223 c-4 -3 -7 -14 -7 -24 0 -10 -9 -19 -22 -22 -22 -4 -22 -4
-2 -6 13 0 24 -10 27 -21 7 -28 35 -25 49 5 19 41 -18 96 -45 68z m33 -49 c0
-24 -5 -34 -15 -34 -10 0 -15 10 -15 33 0 19 3 37 6 40 13 13 24 -5 24 -39z"/>
<path d="M1899 2213 c14 -27 15 -80 1 -88 -5 -3 -10 -11 -10 -18 0 -26 23 13
30 52 6 34 4 43 -13 58 -19 18 -20 17 -8 -4z"/>
<path d="M6950 6185 l0 -1225 1943 2 1942 3 3 1223 2 1222 -1945 0 -1945 0 0
-1225z m3870 -1 l0 -1214 -1930 0 -1930 0 0 1214 0 1214 1930 0 1930 0 0
-1214z"/>
<path d="M7030 6185 l0 -1165 1885 0 1885 0 0 1165 0 1165 -1885 0 -1885 0 0
-1165z m3758 0 l0 -1155 -369 0 -369 0 -2 108 -2 107 -3 -107 -4 -108 -259 0
-260 0 -2 133 -2 132 -3 -132 -4 -133 -789 0 -790 0 -2 133 -2 132 -3 -132 -4
-133 -439 0 -440 0 0 1155 0 1155 1874 0 1874 0 0 -1155z"/>
<path d="M7177 7263 c-15 -14 -6 -40 19 -51 28 -13 23 -37 -7 -29 -11 3 -19 1
-19 -4 0 -5 15 -9 34 -7 27 1 32 5 28 21 -3 10 -16 24 -29 30 -28 13 -25 33 6
30 13 -2 20 1 16 7 -7 11 -38 13 -48 3z"/>
<path d="M7255 7220 c0 -27 5 -50 10 -50 6 0 10 23 10 50 0 28 -4 50 -10 50
-5 0 -10 -22 -10 -50z"/>
<path d="M7290 7220 l0 -50 33 1 c30 2 30 2 5 6 -19 3 -28 10 -28 23 0 13 9
20 28 23 l27 4 -28 2 c-34 1 -32 22 4 32 21 6 21 7 -8 8 -33 1 -33 1 -33 -49z"/>
<path d="M7371 7218 c2 -52 2 -53 8 -13 6 35 8 37 14 18 5 -13 12 -23 16 -23
4 0 13 10 19 23 10 20 11 19 11 -15 1 -21 5 -38 9 -38 4 0 6 17 4 38 -6 66 -7
68 -24 37 l-16 -30 -13 28 c-19 42 -29 32 -28 -25z"/>
<path d="M7470 7220 l0 -50 33 1 c30 2 30 2 5 6 -19 3 -28 10 -28 23 0 13 9
20 28 23 l27 4 -28 2 c-34 1 -32 22 4 32 21 6 21 7 -8 8 -33 1 -33 1 -33 -49z"/>
<path d="M7550 7220 c0 -27 4 -50 8 -50 4 0 6 16 4 36 -5 43 9 40 28 -6 19
-45 30 -36 29 23 -2 52 -2 52 -8 12 l-7 -40 -19 38 c-10 20 -22 37 -27 37 -4
0 -8 -22 -8 -50z"/>
<path d="M7647 7263 c-15 -14 -6 -40 19 -51 28 -13 23 -37 -7 -29 -11 3 -19 1
-19 -5 0 -5 12 -8 27 -6 38 4 42 34 8 50 -30 14 -28 34 4 31 13 -2 20 1 16 7
-7 11 -38 13 -48 3z"/>
<path d="M9955 7260 c-3 -5 3 -15 15 -22 25 -16 25 -25 3 -31 -14 -4 -12 -5 5
-6 16 -1 22 5 22 19 0 11 -7 20 -15 20 -21 0 -19 18 3 23 13 4 12 5 -5 6 -12
0 -25 -3 -28 -9z"/>
<path d="M10020 7235 c0 -19 3 -35 8 -35 4 0 7 16 7 35 0 19 -3 35 -7 35 -5 0
-8 -16 -8 -35z"/>
<path d="M10051 7235 c1 -40 1 -40 10 -10 5 18 5 33 -1 39 -7 7 -10 -4 -9 -29z"/>
<path d="M10097 7238 c8 -46 13 -48 13 -5 0 21 -4 37 -10 37 -5 0 -7 -14 -3
-32z"/>
<path d="M10131 7238 c-6 -17 -9 -34 -6 -36 3 -3 5 0 5 6 0 7 9 12 20 12 11 0
20 -5 20 -12 0 -6 2 -9 5 -6 7 7 -15 68 -25 68 -4 0 -13 -14 -19 -32z m29 2
c0 -5 -4 -10 -10 -10 -5 0 -10 5 -10 10 0 6 5 10 10 10 6 0 10 -4 10 -10z"/>
<path d="M10177 7262 c6 -4 13 -21 16 -37 l4 -30 2 32 c0 21 7 33 19 36 9 3 1
5 -18 6 -19 0 -30 -3 -23 -7z"/>
<path d="M10240 7235 c0 -19 3 -35 8 -35 4 0 7 16 7 35 0 19 -3 35 -7 35 -5 0
-8 -16 -8 -35z"/>
<path d="M10265 7250 c-8 -26 11 -50 39 -49 19 2 19 2 -2 6 -28 6 -39 28 -22
48 8 9 8 15 2 15 -6 0 -14 -9 -17 -20z"/>
<path d="M10363 7235 c0 -22 2 -30 4 -17 2 12 2 30 0 40 -3 9 -5 -1 -4 -23z"/>
<path d="M10403 7235 c0 -22 2 -30 4 -17 2 12 2 30 0 40 -3 9 -5 -1 -4 -23z"/>
<path d="M10431 7235 c1 -40 1 -40 10 -10 5 18 5 33 -1 39 -7 7 -10 -4 -9 -29z"/>
<path d="M10477 7238 c8 -46 13 -48 13 -5 0 21 -4 37 -10 37 -5 0 -7 -14 -3
-32z"/>
<path d="M10500 7235 c0 -19 3 -35 8 -35 4 0 7 16 7 35 0 19 -3 35 -7 35 -5 0
-8 -16 -8 -35z"/>
<path d="M10077 7243 c-4 -3 -7 -11 -7 -17 0 -6 5 -5 12 2 6 6 9 14 7 17 -3 3
-9 2 -12 -2z"/>
<path d="M10457 7243 c-4 -3 -7 -11 -7 -17 0 -6 5 -5 12 2 6 6 9 14 7 17 -3 3
-9 2 -12 -2z"/>
<path d="M7580 6240 l0 -780 1335 0 1335 0 0 780 0 780 -1335 0 -1335 0 0
-780z m2660 0 l0 -770 -1325 0 -1325 0 0 770 0 770 1325 0 1325 0 0 -770z"/>
<path d="M8015 5239 c0 -32 3 -59 8 -59 4 0 7 24 7 54 0 30 -3 57 -7 59 -5 3
-8 -21 -8 -54z"/>
<path d="M8555 5290 c-3 -5 -1 -10 4 -10 6 0 11 5 11 10 0 6 -2 10 -4 10 -3 0
-8 -4 -11 -10z"/>
<path d="M6384 4625 c-7 -18 3 -35 22 -35 23 0 16 -28 -8 -33 -20 -5 -20 -5 2
-4 32 2 41 36 11 44 -12 3 -21 12 -21 20 0 10 7 14 20 10 11 -3 20 -1 20 4 0
15 -40 10 -46 -6z"/>
<path d="M6455 4595 c0 -25 5 -45 10 -45 6 0 10 20 10 45 0 25 -4 45 -10 45
-5 0 -10 -20 -10 -45z"/>
<path d="M6490 4595 c0 -43 1 -45 28 -44 23 2 24 2 5 6 -13 2 -23 11 -23 18 0
7 10 16 23 18 l22 4 -22 2 c-13 0 -23 7 -23 15 0 8 10 17 23 19 19 4 18 4 -5
6 -27 1 -28 -1 -28 -44z"/>
<path d="M6561 4593 c2 -45 2 -46 8 -13 5 27 8 31 14 17 7 -18 27 -15 27 4 0
6 -4 8 -9 4 -5 -3 -12 4 -16 15 -12 36 -25 21 -24 -27z"/>
<path d="M6617 4633 c-7 -13 5 -83 14 -83 12 0 12 77 0 85 -5 3 -12 2 -14 -2z"/>
<path d="M6650 4595 c0 -43 1 -45 28 -44 23 2 24 2 5 6 -13 2 -23 11 -23 18 0
7 10 16 23 18 l22 4 -22 2 c-13 0 -23 7 -23 15 0 8 10 17 23 19 19 4 18 4 -5
6 -27 1 -28 -1 -28 -44z"/>
<path d="M6711 4593 l2 -48 6 40 6 40 14 -33 c21 -50 31 -48 30 5 -2 45 -2 46
-8 13 l-6 -35 -14 33 c-19 46 -31 40 -30 -15z"/>
<path d="M6790 4619 c0 -12 8 -23 20 -26 26 -7 26 -30 0 -36 -17 -4 -17 -4 2
-3 30 1 37 35 9 43 -12 3 -21 12 -21 20 0 10 7 14 20 10 11 -3 20 -1 20 4 0 5
-11 9 -25 9 -19 0 -25 -5 -25 -21z"/>
<path d="M6894 4625 c-7 -18 3 -35 22 -35 23 0 16 -28 -8 -33 -20 -5 -20 -5 2
-4 32 2 41 36 11 44 -12 3 -21 12 -21 20 0 10 7 14 20 10 11 -3 20 -1 20 4 0
15 -40 10 -46 -6z"/>
<path d="M7158 4629 c-2 -6 -2 -26 0 -45 3 -24 9 -34 21 -33 10 0 11 2 4 6
-15 5 -18 50 -4 55 5 2 3 8 -4 15 -9 9 -15 9 -17 2z"/>
<path d="M7323 4595 c0 -27 2 -40 4 -27 3 13 12 22 23 22 11 0 20 -9 23 -22 2
-13 4 0 4 27 0 28 -2 40 -4 28 -3 -14 -12 -23 -23 -23 -11 0 -20 9 -23 23 -2
12 -4 0 -4 -28z"/>
<path d="M7401 4593 c2 -45 2 -46 8 -13 5 27 8 31 14 17 7 -18 27 -15 27 4 0
6 -4 8 -9 4 -5 -3 -12 4 -16 15 -12 36 -25 21 -24 -27z"/>
<path d="M7453 4619 c4 -13 7 -34 7 -46 0 -13 5 -23 11 -23 16 0 7 83 -10 88
-10 4 -12 -1 -8 -19z"/>
<path d="M7495 4595 c0 -25 5 -45 10 -45 6 0 10 20 10 45 0 25 -4 45 -10 45
-5 0 -10 -20 -10 -45z"/>
<path d="M6963 4585 c0 -22 2 -30 4 -17 2 12 2 30 0 40 -3 9 -5 -1 -4 -23z"/>
<path d="M6991 4580 l1 -35 7 30 c3 17 11 30 16 30 5 0 13 -13 16 -30 7 -30 7
-30 8 -3 2 39 19 44 24 6 l4 -33 1 37 c2 37 2 37 -38 35 -39 -1 -40 -2 -39
-37z"/>
<path d="M7103 4613 c23 -6 22 -19 -4 -26 -29 -8 -19 -31 14 -35 23 -3 27 1
27 20 0 28 -17 48 -39 47 -12 -1 -12 -2 2 -6z m22 -43 c-3 -5 -10 -10 -16 -10
-5 0 -9 5 -9 10 0 6 7 10 16 10 8 0 12 -4 9 -10z"/>
<path d="M7203 4585 c0 -22 2 -30 4 -17 2 12 2 30 0 40 -3 9 -5 -1 -4 -23z"/>
<path d="M7230 4599 c-13 -24 2 -50 29 -48 13 1 13 2 -1 6 -11 3 -18 14 -18
28 0 14 7 25 18 28 16 4 16 5 0 6 -10 0 -22 -8 -28 -20z"/>
<path d="M6392 4501 c-8 -5 -12 -22 -10 -42 2 -26 8 -34 23 -34 26 0 33 40 8
49 -14 6 -16 5 -5 -5 17 -18 15 -39 -3 -39 -22 0 -20 56 3 69 9 6 13 10 7 11
-5 0 -16 -4 -23 -9z"/>
<path d="M6461 4488 c-4 -13 -12 -34 -16 -48 -6 -20 -5 -23 6 -12 16 15 49 16
49 0 0 -6 3 -9 6 -5 8 7 -14 75 -27 82 -5 4 -13 -4 -18 -17z m22 -13 c4 -8 2
-17 -3 -20 -6 -4 -10 3 -10 14 0 25 6 27 13 6z"/>
<path d="M6515 4489 c14 -45 24 -69 30 -69 6 0 35 69 34 84 0 6 -8 -7 -18 -29
l-18 -40 -7 32 c-4 18 -12 36 -18 39 -7 4 -8 -2 -3 -17z"/>
<path d="M6613 4503 c21 -5 22 -36 2 -53 -23 -19 -18 -30 13 -29 24 2 25 2 4
6 l-24 5 22 23 c27 28 20 55 -12 54 -17 -1 -18 -2 -5 -6z"/>
<path d="M6691 4505 c-2 -5 -2 -23 -1 -39 1 -16 -4 -33 -12 -37 -9 -6 -3 -9
17 -9 17 0 25 4 18 8 -6 4 -13 25 -16 47 -2 22 -5 36 -6 30z"/>
<path d="M6753 4503 c21 -5 22 -36 2 -53 -23 -19 -18 -30 13 -29 24 2 25 2 4
6 l-24 5 22 23 c27 28 20 55 -12 54 -17 -1 -18 -2 -5 -6z"/>
<path d="M6819 4500 c19 -8 21 -13 11 -25 -9 -10 -9 -15 -1 -15 19 0 12 -20
-11 -30 -23 -10 -23 -10 2 -7 22 2 25 7 25 42 0 35 -3 40 -25 42 l-25 3 24
-10z"/>
<path d="M6923 4503 c21 -5 22 -36 2 -53 -23 -19 -18 -30 13 -29 24 2 25 2 4
6 l-24 5 22 23 c27 28 20 55 -12 54 -17 -1 -18 -2 -5 -6z"/>
<path d="M6986 4494 c-19 -19 -20 -35 -3 -58 16 -22 60 -18 65 7 2 10 -3 17
-12 17 -10 0 -13 -6 -9 -16 4 -12 1 -15 -13 -12 -14 2 -19 12 -19 33 0 25 4
30 23 29 12 0 22 3 22 8 0 14 -38 9 -54 -8z"/>
<path d="M7060 4465 l0 -45 53 3 52 2 3 38 c4 41 -17 59 -42 38 -10 -8 -16 -9
-21 -1 -3 5 -15 10 -26 10 -16 0 -19 -7 -19 -45z m40 20 c0 -8 -7 -15 -15 -15
-8 0 -15 7 -15 15 0 8 7 15 15 15 8 0 15 -7 15 -15z m55 -20 c0 -16 -6 -30
-12 -32 -9 -3 -13 7 -13 32 0 25 4 35 13 33 6 -3 12 -17 12 -33z m-52 -20 c1
-5 -6 -11 -15 -13 -11 -2 -18 3 -18 13 0 17 30 18 33 0z"/>
<path d="M7209 4500 c19 -8 21 -13 11 -25 -9 -10 -9 -15 -1 -15 19 0 12 -20
-11 -30 -23 -10 -23 -10 2 -7 22 2 25 7 25 42 0 35 -3 40 -25 42 l-25 3 24
-10z"/>
<path d="M7304 4497 c-3 -9 -4 -28 -2 -44 2 -20 8 -28 23 -28 17 0 20 7 20 40
0 30 -4 41 -18 43 -9 2 -20 -3 -23 -11z m31 -32 c0 -16 -6 -30 -12 -32 -9 -3
-13 7 -13 32 0 25 4 35 13 33 6 -3 12 -17 12 -33z"/>
<path d="M7381 4488 c-4 -13 -12 -34 -16 -48 -6 -20 -5 -23 6 -12 16 14 49 16
49 2 0 -17 27 -11 35 8 6 16 7 16 19 0 19 -26 30 -22 12 3 -13 19 -13 24 2 48
l16 26 -22 -19 c-19 -17 -22 -17 -28 -2 -3 9 -10 16 -15 16 -5 0 -3 -10 6 -23
13 -20 13 -26 1 -42 -12 -17 -14 -16 -25 18 -16 46 -29 55 -40 25z m22 -13 c4
-8 2 -17 -3 -20 -6 -4 -10 3 -10 14 0 25 6 27 13 6z"/>
<path d="M7514 4497 c-3 -9 -4 -28 -2 -44 2 -20 8 -28 23 -28 17 0 20 7 20 40
0 30 -4 41 -18 43 -9 2 -20 -3 -23 -11z m31 -32 c0 -16 -6 -30 -12 -32 -9 -3
-13 7 -13 32 0 25 4 35 13 33 6 -3 12 -17 12 -33z"/>
<path d="M8082 4460 c0 -14 2 -19 5 -12 2 6 2 18 0 25 -3 6 -5 1 -5 -13z"/>
<path d="M8100 4473 c0 -15 15 -29 29 -28 19 0 25 21 10 31 -9 5 -10 2 -6 -12
7 -18 6 -18 -7 -1 -14 18 -26 22 -26 10z"/>
<path d="M8164 4460 c0 -13 4 -16 10 -10 7 7 7 13 0 20 -6 6 -10 3 -10 -10z"/>
<path d="M8192 4460 c0 -14 2 -19 5 -12 2 6 2 18 0 25 -3 6 -5 1 -5 -13z"/>
<path d="M8237 4460 c-3 -11 -1 -20 4 -20 5 0 9 9 9 20 0 11 -2 20 -4 20 -2 0
-6 -9 -9 -20z"/>
<path d="M8282 4460 c0 -14 2 -19 5 -12 2 6 2 18 0 25 -3 6 -5 1 -5 -13z"/>
<path d="M8322 4460 c0 -14 2 -19 5 -12 2 6 2 18 0 25 -3 6 -5 1 -5 -13z"/>
<path d="M6878 4453 c7 -3 16 -2 19 1 4 3 -2 6 -13 5 -11 0 -14 -3 -6 -6z"/>
<path d="M7268 4453 c7 -3 16 -2 19 1 4 3 -2 6 -13 5 -11 0 -14 -3 -6 -6z"/>
<path d="M6689 4372 c5 -34 6 -35 9 -8 2 16 0 32 -5 37 -5 5 -7 -7 -4 -29z"/>
<path d="M6795 4385 c0 -13 3 -21 8 -18 4 2 7 10 7 18 0 8 -3 16 -7 18 -5 3
-8 -5 -8 -18z"/>
<path d="M6832 4398 c-7 -7 -12 -19 -11 -27 0 -10 4 -7 10 7 5 13 13 20 19 17
16 -10 12 -33 -7 -44 -13 -7 -9 -9 20 -9 20 0 37 4 37 9 0 4 -7 6 -16 2 -12
-4 -15 0 -12 18 1 13 8 24 15 24 6 0 14 3 18 7 4 3 0 5 -9 4 -8 -1 -19 -5 -22
-9 -4 -4 -12 -2 -19 3 -7 6 -16 5 -23 -2z"/>
<path d="M7216 4398 c3 -5 10 -6 15 -3 13 9 11 12 -6 12 -8 0 -12 -4 -9 -9z"/>
<path d="M7453 4396 c3 -8 2 -18 -3 -21 -5 -3 -11 3 -13 12 -3 10 -5 3 -6 -16
-1 -30 1 -32 12 -19 6 8 21 20 31 26 18 9 18 10 -4 22 -20 11 -22 10 -17 -4z"/>
<path d="M6401 4370 c-1 -34 -1 -34 15 -12 8 12 23 22 32 22 15 -1 15 -2 -1
-11 -19 -11 -14 -29 9 -29 8 0 14 10 14 24 0 17 -7 25 -25 28 -13 3 -22 2 -20
-3 3 -4 1 -10 -4 -13 -5 -4 -12 2 -14 11 -3 10 -5 2 -6 -17z"/>
<path d="M6631 4366 c0 -17 3 -25 6 -18 4 10 8 10 21 0 15 -12 16 -11 3 4 -7
10 -11 24 -8 31 3 8 -1 14 -9 14 -9 0 -14 -11 -13 -31z"/>
<path d="M6741 4371 c0 -19 0 -32 2 -30 1 2 10 14 20 26 14 16 15 23 6 29 -7
4 -10 3 -5 -4 3 -6 2 -13 -3 -16 -5 -4 -12 2 -14 11 -3 10 -5 3 -6 -16z"/>
<path d="M6951 4374 c-1 -30 1 -31 39 -31 35 0 40 2 40 23 0 16 -6 24 -17 24
-15 0 -16 -2 -3 -10 10 -6 11 -10 3 -10 -22 0 -28 4 -25 18 2 6 -2 12 -8 12
-6 0 -8 -4 -5 -10 3 -5 2 -10 -4 -10 -5 0 -12 6 -14 13 -3 6 -6 -2 -6 -19z
m29 -14 c0 -5 -4 -10 -10 -10 -5 0 -10 5 -10 10 0 6 5 10 10 10 6 0 10 -4 10
-10z"/>
<path d="M7185 4390 c-12 -19 6 -50 28 -49 21 0 21 1 -2 10 -17 7 -22 15 -18
29 6 22 2 26 -8 10z"/>
<path d="M7497 4381 c-2 -10 -1 -25 4 -32 6 -10 9 -4 9 19 0 36 -5 42 -13 13z"/>
<path d="M6480 4382 c0 -5 7 -9 15 -9 8 0 15 4 15 9 0 4 -7 8 -15 8 -8 0 -15
-4 -15 -8z"/>
<path d="M6524 4376 c-8 -22 4 -36 29 -35 20 1 20 2 -3 9 -25 8 -25 8 -2 9 14
1 22 6 20 14 -7 18 -37 21 -44 3z m33 -2 c-3 -3 -12 -4 -19 -1 -8 3 -5 6 6 6
11 1 17 -2 13 -5z"/>
<path d="M7045 4380 c-3 -6 2 -13 11 -17 16 -6 16 -7 -2 -14 -16 -6 -16 -8 -2
-8 23 -1 33 18 13 25 -13 6 -14 8 -3 15 9 6 9 9 1 9 -6 0 -15 -5 -18 -10z"/>
<path d="M7114 4375 c-8 -19 4 -35 24 -34 15 1 15 2 0 6 -10 2 -18 11 -18 18
0 7 8 16 18 18 16 4 16 5 -1 6 -10 0 -20 -6 -23 -14z"/>
<path d="M7244 4375 c-4 -9 -2 -21 4 -27 15 -15 44 -1 40 19 -4 23 -36 29 -44
8z m34 -13 c2 -7 -3 -12 -12 -12 -9 0 -16 7 -16 16 0 17 22 14 28 -4z"/>
<path d="M7304 4375 c-8 -19 4 -35 24 -34 15 1 15 2 0 6 -10 2 -18 11 -18 19
0 17 12 18 29 2 10 -11 11 -10 6 5 -9 21 -34 23 -41 2z"/>
<path d="M7360 4379 c0 -5 5 -7 10 -4 6 3 10 8 10 11 0 2 -4 4 -10 4 -5 0 -10
-5 -10 -11z"/>
<path d="M9995 4340 c3 -5 8 -10 11 -10 2 0 4 5 4 10 0 6 -5 10 -11 10 -5 0
-7 -4 -4 -10z"/>
<path d="M9990 4300 c0 -5 5 -10 11 -10 5 0 7 5 4 10 -3 6 -8 10 -11 10 -2 0
-4 -4 -4 -10z"/>
<path d="M10213 4295 c0 -8 4 -15 9 -15 4 0 8 7 8 15 0 8 -4 15 -8 15 -5 0 -9
-7 -9 -15z"/>
<path d="M8497 4231 c2 -7 -2 -21 -9 -30 -11 -14 -11 -14 3 -4 12 10 18 10 28
0 11 -10 11 -8 3 9 -8 15 -8 25 1 34 10 12 9 12 -5 2 -9 -7 -18 -9 -20 -5 -3
4 -3 2 -1 -6z"/>
<path d="M8545 4220 c0 -16 6 -32 14 -35 9 -4 11 0 7 11 -3 8 -6 24 -6 35 0
10 -3 19 -7 19 -5 0 -8 -13 -8 -30z"/>
<path d="M8631 4221 c0 -19 0 -32 2 -30 1 2 10 14 20 26 14 16 15 23 6 29 -7
4 -10 3 -5 -4 3 -6 2 -13 -3 -16 -5 -4 -12 2 -14 11 -3 10 -5 3 -6 -16z"/>
<path d="M8687 4230 c3 -11 0 -26 -6 -34 -10 -12 -9 -14 7 -10 14 4 17 12 14
35 -2 16 -8 29 -12 29 -5 0 -6 -9 -3 -20z"/>
<path d="M9961 4213 c-1 -25 3 -33 17 -33 11 0 13 3 6 8 -7 4 -14 18 -17 32
-4 21 -4 20 -6 -7z"/>
<path d="M10190 4231 c0 -5 7 -15 17 -22 15 -13 15 -12 4 9 -12 23 -21 28 -21
13z"/>
<path d="M10229 4238 c-5 -16 -3 -58 3 -58 4 0 8 14 8 30 0 17 -2 30 -5 30 -3
0 -5 -1 -6 -2z"/>
<path d="M10013 4215 c-10 -10 -9 -14 2 -19 17 -6 26 5 17 21 -5 8 -11 7 -19
-2z"/>
<path d="M5628 347 c-7 -21 6 -70 20 -73 7 -1 8 0 2 3 -12 6 -13 50 -1 55 5 2
3 8 -4 15 -10 9 -14 9 -17 0z"/>
<path d="M5928 347 c-7 -21 6 -70 20 -73 7 -1 8 0 2 3 -12 6 -13 50 -1 55 5 2
3 8 -4 15 -10 9 -14 9 -17 0z"/>
<path d="M5509 331 l24 -6 -27 -13 c-33 -15 -29 -36 7 -40 25 -3 27 0 27 32 0
33 -2 36 -27 35 -27 -1 -27 -1 -4 -8z m21 -36 c0 -8 -7 -15 -15 -15 -16 0 -20
12 -8 23 11 12 23 8 23 -8z"/>
<path d="M5553 308 c2 -28 6 -34 30 -36 25 -3 27 -1 27 32 0 20 -4 36 -10 36
-5 0 -10 -13 -10 -30 0 -19 -5 -30 -14 -30 -8 0 -17 13 -20 30 -6 30 -6 30 -3
-2z"/>
<path d="M5676 324 c-8 -22 11 -54 33 -54 22 0 34 25 26 51 -8 23 -50 25 -59
3z m47 -6 c6 -19 -3 -38 -19 -38 -8 0 -14 10 -14 25 0 26 25 35 33 13z"/>
<path d="M5752 303 c1 -37 1 -37 5 -5 3 18 10 32 18 32 8 0 15 -14 18 -32 l4
-33 1 33 c1 20 7 32 16 32 9 0 16 -13 19 -32 4 -32 4 -32 5 5 l2 37 -45 0 -45
0 2 -37z"/>
<path d="M5879 331 l24 -6 -27 -13 c-33 -15 -29 -36 7 -40 25 -3 27 0 27 32 0
33 -2 36 -27 35 -27 -1 -27 -1 -4 -8z m21 -36 c0 -8 -7 -15 -15 -15 -16 0 -20
12 -8 23 11 12 23 8 23 -8z"/>
<path d="M5977 320 c-7 -26 15 -53 39 -47 17 4 16 5 -3 6 -27 1 -31 21 -5 21
24 0 32 8 25 26 -8 21 -50 17 -56 -6z m43 0 c0 -5 -7 -10 -15 -10 -8 0 -15 5
-15 10 0 6 7 10 15 10 8 0 15 -4 15 -10z"/>
<path d="M9011 458 c1 -37 3 -46 8 -29 3 13 15 28 26 32 18 7 18 8 -3 8 -30 1
-24 23 9 32 21 6 21 7 -8 8 l-33 1 1 -52z"/>
<path d="M9173 460 c0 -31 2 -41 4 -22 6 42 33 44 33 2 0 -16 5 -30 10 -30 11
0 13 30 4 54 -3 9 -14 16 -24 16 -10 0 -21 8 -23 18 -3 9 -4 -8 -4 -38z"/>
<path d="M9083 445 c0 -22 2 -30 4 -17 2 12 2 30 0 40 -3 9 -5 -1 -4 -23z"/>
<path d="M9105 460 c-8 -26 11 -50 39 -49 20 2 20 2 -1 6 -16 3 -23 11 -23 28
0 17 7 25 23 28 19 4 19 4 -5 6 -19 1 -29 -5 -33 -19z"/>
<path d="M9253 445 c0 -22 2 -30 4 -17 2 12 2 30 0 40 -3 9 -5 -1 -4 -23z"/>
<path d="M9287 460 c-7 -26 15 -53 39 -47 17 4 16 5 -3 6 -31 1 -29 17 1 23
19 4 26 0 29 -16 3 -17 5 -15 6 6 0 15 9 31 18 37 13 7 4 9 -34 9 -42 1 -52
-3 -56 -18z m43 0 c0 -5 -7 -10 -15 -10 -8 0 -15 5 -15 10 0 6 7 10 15 10 8 0
15 -4 15 -10z"/>
<path d="M9011 178 c1 -39 3 -46 8 -28 9 34 35 37 49 5 22 -47 75 -19 56 29
-6 15 -15 16 -57 11 -39 -6 -48 -4 -45 6 2 7 15 16 29 20 21 6 21 7 -8 8 l-33
1 1 -52z m102 0 c6 -19 -3 -38 -19 -38 -8 0 -14 10 -14 25 0 26 25 35 33 13z"/>
<path d="M9153 180 c0 -30 2 -43 4 -28 2 16 2 40 0 56 -2 15 -4 2 -4 -28z"/>
<path d="M9430 221 c0 -6 6 -8 14 -5 18 7 32 -16 16 -26 -9 -5 -9 -9 -1 -14
18 -11 13 -34 -9 -39 -17 -4 -16 -4 2 -3 20 1 23 6 23 46 0 39 -3 45 -22 48
-13 2 -23 -1 -23 -7z"/>
<path d="M9517 173 c-21 -77 -14 -79 11 -4 11 34 17 61 13 61 -4 0 -15 -26
-24 -57z"/>
<path d="M9577 203 c-28 -30 -27 -43 4 -43 10 0 19 -8 21 -17 7 -33 14 18 8
55 l-5 34 -28 -29z m23 -12 c0 -12 -20 -25 -27 -18 -7 7 6 27 18 27 5 0 9 -4
9 -9z"/>
<path d="M9193 165 c0 -22 2 -30 4 -17 2 12 2 30 0 40 -3 9 -5 -1 -4 -23z"/>
<path d="M9216 184 c-8 -22 11 -54 33 -54 22 0 34 25 26 51 -8 23 -50 25 -59
3z m47 -6 c6 -19 -3 -38 -19 -38 -8 0 -14 10 -14 25 0 26 25 35 33 13z"/>
<path d="M66 7243 c-9 -25 -14 -49 -11 -51 2 -3 7 3 11 12 3 9 14 16 24 16 10
0 21 -7 24 -16 4 -9 9 -15 11 -12 7 7 -26 98 -35 98 -4 0 -15 -21 -24 -47z
m34 2 c0 -8 -4 -15 -10 -15 -5 0 -10 7 -10 15 0 8 5 15 10 15 6 0 10 -7 10
-15z"/>
<path d="M60 6349 c0 -49 1 -50 28 -47 24 3 27 7 29 43 1 41 -9 55 -39 55 -15
0 -18 -9 -18 -51z m48 23 c2 -7 -6 -12 -17 -12 -21 0 -27 11 -14 24 9 9 26 2
31 -12z m-3 -43 c0 -7 -8 -15 -17 -17 -18 -3 -25 18 -11 32 10 10 28 1 28 -15z"/>
<path d="M65 5496 c-22 -33 -5 -76 29 -76 14 0 27 4 30 8 2 4 -8 8 -22 7 -22
0 -28 5 -30 29 -4 32 13 49 42 40 12 -4 16 -2 12 5 -12 19 -45 12 -61 -13z"/>
<path d="M50 4580 c0 -46 2 -50 24 -50 22 0 56 32 56 52 0 16 -40 48 -60 48
-17 0 -20 -7 -20 -50z m60 -4 c0 -22 -16 -36 -41 -36 -10 0 -13 63 -3 73 13
12 44 -14 44 -37z"/>
<path d="M60 3700 l0 -50 33 1 c30 2 30 2 5 6 -19 3 -28 10 -28 23 0 13 9 20
28 23 l27 4 -28 2 c-34 1 -32 22 4 32 21 6 21 7 -8 8 -33 1 -33 1 -33 -49z"/>
<path d="M61 2808 c1 -37 3 -46 8 -29 3 13 15 28 26 32 18 7 18 8 -3 8 -30 1
-24 23 9 32 21 6 21 7 -8 8 l-33 1 1 -52z"/>
<path d="M55 1946 c-24 -36 -5 -76 35 -76 25 0 30 4 30 25 0 17 -5 25 -17 24
-11 0 -13 -3 -5 -6 6 -2 12 -11 12 -20 0 -25 -45 -11 -48 15 -5 31 16 54 41
46 13 -4 17 -2 13 5 -12 19 -45 12 -61 -13z"/>
<path d="M53 1040 c0 -30 2 -43 4 -27 3 21 10 27 28 27 18 0 25 -6 28 -27 2
-16 4 -3 4 27 0 30 -2 45 -4 33 -3 -16 -11 -23 -28 -23 -17 0 -25 7 -28 23 -2
12 -4 -3 -4 -33z"/>
<path d="M36 463 c-9 -25 -14 -49 -11 -51 2 -3 7 3 11 12 3 9 14 16 24 16 10
0 21 -7 24 -16 4 -9 9 -15 11 -12 7 7 -26 98 -35 98 -4 0 -15 -21 -24 -47z
m34 2 c0 -8 -4 -15 -10 -15 -5 0 -10 7 -10 15 0 8 5 15 10 15 6 0 10 -7 10
-15z"/>
<path d="M180 490 c0 -5 -7 -10 -15 -10 -10 0 -15 -10 -15 -30 0 -42 -27 -40
-33 3 l-5 32 2 -35 c1 -30 5 -35 29 -38 24 -3 27 0 28 30 l1 33 7 -29 c3 -16
12 -31 19 -32 7 -1 8 0 2 3 -12 6 -13 50 -1 55 5 2 3 9 -5 16 -8 7 -14 8 -14
2z"/>
<path d="M227 460 c-7 -26 15 -53 39 -47 17 4 16 5 -3 6 -27 1 -31 21 -5 21
24 0 32 8 25 26 -8 21 -50 17 -56 -6z m43 0 c0 -5 -7 -10 -15 -10 -8 0 -15 5
-15 10 0 6 7 10 15 10 8 0 15 -4 15 -10z"/>
<path d="M303 448 c2 -28 6 -34 30 -36 25 -3 27 -1 27 32 0 20 -4 36 -10 36
-5 0 -10 -13 -10 -30 0 -19 -5 -30 -14 -30 -8 0 -17 13 -20 30 -6 30 -6 30 -3
-2z"/>
<path d="M371 443 c1 -27 3 -31 6 -13 2 14 12 31 21 38 14 11 13 12 -6 12 -19
0 -22 -5 -21 -37z"/>
<path d="M30 180 c0 -46 2 -50 24 -50 22 0 56 32 56 52 0 16 -40 48 -60 48
-17 0 -20 -7 -20 -50z m60 -4 c0 -22 -16 -36 -41 -36 -10 0 -13 63 -3 73 13
12 44 -14 44 -37z"/>
<path d="M180 210 c0 -5 -15 -10 -32 -11 -29 -1 -30 -2 -9 -8 l24 -6 -27 -13
c-33 -15 -29 -36 7 -40 24 -3 27 0 28 30 l1 33 7 -29 c3 -16 12 -31 19 -32 7
-1 8 0 2 3 -12 6 -13 50 -1 55 5 2 3 9 -5 16 -8 7 -14 8 -14 2z m-20 -55 c0
-8 -7 -15 -15 -15 -16 0 -20 12 -8 23 11 12 23 8 23 -8z"/>
<path d="M227 180 c-7 -26 15 -53 39 -47 17 4 16 5 -3 6 -27 1 -31 21 -5 21
24 0 32 8 25 26 -8 21 -50 17 -56 -6z m43 0 c0 -5 -7 -10 -15 -10 -8 0 -15 5
-15 10 0 6 7 10 15 10 8 0 15 -4 15 -10z"/>
</g>
</svg>
