<?xml version="1.0" standalone="no"?>
<!DOCTYPE svg PUBLIC "-//W3C//DTD SVG 20010904//EN"
 "http://www.w3.org/TR/2001/REC-SVG-20010904/DTD/svg10.dtd">
<svg version="1.0" xmlns="http://www.w3.org/2000/svg"
 width="1160.000000pt" height="790.000000pt" viewBox="0 0 1160.000000 790.000000"
 preserveAspectRatio="xMidYMid meet">

<g transform="translate(0.000000,790.000000) scale(0.100000,-0.100000)"
fill="#000000" stroke="none">
<path d="M4 3950 c0 -2175 2 -3895 3 -3822 l4 132 1269 0 1269 0 4 -132 c1
-73 4 -10 5 140 l2 272 3235 0 3235 0 2 -272 c1 -150 4 -213 5 -140 l4 132
1274 0 1274 0 4 -132 c1 -73 3 1647 3 3822 0 2175 -2 3904 -3 3843 l-4 -113
-329 0 -329 0 -4 113 -3 112 -2 -112 -2 -113 -330 0 -329 0 -4 113 -3 112 -2
-112 -2 -113 -330 0 -329 0 -4 113 -3 112 -2 -112 -2 -113 -330 0 -329 0 -4
113 -3 112 -2 -112 -2 -113 -330 0 -329 0 -4 113 -3 112 -2 -112 -2 -113 -330
0 -329 0 -4 113 -3 112 -2 -112 -2 -113 -325 0 -325 0 0 110 c0 67 -4 110 -10
110 -6 0 -10 -43 -10 -110 l0 -110 -325 0 -324 0 -4 113 -3 112 -2 -112 -2
-113 -330 0 -329 0 -4 113 -3 112 -2 -112 -2 -113 -330 0 -329 0 -4 113 -3
112 -2 -112 -2 -113 -330 0 -329 0 -4 113 -3 112 -2 -112 -2 -113 -330 0 -329
0 -4 113 -3 112 -2 -112 -2 -113 -330 0 -329 0 -4 113 -3 112 -2 -112 -2 -113
-325 0 -325 0 0 110 c0 67 -4 110 -10 110 -6 0 -10 -43 -10 -110 l0 -110 -325
0 -324 0 -4 113 -3 112 -2 -112 -2 -113 -330 0 -329 0 -4 113 -3 112 -2 -112
-2 -113 -330 0 -329 0 -4 113 -3 112 -2 -112 -2 -113 -105 0 -104 0 -4 113
c-1 61 -3 -1668 -3 -3843z m216 3280 l0 -440 -105 0 -105 0 0 440 0 440 105 0
105 0 0 -440z m11370 -3120 l0 -3560 -5680 0 -5680 0 0 3560 0 3560 5680 0
5680 0 0 -3560z m-11370 2230 l0 -440 -105 0 -105 0 0 440 0 440 105 0 105 0
0 -440z m0 -890 l0 -440 -105 0 -105 0 0 440 0 440 105 0 105 0 0 -440z m0
-890 l0 -440 -105 0 -105 0 0 440 0 440 105 0 105 0 0 -440z m0 -890 l0 -440
-105 0 -105 0 0 440 0 440 105 0 105 0 0 -440z m0 -890 l0 -440 -105 0 -105 0
0 440 0 440 105 0 105 0 0 -440z m0 -900 l0 -440 -105 0 -105 0 0 440 0 440
105 0 105 0 0 -440z m0 -890 l0 -440 -105 0 -105 0 0 440 0 440 105 0 105 0 0
-440z m2330 -585 l0 -135 -1270 0 -1270 0 0 135 0 135 1270 0 1270 0 0 -135z
m9040 0 l0 -135 -1275 0 -1275 0 0 135 0 135 1275 0 1275 0 0 -135z"/>
<path d="M86 7233 c-9 -25 -14 -49 -11 -51 2 -3 7 3 11 12 3 9 14 16 24 16 10
0 21 -7 24 -16 4 -9 9 -15 11 -12 7 7 -26 98 -35 98 -4 0 -15 -21 -24 -47z
m34 2 c0 -8 -4 -15 -10 -15 -5 0 -10 7 -10 15 0 8 5 15 10 15 6 0 10 -7 10
-15z"/>
<path d="M1792 7528 c-17 -17 -15 -81 4 -104 15 -19 16 -19 8 1 -14 40 -16 73
-5 94 13 24 11 27 -7 9z"/>
<path d="M1830 7531 c0 -6 6 -8 14 -5 25 10 29 -17 7 -47 -28 -37 -27 -39 12
-38 31 2 31 2 3 6 l-28 5 22 23 c12 13 20 31 18 42 -3 19 -48 32 -48 14z"/>
<path d="M1982 7520 c-7 -12 -17 -18 -21 -15 -5 3 -8 -3 -7 -12 2 -10 13 -19
24 -21 12 -2 22 -11 23 -20 0 -15 1 -15 8 1 8 21 2 87 -8 87 -3 0 -12 -9 -19
-20z m18 -19 c0 -12 -20 -25 -27 -18 -7 7 6 27 18 27 5 0 9 -4 9 -9z"/>
<path d="M2039 7523 c14 -27 15 -80 1 -88 -5 -3 -10 -11 -10 -18 0 -26 23 13
30 52 6 34 4 43 -13 58 -19 18 -20 17 -8 -4z"/>
<path d="M2462 7528 c-17 -17 -15 -81 4 -104 15 -19 16 -19 8 1 -14 40 -16 73
-5 94 13 24 11 27 -7 9z"/>
<path d="M2500 7531 c0 -6 6 -8 14 -5 25 10 29 -17 7 -47 -28 -37 -27 -39 12
-38 31 2 31 2 3 6 l-28 5 22 23 c12 13 20 31 18 42 -3 19 -48 32 -48 14z"/>
<path d="M2620 7515 c0 -18 5 -25 20 -25 30 0 27 -40 -2 -41 -20 -1 -21 -2 -4
-6 26 -7 50 25 35 44 -6 7 -18 13 -25 13 -22 0 -16 20 9 30 21 8 21 9 -5 9
-23 1 -28 -3 -28 -24z"/>
<path d="M2709 7523 c14 -27 15 -80 1 -88 -5 -3 -10 -11 -10 -18 0 -26 23 13
30 52 6 34 4 43 -13 58 -19 18 -20 17 -8 -4z"/>
<path d="M3242 7528 c-17 -17 -15 -81 4 -104 15 -19 16 -19 8 1 -14 40 -16 73
-5 94 13 24 11 27 -7 9z"/>
<path d="M3280 7531 c0 -6 6 -8 14 -5 25 10 29 -17 7 -47 -28 -37 -27 -39 12
-38 31 2 31 2 3 6 l-28 5 22 23 c12 13 20 31 18 42 -3 19 -48 32 -48 14z"/>
<path d="M3400 7531 c0 -6 6 -8 14 -5 18 7 32 -16 16 -26 -9 -5 -9 -9 -1 -14
18 -11 13 -34 -9 -39 -17 -4 -16 -4 2 -3 20 1 23 6 23 46 0 39 -3 45 -22 48
-13 2 -23 -1 -23 -7z"/>
<path d="M3489 7523 c14 -27 15 -80 1 -88 -5 -3 -10 -11 -10 -18 0 -26 23 13
30 52 6 34 4 43 -13 58 -19 18 -20 17 -8 -4z"/>
<path d="M1918 7483 c7 -3 16 -2 19 1 4 3 -2 6 -13 5 -11 0 -14 -3 -6 -6z"/>
<path d="M2588 7483 c7 -3 16 -2 19 1 4 3 -2 6 -13 5 -11 0 -14 -3 -6 -6z"/>
<path d="M3368 7483 c7 -3 16 -2 19 1 4 3 -2 6 -13 5 -11 0 -14 -3 -6 -6z"/>
<path d="M3912 7418 c-17 -17 -15 -81 4 -104 15 -19 16 -19 8 1 -14 40 -16 73
-5 94 13 24 11 27 -7 9z"/>
<path d="M3950 7422 c0 -5 7 -9 16 -8 9 0 19 -5 22 -13 3 -10 0 -12 -14 -7
-17 6 -17 6 -1 -12 23 -25 21 -40 -3 -45 -17 -4 -16 -4 2 -3 20 1 23 6 23 46
0 39 -3 45 -22 48 -13 2 -23 -1 -23 -6z"/>
<path d="M4088 7423 c27 -5 28 -19 2 -60 -11 -18 -16 -33 -12 -33 7 0 52 83
52 95 0 3 -15 4 -32 4 -24 -1 -27 -3 -10 -6z"/>
<path d="M4159 7413 c14 -27 15 -80 1 -88 -5 -3 -10 -11 -10 -18 0 -26 23 13
30 52 6 34 4 43 -13 58 -19 18 -20 17 -8 -4z"/>
<path d="M2610 7240 l0 -160 -55 0 -55 0 0 -460 0 -460 55 0 55 0 0 -549 c0
-303 3 -552 8 -555 4 -2 6 245 4 550 l-2 554 60 0 60 0 0 460 0 460 -60 0 -60
0 3 160 c1 88 -1 160 -5 160 -5 0 -8 -72 -8 -160z m0 -205 c0 -8 5 -15 10 -15
6 0 10 7 10 15 0 11 12 15 45 15 l45 0 0 -430 0 -430 -45 0 c-33 0 -45 4 -45
15 0 8 -4 15 -10 15 -5 0 -10 -7 -10 -15 0 -11 -12 -15 -45 -15 l-45 0 0 430
0 430 45 0 c33 0 45 -4 45 -15z"/>
<path d="M2573 6753 c26 -2 68 -2 95 0 26 2 4 3 -48 3 -52 0 -74 -1 -47 -3z"/>
<path d="M4038 7373 c7 -3 16 -2 19 1 4 3 -2 6 -13 5 -11 0 -14 -3 -6 -6z"/>
<path d="M1952 7188 l-2 -108 -60 0 -60 0 0 -460 0 -460 60 0 59 0 -1 -440 c0
-243 2 -444 6 -447 3 -4 6 195 6 440 l0 447 55 0 55 0 0 460 0 460 -55 0 -54
0 -4 108 -3 107 -2 -107z m-1 -155 c1 -17 2 -17 6 0 3 13 15 17 49 17 l44 0 0
-430 0 -430 -45 0 c-36 0 -45 4 -46 18 -1 16 -2 16 -6 0 -3 -14 -15 -18 -54
-18 l-49 0 0 430 0 430 50 0 c41 0 50 -3 51 -17z"/>
<path d="M1913 6753 c26 -2 67 -2 90 0 23 2 2 3 -48 3 -49 0 -68 -1 -42 -3z"/>
<path d="M3280 7185 l0 -105 -55 0 -55 0 0 -460 0 -460 55 0 55 0 0 -555 c0
-305 3 -555 8 -555 4 0 6 250 5 555 l-2 555 60 0 59 0 0 460 0 460 -60 0 -60
0 2 105 c2 58 0 105 -4 105 -5 0 -8 -47 -8 -105z m1 -152 c1 -17 2 -17 6 0 3
13 15 17 54 17 l49 0 0 -430 0 -430 -50 0 c-41 0 -50 3 -51 18 -1 16 -2 16 -6
0 -3 -14 -15 -18 -49 -18 l-44 0 0 430 0 430 45 0 c36 0 45 -4 46 -17z"/>
<path d="M3243 6753 c26 -2 67 -2 90 0 23 2 2 3 -48 3 -49 0 -68 -1 -42 -3z"/>
<path d="M3950 7185 l0 -104 -57 -3 -58 -3 0 -455 0 -455 57 -3 58 -3 2 -385
3 -386 648 0 c356 1 647 -1 647 -3 0 -2 -18 -31 -41 -65 -54 -81 -115 -237
-130 -332 -17 -111 -7 -304 21 -393 20 -66 78 -204 90 -215 3 -3 18 -24 33
-47 l27 -43 -1040 0 -1040 0 0 -165 0 -164 -57 -3 -58 -3 0 -455 0 -455 58 -3
57 -3 0 -164 c0 -91 3 -165 8 -165 4 0 6 74 5 165 l-3 165 60 0 60 0 0 460 0
460 -59 0 -60 0 0 155 0 155 1042 0 1043 0 59 -61 c261 -265 674 -343 1003
-189 l64 30 402 0 401 0 -3 110 -3 111 488 -1 c268 0 497 0 508 0 15 0 16 3 7
12 -15 15 -17 222 -2 213 6 -4 10 12 10 39 0 25 5 46 10 46 6 0 10 16 10 35 0
31 3 35 25 35 18 0 25 5 25 20 0 16 7 20 30 20 27 0 30 3 30 30 0 27 -3 30
-30 30 -26 0 -30 4 -30 28 0 22 -7 30 -43 44 -79 32 -92 32 -126 1 -29 -25
-33 -35 -38 -100 l-6 -73 27 0 c23 0 26 -4 26 -35 0 -19 5 -35 10 -35 6 0 10
-18 10 -40 0 -22 5 -40 10 -40 6 0 10 -42 10 -105 l0 -105 -736 0 c-405 0
-734 3 -732 8 15 32 52 82 61 82 6 0 8 3 5 6 -4 3 9 38 28 78 128 269 105 603
-58 853 -61 94 -161 199 -237 250 -31 21 -58 40 -61 43 -9 10 -145 68 -188 81
-28 8 -41 17 -38 26 3 7 1 13 -3 13 -5 0 -11 -5 -13 -10 -2 -7 -20 -7 -57 0
-90 17 -266 12 -356 -9 -170 -41 -312 -120 -433 -241 l-70 -70 -650 0 -651 0
0 380 0 380 60 0 59 0 0 460 0 460 -60 0 -60 0 2 105 c2 58 0 105 -4 105 -5 0
-8 -47 -8 -105z m1 -152 c1 -17 2 -17 6 0 3 13 15 17 54 17 l49 0 0 -430 0
-430 -50 0 c-41 0 -50 3 -51 18 -1 16 -2 16 -6 0 -3 -14 -15 -18 -49 -18 l-44
0 0 430 0 430 45 0 c36 0 45 -4 46 -17z m2166 -1324 c40 -7 63 -16 63 -24 0
-11 -7 -11 -37 -2 -21 6 -102 11 -183 11 -128 0 -155 -3 -233 -27 -146 -45
-266 -115 -368 -214 -32 -31 -62 -54 -69 -51 -21 7 143 151 225 197 86 50 211
97 289 110 75 13 240 13 313 0z m26 -39 l37 -11 0 -189 c0 -104 3 -191 8 -193
4 -3 6 82 5 188 l-2 194 32 -11 c164 -54 311 -157 412 -288 43 -56 105 -159
109 -182 1 -7 9 -29 18 -49 52 -120 66 -349 29 -492 -27 -103 -64 -186 -121
-272 -55 -84 -88 -98 -82 -37 3 33 0 42 -23 61 -35 26 -55 27 -89 0 -31 -25
-34 -66 -7 -100 16 -20 27 -23 70 -21 28 1 51 -2 51 -7 0 -5 -33 -37 -72 -71
-87 -73 -241 -152 -353 -180 -145 -38 -373 -25 -494 28 -20 9 -42 17 -49 18
-43 8 -207 121 -266 183 l-30 31 28 0 c18 0 36 -10 53 -30 45 -54 123 -28 123
40 0 68 -78 94 -123 40 -20 -24 -34 -30 -64 -30 -36 0 -41 4 -80 63 -124 184
-180 434 -140 622 30 139 44 185 58 185 6 0 7 5 4 10 -7 12 41 102 92 173 31
41 39 47 71 47 30 0 40 -5 54 -30 37 -65 123 -40 123 35 0 75 -87 98 -124 34
-12 -22 -23 -29 -46 -29 -30 1 -29 2 37 65 70 67 214 159 235 150 7 -2 13 0
13 5 0 11 77 37 166 55 78 16 274 13 337 -5z m133 -5 c263 -99 471 -332 546
-610 31 -116 30 -317 -1 -435 -37 -141 -139 -330 -177 -330 -12 0 -8 9 14 38
66 83 117 196 148 327 25 103 22 286 -5 390 -73 274 -273 500 -528 597 -46 17
-83 35 -83 40 0 13 15 10 86 -17z m-764 -239 c13 -19 9 -24 -12 -19 -11 3 -20
12 -20 19 0 8 -9 14 -20 14 -11 0 -20 -6 -20 -14 0 -7 -9 -16 -20 -19 -11 -3
-20 -2 -20 2 0 10 31 37 50 43 16 6 51 -9 62 -26z m-222 -41 c0 -3 -17 -31
-39 -63 -59 -87 -110 -199 -127 -277 -57 -273 -8 -508 152 -732 13 -19 14 -23
2 -23 -21 0 -98 123 -135 215 -50 127 -67 228 -60 375 4 95 12 145 32 210 38
121 137 300 166 300 5 0 9 -2 9 -5z m153 -26 c3 -10 10 -19 17 -19 7 0 14 9
17 19 5 19 43 37 43 20 0 -13 -38 -49 -51 -49 -25 0 -68 33 -69 52 0 15 39 -5
43 -23z m2771 -542 c17 -12 12 -15 -45 -31 -34 -10 -69 -20 -76 -23 -20 -8
-15 25 7 47 23 23 86 27 114 7z m42 -87 l-1 -70 -93 0 -93 0 3 42 3 42 85 28
c47 15 88 27 91 28 4 0 6 -31 5 -70z m47 3 c-7 -2 -19 -2 -25 0 -7 3 -2 5 12
5 14 0 19 -2 13 -5z m7 -23 c0 -5 -9 -10 -20 -10 -11 0 -20 5 -20 10 0 6 9 10
20 10 11 0 20 -4 20 -10z m-100 -90 c0 -29 -2 -30 -45 -30 -43 0 -45 1 -45 30
0 29 2 30 45 30 43 0 45 -1 45 -30z m-30 -44 c0 -2 -9 -6 -20 -9 -11 -3 -20
-1 -20 4 0 5 9 9 20 9 11 0 20 -2 20 -4z m10 -25 c0 -10 -42 -23 -49 -15 -7 6
20 24 37 24 6 0 12 -4 12 -9z m0 -31 c0 -5 -4 -10 -10 -10 -5 0 -10 5 -10 10
0 6 5 10 10 10 6 0 10 -4 10 -10z m-23 -177 c-2 -32 -3 -8 -3 52 0 61 1 87 3
58 2 -29 2 -78 0 -110z m-1599 29 c13 -17 15 -41 6 -66 -8 -20 -34 -21 -34 -1
0 8 7 15 15 15 8 0 15 7 15 15 0 8 -6 15 -14 15 -7 0 -16 9 -19 20 -3 11 -10
20 -17 20 -7 0 -14 -9 -17 -20 -3 -11 -12 -20 -19 -20 -8 0 -14 -7 -14 -15 0
-8 7 -15 15 -15 8 0 15 -9 15 -20 0 -25 -27 -16 -36 12 -21 66 61 114 104 60z
m-1066 -49 c37 -33 11 -103 -39 -103 -22 0 -70 37 -60 46 8 9 37 -8 37 -22 0
-8 9 -14 20 -14 11 0 20 7 20 15 0 8 7 15 15 15 8 0 15 9 15 20 0 11 -7 20
-15 20 -8 0 -15 7 -15 15 0 8 -9 15 -20 15 -11 0 -20 -6 -20 -14 0 -7 -9 -16
-20 -19 -16 -4 -18 -2 -10 13 18 33 63 39 92 13z m1041 10 c-13 -2 -33 -2 -45
0 -13 2 -3 4 22 4 25 0 35 -2 23 -4z m-1176 -118 c30 -30 56 -55 59 -55 2 0
26 -16 52 -35 217 -155 527 -193 790 -95 77 29 110 24 45 -6 -108 -49 -207
-68 -353 -67 -165 0 -250 20 -395 93 -130 65 -315 220 -263 220 6 0 35 -25 65
-55z m1813 -50 l0 -105 -380 0 c-209 0 -380 1 -380 3 0 2 21 18 48 34 59 39
172 141 172 156 0 6 -24 -12 -53 -41 -29 -29 -56 -49 -60 -45 -4 4 14 28 39
54 l47 48 284 1 283 0 0 -105z m-656 -4 c6 -9 -58 -58 -111 -85 -56 -28 -71
-17 -18 14 28 16 64 41 80 54 33 28 41 30 49 17z m-3353 -248 c1 -17 2 -17 6
0 3 13 15 17 54 17 l49 0 0 -430 0 -430 -50 0 c-41 0 -50 3 -51 18 -1 16 -2
16 -6 0 -3 -14 -15 -18 -49 -18 l-44 0 0 430 0 430 45 0 c36 0 45 -4 46 -17z"/>
<path d="M3895 6754 c72 -8 153 -8 148 -1 -2 4 -43 6 -91 5 -48 0 -73 -3 -57
-4z"/>
<path d="M5884 5586 c-29 -29 -34 -41 -34 -79 0 -55 31 -98 83 -114 29 -9 43
-7 75 7 120 54 79 220 -54 220 -28 0 -44 -8 -70 -34z m148 -5 c28 -25 33 -36
33 -74 0 -34 -6 -52 -24 -71 -47 -50 -137 -42 -166 15 -57 109 67 211 157 130z"/>
<path d="M5515 5496 c0 -13 3 -22 8 -19 4 2 7 13 7 24 0 10 -3 19 -7 19 -5 0
-8 -11 -8 -24z"/>
<path d="M5491 5494 c0 -11 3 -14 6 -6 3 7 2 16 -1 19 -3 4 -6 -2 -5 -13z"/>
<path d="M5591 5190 c-2 -69 -2 -151 -1 -184 1 -40 -1 -56 -9 -52 -8 5 -11
-28 -11 -113 0 -72 4 -121 10 -121 6 0 11 -62 13 -152 l3 -153 2 153 c2 137 4
152 20 152 15 0 17 12 17 115 0 102 -2 115 -17 115 -16 0 -18 17 -21 183 -2
165 -3 170 -6 57z m27 -355 c-2 -94 -5 -105 -21 -105 -17 0 -18 9 -15 105 3
93 5 105 21 105 16 0 18 -10 15 -105z"/>
<path d="M5592 4865 c0 -11 4 -31 8 -45 6 -20 8 -21 8 -5 0 11 -4 31 -8 45 -6
20 -8 21 -8 5z"/>
<path d="M5461 5150 c-6 -149 -6 -149 22 -178 l27 -28 -26 -77 -26 -77 -56 -1
-57 -2 60 -7 c33 -3 60 -6 61 -6 0 1 14 40 31 88 l30 87 -28 27 c-27 26 -28
31 -32 143 -3 111 -3 112 -6 31z"/>
<path d="M5230 5208 c0 -22 26 -23 46 -3 14 13 14 15 1 15 -9 0 -18 -6 -20
-12 -4 -10 -8 -9 -16 2 -9 13 -11 13 -11 -2z"/>
<path d="M5490 5138 c0 -13 8 -18 29 -18 17 0 32 4 35 9 3 4 -7 7 -22 5 -14
-1 -30 3 -34 9 -5 8 -8 6 -8 -5z"/>
<path d="M5202 5123 c-7 -3 -19 -18 -27 -34 -14 -26 -14 -32 -1 -58 25 -47 79
-56 114 -18 54 57 -11 141 -86 110z m78 -23 c11 -11 20 -25 20 -30 0 -6 -8 -5
-20 2 -11 7 -20 18 -20 25 0 7 -9 13 -20 13 -11 0 -20 -7 -20 -15 0 -8 -7 -15
-15 -15 -8 0 -15 -6 -16 -12 0 -10 -2 -10 -6 0 -7 19 26 52 54 52 12 0 32 -9
43 -20z m-60 -76 c0 -8 9 -14 20 -14 11 0 20 6 20 14 0 14 29 31 37 22 9 -9
-38 -46 -59 -46 -21 0 -58 26 -58 41 0 4 9 5 20 2 11 -3 20 -12 20 -19z"/>
<path d="M5380 5060 c0 -5 5 -10 10 -10 6 0 10 5 10 10 0 6 -4 10 -10 10 -5 0
-10 -4 -10 -10z"/>
<path d="M5415 5060 c-3 -5 -1 -10 4 -10 6 0 11 5 11 10 0 6 -2 10 -4 10 -3 0
-8 -4 -11 -10z"/>
<path d="M5480 5060 c0 -5 5 -10 10 -10 6 0 10 5 10 10 0 6 -4 10 -10 10 -5 0
-10 -4 -10 -10z"/>
<path d="M5890 4991 c-19 -10 -47 -34 -63 -53 -76 -94 -23 -239 98 -266 123
-26 230 79 203 202 -24 108 -144 168 -238 117z m127 -2 c31 -11 73 -52 91 -86
15 -28 15 -108 1 -136 -15 -28 -48 -61 -76 -76 -28 -14 -108 -14 -136 1 -57
30 -97 90 -97 146 1 39 37 115 51 106 8 -4 9 -3 5 5 -5 7 8 18 36 31 49 22 84
25 125 9z"/>
<path d="M5884 4916 c-29 -29 -34 -41 -34 -79 0 -104 120 -154 194 -81 73 74
23 194 -81 194 -38 0 -50 -5 -79 -34z m145 -2 c58 -48 47 -135 -20 -170 -69
-35 -149 18 -149 98 0 87 100 130 169 72z"/>
<path d="M5380 4750 c0 -19 5 -24 23 -25 21 -2 21 -3 -3 18 -11 9 -20 12 -20
7z"/>
<path d="M6128 4714 c-87 -47 -69 -182 27 -210 90 -25 166 51 141 141 -20 71
-103 105 -168 69z m130 -39 c72 -84 -44 -203 -131 -135 -50 39 -43 125 12 155
36 21 91 12 119 -20z"/>
<path d="M5197 4670 c-37 -29 -37 -80 -1 -109 35 -27 59 -26 89 4 63 63 -18
160 -88 105z m86 -18 c9 -8 17 -22 16 -31 0 -10 -2 -12 -6 -3 -2 6 -11 12 -19
12 -8 0 -14 7 -14 15 0 8 -9 15 -20 15 -11 0 -20 -7 -20 -15 0 -8 -6 -15 -14
-15 -8 0 -17 -6 -19 -12 -4 -9 -6 -8 -6 2 -1 20 9 34 33 47 22 12 42 8 69 -15z
m-60 -72 c3 -11 10 -20 17 -20 7 0 14 9 17 20 3 11 14 20 24 20 25 0 14 -24
-18 -39 -31 -14 -59 -6 -73 20 -9 16 -7 19 8 19 11 0 22 -9 25 -20z"/>
<path d="M5390 4615 c0 -8 29 -12 39 -5 9 5 4 8 -13 8 -14 0 -26 -2 -26 -3z"/>
<path d="M5520 4609 c0 -5 5 -7 10 -4 6 3 10 8 10 11 0 2 -4 4 -10 4 -5 0 -10
-5 -10 -11z"/>
<path d="M5250 4486 c0 -8 -6 -17 -12 -19 -7 -3 2 -6 20 -6 34 -1 40 7 20 27
-16 16 -28 15 -28 -2z m25 -6 c3 -5 1 -10 -4 -10 -6 0 -11 5 -11 10 0 6 2 10
4 10 3 0 8 -4 11 -10z"/>
<path d="M6448 4451 c9 -16 20 -27 24 -25 5 3 1 12 -7 20 -8 9 -15 20 -15 25
0 5 -4 9 -10 9 -5 0 -2 -13 8 -29z"/>
<path d="M6593 4404 c0 -7 6 -15 12 -18 6 -2 12 2 12 10 0 7 -6 15 -12 18 -6
2 -12 -2 -12 -10z"/>
<path d="M6206 4327 c-16 -12 -16 -13 3 -13 12 0 21 6 21 13 0 7 -1 13 -3 13
-2 0 -11 -6 -21 -13z"/>
<path d="M6213 4290 c2 -8 12 -16 23 -17 13 -2 15 -1 4 4 -8 3 -19 11 -23 17
-6 7 -7 6 -4 -4z"/>
<path d="M5933 4278 c-105 -28 -111 -184 -7 -218 44 -15 81 -6 116 27 85 81 5
222 -109 191z m93 -26 c65 -52 53 -147 -23 -178 -46 -20 -86 -10 -118 28 -58
69 -13 168 77 168 26 0 52 -7 64 -18z"/>
<path d="M6250 4220 c-26 -26 -26 -81 -2 -103 26 -24 77 -21 102 5 27 29 25
64 -5 93 -29 30 -68 32 -95 5z m90 -10 c24 -24 25 -48 4 -78 -19 -28 -44 -29
-37 -2 3 11 14 20 24 20 25 0 24 30 -1 37 -11 3 -20 12 -20 19 0 8 -7 14 -15
14 -8 0 -15 -7 -15 -15 0 -8 -7 -15 -15 -15 -8 0 -15 -9 -15 -20 0 -11 6 -20
14 -20 7 0 16 -9 19 -20 6 -24 -6 -26 -27 -4 -35 34 -8 104 41 104 12 0 32 -9
43 -20z m-47 -47 c-7 -2 -19 -2 -25 0 -7 3 -2 5 12 5 14 0 19 -2 13 -5z"/>
<path d="M5510 4198 c0 -13 8 -18 29 -18 17 0 32 4 35 9 3 4 -7 7 -22 5 -14
-1 -30 3 -34 9 -5 8 -8 6 -8 -5z"/>
<path d="M3264 3500 c0 -74 1 -105 3 -67 2 37 2 97 0 135 -2 37 -3 6 -3 -68z"/>
<path d="M998 7243 l-58 -4 0 -64 c0 -37 4 -65 10 -65 6 0 10 24 10 54 0 48 3
54 23 60 12 3 33 3 45 -1 19 -5 22 -12 22 -59 0 -30 5 -54 10 -54 6 0 10 24
10 54 0 48 3 54 23 60 12 3 33 3 45 -1 19 -5 22 -12 22 -59 0 -30 5 -54 10
-54 6 0 10 28 10 65 l0 65 -49 0 c-27 0 -55 1 -63 3 -7 2 -39 1 -70 0z"/>
<path d="M940 6845 l0 -105 -165 0 -165 0 0 -110 0 -110 -60 0 -60 0 0 -455 0
-454 58 -3 57 -3 3 -296 2 -296 -32 -7 c-69 -14 -137 -98 -138 -170 0 -41 36
-112 69 -135 15 -11 42 -23 61 -28 l35 -9 3 -352 2 -352 -60 0 -60 0 0 -460 0
-460 60 0 60 0 3 -222 2 -223 3 223 2 222 60 0 60 0 -2 458 -3 457 -57 3 -58
3 0 353 0 353 39 7 c47 7 105 66 120 123 25 92 -35 187 -131 208 l-28 7 0 299
0 299 60 0 60 0 0 455 0 455 -60 0 -60 0 0 105 0 105 168 -3 167 -2 0 113 c0
61 -3 112 -7 112 -5 0 -8 -47 -8 -105z m-329 -367 l2 -23 4 23 c4 19 11 22 49
22 l44 0 0 -435 0 -435 -45 0 c-40 0 -45 3 -46 23 l-2 22 -4 -22 c-4 -20 -11
-23 -54 -23 l-49 0 0 428 c0 236 3 432 7 435 3 4 26 7 50 7 38 0 43 -3 44 -22z
m1 -1520 l1 -43 4 43 c2 23 9 42 14 42 22 0 76 -29 98 -54 l24 -26 -33 -112
c-18 -62 -38 -116 -44 -120 -21 -15 -56 -9 -57 10 -1 16 -2 16 -6 0 -5 -19
-38 -24 -61 -10 -7 5 -26 56 -44 115 -37 125 -33 142 34 176 61 30 68 28 70
-21z m-93 -237 c1 -10 -7 -7 -24 9 -31 30 -49 92 -39 139 7 36 7 35 35 -49 15
-47 28 -91 28 -99z m241 49 c-13 -31 -67 -87 -57 -59 3 9 15 50 27 90 12 41
25 79 29 84 11 18 12 -87 1 -115z m-149 -857 c1 -17 2 -17 6 0 3 13 15 17 49
17 l44 0 0 -430 0 -430 -45 0 c-36 0 -45 4 -46 18 -1 16 -2 16 -6 0 -3 -14
-15 -18 -54 -18 l-49 0 0 430 0 430 50 0 c41 0 50 -3 51 -17z"/>
<path d="M524 6065 c0 -77 2 -107 3 -67 2 40 2 103 0 140 -2 37 -3 4 -3 -73z"/>
<path d="M534 4906 c-7 -19 11 -53 36 -66 14 -8 18 -17 14 -43 -4 -21 0 -39
10 -52 16 -20 16 -20 37 4 14 17 18 32 14 50 -5 18 0 29 19 45 33 27 39 70 10
74 -11 2 -28 -6 -38 -17 -19 -20 -19 -20 -44 -1 -29 24 -51 26 -58 6z m56 -18
c21 -22 27 -48 11 -48 -16 0 -61 41 -61 56 0 21 26 17 50 -8z m90 3 c0 -18
-34 -51 -52 -51 -15 0 -8 30 12 50 25 25 40 25 40 1z m-50 -80 c7 -14 7 -28 0
-46 -9 -23 -13 -25 -25 -15 -16 13 -19 38 -9 64 8 21 21 20 34 -3z"/>
<path d="M524 3500 c0 -74 1 -105 3 -67 2 37 2 97 0 135 -2 37 -3 6 -3 -68z"/>
<path d="M1050 6841 c0 -61 3 -112 8 -114 4 -3 7 46 7 109 0 63 -3 114 -7 114
-5 0 -8 -49 -8 -109z"/>
<path d="M1172 6848 c-1 -60 -3 -111 -4 -114 -2 -4 48 -6 110 -5 l112 1 0
-105 0 -105 -60 0 -60 0 0 -455 0 -455 60 0 60 0 0 -299 0 -299 -32 -7 c-71
-15 -137 -96 -138 -169 0 -41 36 -112 69 -135 15 -11 42 -23 61 -28 l35 -9 3
-352 2 -352 -60 0 -60 0 0 -460 0 -460 60 0 60 0 3 -167 3 -168 2 168 2 167
60 0 60 0 -2 458 -3 457 -57 3 -58 3 0 353 0 353 38 7 c69 11 126 87 125 167
-1 79 -45 137 -124 161 l-39 11 0 299 0 298 60 0 60 0 0 455 0 455 -60 0 -60
0 0 110 0 110 -110 0 -109 0 -4 108 -3 107 -2 -107z m219 -370 l2 -23 4 23 c4
19 11 22 49 22 l44 0 0 -435 0 -435 -45 0 c-40 0 -45 3 -46 23 l-2 22 -4 -22
c-4 -20 -11 -23 -54 -23 l-49 0 0 428 c0 236 3 432 7 435 3 4 26 7 50 7 38 0
43 -3 44 -22z m1 -1520 l1 -43 4 43 c2 23 9 42 14 42 22 0 76 -29 98 -54 l24
-26 -33 -112 c-18 -62 -38 -116 -44 -120 -21 -15 -56 -9 -57 10 -1 16 -2 16
-6 0 -5 -19 -38 -24 -61 -10 -7 5 -26 56 -44 115 -37 125 -33 142 34 176 61
30 68 28 70 -21z m-117 -148 c31 -104 31 -109 0 -80 -31 29 -48 88 -39 136 3
19 8 33 10 31 2 -2 15 -41 29 -87z m265 -40 c-13 -31 -67 -87 -57 -59 3 9 15
50 27 90 12 41 25 79 29 84 11 18 12 -87 1 -115z m-149 -857 c1 -17 2 -17 6 0
3 13 15 17 49 17 l44 0 0 -430 0 -430 -45 0 c-36 0 -45 4 -46 18 -1 16 -2 16
-6 0 -3 -14 -15 -18 -54 -18 l-49 0 0 430 0 430 50 0 c41 0 50 -3 51 -17z"/>
<path d="M1304 6065 c0 -77 2 -107 3 -67 2 40 2 103 0 140 -2 37 -3 4 -3 -73z"/>
<path d="M1314 4906 c-7 -19 11 -53 36 -66 14 -8 18 -17 14 -43 -4 -21 0 -39
10 -52 16 -20 16 -20 37 4 14 17 18 32 14 50 -5 18 0 29 19 45 33 27 39 70 10
74 -11 2 -28 -6 -38 -17 -19 -20 -19 -20 -44 -1 -29 24 -51 26 -58 6z m56 -18
c21 -22 27 -48 11 -48 -16 0 -61 41 -61 56 0 21 26 17 50 -8z m90 3 c0 -21
-38 -54 -52 -45 -13 8 -9 23 12 44 25 25 40 25 40 1z m-50 -80 c7 -14 7 -28 0
-46 -9 -23 -13 -25 -25 -15 -16 13 -19 38 -9 64 8 21 21 20 34 -3z"/>
<path d="M1304 3500 c0 -74 1 -105 3 -67 2 37 2 97 0 135 -2 37 -3 6 -3 -68z"/>
<path d="M902 6638 c-17 -17 -15 -81 4 -104 15 -19 16 -19 8 1 -14 40 -16 73
-5 94 13 24 11 27 -7 9z"/>
<path d="M940 6642 c0 -5 7 -9 16 -8 9 0 19 -5 22 -13 3 -10 0 -12 -14 -7 -17
6 -17 6 -1 -12 23 -25 21 -40 -3 -45 -17 -4 -16 -4 2 -3 20 1 23 6 23 46 0 39
-3 45 -22 48 -13 2 -23 -1 -23 -6z"/>
<path d="M1075 6625 c-11 -13 -29 -26 -40 -28 -12 -2 -4 -7 23 -12 28 -5 42
-13 43 -24 0 -13 2 -13 8 2 8 21 2 87 -8 87 -3 -1 -15 -12 -26 -25z m25 -14
c0 -12 -20 -25 -27 -18 -7 7 6 27 18 27 5 0 9 -4 9 -9z"/>
<path d="M1149 6633 c14 -27 15 -80 1 -88 -5 -3 -10 -11 -10 -18 0 -26 23 13
30 52 6 34 4 43 -13 58 -19 18 -20 17 -8 -4z"/>
<path d="M6345 5729 c-36 -3 11 -6 118 -7 117 -1 177 2 177 8 0 11 -178 10
-295 -1z"/>
<path d="M1890 5284 c0 -5 13 -61 30 -124 l29 -115 1 -542 0 -543 -60 0 -60 0
0 -460 0 -460 60 0 60 0 3 -167 3 -168 2 168 2 167 55 0 55 0 0 460 0 460 -55
0 -55 0 0 548 0 547 -29 113 c-26 101 -41 144 -41 116z m61 -1371 c1 -17 2
-17 6 0 3 13 15 17 49 17 l44 0 0 -430 0 -430 -45 0 c-36 0 -45 4 -46 18 -1
16 -2 16 -6 0 -3 -14 -15 -18 -54 -18 l-49 0 0 430 0 430 50 0 c41 0 50 -3 51
-17z"/>
<path d="M1848 5113 c7 -3 16 -2 19 1 4 3 -2 6 -13 5 -11 0 -14 -3 -6 -6z"/>
<path d="M2560 5059 c0 -8 11 -58 25 -112 25 -97 25 -101 25 -542 l0 -445 -55
0 -55 0 0 -460 0 -460 55 0 55 0 0 -159 c0 -96 4 -162 10 -166 7 -4 10 52 10
159 l0 166 55 0 55 0 0 460 0 460 -55 0 -55 0 0 431 0 430 -31 122 c-29 117
-39 146 -39 116z m50 -1144 c0 -8 5 -15 10 -15 6 0 10 7 10 15 0 11 12 15 45
15 l45 0 0 -430 0 -430 -45 0 c-33 0 -45 4 -45 15 0 8 -4 15 -10 15 -5 0 -10
-7 -10 -15 0 -11 -12 -15 -45 -15 l-45 0 0 430 0 430 45 0 c33 0 45 -4 45 -15z"/>
<path d="M2518 5003 c7 -3 16 -2 19 1 4 3 -2 6 -13 5 -11 0 -14 -3 -6 -6z"/>
<path d="M1792 2628 c-17 -17 -15 -81 4 -104 15 -19 16 -19 8 1 -14 40 -16 73
-5 94 13 24 11 27 -7 9z"/>
<path d="M1830 2632 c0 -5 7 -9 16 -8 9 0 19 -5 22 -13 3 -10 0 -12 -14 -7
-17 6 -17 6 -1 -12 23 -25 21 -40 -3 -45 -17 -4 -16 -4 2 -3 20 1 23 6 23 46
0 39 -3 45 -22 48 -13 2 -23 -1 -23 -6z"/>
<path d="M1960 2631 c0 -6 6 -8 14 -5 18 7 32 -16 16 -26 -9 -5 -9 -9 -1 -14
18 -11 13 -34 -9 -39 -17 -4 -16 -4 2 -3 20 1 23 6 23 46 0 39 -3 45 -22 48
-13 2 -23 -1 -23 -7z"/>
<path d="M2039 2623 c14 -27 15 -80 1 -88 -5 -3 -10 -11 -10 -18 0 -26 23 13
30 52 6 34 4 43 -13 58 -19 18 -20 17 -8 -4z"/>
<path d="M2462 2628 c-17 -17 -15 -81 4 -104 15 -19 16 -19 8 1 -14 40 -16 73
-5 94 13 24 11 27 -7 9z"/>
<path d="M2500 2632 c0 -5 7 -9 16 -8 9 0 19 -5 22 -13 3 -10 0 -12 -14 -7
-17 6 -17 6 -1 -12 23 -25 21 -40 -3 -45 -17 -4 -16 -4 2 -3 20 1 23 6 23 46
0 39 -3 45 -22 48 -13 2 -23 -1 -23 -6z"/>
<path d="M2620 2631 c0 -6 6 -8 14 -5 18 7 32 -16 16 -26 -9 -5 -9 -9 -1 -14
18 -11 13 -34 -9 -39 -17 -4 -16 -4 2 -3 20 1 23 6 23 46 0 39 -3 45 -22 48
-13 2 -23 -1 -23 -7z"/>
<path d="M2709 2623 c14 -27 15 -80 1 -88 -5 -3 -10 -11 -10 -18 0 -26 23 13
30 52 6 34 4 43 -13 58 -19 18 -20 17 -8 -4z"/>
<path d="M1918 2583 c7 -3 16 -2 19 1 4 3 -2 6 -13 5 -11 0 -14 -3 -6 -6z"/>
<path d="M2588 2583 c7 -3 16 -2 19 1 4 3 -2 6 -13 5 -11 0 -14 -3 -6 -6z"/>
<path d="M452 2518 c-17 -17 -15 -81 4 -104 15 -19 16 -19 8 1 -14 40 -16 73
-5 94 13 24 11 27 -7 9z"/>
<path d="M500 2521 c0 -6 6 -8 14 -5 25 10 29 -17 7 -47 -28 -37 -27 -39 12
-38 31 2 31 2 3 6 l-28 5 22 23 c12 13 20 31 18 42 -3 19 -48 32 -48 14z"/>
<path d="M620 2521 c0 -6 6 -8 14 -5 25 10 29 -17 7 -47 -28 -37 -27 -39 12
-38 31 2 31 2 3 6 l-28 5 22 23 c12 13 20 31 18 42 -3 19 -48 32 -48 14z"/>
<path d="M709 2513 c14 -27 15 -80 1 -88 -5 -3 -10 -11 -10 -18 0 -26 23 13
30 52 6 34 4 43 -13 58 -19 18 -20 17 -8 -4z"/>
<path d="M3012 2518 c-17 -17 -15 -81 4 -104 15 -19 16 -19 8 1 -14 40 -16 73
-5 94 13 24 11 27 -7 9z"/>
<path d="M3060 2521 c0 -6 6 -8 14 -5 25 10 29 -17 7 -47 -28 -37 -27 -39 12
-38 31 2 31 2 3 6 l-28 5 22 23 c12 13 20 31 18 42 -3 19 -48 32 -48 14z"/>
<path d="M3180 2521 c0 -6 6 -8 14 -5 18 7 32 -16 16 -26 -9 -5 -9 -9 -1 -14
18 -11 13 -34 -9 -39 -17 -4 -16 -4 2 -3 20 1 23 6 23 46 0 39 -3 45 -22 48
-13 2 -23 -1 -23 -7z"/>
<path d="M3269 2513 c14 -27 15 -80 1 -88 -5 -3 -10 -11 -10 -18 0 -26 23 13
30 52 6 34 4 43 -13 58 -19 18 -20 17 -8 -4z"/>
<path d="M578 2473 c7 -3 16 -2 19 1 4 3 -2 6 -13 5 -11 0 -14 -3 -6 -6z"/>
<path d="M1362 2468 c-17 -17 -15 -81 4 -104 15 -19 16 -19 8 1 -14 40 -16 73
-5 94 13 24 11 27 -7 9z"/>
<path d="M1400 2472 c0 -5 7 -9 16 -8 27 2 27 -19 -1 -53 l-27 -31 39 1 c31 2
33 3 9 6 l-28 5 22 23 c26 28 23 59 -8 63 -12 2 -22 -1 -22 -6z"/>
<path d="M1543 2451 c-24 -30 -21 -41 9 -41 10 0 18 -7 19 -17 0 -17 1 -16 8
0 8 21 2 87 -8 86 -3 0 -16 -13 -28 -28z m27 -10 c0 -12 -20 -25 -27 -18 -7 7
6 27 18 27 5 0 9 -4 9 -9z"/>
<path d="M1608 2463 c15 -27 16 -80 2 -88 -5 -3 -10 -12 -10 -18 0 -7 7 -3 15
7 20 27 19 90 -2 107 -15 13 -15 12 -5 -8z"/>
<path d="M3148 2473 c7 -3 16 -2 19 1 4 3 -2 6 -13 5 -11 0 -14 -3 -6 -6z"/>
<path d="M1488 2423 c7 -3 16 -2 19 1 4 3 -2 6 -13 5 -11 0 -14 -3 -6 -6z"/>
<path d="M80 6341 c0 -47 2 -51 24 -51 28 0 51 24 40 42 -5 7 -8 22 -9 33 0
14 -8 21 -27 23 -27 3 -28 2 -28 -47z m48 21 c2 -7 -6 -12 -17 -12 -21 0 -27
11 -14 24 9 9 26 2 31 -12z m-3 -42 c0 -8 -8 -16 -17 -18 -13 -2 -18 3 -18 18
0 15 5 20 18 18 9 -2 17 -10 17 -18z"/>
<path d="M85 5476 c-22 -33 -5 -76 29 -76 14 0 27 4 30 8 2 4 -8 8 -22 7 -22
0 -28 5 -30 29 -4 32 13 49 42 40 12 -4 16 -2 12 5 -12 19 -45 12 -61 -13z"/>
<path d="M70 4560 c0 -46 2 -50 24 -50 22 0 56 32 56 52 0 16 -40 48 -60 48
-17 0 -20 -7 -20 -50z m48 28 c17 -17 15 -55 -4 -62 -28 -11 -34 -6 -34 27 0
46 14 59 38 35z"/>
<path d="M80 3670 l0 -50 33 1 c30 2 30 2 5 6 -19 3 -28 10 -28 23 0 13 9 20
28 23 l27 4 -28 2 c-34 1 -32 22 4 32 21 6 21 7 -8 8 -33 1 -33 1 -33 -49z"/>
<path d="M81 2778 c1 -38 3 -46 8 -28 4 14 17 27 31 31 25 7 24 7 -3 8 -34 1
-32 22 4 32 21 6 21 7 -8 8 l-33 1 1 -52z"/>
<path d="M75 1906 c-24 -36 -5 -76 35 -76 25 0 30 4 30 25 0 17 -5 25 -17 24
-11 0 -13 -3 -5 -6 6 -2 12 -11 12 -20 0 -25 -45 -11 -48 15 -5 31 16 54 41
46 13 -4 17 -2 13 5 -12 19 -45 12 -61 -13z"/>
<path d="M73 990 c0 -30 2 -43 4 -27 3 21 10 27 28 27 18 0 25 -6 28 -27 2
-16 4 -3 4 27 0 30 -2 45 -4 33 -3 -16 -11 -23 -28 -23 -17 0 -25 7 -28 23 -2
12 -4 -3 -4 -33z"/>
<path d="M56 413 c-9 -25 -14 -49 -11 -51 2 -3 7 3 11 12 3 9 14 16 24 16 10
0 21 -7 24 -16 4 -9 9 -15 11 -12 7 7 -26 98 -35 98 -4 0 -15 -21 -24 -47z
m34 2 c0 -8 -4 -15 -10 -15 -5 0 -10 7 -10 15 0 8 5 15 10 15 6 0 10 -7 10
-15z"/>
<path d="M208 437 c-7 -21 6 -70 20 -73 7 -1 8 0 2 3 -12 6 -13 50 -1 55 5 2
3 8 -4 15 -10 9 -14 9 -17 0z"/>
<path d="M133 398 c2 -28 6 -34 30 -36 25 -3 27 -1 27 32 0 20 -4 36 -10 36
-5 0 -10 -13 -10 -30 0 -19 -5 -30 -14 -30 -8 0 -17 13 -20 30 -6 30 -6 30 -3
-2z"/>
<path d="M247 410 c-7 -26 15 -53 39 -47 17 4 16 5 -3 6 -18 1 -23 7 -23 26 0
16 6 25 15 25 8 0 15 -4 15 -10 0 -5 4 -10 10 -10 5 0 7 7 4 15 -9 22 -51 19
-57 -5z"/>
<path d="M323 398 c2 -28 6 -34 30 -36 25 -3 27 -1 27 32 0 20 -4 36 -10 36
-5 0 -10 -13 -10 -30 0 -19 -5 -30 -14 -30 -8 0 -17 13 -20 30 -6 30 -6 30 -3
-2z"/>
<path d="M401 393 c1 -27 3 -31 6 -13 2 14 12 31 21 38 14 11 13 12 -6 12 -19
0 -22 -5 -21 -37z"/>
<path d="M9091 408 c1 -38 3 -46 8 -28 4 14 17 27 31 31 25 7 24 7 -3 8 -34 1
-32 22 4 32 21 6 21 7 -8 8 l-33 1 1 -52z"/>
<path d="M9263 410 c0 -31 2 -41 4 -22 6 42 33 44 33 2 0 -16 5 -30 11 -30 6
0 9 14 7 33 -2 24 -8 33 -25 35 -12 2 -24 11 -26 20 -3 9 -4 -8 -4 -38z"/>
<path d="M9163 395 c0 -22 2 -30 4 -17 2 12 2 30 0 40 -3 9 -5 -1 -4 -23z"/>
<path d="M9186 414 c-9 -24 12 -54 37 -53 l22 2 -22 4 c-16 3 -23 11 -23 28 0
17 7 25 23 28 20 4 19 4 -4 6 -16 0 -29 -5 -33 -15z"/>
<path d="M9333 395 c0 -22 2 -30 4 -17 2 12 2 30 0 40 -3 9 -5 -1 -4 -23z"/>
<path d="M9367 410 c-7 -26 15 -53 39 -47 17 4 16 5 -3 6 -18 1 -23 7 -23 26
0 40 41 24 53 -21 3 -14 5 -12 6 8 0 15 9 31 18 37 13 7 4 9 -34 9 -42 1 -52
-3 -56 -18z"/>
<path d="M524 7826 c-3 -8 -4 -29 -2 -48 2 -25 8 -34 25 -36 28 -4 41 37 24
74 -12 26 -39 32 -47 10z m36 -36 c0 -29 -4 -40 -15 -40 -10 0 -15 10 -15 33
0 19 3 37 7 40 15 16 23 5 23 -33z"/>
<path d="M1860 7831 c0 -6 6 -8 14 -5 25 10 29 -17 7 -47 -28 -37 -27 -39 12
-38 31 2 31 2 3 6 l-28 5 22 23 c12 13 20 31 18 42 -3 19 -48 32 -48 14z"/>
<path d="M2530 7831 c0 -6 6 -8 14 -5 18 7 32 -16 16 -26 -9 -5 -9 -9 -1 -14
18 -11 13 -34 -9 -39 -17 -4 -16 -4 2 -3 20 1 23 6 23 46 0 39 -3 45 -22 48
-13 2 -23 -1 -23 -7z"/>
<path d="M3213 7811 c-24 -30 -21 -41 9 -41 10 0 18 -7 19 -17 0 -17 1 -16 8
0 8 21 2 87 -8 86 -3 0 -16 -13 -28 -28z m27 -10 c0 -12 -20 -25 -27 -18 -7 7
6 27 18 27 5 0 9 -4 9 -9z"/>
<path d="M3870 7815 c0 -18 5 -25 20 -25 30 0 27 -40 -2 -41 -20 -1 -21 -2 -4
-6 26 -7 50 25 35 44 -6 7 -18 13 -25 13 -22 0 -16 20 9 30 21 8 21 9 -5 9
-23 1 -28 -3 -28 -24z"/>
<path d="M4551 7826 c-7 -8 -11 -30 -9 -48 2 -25 8 -34 25 -36 14 -2 23 3 28
17 8 27 -1 41 -28 41 l-22 1 24 19 c16 14 19 20 8 20 -8 0 -20 -6 -26 -14z
m29 -57 c0 -24 -23 -21 -28 4 -2 10 3 17 12 17 10 0 16 -9 16 -21z"/>
<path d="M5218 7833 c27 -5 28 -19 2 -60 -11 -18 -16 -33 -12 -33 7 0 52 83
52 95 0 3 -15 4 -32 4 -24 -1 -27 -3 -10 -6z"/>
<path d="M5875 7828 c-2 -7 -3 -29 -2 -48 2 -30 5 -35 27 -35 22 0 25 4 25 35
0 39 -11 60 -32 60 -7 0 -15 -6 -18 -12z m35 -14 c0 -17 -22 -14 -28 4 -2 7 3
12 12 12 9 0 16 -7 16 -16z m0 -50 c0 -8 -7 -14 -15 -14 -15 0 -21 21 -9 33
10 9 24 -2 24 -19z"/>
<path d="M6542 7823 c-13 -24 -4 -43 19 -43 26 0 24 -19 -3 -30 l-23 -9 23 0
c15 -1 26 8 34 24 22 48 -27 103 -50 58z m38 -19 c0 -8 -7 -14 -15 -14 -15 0
-21 21 -9 33 10 9 24 -2 24 -19z"/>
<path d="M7254 7826 c-3 -8 -4 -29 -2 -48 2 -25 8 -34 25 -36 28 -4 41 37 24
74 -12 26 -39 32 -47 10z m36 -36 c0 -29 -4 -40 -15 -40 -10 0 -15 10 -15 33
0 19 3 37 7 40 15 16 23 5 23 -33z"/>
<path d="M8590 7831 c0 -6 6 -8 14 -5 25 10 29 -17 7 -47 -28 -37 -27 -39 12
-38 31 2 31 2 3 6 l-28 5 22 23 c12 13 20 31 18 42 -3 19 -48 32 -48 14z"/>
<path d="M9260 7831 c0 -6 6 -8 14 -5 18 7 32 -16 16 -26 -9 -5 -9 -9 -1 -14
18 -11 13 -34 -9 -39 -17 -4 -16 -4 2 -3 20 1 23 6 23 46 0 39 -3 45 -22 48
-13 2 -23 -1 -23 -7z"/>
<path d="M9933 7811 c-24 -30 -21 -41 9 -41 10 0 18 -7 19 -17 0 -17 1 -16 8
0 8 21 2 87 -8 86 -3 0 -16 -13 -28 -28z m27 -10 c0 -12 -20 -25 -27 -18 -7 7
6 27 18 27 5 0 9 -4 9 -9z"/>
<path d="M10590 7815 c0 -18 5 -25 20 -25 30 0 27 -40 -2 -41 -20 -1 -21 -2
-4 -6 26 -7 50 25 35 44 -6 7 -18 13 -25 13 -22 0 -16 20 9 30 21 8 21 9 -5 9
-23 1 -28 -3 -28 -24z"/>
<path d="M11271 7826 c-7 -8 -11 -30 -9 -48 2 -25 8 -34 25 -36 14 -2 23 3 28
17 8 27 -1 41 -28 41 l-22 1 24 19 c16 14 19 20 8 20 -8 0 -20 -6 -26 -14z
m29 -57 c0 -24 -23 -21 -28 4 -2 10 3 17 12 17 10 0 16 -9 16 -21z"/>
<path d="M1207 7794 c4 -25 2 -39 -8 -45 -10 -6 -7 -9 11 -9 24 0 25 3 22 45
-3 29 -9 45 -17 45 -10 0 -12 -10 -8 -36z"/>
<path d="M7187 7794 c4 -25 2 -39 -8 -45 -10 -6 -7 -9 11 -9 24 0 25 3 22 45
-3 29 -9 45 -17 45 -10 0 -12 -10 -8 -36z"/>
<path d="M7857 7794 c4 -25 2 -39 -8 -45 -10 -6 -7 -9 11 -9 24 0 25 3 22 45
-3 29 -9 45 -17 45 -10 0 -12 -10 -8 -36z"/>
<path d="M7937 7794 c4 -25 2 -39 -8 -45 -10 -6 -7 -9 11 -9 24 0 25 3 22 45
-3 29 -9 45 -17 45 -10 0 -12 -10 -8 -36z"/>
<path d="M8527 7794 c4 -25 2 -39 -8 -45 -10 -6 -7 -9 11 -9 24 0 25 3 22 45
-3 29 -9 45 -17 45 -10 0 -12 -10 -8 -36z"/>
<path d="M9197 7794 c4 -25 2 -39 -8 -45 -10 -6 -7 -9 11 -9 24 0 25 3 22 45
-3 29 -9 45 -17 45 -10 0 -12 -10 -8 -36z"/>
<path d="M9867 7794 c4 -25 2 -39 -8 -45 -10 -6 -7 -9 11 -9 24 0 25 3 22 45
-3 29 -9 45 -17 45 -10 0 -12 -10 -8 -36z"/>
<path d="M10527 7794 c4 -25 2 -39 -8 -45 -10 -6 -7 -9 11 -9 24 0 25 3 22 45
-3 29 -9 45 -17 45 -10 0 -12 -10 -8 -36z"/>
<path d="M11197 7794 c4 -25 2 -39 -8 -45 -10 -6 -7 -9 11 -9 24 0 25 3 22 45
-3 29 -9 45 -17 45 -10 0 -12 -10 -8 -36z"/>
<path d="M5631 273 c-1 -50 0 -53 24 -53 18 0 26 7 31 24 7 31 -1 46 -26 46
-10 0 -21 8 -23 18 -3 9 -5 -7 -6 -35z m44 -18 c0 -11 -8 -21 -17 -23 -14 -3
-18 3 -18 23 0 20 4 26 18 23 9 -2 17 -12 17 -23z"/>
<path d="M5818 297 c-7 -21 6 -70 20 -73 7 -1 8 0 2 3 -12 6 -13 50 -1 55 5 2
3 8 -4 15 -10 9 -14 9 -17 0z"/>
<path d="M5706 274 c-9 -22 11 -54 34 -54 21 0 37 40 25 59 -10 17 -52 13 -59
-5z m48 -3 c9 -14 -4 -41 -20 -41 -8 0 -14 10 -14 25 0 25 23 35 34 16z"/>
<path d="M5793 255 c0 -22 2 -30 4 -17 2 12 2 30 0 40 -3 9 -5 -1 -4 -23z"/>
<path d="M5873 255 c0 -22 2 -30 4 -17 2 12 2 30 0 40 -3 9 -5 -1 -4 -23z"/>
<path d="M5897 270 c-7 -26 15 -53 39 -47 17 4 16 5 -3 6 -18 1 -23 7 -23 26
0 16 6 25 15 25 8 0 15 -4 15 -10 0 -5 4 -10 10 -10 5 0 7 7 4 15 -9 22 -51
19 -57 -5z"/>
<path d="M5971 253 c1 -27 3 -31 6 -13 2 14 12 31 21 38 14 11 13 12 -6 12
-19 0 -22 -5 -21 -37z"/>
<path d="M50 130 c0 -46 2 -50 24 -50 22 0 56 32 56 52 0 16 -40 48 -60 48
-17 0 -20 -7 -20 -50z m48 28 c17 -17 15 -55 -4 -62 -28 -11 -34 -6 -34 27 0
46 14 59 38 35z"/>
<path d="M9091 128 c1 -39 3 -46 8 -28 9 34 35 37 49 5 15 -33 49 -33 58 -1
10 40 -2 48 -58 41 -40 -6 -49 -4 -46 6 2 7 15 16 29 20 21 6 21 7 -8 8 l-33
1 1 -52z m103 3 c9 -14 -4 -41 -20 -41 -8 0 -14 10 -14 25 0 25 23 35 34 16z"/>
<path d="M9233 130 c0 -30 2 -43 4 -28 2 16 2 40 0 55 -2 16 -4 3 -4 -27z"/>
<path d="M9523 151 c-24 -30 -21 -41 9 -41 10 0 18 -7 19 -17 0 -17 1 -16 8 0
8 21 2 87 -8 86 -3 0 -16 -13 -28 -28z m27 -10 c0 -12 -20 -25 -27 -18 -7 7 6
27 18 27 5 0 9 -4 9 -9z"/>
<path d="M9598 123 c-22 -77 -15 -79 10 -4 11 34 18 61 14 61 -4 0 -15 -26
-24 -57z"/>
<path d="M9663 151 c-24 -30 -21 -41 9 -41 10 0 18 -7 19 -17 0 -17 1 -16 8 0
8 21 2 87 -8 86 -3 0 -16 -13 -28 -28z m27 -10 c0 -12 -20 -25 -27 -18 -7 7 6
27 18 27 5 0 9 -4 9 -9z"/>
<path d="M208 157 c-7 -21 6 -70 20 -73 7 -1 8 0 2 3 -12 6 -13 50 -1 55 5 2
3 8 -4 15 -10 9 -14 9 -17 0z"/>
<path d="M159 141 l24 -6 -26 -12 c-32 -15 -26 -43 9 -43 21 0 24 5 24 35 0
32 -3 35 -27 34 -27 -1 -27 -1 -4 -8z m21 -36 c0 -8 -7 -15 -15 -15 -16 0 -20
12 -8 23 11 12 23 8 23 -8z"/>
<path d="M247 130 c-7 -26 15 -53 39 -47 17 4 16 5 -3 6 -18 1 -23 7 -23 26 0
16 6 25 15 25 8 0 15 -4 15 -10 0 -5 4 -10 10 -10 5 0 7 7 4 15 -9 22 -51 19
-57 -5z"/>
<path d="M9273 115 c0 -22 2 -30 4 -17 2 12 2 30 0 40 -3 9 -5 -1 -4 -23z"/>
<path d="M9296 134 c-9 -22 11 -54 34 -54 21 0 37 40 25 59 -10 17 -52 13 -59
-5z m48 -3 c9 -14 -4 -41 -20 -41 -8 0 -14 10 -14 25 0 25 23 35 34 16z"/>
</g>
</svg>
